<svg width="455" height="494" viewBox="0 0 455 494" fill="none" xmlns="http://www.w3.org/2000/svg">
<g clip-path="url(#clip0_2003_886)">
<g opacity="0.3" filter="url(#filter0_f_2003_886)">
<path d="M314.048 125H141.394C132.247 125 124.832 132.415 124.832 141.561V352.721C124.832 361.868 132.247 369.283 141.394 369.283H314.048C323.194 369.283 330.609 361.868 330.609 352.721V141.561C330.609 132.415 323.194 125 314.048 125Z" fill="url(#paint0_linear_2003_886)"/>
</g>
<path d="M261.466 261.219C261.466 219.602 227.728 185.864 186.111 185.864C144.493 185.864 110.756 219.602 110.756 261.219C110.756 302.836 144.493 336.574 186.111 336.574C227.728 336.574 261.466 302.836 261.466 261.219Z" stroke="#50EED7" stroke-width="20.7019"/>
<path opacity="0.2" d="M275.128 146.834H275.128C227.794 146.834 189.422 185.206 189.422 232.54V232.54C189.422 279.874 227.794 318.246 275.128 318.246H275.128C322.462 318.246 360.834 279.874 360.834 232.54V232.54C360.834 185.206 322.462 146.834 275.128 146.834Z" fill="#50EED7"/>
<path d="M327.298 257.492H179.486C175.827 257.492 172.861 260.458 172.861 264.117V362.657C172.861 366.316 175.827 369.282 179.486 369.282H327.298C330.956 369.282 333.922 366.316 333.922 362.657V264.117C333.922 260.458 330.956 257.492 327.298 257.492Z" fill="url(#paint1_linear_2003_886)"/>
<path d="M327.298 257.906H179.486C176.056 257.906 173.275 260.687 173.275 264.117V362.657C173.275 366.087 176.056 368.868 179.486 368.868H327.298C330.728 368.868 333.508 366.087 333.508 362.657V264.117C333.508 260.687 330.728 257.906 327.298 257.906Z" stroke="url(#paint2_radial_2003_886)" stroke-opacity="0.5" stroke-width="0.828077"/>
<path d="M231.656 142.39H93.3668C89.7081 142.39 86.7422 145.356 86.7422 149.014V240.931C86.7422 244.59 89.7081 247.556 93.3668 247.556H231.656C235.314 247.556 238.28 244.59 238.28 240.931V149.014C238.28 145.356 235.314 142.39 231.656 142.39Z" fill="url(#paint3_linear_2003_886)"/>
<path d="M231.656 142.804H93.3668C89.9368 142.804 87.1562 145.585 87.1562 149.015V240.931C87.1562 244.361 89.9368 247.142 93.3668 247.142H231.656C235.086 247.142 237.866 244.361 237.866 240.931V149.015C237.866 145.585 235.086 142.804 231.656 142.804Z" stroke="url(#paint4_radial_2003_886)" stroke-opacity="0.5" stroke-width="0.828077"/>
<path d="M83.1843 196.287C82.4019 194.048 82.5408 191.59 83.5705 189.454C84.6002 187.318 86.4364 185.678 88.6751 184.895C90.9138 184.113 93.3716 184.252 95.5078 185.282C97.6441 186.311 99.2838 188.147 100.066 190.386L83.1843 196.287Z" fill="#50EED7"/>
<g filter="url(#filter1_diii_2003_886)">
<path d="M76.2906 177.002L104.049 200.91L69.4688 212.997L76.2906 177.002Z" fill="url(#paint5_linear_2003_886)"/>
</g>
<path d="M86.7223 195.049C86.268 193.75 86.3487 192.322 86.9466 191.082C87.5445 189.842 88.6106 188.89 89.9105 188.435C91.2104 187.981 92.6375 188.062 93.8779 188.659C95.1183 189.257 96.0704 190.323 96.5247 191.623L86.7223 195.049Z" fill="url(#paint6_linear_2003_886)"/>
<path d="M337.421 351.733C340.947 352.071 344.194 353.795 346.449 356.527C348.703 359.26 349.78 362.775 349.442 366.301C349.104 369.827 347.379 373.075 344.647 375.329C341.915 377.583 338.399 378.66 334.873 378.322L337.421 351.733Z" fill="#50EED7"/>
<g filter="url(#filter2_diii_2003_886)">
<path d="M345.088 341.734C338.83 341.134 332.591 343.028 327.744 346.998C322.898 350.968 319.84 356.69 319.245 362.905C318.649 369.119 320.565 375.318 324.569 380.136C328.573 384.954 334.339 387.998 340.598 388.598L345.088 341.734Z" fill="url(#paint7_linear_2003_886)"/>
</g>
<path d="M337.576 357.114C339.692 357.317 341.64 358.352 342.993 359.991C344.345 361.631 344.991 363.74 344.789 365.856C344.586 367.971 343.551 369.92 341.912 371.272C340.273 372.625 338.163 373.271 336.047 373.068L337.576 357.114Z" fill="url(#paint8_linear_2003_886)"/>
<path d="M332.621 143.218C337.162 143.218 341.517 145.002 344.728 148.178C347.939 151.354 349.743 155.661 349.743 160.152C349.743 164.644 347.939 168.951 344.728 172.127C341.517 175.303 337.162 177.087 332.621 177.087V143.218Z" fill="#50EED7"/>
<g filter="url(#filter3_ddii_2003_886)">
<path d="M309.908 160.498C309.908 167.006 312.504 173.247 317.124 177.849C321.744 182.45 328.01 185.036 334.543 185.036C341.077 185.036 347.343 182.45 351.963 177.849C356.583 173.247 359.179 167.006 359.179 160.498H309.908Z" fill="url(#paint9_linear_2003_886)"/>
</g>
<path d="M332.621 149.219C335.552 149.219 338.364 150.371 340.437 152.422C342.51 154.472 343.675 157.253 343.675 160.152C343.675 163.052 342.51 165.833 340.437 167.883C338.364 169.933 335.552 171.085 332.621 171.085V149.219Z" fill="url(#paint10_linear_2003_886)"/>
<path d="M204.536 214.432H130.009C126.236 214.432 123.178 217.491 123.178 221.264V221.264C123.178 225.037 126.236 228.095 130.009 228.095H204.536C208.309 228.095 211.368 225.037 211.368 221.264C211.368 217.491 208.309 214.432 204.536 214.432Z" fill="#50EED7" fill-opacity="0.2"/>
<path d="M130.009 214.432H204.536C208.309 214.432 211.368 217.491 211.368 221.264V221.264C211.368 225.037 208.309 228.095 204.536 228.095H130.009C126.236 228.095 123.178 225.037 123.178 221.264V221.264C123.178 217.491 126.236 214.432 130.009 214.432Z" stroke="#50EED7" stroke-width="0.828077"/>
<path d="M135.182 220.953H137.199V221.573H135.182V220.953ZM135.24 222.692H137.529V223.323H134.486V219.266H137.448V219.898H135.24V222.692ZM140.179 223.323V222.697L140.138 222.564V221.469C140.138 221.256 140.074 221.092 139.947 220.976C139.819 220.856 139.626 220.796 139.367 220.796C139.193 220.796 139.021 220.823 138.851 220.877C138.685 220.931 138.544 221.007 138.428 221.103L138.144 220.576C138.31 220.448 138.507 220.354 138.735 220.292C138.967 220.226 139.207 220.193 139.454 220.193C139.902 220.193 140.248 220.302 140.492 220.518C140.739 220.731 140.863 221.061 140.863 221.509V223.323H140.179ZM139.205 223.364C138.973 223.364 138.77 223.325 138.596 223.248C138.422 223.167 138.287 223.057 138.19 222.918C138.098 222.775 138.051 222.614 138.051 222.437C138.051 222.263 138.092 222.106 138.173 221.967C138.258 221.828 138.395 221.718 138.585 221.637C138.774 221.556 139.025 221.515 139.338 221.515H140.237V221.996H139.39C139.143 221.996 138.977 222.037 138.892 222.118C138.807 222.195 138.764 222.292 138.764 222.408C138.764 222.539 138.817 222.643 138.921 222.721C139.025 222.798 139.17 222.837 139.356 222.837C139.533 222.837 139.692 222.796 139.831 222.715C139.974 222.634 140.076 222.514 140.138 222.355L140.26 222.79C140.19 222.972 140.065 223.113 139.883 223.213C139.705 223.314 139.479 223.364 139.205 223.364ZM141.793 223.323V220.228H142.482V221.08L142.401 220.831C142.494 220.622 142.639 220.464 142.836 220.356C143.037 220.247 143.286 220.193 143.584 220.193V220.883C143.553 220.875 143.524 220.872 143.497 220.872C143.47 220.868 143.443 220.866 143.416 220.866C143.141 220.866 142.923 220.947 142.761 221.109C142.598 221.268 142.517 221.505 142.517 221.822V223.323H141.793ZM145.955 220.193C146.202 220.193 146.422 220.242 146.616 220.338C146.813 220.435 146.967 220.584 147.079 220.785C147.191 220.982 147.247 221.237 147.247 221.55V223.323H146.523V221.642C146.523 221.368 146.457 221.163 146.326 221.028C146.198 220.893 146.018 220.825 145.787 220.825C145.617 220.825 145.466 220.86 145.334 220.93C145.203 220.999 145.101 221.103 145.027 221.243C144.958 221.378 144.923 221.55 144.923 221.758V223.323H144.198V220.228H144.888V221.063L144.766 220.808C144.875 220.611 145.031 220.46 145.236 220.356C145.445 220.247 145.684 220.193 145.955 220.193ZM149.867 223.323V220.054C149.867 219.73 149.962 219.471 150.151 219.278C150.344 219.08 150.619 218.982 150.974 218.982C151.102 218.982 151.221 218.995 151.334 219.022C151.449 219.05 151.546 219.092 151.623 219.15L151.426 219.695C151.372 219.652 151.31 219.621 151.241 219.602C151.171 219.579 151.1 219.567 151.026 219.567C150.876 219.567 150.762 219.61 150.684 219.695C150.607 219.776 150.568 219.9 150.568 220.066V220.414L150.592 220.738V223.323H149.867ZM149.357 220.831V220.251H151.42V220.831H149.357ZM151.914 223.323V220.228H152.604V221.08L152.523 220.831C152.615 220.622 152.76 220.464 152.957 220.356C153.158 220.247 153.407 220.193 153.705 220.193V220.883C153.674 220.875 153.645 220.872 153.618 220.872C153.591 220.868 153.564 220.866 153.537 220.866C153.263 220.866 153.044 220.947 152.882 221.109C152.72 221.268 152.638 221.505 152.638 221.822V223.323H151.914ZM155.746 223.364C155.402 223.364 155.101 223.296 154.842 223.161C154.587 223.022 154.388 222.833 154.245 222.593C154.106 222.354 154.036 222.081 154.036 221.776C154.036 221.467 154.104 221.194 154.239 220.958C154.378 220.719 154.568 220.531 154.807 220.396C155.051 220.261 155.327 220.193 155.636 220.193C155.938 220.193 156.206 220.259 156.442 220.39C156.678 220.522 156.863 220.707 156.998 220.947C157.134 221.186 157.201 221.469 157.201 221.793C157.201 221.824 157.199 221.859 157.195 221.898C157.195 221.936 157.194 221.973 157.19 222.008H154.61V221.527H156.807L156.523 221.677C156.527 221.5 156.49 221.343 156.413 221.208C156.336 221.072 156.229 220.966 156.094 220.889C155.963 220.812 155.81 220.773 155.636 220.773C155.458 220.773 155.302 220.812 155.167 220.889C155.035 220.966 154.931 221.074 154.854 221.214C154.78 221.349 154.743 221.509 154.743 221.695V221.811C154.743 221.996 154.786 222.16 154.871 222.303C154.956 222.446 155.076 222.556 155.23 222.634C155.385 222.711 155.563 222.75 155.764 222.75C155.938 222.75 156.094 222.723 156.233 222.668C156.372 222.614 156.496 222.529 156.604 222.413L156.993 222.86C156.853 223.022 156.678 223.148 156.465 223.237C156.256 223.322 156.017 223.364 155.746 223.364ZM159.352 223.364C159.008 223.364 158.707 223.296 158.448 223.161C158.193 223.022 157.994 222.833 157.851 222.593C157.712 222.354 157.642 222.081 157.642 221.776C157.642 221.467 157.71 221.194 157.845 220.958C157.984 220.719 158.174 220.531 158.413 220.396C158.657 220.261 158.933 220.193 159.242 220.193C159.543 220.193 159.812 220.259 160.048 220.39C160.283 220.522 160.469 220.707 160.604 220.947C160.739 221.186 160.807 221.469 160.807 221.793C160.807 221.824 160.805 221.859 160.801 221.898C160.801 221.936 160.799 221.973 160.795 222.008H158.216V221.527H160.413L160.129 221.677C160.133 221.5 160.096 221.343 160.019 221.208C159.941 221.072 159.835 220.966 159.7 220.889C159.569 220.812 159.416 220.773 159.242 220.773C159.064 220.773 158.908 220.812 158.773 220.889C158.641 220.966 158.537 221.074 158.459 221.214C158.386 221.349 158.349 221.509 158.349 221.695V221.811C158.349 221.996 158.392 222.16 158.477 222.303C158.562 222.446 158.682 222.556 158.836 222.634C158.991 222.711 159.169 222.75 159.37 222.75C159.543 222.75 159.7 222.723 159.839 222.668C159.978 222.614 160.102 222.529 160.21 222.413L160.598 222.86C160.459 223.022 160.283 223.148 160.071 223.237C159.862 223.322 159.623 223.364 159.352 223.364ZM164.821 223.364C164.57 223.364 164.34 223.306 164.131 223.19C163.926 223.074 163.762 222.9 163.638 222.668C163.519 222.433 163.459 222.135 163.459 221.776C163.459 221.413 163.517 221.115 163.633 220.883C163.752 220.651 163.915 220.479 164.119 220.367C164.324 220.251 164.558 220.193 164.821 220.193C165.126 220.193 165.395 220.259 165.627 220.39C165.862 220.522 166.048 220.705 166.183 220.941C166.322 221.177 166.392 221.455 166.392 221.776C166.392 222.097 166.322 222.377 166.183 222.616C166.048 222.852 165.862 223.036 165.627 223.167C165.395 223.298 165.126 223.364 164.821 223.364ZM163.105 224.448V220.228H163.795V220.958L163.772 221.782L163.83 222.605V224.448H163.105ZM164.74 222.744C164.914 222.744 165.068 222.705 165.203 222.628C165.343 222.551 165.453 222.439 165.534 222.292C165.615 222.145 165.656 221.973 165.656 221.776C165.656 221.575 165.615 221.403 165.534 221.26C165.453 221.113 165.343 221.001 165.203 220.924C165.068 220.846 164.914 220.808 164.74 220.808C164.566 220.808 164.409 220.846 164.27 220.924C164.131 221.001 164.021 221.113 163.94 221.26C163.859 221.403 163.818 221.575 163.818 221.776C163.818 221.973 163.859 222.145 163.94 222.292C164.021 222.439 164.131 222.551 164.27 222.628C164.409 222.705 164.566 222.744 164.74 222.744ZM167.079 223.323V220.228H167.769V221.08L167.687 220.831C167.78 220.622 167.925 220.464 168.122 220.356C168.323 220.247 168.572 220.193 168.87 220.193V220.883C168.839 220.875 168.81 220.872 168.783 220.872C168.756 220.868 168.729 220.866 168.702 220.866C168.428 220.866 168.209 220.947 168.047 221.109C167.885 221.268 167.803 221.505 167.803 221.822V223.323H167.079ZM170.848 223.364C170.531 223.364 170.249 223.296 170.001 223.161C169.754 223.022 169.559 222.833 169.416 222.593C169.273 222.354 169.201 222.081 169.201 221.776C169.201 221.467 169.273 221.194 169.416 220.958C169.559 220.719 169.754 220.531 170.001 220.396C170.249 220.261 170.531 220.193 170.848 220.193C171.168 220.193 171.452 220.261 171.7 220.396C171.951 220.531 172.146 220.717 172.285 220.953C172.428 221.188 172.5 221.463 172.5 221.776C172.5 222.081 172.428 222.354 172.285 222.593C172.146 222.833 171.951 223.022 171.7 223.161C171.452 223.296 171.168 223.364 170.848 223.364ZM170.848 222.744C171.025 222.744 171.184 222.705 171.323 222.628C171.462 222.551 171.57 222.439 171.647 222.292C171.729 222.145 171.769 221.973 171.769 221.776C171.769 221.575 171.729 221.403 171.647 221.26C171.57 221.113 171.462 221.001 171.323 220.924C171.184 220.846 171.027 220.808 170.853 220.808C170.676 220.808 170.517 220.846 170.378 220.924C170.243 221.001 170.135 221.113 170.053 221.26C169.972 221.403 169.932 221.575 169.932 221.776C169.932 221.973 169.972 222.145 170.053 222.292C170.135 222.439 170.243 222.551 170.378 222.628C170.517 222.705 170.674 222.744 170.848 222.744ZM172.667 223.323L174.03 221.55L174.018 221.938L172.72 220.228H173.525L174.435 221.445H174.128L175.044 220.228H175.826L174.516 221.938L174.522 221.55L175.879 223.323H175.061L174.105 222.031L174.406 222.071L173.467 223.323H172.667ZM176.413 223.323V220.228H177.138V223.323H176.413ZM176.778 219.718C176.643 219.718 176.531 219.676 176.442 219.591C176.357 219.506 176.315 219.403 176.315 219.283C176.315 219.16 176.357 219.057 176.442 218.976C176.531 218.891 176.643 218.849 176.778 218.849C176.914 218.849 177.024 218.889 177.109 218.97C177.198 219.048 177.242 219.146 177.242 219.266C177.242 219.393 177.2 219.502 177.115 219.591C177.03 219.676 176.918 219.718 176.778 219.718ZM179.544 223.364C179.2 223.364 178.898 223.296 178.64 223.161C178.384 223.022 178.185 222.833 178.042 222.593C177.903 222.354 177.834 222.081 177.834 221.776C177.834 221.467 177.901 221.194 178.037 220.958C178.176 220.719 178.365 220.531 178.605 220.396C178.848 220.261 179.125 220.193 179.434 220.193C179.735 220.193 180.004 220.259 180.239 220.39C180.475 220.522 180.661 220.707 180.796 220.947C180.931 221.186 180.999 221.469 180.999 221.793C180.999 221.824 180.997 221.859 180.993 221.898C180.993 221.936 180.991 221.973 180.987 222.008H178.408V221.527H180.605L180.321 221.677C180.324 221.5 180.288 221.343 180.21 221.208C180.133 221.072 180.027 220.966 179.892 220.889C179.76 220.812 179.608 220.773 179.434 220.773C179.256 220.773 179.099 220.812 178.964 220.889C178.833 220.966 178.728 221.074 178.651 221.214C178.578 221.349 178.541 221.509 178.541 221.695V221.811C178.541 221.996 178.584 222.16 178.669 222.303C178.754 222.446 178.873 222.556 179.028 222.634C179.182 222.711 179.36 222.75 179.561 222.75C179.735 222.75 179.892 222.723 180.031 222.668C180.17 222.614 180.293 222.529 180.402 222.413L180.79 222.86C180.651 223.022 180.475 223.148 180.263 223.237C180.054 223.322 179.814 223.364 179.544 223.364ZM182.651 223.364C182.392 223.364 182.143 223.331 181.903 223.266C181.668 223.196 181.48 223.113 181.341 223.016L181.619 222.466C181.758 222.554 181.925 222.628 182.118 222.686C182.311 222.744 182.504 222.773 182.698 222.773C182.926 222.773 183.09 222.742 183.19 222.68C183.295 222.618 183.347 222.535 183.347 222.431C183.347 222.346 183.312 222.282 183.242 222.24C183.173 222.193 183.082 222.158 182.97 222.135C182.858 222.112 182.732 222.091 182.593 222.071C182.458 222.052 182.321 222.027 182.182 221.996C182.046 221.961 181.923 221.913 181.811 221.851C181.699 221.785 181.608 221.699 181.538 221.59C181.469 221.482 181.434 221.339 181.434 221.161C181.434 220.964 181.49 220.794 181.602 220.651C181.714 220.504 181.871 220.392 182.071 220.315C182.276 220.234 182.518 220.193 182.796 220.193C183.005 220.193 183.215 220.217 183.428 220.263C183.64 220.309 183.816 220.375 183.955 220.46L183.677 221.011C183.53 220.922 183.382 220.862 183.231 220.831C183.084 220.796 182.937 220.779 182.79 220.779C182.57 220.779 182.406 220.812 182.298 220.877C182.193 220.943 182.141 221.026 182.141 221.127C182.141 221.219 182.176 221.289 182.245 221.335C182.315 221.382 182.406 221.418 182.518 221.445C182.63 221.472 182.754 221.496 182.889 221.515C183.028 221.53 183.165 221.556 183.3 221.59C183.436 221.625 183.559 221.673 183.671 221.735C183.787 221.793 183.88 221.876 183.95 221.984C184.019 222.093 184.054 222.234 184.054 222.408C184.054 222.601 183.996 222.769 183.88 222.912C183.768 223.055 183.608 223.167 183.399 223.248C183.19 223.325 182.941 223.364 182.651 223.364ZM188.036 220.193C188.284 220.193 188.504 220.242 188.697 220.338C188.894 220.435 189.049 220.584 189.161 220.785C189.273 220.982 189.329 221.237 189.329 221.55V223.323H188.604V221.642C188.604 221.368 188.539 221.163 188.407 221.028C188.28 220.893 188.1 220.825 187.868 220.825C187.698 220.825 187.547 220.86 187.416 220.93C187.285 220.999 187.182 221.103 187.109 221.243C187.039 221.378 187.004 221.55 187.004 221.758V223.323H186.28V220.228H186.97V221.063L186.848 220.808C186.956 220.611 187.113 220.46 187.317 220.356C187.526 220.247 187.766 220.193 188.036 220.193ZM191.645 223.364C191.328 223.364 191.046 223.296 190.799 223.161C190.551 223.022 190.356 222.833 190.213 222.593C190.07 222.354 189.999 222.081 189.999 221.776C189.999 221.467 190.07 221.194 190.213 220.958C190.356 220.719 190.551 220.531 190.799 220.396C191.046 220.261 191.328 220.193 191.645 220.193C191.966 220.193 192.25 220.261 192.497 220.396C192.748 220.531 192.943 220.717 193.082 220.953C193.225 221.188 193.297 221.463 193.297 221.776C193.297 222.081 193.225 222.354 193.082 222.593C192.943 222.833 192.748 223.022 192.497 223.161C192.25 223.296 191.966 223.364 191.645 223.364ZM191.645 222.744C191.823 222.744 191.981 222.705 192.12 222.628C192.259 222.551 192.367 222.439 192.445 222.292C192.526 222.145 192.566 221.973 192.566 221.776C192.566 221.575 192.526 221.403 192.445 221.26C192.367 221.113 192.259 221.001 192.12 220.924C191.981 220.846 191.825 220.808 191.651 220.808C191.473 220.808 191.314 220.846 191.175 220.924C191.04 221.001 190.932 221.113 190.851 221.26C190.77 221.403 190.729 221.575 190.729 221.776C190.729 221.973 190.77 222.145 190.851 222.292C190.932 222.439 191.04 222.551 191.175 222.628C191.314 222.705 191.471 222.744 191.645 222.744ZM194.589 223.323L193.453 220.228H194.137L195.11 222.958H194.786L195.806 220.228H196.415L197.406 222.958H197.087L198.09 220.228H198.733L197.591 223.323H196.896L195.992 220.906H196.206L195.284 223.323H194.589Z" fill="white"/>
<path d="M203.613 274.671V270.614H205.456C205.897 270.614 206.285 270.699 206.621 270.869C206.958 271.035 207.22 271.269 207.41 271.57C207.599 271.872 207.694 272.229 207.694 272.643C207.694 273.052 207.599 273.41 207.41 273.715C207.22 274.016 206.958 274.252 206.621 274.422C206.285 274.588 205.897 274.671 205.456 274.671H203.613ZM204.552 273.9H205.41C205.68 273.9 205.914 273.85 206.111 273.75C206.312 273.645 206.467 273.499 206.575 273.309C206.687 273.12 206.743 272.898 206.743 272.643C206.743 272.384 206.687 272.161 206.575 271.976C206.467 271.787 206.312 271.642 206.111 271.541C205.914 271.437 205.68 271.385 205.41 271.385H204.552V273.9ZM208.392 274.671L210.2 270.614H211.128L212.942 274.671H211.956L210.473 271.089H210.844L209.354 274.671H208.392ZM209.296 273.802L209.545 273.089H211.632L211.887 273.802H209.296ZM214.579 274.671V271.379H213.281V270.614H216.817V271.379H215.518V274.671H214.579ZM217.165 274.671L218.973 270.614H219.901L221.715 274.671H220.729L219.246 271.089H219.616L218.127 274.671H217.165ZM218.069 273.802L218.318 273.089H220.405L220.66 273.802H218.069ZM226.739 274.741C226.164 274.741 225.713 274.581 225.389 274.26C225.064 273.939 224.902 273.481 224.902 272.886V270.614H225.841V272.851C225.841 273.238 225.92 273.516 226.079 273.686C226.237 273.856 226.459 273.941 226.745 273.941C227.031 273.941 227.253 273.856 227.412 273.686C227.57 273.516 227.649 273.238 227.649 272.851V270.614H228.577V272.886C228.577 273.481 228.415 273.939 228.09 274.26C227.765 274.581 227.315 274.741 226.739 274.741ZM231.418 274.741C231.093 274.741 230.782 274.698 230.484 274.613C230.187 274.525 229.947 274.411 229.766 274.271L230.085 273.564C230.258 273.688 230.463 273.79 230.699 273.871C230.939 273.949 231.18 273.987 231.424 273.987C231.609 273.987 231.758 273.97 231.87 273.935C231.986 273.897 232.071 273.844 232.125 273.779C232.179 273.713 232.206 273.638 232.206 273.553C232.206 273.444 232.164 273.359 232.079 273.298C231.994 273.232 231.881 273.18 231.742 273.141C231.603 273.099 231.449 273.06 231.279 273.025C231.112 272.987 230.944 272.94 230.774 272.886C230.608 272.832 230.456 272.762 230.316 272.677C230.177 272.592 230.063 272.48 229.974 272.341C229.889 272.202 229.847 272.024 229.847 271.808C229.847 271.576 229.909 271.365 230.032 271.176C230.16 270.983 230.349 270.83 230.6 270.718C230.855 270.602 231.174 270.544 231.557 270.544C231.812 270.544 232.063 270.575 232.31 270.637C232.558 270.695 232.776 270.784 232.965 270.904L232.676 271.617C232.486 271.508 232.297 271.429 232.108 271.379C231.918 271.325 231.733 271.298 231.551 271.298C231.369 271.298 231.221 271.319 231.105 271.362C230.989 271.404 230.906 271.46 230.855 271.53C230.805 271.595 230.78 271.673 230.78 271.762C230.78 271.866 230.823 271.951 230.908 272.017C230.993 272.078 231.105 272.129 231.244 272.167C231.383 272.206 231.536 272.245 231.702 272.283C231.872 272.322 232.04 272.366 232.206 272.417C232.376 272.467 232.531 272.534 232.67 272.619C232.809 272.704 232.921 272.816 233.006 272.956C233.095 273.095 233.139 273.271 233.139 273.483C233.139 273.711 233.076 273.92 232.948 274.109C232.82 274.298 232.629 274.451 232.374 274.567C232.123 274.683 231.804 274.741 231.418 274.741ZM233.827 274.671L235.636 270.614H236.563L238.378 274.671H237.392L235.908 271.089H236.279L234.79 274.671H233.827ZM234.732 273.802L234.981 273.089H237.068L237.323 273.802H234.732ZM241.281 274.741C240.96 274.741 240.664 274.691 240.394 274.59C240.127 274.486 239.894 274.339 239.693 274.15C239.496 273.96 239.341 273.738 239.229 273.483C239.121 273.228 239.067 272.948 239.067 272.643C239.067 272.337 239.121 272.057 239.229 271.802C239.341 271.547 239.497 271.325 239.698 271.135C239.899 270.946 240.135 270.801 240.406 270.701C240.676 270.596 240.974 270.544 241.298 270.544C241.658 270.544 241.98 270.604 242.266 270.724C242.556 270.844 242.8 271.018 242.997 271.246L242.394 271.802C242.247 271.648 242.087 271.534 241.913 271.46C241.739 271.383 241.549 271.344 241.345 271.344C241.148 271.344 240.968 271.375 240.806 271.437C240.643 271.499 240.502 271.588 240.382 271.704C240.266 271.819 240.176 271.957 240.11 272.115C240.048 272.274 240.017 272.449 240.017 272.643C240.017 272.832 240.048 273.006 240.11 273.164C240.176 273.323 240.266 273.462 240.382 273.582C240.502 273.698 240.641 273.786 240.8 273.848C240.962 273.91 241.14 273.941 241.333 273.941C241.519 273.941 241.698 273.912 241.872 273.854C242.05 273.792 242.222 273.69 242.388 273.547L242.921 274.225C242.701 274.391 242.444 274.519 242.15 274.608C241.861 274.697 241.571 274.741 241.281 274.741ZM242.063 274.103V272.579H242.921V274.225L242.063 274.103ZM245.237 272.248H247.19V272.979H245.237V272.248ZM245.306 273.918H247.515V274.671H244.373V270.614H247.44V271.367H245.306V273.918Z" fill="white"/>
<path d="M231.191 293.787C230.909 293.787 230.628 293.75 230.35 293.676C230.076 293.599 229.84 293.491 229.643 293.352L230.014 292.633C230.169 292.745 230.346 292.834 230.547 292.9C230.752 292.965 230.959 292.998 231.167 292.998C231.403 292.998 231.589 292.952 231.724 292.859C231.859 292.766 231.927 292.637 231.927 292.471C231.927 292.366 231.9 292.274 231.846 292.193C231.792 292.111 231.695 292.05 231.556 292.007C231.421 291.965 231.229 291.943 230.982 291.943H229.944L230.153 289.659H232.628V290.413H230.489L230.976 289.984L230.831 291.613L230.344 291.184H231.202C231.604 291.184 231.927 291.24 232.17 291.352C232.418 291.46 232.597 291.609 232.709 291.798C232.821 291.988 232.877 292.202 232.877 292.442C232.877 292.681 232.818 292.904 232.698 293.108C232.578 293.309 232.392 293.474 232.141 293.601C231.894 293.725 231.577 293.787 231.191 293.787ZM234.371 293.763C234.217 293.763 234.083 293.711 233.971 293.607C233.863 293.499 233.809 293.362 233.809 293.195C233.809 293.029 233.863 292.896 233.971 292.795C234.083 292.691 234.217 292.639 234.371 292.639C234.53 292.639 234.663 292.691 234.771 292.795C234.88 292.896 234.934 293.029 234.934 293.195C234.934 293.362 234.88 293.499 234.771 293.607C234.663 293.711 234.53 293.763 234.371 293.763ZM237.6 293.787C237.268 293.787 236.97 293.705 236.707 293.543C236.445 293.377 236.238 293.137 236.087 292.824C235.937 292.511 235.861 292.133 235.861 291.688C235.861 291.244 235.937 290.865 236.087 290.552C236.238 290.239 236.445 290.001 236.707 289.839C236.97 289.673 237.268 289.59 237.6 289.59C237.936 289.59 238.234 289.673 238.493 289.839C238.756 290.001 238.962 290.239 239.113 290.552C239.264 290.865 239.339 291.244 239.339 291.688C239.339 292.133 239.264 292.511 239.113 292.824C238.962 293.137 238.756 293.377 238.493 293.543C238.234 293.705 237.936 293.787 237.6 293.787ZM237.6 292.992C237.759 292.992 237.896 292.948 238.012 292.859C238.131 292.77 238.224 292.629 238.29 292.436C238.359 292.243 238.394 291.994 238.394 291.688C238.394 291.383 238.359 291.134 238.29 290.94C238.224 290.747 238.131 290.606 238.012 290.517C237.896 290.428 237.759 290.384 237.6 290.384C237.446 290.384 237.308 290.428 237.189 290.517C237.073 290.606 236.98 290.747 236.91 290.94C236.845 291.134 236.812 291.383 236.812 291.688C236.812 291.994 236.845 292.243 236.91 292.436C236.98 292.629 237.073 292.77 237.189 292.859C237.308 292.948 237.446 292.992 237.6 292.992ZM240.96 293.717L243.731 289.659H244.421L241.65 293.717H240.96ZM241.314 291.851C241.117 291.851 240.943 291.806 240.792 291.717C240.642 291.624 240.522 291.495 240.433 291.329C240.348 291.159 240.305 290.96 240.305 290.732C240.305 290.504 240.348 290.307 240.433 290.141C240.522 289.974 240.642 289.845 240.792 289.752C240.943 289.659 241.117 289.613 241.314 289.613C241.511 289.613 241.685 289.659 241.836 289.752C241.986 289.845 242.104 289.974 242.189 290.141C242.274 290.307 242.317 290.504 242.317 290.732C242.317 290.96 242.274 291.159 242.189 291.329C242.104 291.495 241.986 291.624 241.836 291.717C241.685 291.806 241.511 291.851 241.314 291.851ZM241.314 291.375C241.442 291.375 241.544 291.323 241.621 291.219C241.699 291.111 241.737 290.948 241.737 290.732C241.737 290.515 241.699 290.355 241.621 290.251C241.544 290.143 241.442 290.088 241.314 290.088C241.19 290.088 241.088 290.143 241.007 290.251C240.93 290.355 240.891 290.515 240.891 290.732C240.891 290.944 240.93 291.105 241.007 291.213C241.088 291.321 241.19 291.375 241.314 291.375ZM244.067 293.763C243.874 293.763 243.7 293.719 243.546 293.63C243.395 293.537 243.277 293.408 243.192 293.242C243.107 293.072 243.065 292.873 243.065 292.645C243.065 292.417 243.107 292.22 243.192 292.053C243.277 291.887 243.395 291.758 243.546 291.665C243.7 291.572 243.874 291.526 244.067 291.526C244.268 291.526 244.444 291.572 244.595 291.665C244.746 291.758 244.863 291.887 244.948 292.053C245.033 292.22 245.076 292.417 245.076 292.645C245.076 292.873 245.033 293.072 244.948 293.242C244.863 293.408 244.746 293.537 244.595 293.63C244.444 293.719 244.268 293.763 244.067 293.763ZM244.067 293.288C244.195 293.288 244.297 293.236 244.375 293.132C244.452 293.023 244.491 292.861 244.491 292.645C244.491 292.432 244.452 292.272 244.375 292.164C244.297 292.055 244.195 292.001 244.067 292.001C243.944 292.001 243.841 292.055 243.76 292.164C243.683 292.268 243.644 292.428 243.644 292.645C243.644 292.861 243.683 293.023 243.76 293.132C243.841 293.236 243.944 293.288 244.067 293.288Z" fill="#51FFAB"/>
<path d="M194.077 294.03C193.189 294.03 192.452 293.832 191.866 293.435C191.28 293.035 190.973 292.414 190.943 291.574H192.619C192.725 292.207 193.19 292.524 194.017 292.524C194.875 292.524 195.305 292.225 195.305 291.628C195.305 291.323 195.188 291.088 194.955 290.924C194.726 290.76 194.413 290.679 194.017 290.679H193.351V289.281H194.017C194.395 289.281 194.684 289.197 194.884 289.03C195.088 288.863 195.19 288.65 195.19 288.391C195.19 288.129 195.09 287.915 194.89 287.747C194.69 287.576 194.399 287.491 194.017 287.491C193.689 287.491 193.405 287.569 193.165 287.725C192.928 287.882 192.785 288.12 192.734 288.441H191.058C191.142 287.644 191.451 287.036 191.986 286.617C192.521 286.195 193.218 285.984 194.077 285.984C194.903 285.984 195.574 286.186 196.091 286.59C196.611 286.99 196.871 287.534 196.871 288.222C196.871 289.063 196.46 289.64 195.638 289.953C196.049 290.102 196.375 290.333 196.615 290.646C196.859 290.959 196.981 291.343 196.981 291.798C196.981 292.507 196.713 293.057 196.178 293.446C195.643 293.835 194.943 294.03 194.077 294.03ZM199.355 293.719C199.184 293.89 198.971 293.975 198.716 293.975C198.465 293.975 198.254 293.89 198.083 293.719C197.912 293.548 197.827 293.337 197.827 293.086C197.827 292.831 197.912 292.618 198.083 292.447C198.254 292.276 198.465 292.191 198.716 292.191C198.971 292.191 199.184 292.276 199.355 292.447C199.526 292.618 199.612 292.831 199.612 293.086C199.612 293.337 199.526 293.548 199.355 293.719ZM203.422 294.03C202.639 294.03 201.977 293.819 201.435 293.397C200.896 292.971 200.57 292.363 200.458 291.574H202.133C202.192 291.858 202.328 292.087 202.543 292.262C202.761 292.436 203.034 292.524 203.362 292.524C203.802 292.524 204.135 292.411 204.36 292.185C204.59 291.956 204.704 291.639 204.704 291.235C204.704 290.879 204.586 290.577 204.35 290.329C204.117 290.078 203.787 289.953 203.362 289.953C202.856 289.953 202.465 290.158 202.188 290.569H200.567L201.014 286.093H205.932V287.551H202.412L202.248 289.003H202.303C202.666 288.741 203.15 288.61 203.755 288.61C204.522 288.61 205.152 288.859 205.643 289.358C206.134 289.852 206.38 290.498 206.38 291.295C206.38 292.085 206.122 292.738 205.605 293.255C205.088 293.772 204.36 294.03 203.422 294.03ZM213.493 294.03C212.361 294.03 211.462 293.677 210.796 292.971C210.134 292.262 209.803 291.274 209.803 290.007C209.803 288.741 210.134 287.755 210.796 287.049C211.458 286.339 212.357 285.984 213.493 285.984C214.431 285.984 215.181 286.213 215.741 286.672C216.305 287.131 216.691 287.758 216.899 288.555H215.168C214.848 287.846 214.289 287.491 213.493 287.491C212.881 287.491 212.392 287.707 212.024 288.14C211.66 288.573 211.478 289.196 211.478 290.007C211.478 290.819 211.66 291.441 212.024 291.874C212.392 292.307 212.881 292.524 213.493 292.524C214.46 292.524 215.055 292.04 215.277 291.072H213.323V289.729H217.013V290.346C217.013 291.477 216.702 292.374 216.08 293.037C215.458 293.699 214.595 294.03 213.493 294.03ZM219.917 292.469H221.817C222.122 292.469 222.357 292.391 222.521 292.234C222.685 292.078 222.767 291.858 222.767 291.574C222.767 291.29 222.685 291.07 222.521 290.913C222.357 290.757 222.122 290.679 221.817 290.679H219.917V292.469ZM218.236 293.921V286.093H221.926C222.701 286.093 223.296 286.288 223.711 286.677C224.126 287.063 224.333 287.596 224.333 288.277C224.333 288.648 224.237 288.983 224.044 289.281C223.855 289.58 223.614 289.803 223.323 289.953C223.651 290.102 223.918 290.331 224.126 290.64C224.337 290.95 224.442 291.317 224.442 291.743C224.442 292.42 224.235 292.953 223.82 293.342C223.409 293.728 222.816 293.921 222.041 293.921H218.236ZM219.917 289.336H221.702C222.008 289.336 222.243 289.258 222.406 289.101C222.57 288.945 222.652 288.726 222.652 288.446C222.652 288.162 222.57 287.942 222.406 287.786C222.243 287.629 222.008 287.551 221.702 287.551H219.917V289.336Z" fill="white"/>
<path opacity="0.5" d="M194.467 360.377V356.609L194.797 356.951H193.609V356.32H195.22V360.377H194.467Z" fill="white"/>
<path opacity="0.5" d="M209.915 360.377V359.873L211.526 358.343C211.662 358.215 211.762 358.103 211.828 358.006C211.893 357.91 211.936 357.821 211.955 357.74C211.978 357.655 211.99 357.576 211.99 357.502C211.99 357.317 211.926 357.174 211.799 357.073C211.671 356.969 211.484 356.917 211.236 356.917C211.039 356.917 210.86 356.951 210.697 357.021C210.539 357.091 210.402 357.197 210.286 357.34L209.758 356.934C209.917 356.722 210.129 356.557 210.396 356.441C210.666 356.322 210.968 356.262 211.3 356.262C211.594 356.262 211.849 356.31 212.065 356.407C212.286 356.499 212.454 356.633 212.57 356.807C212.689 356.98 212.749 357.187 212.749 357.427C212.749 357.558 212.732 357.69 212.697 357.821C212.662 357.948 212.597 358.084 212.5 358.227C212.403 358.37 212.262 358.53 212.077 358.708L210.692 360.024L210.535 359.74H212.906V360.377H209.915Z" fill="white"/>
<path opacity="0.5" d="M231.114 360.435C230.828 360.435 230.548 360.395 230.274 360.313C230.003 360.228 229.775 360.112 229.59 359.966L229.914 359.38C230.061 359.5 230.239 359.597 230.448 359.67C230.656 359.743 230.875 359.78 231.103 359.78C231.373 359.78 231.584 359.726 231.734 359.618C231.885 359.506 231.961 359.355 231.961 359.166C231.961 358.98 231.891 358.833 231.752 358.725C231.613 358.617 231.389 358.563 231.079 358.563H230.709V358.047L231.868 356.667L231.966 356.951H229.787V356.32H232.552V356.824L231.393 358.203L230.998 357.972H231.224C231.723 357.972 232.096 358.084 232.343 358.308C232.594 358.528 232.72 358.812 232.72 359.16C232.72 359.388 232.662 359.599 232.546 359.792C232.43 359.985 232.252 360.141 232.013 360.261C231.777 360.377 231.478 360.435 231.114 360.435Z" fill="white"/>
<path opacity="0.5" d="M249.654 359.456V358.934L251.654 356.32H252.46L250.489 358.934L250.112 358.818H253.329V359.456H249.654ZM251.88 360.377V359.456L251.903 358.818V358.001H252.61V360.377H251.88Z" fill="white"/>
<path opacity="0.5" d="M269.277 360.435C268.991 360.435 268.71 360.395 268.436 360.313C268.166 360.228 267.938 360.112 267.752 359.966L268.071 359.38C268.218 359.5 268.396 359.597 268.604 359.67C268.817 359.743 269.037 359.78 269.265 359.78C269.532 359.78 269.74 359.724 269.891 359.612C270.046 359.5 270.123 359.349 270.123 359.16C270.123 359.032 270.09 358.92 270.024 358.824C269.963 358.727 269.85 358.654 269.688 358.603C269.53 358.553 269.311 358.528 269.033 358.528H268.054L268.262 356.32H270.645V356.951H268.54L268.935 356.592L268.778 358.244L268.384 357.89H269.201C269.603 357.89 269.926 357.945 270.169 358.053C270.417 358.157 270.596 358.304 270.708 358.493C270.824 358.679 270.882 358.891 270.882 359.131C270.882 359.367 270.824 359.583 270.708 359.78C270.592 359.977 270.415 360.136 270.175 360.255C269.939 360.375 269.64 360.435 269.277 360.435Z" fill="white"/>
<path opacity="0.5" d="M289.563 360.435C289.196 360.435 288.881 360.358 288.618 360.203C288.356 360.045 288.155 359.817 288.016 359.519C287.876 359.222 287.807 358.855 287.807 358.418C287.807 357.954 287.89 357.562 288.056 357.241C288.226 356.921 288.46 356.677 288.757 356.511C289.059 356.345 289.405 356.262 289.795 356.262C290 356.262 290.195 356.283 290.38 356.325C290.57 356.368 290.73 356.434 290.862 356.523L290.583 357.091C290.471 357.017 290.35 356.967 290.218 356.94C290.091 356.909 289.955 356.893 289.812 356.893C289.43 356.893 289.127 357.011 288.902 357.247C288.678 357.483 288.566 357.831 288.566 358.29C288.566 358.364 288.568 358.451 288.572 358.551C288.576 358.648 288.589 358.746 288.613 358.847L288.381 358.592C288.45 358.433 288.545 358.302 288.665 358.198C288.788 358.089 288.933 358.008 289.099 357.954C289.269 357.9 289.453 357.873 289.65 357.873C289.917 357.873 290.154 357.925 290.363 358.03C290.572 358.13 290.738 358.275 290.862 358.464C290.985 358.65 291.047 358.868 291.047 359.119C291.047 359.386 290.981 359.618 290.85 359.815C290.719 360.012 290.541 360.165 290.317 360.273C290.093 360.381 289.841 360.435 289.563 360.435ZM289.523 359.844C289.677 359.844 289.814 359.817 289.934 359.763C290.054 359.705 290.147 359.624 290.212 359.519C290.282 359.415 290.317 359.293 290.317 359.154C290.317 358.942 290.243 358.773 290.096 358.65C289.95 358.526 289.753 358.464 289.505 358.464C289.343 358.464 289.2 358.495 289.076 358.557C288.956 358.615 288.86 358.696 288.786 358.801C288.717 358.905 288.682 359.025 288.682 359.16C288.682 359.284 288.715 359.398 288.781 359.502C288.846 359.606 288.941 359.689 289.065 359.751C289.192 359.813 289.345 359.844 289.523 359.844Z" fill="white"/>
<path opacity="0.5" d="M308.355 360.377L310.03 356.621L310.227 356.957H307.926L308.286 356.592V357.647H307.584V356.32H310.737V356.824L309.161 360.377H308.355Z" fill="white"/>
<path d="M195.387 272.178H197.919C198.002 272.178 198.082 272.144 198.142 272.085C198.201 272.026 198.234 271.946 198.234 271.863C198.234 271.108 197.934 270.384 197.4 269.85C196.866 269.316 196.142 269.016 195.387 269.016C195.304 269.016 195.224 269.049 195.165 269.108C195.105 269.167 195.072 269.248 195.072 269.331V271.863C195.072 271.946 195.105 272.026 195.165 272.085C195.224 272.144 195.304 272.178 195.387 272.178Z" fill="#4FDCC7"/>
<path d="M197.882 272.812H194.789C194.744 272.812 194.699 272.803 194.657 272.785C194.615 272.768 194.577 272.742 194.545 272.71C194.513 272.678 194.487 272.64 194.47 272.598C194.453 272.556 194.444 272.512 194.444 272.466V269.365C194.444 269.316 194.434 269.267 194.414 269.222C194.394 269.177 194.365 269.137 194.329 269.104C194.292 269.071 194.249 269.046 194.202 269.031C194.155 269.016 194.106 269.011 194.057 269.016C193.344 269.092 192.668 269.368 192.105 269.812C191.543 270.256 191.118 270.85 190.879 271.525C190.64 272.201 190.598 272.93 190.756 273.629C190.914 274.328 191.267 274.967 191.774 275.474C192.28 275.981 192.92 276.334 193.619 276.492C194.318 276.65 195.047 276.608 195.722 276.369C196.398 276.13 196.992 275.705 197.436 275.142C197.88 274.58 198.156 273.904 198.232 273.191C198.236 273.143 198.23 273.094 198.214 273.048C198.199 273.002 198.174 272.96 198.141 272.924C198.108 272.889 198.068 272.86 198.023 272.841C197.979 272.821 197.931 272.811 197.882 272.812Z" fill="#4FDCC7"/>
<path d="M193.562 324.423L211.221 311.212L223.687 307.084H236.775L249.032 309.767L260.666 308.323L273.546 300.891L284.765 287.68L294.945 280.662L311.563 274.882V277.153V346.511H193.562V324.423Z" fill="url(#paint11_linear_2003_886)"/>
<path d="M193.977 325.188L205.055 315.925C213.986 308.458 225.898 305.604 237.244 308.212L242.624 309.083C256.548 311.335 270.532 305.417 278.609 293.854C282.816 287.831 288.732 283.208 295.593 280.582L311.563 274.468" stroke="#50EED7" stroke-width="1.65615"/>
<path opacity="0.3" d="M107.442 172.201H227.1C228.472 172.201 229.584 173.313 229.584 174.685C229.584 176.057 228.472 177.169 227.1 177.169H107.442C106.07 177.169 104.958 176.057 104.958 174.685C104.958 173.313 106.07 172.201 107.442 172.201Z" fill="#50EED7"/>
<path d="M122.349 172.091H107.029C105.657 172.091 104.545 173.203 104.545 174.575C104.545 175.947 105.657 177.06 107.029 177.06H122.349C123.721 177.06 124.833 175.947 124.833 174.575C124.833 173.203 123.721 172.091 122.349 172.091Z" fill="#50EED7"/>
<path d="M167.064 169.302H167.064C166.15 169.302 165.408 170.043 165.408 170.958V177.583C165.408 178.497 166.15 179.239 167.064 179.239H167.064C167.979 179.239 168.721 178.497 168.721 177.583V170.958C168.721 170.043 167.979 169.302 167.064 169.302Z" fill="#50EED7"/>
<g filter="url(#filter4_d_2003_886)">
<path d="M123.385 177.583C125.1 177.583 126.49 176.193 126.49 174.478C126.49 172.763 125.1 171.373 123.385 171.373C121.67 171.373 120.279 172.763 120.279 174.478C120.279 176.193 121.67 177.583 123.385 177.583Z" fill="white"/>
<path d="M123.385 177.169C124.871 177.169 126.076 175.964 126.076 174.478C126.076 172.992 124.871 171.787 123.385 171.787C121.898 171.787 120.693 172.992 120.693 174.478C120.693 175.964 121.898 177.169 123.385 177.169Z" stroke="#50EED7" stroke-opacity="0.2" stroke-width="0.828077"/>
</g>
<mask id="mask0_2003_886" style="mask-type:alpha" maskUnits="userSpaceOnUse" x="104" y="151" width="11" height="10">
<path d="M114.068 151.499H104.959V160.608H114.068V151.499Z" fill="#D9D9D9"/>
</mask>
<g mask="url(#mask0_2003_886)">
<path d="M106.476 157.951V158.71H112.548V157.951H106.476ZM106.476 153.776H107.311C107.279 153.719 107.259 153.659 107.249 153.596C107.24 153.532 107.235 153.466 107.235 153.396C107.235 153.08 107.346 152.811 107.567 152.59C107.788 152.369 108.057 152.258 108.374 152.258C108.563 152.258 108.739 152.307 108.9 152.405C109.061 152.503 109.202 152.625 109.322 152.77L109.512 153.017L109.702 152.77C109.816 152.618 109.955 152.495 110.119 152.4C110.284 152.305 110.461 152.258 110.651 152.258C110.967 152.258 111.236 152.369 111.457 152.59C111.679 152.811 111.789 153.08 111.789 153.396C111.789 153.466 111.785 153.532 111.775 153.596C111.766 153.659 111.745 153.719 111.713 153.776H112.548C112.757 153.776 112.936 153.85 113.085 153.999C113.233 154.148 113.307 154.326 113.307 154.535V158.71C113.307 158.919 113.233 159.097 113.085 159.246C112.936 159.395 112.757 159.469 112.548 159.469H106.476C106.267 159.469 106.088 159.395 105.94 159.246C105.791 159.097 105.717 158.919 105.717 158.71V154.535C105.717 154.326 105.791 154.148 105.94 153.999C106.088 153.85 106.267 153.776 106.476 153.776ZM106.476 156.812H112.548V154.535H110.613L111.41 155.617L110.803 156.053L109.512 154.307L108.222 156.053L107.614 155.617L108.393 154.535H106.476V156.812ZM108.374 153.776C108.481 153.776 108.571 153.74 108.644 153.667C108.717 153.594 108.753 153.504 108.753 153.396C108.753 153.289 108.717 153.199 108.644 153.126C108.571 153.053 108.481 153.017 108.374 153.017C108.266 153.017 108.176 153.053 108.103 153.126C108.03 153.199 107.994 153.289 107.994 153.396C107.994 153.504 108.03 153.594 108.103 153.667C108.176 153.74 108.266 153.776 108.374 153.776ZM110.651 153.776C110.758 153.776 110.848 153.74 110.921 153.667C110.994 153.594 111.03 153.504 111.03 153.396C111.03 153.289 110.994 153.199 110.921 153.126C110.848 153.053 110.758 153.017 110.651 153.017C110.543 153.017 110.453 153.053 110.38 153.126C110.308 153.199 110.271 153.289 110.271 153.396C110.271 153.504 110.308 153.594 110.38 153.667C110.453 153.74 110.543 153.776 110.651 153.776Z" fill="#50EED7"/>
</g>
<path d="M117.377 157.74V154.263H118.883C119.194 154.263 119.462 154.314 119.688 154.417C119.913 154.516 120.087 154.66 120.209 154.849C120.332 155.038 120.393 155.263 120.393 155.525C120.393 155.783 120.332 156.006 120.209 156.195C120.087 156.381 119.913 156.523 119.688 156.623C119.462 156.722 119.194 156.772 118.883 156.772H117.824L118.182 156.419V157.74H117.377ZM119.588 157.74L118.719 156.478H119.578L120.458 157.74H119.588ZM118.182 156.508L117.824 156.131H118.838C119.086 156.131 119.272 156.078 119.394 155.972C119.517 155.862 119.578 155.713 119.578 155.525C119.578 155.332 119.517 155.183 119.394 155.077C119.272 154.971 119.086 154.918 118.838 154.918H117.824L118.182 154.536V156.508ZM122.268 155.664H123.942V156.29H122.268V155.664ZM122.328 157.095H124.221V157.74H121.528V154.263H124.156V154.908H122.328V157.095ZM126.144 157.74L125.006 154.263H125.841L126.83 157.343H126.412L127.446 154.263H128.191L129.185 157.343H128.782L129.796 154.263H130.566L129.428 157.74H128.564L127.684 155.038H127.913L127.009 157.74H126.144ZM130.939 157.74L132.489 154.263H133.284L134.839 157.74H133.994L132.722 154.67H133.04L131.763 157.74H130.939ZM131.714 156.995L131.927 156.384H133.716L133.935 156.995H131.714ZM135.696 157.74V154.263H137.202C137.513 154.263 137.782 154.314 138.007 154.417C138.232 154.516 138.406 154.66 138.529 154.849C138.651 155.038 138.712 155.263 138.712 155.525C138.712 155.783 138.651 156.006 138.529 156.195C138.406 156.381 138.232 156.523 138.007 156.623C137.782 156.722 137.513 156.772 137.202 156.772H136.144L136.501 156.419V157.74H135.696ZM137.907 157.74L137.038 156.478H137.898L138.777 157.74H137.907ZM136.501 156.508L136.144 156.131H137.157C137.406 156.131 137.591 156.078 137.714 155.972C137.836 155.862 137.898 155.713 137.898 155.525C137.898 155.332 137.836 155.183 137.714 155.077C137.591 154.971 137.406 154.918 137.157 154.918H136.144L136.501 154.536V156.508ZM139.847 157.74V154.263H141.427C141.804 154.263 142.137 154.335 142.426 154.481C142.714 154.624 142.939 154.824 143.101 155.082C143.264 155.341 143.345 155.647 143.345 156.002C143.345 156.353 143.264 156.659 143.101 156.921C142.939 157.179 142.714 157.381 142.426 157.527C142.137 157.669 141.804 157.74 141.427 157.74H139.847ZM140.652 157.08H141.387C141.619 157.08 141.819 157.037 141.988 156.95C142.161 156.861 142.293 156.735 142.386 156.573C142.482 156.411 142.53 156.22 142.53 156.002C142.53 155.78 142.482 155.589 142.386 155.43C142.293 155.268 142.161 155.144 141.988 155.058C141.819 154.968 141.619 154.923 141.387 154.923H140.652V157.08ZM145.591 157.8C145.313 157.8 145.046 157.764 144.791 157.691C144.536 157.615 144.331 157.517 144.175 157.398L144.449 156.792C144.598 156.897 144.773 156.985 144.975 157.055C145.181 157.121 145.388 157.154 145.596 157.154C145.755 157.154 145.883 157.139 145.979 157.109C146.078 157.076 146.151 157.032 146.197 156.975C146.244 156.919 146.267 156.854 146.267 156.782C146.267 156.689 146.231 156.616 146.158 156.563C146.085 156.507 145.989 156.462 145.87 156.429C145.75 156.392 145.618 156.359 145.472 156.329C145.33 156.296 145.186 156.257 145.04 156.21C144.897 156.164 144.767 156.104 144.647 156.031C144.528 155.958 144.43 155.862 144.354 155.743C144.281 155.624 144.245 155.472 144.245 155.286C144.245 155.087 144.298 154.907 144.404 154.744C144.513 154.579 144.675 154.448 144.891 154.352C145.109 154.253 145.383 154.203 145.711 154.203C145.929 154.203 146.144 154.229 146.356 154.282C146.568 154.332 146.756 154.408 146.918 154.511L146.669 155.122C146.507 155.029 146.345 154.961 146.183 154.918C146.02 154.872 145.861 154.849 145.706 154.849C145.55 154.849 145.422 154.867 145.323 154.903C145.224 154.94 145.152 154.988 145.109 155.048C145.066 155.104 145.045 155.17 145.045 155.246C145.045 155.336 145.081 155.409 145.154 155.465C145.227 155.518 145.323 155.561 145.442 155.594C145.561 155.627 145.692 155.66 145.835 155.693C145.98 155.727 146.125 155.765 146.267 155.808C146.413 155.851 146.545 155.909 146.664 155.982C146.784 156.055 146.88 156.151 146.953 156.27C147.029 156.389 147.067 156.54 147.067 156.722C147.067 156.917 147.012 157.096 146.903 157.259C146.794 157.421 146.63 157.552 146.411 157.651C146.196 157.75 145.923 157.8 145.591 157.8Z" fill="white"/>
<path d="M161.815 189.267C161.573 189.267 161.333 189.236 161.094 189.173C160.859 189.106 160.657 189.014 160.488 188.895L160.806 188.278C160.939 188.374 161.091 188.451 161.263 188.507C161.439 188.563 161.616 188.591 161.795 188.591C161.997 188.591 162.156 188.552 162.272 188.472C162.388 188.393 162.446 188.282 162.446 188.139C162.446 188.05 162.423 187.97 162.376 187.901C162.33 187.831 162.247 187.778 162.128 187.742C162.012 187.705 161.848 187.687 161.636 187.687H160.746L160.925 185.73H163.047V186.375H161.214L161.631 186.008L161.507 187.404L161.089 187.036H161.825C162.169 187.036 162.446 187.084 162.654 187.18C162.866 187.273 163.02 187.401 163.116 187.563C163.213 187.725 163.261 187.909 163.261 188.114C163.261 188.32 163.209 188.51 163.107 188.686C163.004 188.858 162.845 188.999 162.63 189.108C162.418 189.214 162.146 189.267 161.815 189.267ZM167.886 189.267C167.611 189.267 167.358 189.224 167.126 189.138C166.897 189.049 166.697 188.923 166.524 188.76C166.356 188.598 166.223 188.408 166.127 188.189C166.034 187.97 165.988 187.73 165.988 187.469C165.988 187.207 166.034 186.967 166.127 186.748C166.223 186.53 166.357 186.339 166.529 186.177C166.702 186.014 166.904 185.89 167.136 185.804C167.367 185.715 167.622 185.67 167.901 185.67C168.209 185.67 168.485 185.721 168.73 185.824C168.979 185.927 169.188 186.076 169.356 186.271L168.84 186.748C168.714 186.616 168.576 186.518 168.427 186.455C168.278 186.389 168.116 186.356 167.94 186.356C167.772 186.356 167.618 186.382 167.478 186.435C167.339 186.488 167.218 186.564 167.116 186.664C167.016 186.763 166.939 186.881 166.882 187.016C166.829 187.152 166.803 187.303 166.803 187.469C166.803 187.631 166.829 187.78 166.882 187.916C166.939 188.052 167.016 188.171 167.116 188.273C167.218 188.373 167.338 188.449 167.473 188.502C167.613 188.555 167.765 188.581 167.931 188.581C168.09 188.581 168.244 188.557 168.393 188.507C168.545 188.454 168.692 188.366 168.835 188.244L169.292 188.825C169.103 188.967 168.883 189.077 168.631 189.153C168.383 189.229 168.134 189.267 167.886 189.267ZM168.557 188.721V187.414H169.292V188.825L168.557 188.721ZM170.536 189.208V185.73H172.236C172.673 185.73 173.001 185.812 173.219 185.978C173.441 186.144 173.552 186.362 173.552 186.634C173.552 186.816 173.508 186.975 173.418 187.111C173.329 187.243 173.206 187.346 173.05 187.419C172.895 187.492 172.716 187.528 172.514 187.528L172.608 187.324C172.827 187.324 173.021 187.361 173.19 187.434C173.359 187.503 173.489 187.608 173.582 187.747C173.678 187.886 173.726 188.056 173.726 188.259C173.726 188.557 173.609 188.79 173.373 188.959C173.138 189.125 172.792 189.208 172.335 189.208H170.536ZM171.336 188.601H172.275C172.484 188.601 172.641 188.568 172.747 188.502C172.857 188.432 172.911 188.323 172.911 188.174C172.911 188.028 172.857 187.921 172.747 187.851C172.641 187.778 172.484 187.742 172.275 187.742H171.277V187.156H172.136C172.332 187.156 172.481 187.122 172.583 187.056C172.689 186.987 172.742 186.882 172.742 186.743C172.742 186.607 172.689 186.506 172.583 186.44C172.481 186.371 172.332 186.336 172.136 186.336H171.336V188.601Z" fill="white"/>
<mask id="mask1_2003_886" style="mask-type:alpha" maskUnits="userSpaceOnUse" x="162" y="192" width="10" height="10">
<path d="M171.619 192.488H162.51V201.597H171.619V192.488Z" fill="#D9D9D9"/>
</mask>
<g mask="url(#mask1_2003_886)">
<path d="M164.027 198.94V199.699H170.099V198.94H164.027ZM164.027 194.765H164.862C164.83 194.709 164.809 194.648 164.8 194.585C164.79 194.522 164.786 194.456 164.786 194.386C164.786 194.07 164.896 193.801 165.118 193.579C165.339 193.358 165.608 193.247 165.924 193.247C166.114 193.247 166.29 193.296 166.451 193.394C166.612 193.492 166.753 193.614 166.873 193.76L167.063 194.006L167.253 193.76C167.367 193.608 167.506 193.485 167.67 193.39C167.835 193.295 168.012 193.247 168.202 193.247C168.518 193.247 168.787 193.358 169.008 193.579C169.229 193.801 169.34 194.07 169.34 194.386C169.34 194.456 169.335 194.522 169.326 194.585C169.316 194.648 169.296 194.709 169.264 194.765H170.099C170.308 194.765 170.487 194.84 170.635 194.988C170.784 195.137 170.858 195.316 170.858 195.525V199.699C170.858 199.908 170.784 200.087 170.635 200.236C170.487 200.384 170.308 200.458 170.099 200.458H164.027C163.818 200.458 163.639 200.384 163.491 200.236C163.342 200.087 163.268 199.908 163.268 199.699V195.525C163.268 195.316 163.342 195.137 163.491 194.988C163.639 194.84 163.818 194.765 164.027 194.765ZM164.027 197.802H170.099V195.525H168.164L168.961 196.606L168.353 197.043L167.063 195.297L165.773 197.043L165.165 196.606L165.943 195.525H164.027V197.802ZM165.924 194.765C166.032 194.765 166.122 194.729 166.195 194.656C166.267 194.584 166.304 194.493 166.304 194.386C166.304 194.278 166.267 194.188 166.195 194.116C166.122 194.043 166.032 194.006 165.924 194.006C165.817 194.006 165.727 194.043 165.654 194.116C165.581 194.188 165.545 194.278 165.545 194.386C165.545 194.493 165.581 194.584 165.654 194.656C165.727 194.729 165.817 194.765 165.924 194.765ZM168.202 194.765C168.309 194.765 168.399 194.729 168.472 194.656C168.545 194.584 168.581 194.493 168.581 194.386C168.581 194.278 168.545 194.188 168.472 194.116C168.399 194.043 168.309 194.006 168.202 194.006C168.094 194.006 168.004 194.043 167.931 194.116C167.858 194.188 167.822 194.278 167.822 194.386C167.822 194.493 167.858 194.584 167.931 194.656C168.004 194.729 168.094 194.765 168.202 194.765Z" fill="white"/>
</g>
<path d="M109.372 184.945C109.17 184.945 108.97 184.919 108.772 184.866C108.573 184.811 108.404 184.734 108.266 184.634L108.527 184.121C108.638 184.201 108.766 184.265 108.912 184.311C109.059 184.358 109.206 184.382 109.355 184.382C109.524 184.382 109.656 184.349 109.753 184.282C109.849 184.216 109.898 184.125 109.898 184.009C109.898 183.899 109.855 183.812 109.769 183.748C109.684 183.685 109.546 183.653 109.355 183.653H109.049V183.21L109.856 182.295L109.931 182.535H108.411V181.997H110.44V182.432L109.637 183.347L109.297 183.152H109.492C109.848 183.152 110.117 183.232 110.299 183.392C110.481 183.552 110.573 183.758 110.573 184.009C110.573 184.172 110.53 184.325 110.444 184.469C110.359 184.61 110.228 184.724 110.051 184.812C109.874 184.901 109.648 184.945 109.372 184.945ZM114.465 184.945C114.235 184.945 114.024 184.909 113.831 184.837C113.641 184.763 113.474 184.658 113.33 184.523C113.189 184.387 113.079 184.229 112.999 184.046C112.922 183.864 112.883 183.664 112.883 183.446C112.883 183.228 112.922 183.028 112.999 182.846C113.079 182.664 113.191 182.505 113.334 182.37C113.478 182.234 113.646 182.131 113.839 182.059C114.033 181.985 114.245 181.947 114.477 181.947C114.734 181.947 114.964 181.99 115.168 182.076C115.375 182.161 115.549 182.285 115.69 182.448L115.259 182.846C115.155 182.735 115.04 182.654 114.916 182.601C114.792 182.546 114.656 182.519 114.51 182.519C114.369 182.519 114.241 182.541 114.125 182.585C114.009 182.629 113.908 182.693 113.823 182.775C113.74 182.858 113.675 182.956 113.628 183.069C113.584 183.183 113.562 183.308 113.562 183.446C113.562 183.581 113.584 183.706 113.628 183.819C113.675 183.932 113.74 184.031 113.823 184.117C113.908 184.2 114.008 184.263 114.121 184.307C114.237 184.351 114.364 184.374 114.502 184.374C114.634 184.374 114.763 184.353 114.887 184.311C115.014 184.267 115.137 184.194 115.255 184.092L115.636 184.576C115.479 184.695 115.295 184.786 115.086 184.85C114.879 184.913 114.672 184.945 114.465 184.945ZM115.023 184.49V183.401H115.636V184.576L115.023 184.49ZM116.673 184.895V181.997H118.089C118.454 181.997 118.727 182.066 118.909 182.204C119.094 182.342 119.187 182.524 119.187 182.751C119.187 182.902 119.149 183.035 119.075 183.148C119 183.258 118.898 183.344 118.768 183.405C118.639 183.465 118.49 183.496 118.321 183.496L118.4 183.326C118.582 183.326 118.744 183.356 118.884 183.417C119.025 183.475 119.134 183.562 119.211 183.678C119.291 183.794 119.332 183.936 119.332 184.104C119.332 184.353 119.234 184.547 119.038 184.688C118.842 184.826 118.553 184.895 118.172 184.895H116.673ZM117.34 184.39H118.123C118.296 184.39 118.428 184.363 118.516 184.307C118.607 184.249 118.652 184.158 118.652 184.034C118.652 183.913 118.607 183.823 118.516 183.765C118.428 183.704 118.296 183.674 118.123 183.674H117.29V183.185H118.007C118.169 183.185 118.294 183.158 118.379 183.102C118.468 183.045 118.512 182.958 118.512 182.842C118.512 182.728 118.468 182.644 118.379 182.589C118.294 182.531 118.169 182.502 118.007 182.502H117.34V184.39ZM122.44 184.895V182.544H121.513V181.997H124.039V182.544H123.111V184.895H122.44ZM126.181 184.945C125.952 184.945 125.739 184.908 125.543 184.833C125.35 184.759 125.182 184.654 125.038 184.518C124.897 184.383 124.787 184.225 124.707 184.042C124.629 183.86 124.591 183.661 124.591 183.446C124.591 183.231 124.629 183.032 124.707 182.85C124.787 182.668 124.899 182.509 125.042 182.374C125.186 182.239 125.354 182.134 125.547 182.059C125.74 181.985 125.95 181.947 126.177 181.947C126.406 181.947 126.615 181.985 126.806 182.059C126.999 182.134 127.166 182.239 127.307 182.374C127.45 182.509 127.562 182.668 127.642 182.85C127.722 183.029 127.762 183.228 127.762 183.446C127.762 183.661 127.722 183.862 127.642 184.046C127.562 184.229 127.45 184.387 127.307 184.523C127.166 184.655 126.999 184.759 126.806 184.833C126.615 184.908 126.407 184.945 126.181 184.945ZM126.177 184.374C126.306 184.374 126.425 184.351 126.533 184.307C126.643 184.263 126.74 184.2 126.822 184.117C126.905 184.034 126.969 183.936 127.013 183.823C127.06 183.71 127.083 183.584 127.083 183.446C127.083 183.308 127.06 183.183 127.013 183.069C126.969 182.956 126.905 182.858 126.822 182.775C126.742 182.693 126.647 182.629 126.537 182.585C126.426 182.541 126.306 182.519 126.177 182.519C126.047 182.519 125.927 182.541 125.816 182.585C125.709 182.629 125.613 182.693 125.531 182.775C125.448 182.858 125.383 182.956 125.336 183.069C125.292 183.183 125.27 183.308 125.27 183.446C125.27 183.581 125.292 183.707 125.336 183.823C125.383 183.936 125.447 184.034 125.527 184.117C125.609 184.2 125.706 184.263 125.816 184.307C125.927 184.351 126.047 184.374 126.177 184.374ZM131.667 184.945C131.437 184.945 131.226 184.909 131.033 184.837C130.843 184.763 130.676 184.658 130.532 184.523C130.391 184.387 130.281 184.229 130.201 184.046C130.124 183.864 130.085 183.664 130.085 183.446C130.085 183.228 130.124 183.028 130.201 182.846C130.281 182.664 130.393 182.505 130.536 182.37C130.68 182.234 130.848 182.131 131.041 182.059C131.235 181.985 131.447 181.947 131.679 181.947C131.936 181.947 132.166 181.99 132.37 182.076C132.577 182.161 132.751 182.285 132.892 182.448L132.461 182.846C132.357 182.735 132.242 182.654 132.118 182.601C131.994 182.546 131.858 182.519 131.712 182.519C131.571 182.519 131.443 182.541 131.327 182.585C131.211 182.629 131.11 182.693 131.025 182.775C130.942 182.858 130.877 182.956 130.83 183.069C130.786 183.183 130.764 183.308 130.764 183.446C130.764 183.581 130.786 183.706 130.83 183.819C130.877 183.932 130.942 184.031 131.025 184.117C131.11 184.2 131.21 184.263 131.323 184.307C131.439 184.351 131.566 184.374 131.704 184.374C131.836 184.374 131.965 184.353 132.089 184.311C132.216 184.267 132.339 184.194 132.457 184.092L132.838 184.576C132.681 184.695 132.497 184.786 132.288 184.85C132.081 184.913 131.874 184.945 131.667 184.945ZM132.225 184.49V183.401H132.838V184.576L132.225 184.49ZM135.283 184.945C135.054 184.945 134.841 184.908 134.645 184.833C134.452 184.759 134.284 184.654 134.14 184.518C134 184.383 133.889 184.225 133.809 184.042C133.732 183.86 133.693 183.661 133.693 183.446C133.693 183.231 133.732 183.032 133.809 182.85C133.889 182.668 134.001 182.509 134.144 182.374C134.288 182.239 134.456 182.134 134.65 182.059C134.843 181.985 135.053 181.947 135.279 181.947C135.508 181.947 135.718 181.985 135.908 182.059C136.102 182.134 136.269 182.239 136.409 182.374C136.553 182.509 136.665 182.668 136.745 182.85C136.825 183.029 136.865 183.228 136.865 183.446C136.865 183.661 136.825 183.862 136.745 184.046C136.665 184.229 136.553 184.387 136.409 184.523C136.269 184.655 136.102 184.759 135.908 184.833C135.718 184.908 135.509 184.945 135.283 184.945ZM135.279 184.374C135.409 184.374 135.527 184.351 135.635 184.307C135.745 184.263 135.842 184.2 135.925 184.117C136.008 184.034 136.071 183.936 136.115 183.823C136.162 183.71 136.186 183.584 136.186 183.446C136.186 183.308 136.162 183.183 136.115 183.069C136.071 182.956 136.008 182.858 135.925 182.775C135.845 182.693 135.75 182.629 135.639 182.585C135.529 182.541 135.409 182.519 135.279 182.519C135.149 182.519 135.029 182.541 134.919 182.585C134.811 182.629 134.716 182.693 134.633 182.775C134.55 182.858 134.485 182.956 134.438 183.069C134.394 183.183 134.372 183.308 134.372 183.446C134.372 183.581 134.394 183.707 134.438 183.823C134.485 183.936 134.549 184.034 134.629 184.117C134.712 184.2 134.808 184.263 134.919 184.307C135.029 184.351 135.149 184.374 135.279 184.374ZM137.783 183.889L137.655 181.997H138.425L138.296 183.889H137.783ZM138.04 184.928C137.924 184.928 137.828 184.891 137.754 184.817C137.679 184.742 137.642 184.654 137.642 184.552C137.642 184.447 137.679 184.36 137.754 184.291C137.828 184.219 137.924 184.183 138.04 184.183C138.158 184.183 138.253 184.219 138.325 184.291C138.4 184.36 138.437 184.447 138.437 184.552C138.437 184.654 138.4 184.742 138.325 184.817C138.253 184.891 138.158 184.928 138.04 184.928Z" fill="white"/>
<path d="M223.375 152.74H191.08C189.708 152.74 188.596 153.852 188.596 155.224V159.779C188.596 161.151 189.708 162.263 191.08 162.263H223.375C224.747 162.263 225.859 161.151 225.859 159.779V155.224C225.859 153.852 224.747 152.74 223.375 152.74Z" fill="white"/>
<path d="M197.668 159.811V156.622H199.048C199.333 156.622 199.579 156.67 199.786 156.764C199.992 156.855 200.152 156.987 200.264 157.16C200.376 157.333 200.433 157.539 200.433 157.779C200.433 158.016 200.376 158.221 200.264 158.394C200.152 158.564 199.992 158.695 199.786 158.786C199.579 158.877 199.333 158.922 199.048 158.922H198.078L198.406 158.599V159.811H197.668ZM199.695 159.811L198.898 158.654H199.686L200.492 159.811H199.695ZM198.406 158.681L198.078 158.335H199.007C199.235 158.335 199.405 158.286 199.517 158.189C199.63 158.089 199.686 157.952 199.686 157.779C199.686 157.603 199.63 157.467 199.517 157.369C199.405 157.272 199.235 157.224 199.007 157.224H198.078L198.406 156.873V158.681ZM202.092 159.847C201.813 159.847 201.567 159.792 201.354 159.683C201.145 159.574 200.982 159.425 200.867 159.237C200.752 159.045 200.694 158.828 200.694 158.585C200.694 158.339 200.75 158.122 200.862 157.934C200.978 157.743 201.134 157.594 201.331 157.488C201.529 157.378 201.752 157.324 202.001 157.324C202.241 157.324 202.456 157.375 202.648 157.479C202.842 157.579 202.995 157.725 203.108 157.916C203.22 158.104 203.276 158.33 203.276 158.595C203.276 158.622 203.275 158.654 203.272 158.69C203.269 158.724 203.266 158.755 203.263 158.786H201.272V158.371H202.889L202.616 158.494C202.616 158.367 202.59 158.256 202.538 158.162C202.487 158.068 202.415 157.995 202.324 157.943C202.233 157.889 202.127 157.861 202.005 157.861C201.884 157.861 201.776 157.889 201.682 157.943C201.591 157.995 201.52 158.069 201.468 158.166C201.416 158.261 201.391 158.373 201.391 158.503V158.613C201.391 158.746 201.419 158.865 201.477 158.968C201.538 159.068 201.621 159.146 201.728 159.2C201.837 159.252 201.964 159.278 202.11 159.278C202.241 159.278 202.355 159.258 202.452 159.218C202.552 159.179 202.643 159.12 202.725 159.041L203.103 159.451C202.991 159.578 202.85 159.677 202.68 159.747C202.51 159.814 202.314 159.847 202.092 159.847ZM204.71 159.847C204.479 159.847 204.271 159.795 204.086 159.692C203.901 159.586 203.754 159.439 203.644 159.25C203.538 159.062 203.485 158.84 203.485 158.585C203.485 158.327 203.538 158.104 203.644 157.916C203.754 157.728 203.901 157.582 204.086 157.479C204.271 157.375 204.479 157.324 204.71 157.324C204.917 157.324 205.097 157.369 205.252 157.46C205.407 157.552 205.527 157.69 205.612 157.875C205.697 158.06 205.739 158.297 205.739 158.585C205.739 158.871 205.698 159.108 205.617 159.296C205.535 159.481 205.416 159.619 205.261 159.71C205.109 159.801 204.926 159.847 204.71 159.847ZM204.833 159.264C204.949 159.264 205.053 159.237 205.147 159.182C205.242 159.127 205.316 159.05 205.371 158.95C205.428 158.847 205.457 158.725 205.457 158.585C205.457 158.443 205.428 158.321 205.371 158.221C205.316 158.121 205.242 158.043 205.147 157.989C205.053 157.934 204.949 157.907 204.833 157.907C204.715 157.907 204.608 157.934 204.514 157.989C204.42 158.043 204.344 158.121 204.287 158.221C204.232 158.321 204.205 158.443 204.205 158.585C204.205 158.725 204.232 158.847 204.287 158.95C204.344 159.05 204.42 159.127 204.514 159.182C204.608 159.237 204.715 159.264 204.833 159.264ZM205.475 159.811V159.31L205.489 158.581L205.443 157.857V156.431H206.154V159.811H205.475ZM207.936 159.847C207.657 159.847 207.411 159.792 207.199 159.683C206.989 159.574 206.827 159.425 206.711 159.237C206.596 159.045 206.538 158.828 206.538 158.585C206.538 158.339 206.594 158.122 206.707 157.934C206.822 157.743 206.979 157.594 207.176 157.488C207.373 157.378 207.596 157.324 207.845 157.324C208.085 157.324 208.301 157.375 208.492 157.479C208.686 157.579 208.84 157.725 208.952 157.916C209.064 158.104 209.121 158.33 209.121 158.595C209.121 158.622 209.119 158.654 209.116 158.69C209.113 158.724 209.11 158.755 209.107 158.786H207.117V158.371H208.733L208.46 158.494C208.46 158.367 208.434 158.256 208.383 158.162C208.331 158.068 208.26 157.995 208.169 157.943C208.078 157.889 207.971 157.861 207.85 157.861C207.728 157.861 207.621 157.889 207.527 157.943C207.435 157.995 207.364 158.069 207.312 158.166C207.261 158.261 207.235 158.373 207.235 158.503V158.613C207.235 158.746 207.264 158.865 207.322 158.968C207.382 159.068 207.466 159.146 207.572 159.2C207.681 159.252 207.809 159.278 207.955 159.278C208.085 159.278 208.199 159.258 208.296 159.218C208.396 159.179 208.488 159.12 208.57 159.041L208.948 159.451C208.835 159.578 208.694 159.677 208.524 159.747C208.354 159.814 208.158 159.847 207.936 159.847ZM210.719 159.847C210.439 159.847 210.193 159.792 209.981 159.683C209.771 159.574 209.609 159.425 209.493 159.237C209.378 159.045 209.32 158.828 209.32 158.585C209.32 158.339 209.377 158.122 209.489 157.934C209.604 157.743 209.761 157.594 209.958 157.488C210.155 157.378 210.378 157.324 210.627 157.324C210.867 157.324 211.083 157.375 211.274 157.479C211.469 157.579 211.622 157.725 211.734 157.916C211.847 158.104 211.903 158.33 211.903 158.595C211.903 158.622 211.901 158.654 211.898 158.69C211.895 158.724 211.892 158.755 211.889 158.786H209.899V158.371H211.516L211.242 158.494C211.242 158.367 211.217 158.256 211.165 158.162C211.113 158.068 211.042 157.995 210.951 157.943C210.86 157.889 210.753 157.861 210.632 157.861C210.511 157.861 210.403 157.889 210.309 157.943C210.218 157.995 210.146 158.069 210.095 158.166C210.043 158.261 210.017 158.373 210.017 158.503V158.613C210.017 158.746 210.046 158.865 210.104 158.968C210.164 159.068 210.248 159.146 210.354 159.2C210.464 159.252 210.591 159.278 210.737 159.278C210.867 159.278 210.981 159.258 211.078 159.218C211.179 159.179 211.27 159.12 211.352 159.041L211.73 159.451C211.617 159.578 211.476 159.677 211.306 159.747C211.136 159.814 210.94 159.847 210.719 159.847ZM215.423 157.324C215.617 157.324 215.789 157.363 215.937 157.442C216.089 157.518 216.208 157.637 216.293 157.797C216.381 157.955 216.425 158.159 216.425 158.408V159.811H215.714V158.517C215.714 158.32 215.673 158.174 215.591 158.08C215.509 157.986 215.394 157.939 215.245 157.939C215.142 157.939 215.049 157.963 214.967 158.012C214.885 158.057 214.821 158.127 214.776 158.221C214.73 158.315 214.708 158.435 214.708 158.581V159.811H213.997V158.517C213.997 158.32 213.956 158.174 213.874 158.08C213.795 157.986 213.681 157.939 213.533 157.939C213.429 157.939 213.337 157.963 213.255 158.012C213.173 158.057 213.109 158.127 213.063 158.221C213.018 158.315 212.995 158.435 212.995 158.581V159.811H212.285V157.36H212.963V158.03L212.836 157.834C212.921 157.667 213.041 157.541 213.196 157.456C213.353 157.368 213.533 157.324 213.733 157.324C213.958 157.324 214.153 157.382 214.32 157.497C214.49 157.609 214.603 157.782 214.657 158.016L214.407 157.948C214.489 157.757 214.62 157.605 214.799 157.492C214.981 157.38 215.189 157.324 215.423 157.324Z" fill="#040426"/>
</g>
<defs>
<filter id="filter0_f_2003_886" x="0.620628" y="0.788597" width="454.2" height="492.706" filterUnits="userSpaceOnUse" color-interpolation-filters="sRGB">
<feFlood flood-opacity="0" result="BackgroundImageFix"/>
<feBlend mode="normal" in="SourceGraphic" in2="BackgroundImageFix" result="shape"/>
<feGaussianBlur stdDeviation="62.1057" result="effect1_foregroundBlur_2003_886"/>
</filter>
<filter id="filter1_diii_2003_886" x="69.4688" y="172.862" width="38.7205" height="44.2759" filterUnits="userSpaceOnUse" color-interpolation-filters="sRGB">
<feFlood flood-opacity="0" result="BackgroundImageFix"/>
<feColorMatrix in="SourceAlpha" type="matrix" values="0 0 0 0 0 0 0 0 0 0 0 0 0 0 0 0 0 0 127 0" result="hardAlpha"/>
<feOffset dy="0.414038"/>
<feComposite in2="hardAlpha" operator="out"/>
<feColorMatrix type="matrix" values="0 0 0 0 1 0 0 0 0 1 0 0 0 0 1 0 0 0 0.05 0"/>
<feBlend mode="normal" in2="BackgroundImageFix" result="effect1_dropShadow_2003_886"/>
<feBlend mode="normal" in="SourceGraphic" in2="effect1_dropShadow_2003_886" result="shape"/>
<feColorMatrix in="SourceAlpha" type="matrix" values="0 0 0 0 0 0 0 0 0 0 0 0 0 0 0 0 0 0 127 0" result="hardAlpha"/>
<feOffset dx="4.14038" dy="4.14038"/>
<feGaussianBlur stdDeviation="4.76144"/>
<feComposite in2="hardAlpha" operator="arithmetic" k2="-1" k3="1"/>
<feColorMatrix type="matrix" values="0 0 0 0 0.0509804 0 0 0 0 0.603922 0 0 0 0 1 0 0 0 0.18 0"/>
<feBlend mode="normal" in2="shape" result="effect2_innerShadow_2003_886"/>
<feColorMatrix in="SourceAlpha" type="matrix" values="0 0 0 0 0 0 0 0 0 0 0 0 0 0 0 0 0 0 127 0" result="hardAlpha"/>
<feOffset dy="0.828077"/>
<feGaussianBlur stdDeviation="1.24212"/>
<feComposite in2="hardAlpha" operator="arithmetic" k2="-1" k3="1"/>
<feColorMatrix type="matrix" values="0 0 0 0 1 0 0 0 0 1 0 0 0 0 1 0 0 0 0.05 0"/>
<feBlend mode="normal" in2="effect2_innerShadow_2003_886" result="effect3_innerShadow_2003_886"/>
<feColorMatrix in="SourceAlpha" type="matrix" values="0 0 0 0 0 0 0 0 0 0 0 0 0 0 0 0 0 0 127 0" result="hardAlpha"/>
<feOffset dy="-4.14038"/>
<feGaussianBlur stdDeviation="2.07019"/>
<feComposite in2="hardAlpha" operator="arithmetic" k2="-1" k3="1"/>
<feColorMatrix type="matrix" values="0 0 0 0 0.315 0 0 0 0 0.933333 0 0 0 0 0.841954 0 0 0 0.2 0"/>
<feBlend mode="overlay" in2="effect3_innerShadow_2003_886" result="effect4_innerShadow_2003_886"/>
</filter>
<filter id="filter2_diii_2003_886" x="319.139" y="337.485" width="30.0896" height="55.2537" filterUnits="userSpaceOnUse" color-interpolation-filters="sRGB">
<feFlood flood-opacity="0" result="BackgroundImageFix"/>
<feColorMatrix in="SourceAlpha" type="matrix" values="0 0 0 0 0 0 0 0 0 0 0 0 0 0 0 0 0 0 127 0" result="hardAlpha"/>
<feOffset dy="0.414038"/>
<feComposite in2="hardAlpha" operator="out"/>
<feColorMatrix type="matrix" values="0 0 0 0 1 0 0 0 0 1 0 0 0 0 1 0 0 0 0.05 0"/>
<feBlend mode="normal" in2="BackgroundImageFix" result="effect1_dropShadow_2003_886"/>
<feBlend mode="normal" in="SourceGraphic" in2="effect1_dropShadow_2003_886" result="shape"/>
<feColorMatrix in="SourceAlpha" type="matrix" values="0 0 0 0 0 0 0 0 0 0 0 0 0 0 0 0 0 0 127 0" result="hardAlpha"/>
<feOffset dx="4.14038" dy="4.14038"/>
<feGaussianBlur stdDeviation="4.76144"/>
<feComposite in2="hardAlpha" operator="arithmetic" k2="-1" k3="1"/>
<feColorMatrix type="matrix" values="0 0 0 0 0 0 0 0 0 0.796078 0 0 0 0 0.662745 0 0 0 0.18 0"/>
<feBlend mode="normal" in2="shape" result="effect2_innerShadow_2003_886"/>
<feColorMatrix in="SourceAlpha" type="matrix" values="0 0 0 0 0 0 0 0 0 0 0 0 0 0 0 0 0 0 127 0" result="hardAlpha"/>
<feOffset dy="0.828077"/>
<feGaussianBlur stdDeviation="1.24212"/>
<feComposite in2="hardAlpha" operator="arithmetic" k2="-1" k3="1"/>
<feColorMatrix type="matrix" values="0 0 0 0 1 0 0 0 0 1 0 0 0 0 1 0 0 0 0.05 0"/>
<feBlend mode="normal" in2="effect2_innerShadow_2003_886" result="effect3_innerShadow_2003_886"/>
<feColorMatrix in="SourceAlpha" type="matrix" values="0 0 0 0 0 0 0 0 0 0 0 0 0 0 0 0 0 0 127 0" result="hardAlpha"/>
<feOffset dy="-4.14038"/>
<feGaussianBlur stdDeviation="2.07019"/>
<feComposite in2="hardAlpha" operator="arithmetic" k2="-1" k3="1"/>
<feColorMatrix type="matrix" values="0 0 0 0 0 0 0 0 0 0.796078 0 0 0 0 0.662745 0 0 0 0.4 0"/>
<feBlend mode="overlay" in2="effect3_innerShadow_2003_886" result="effect4_innerShadow_2003_886"/>
</filter>
<filter id="filter3_ddii_2003_886" x="307.424" y="156.358" width="55.8961" height="32.8188" filterUnits="userSpaceOnUse" color-interpolation-filters="sRGB">
<feFlood flood-opacity="0" result="BackgroundImageFix"/>
<feColorMatrix in="SourceAlpha" type="matrix" values="0 0 0 0 0 0 0 0 0 0 0 0 0 0 0 0 0 0 127 0" result="hardAlpha"/>
<feOffset dy="0.828077"/>
<feGaussianBlur stdDeviation="1.24212"/>
<feComposite in2="hardAlpha" operator="out"/>
<feColorMatrix type="matrix" values="0 0 0 0 1 0 0 0 0 1 0 0 0 0 1 0 0 0 0.05 0"/>
<feBlend mode="normal" in2="BackgroundImageFix" result="effect1_dropShadow_2003_886"/>
<feColorMatrix in="SourceAlpha" type="matrix" values="0 0 0 0 0 0 0 0 0 0 0 0 0 0 0 0 0 0 127 0" result="hardAlpha"/>
<feOffset dy="0.414038"/>
<feComposite in2="hardAlpha" operator="out"/>
<feColorMatrix type="matrix" values="0 0 0 0 1 0 0 0 0 1 0 0 0 0 1 0 0 0 0.05 0"/>
<feBlend mode="normal" in2="effect1_dropShadow_2003_886" result="effect2_dropShadow_2003_886"/>
<feBlend mode="normal" in="SourceGraphic" in2="effect2_dropShadow_2003_886" result="shape"/>
<feColorMatrix in="SourceAlpha" type="matrix" values="0 0 0 0 0 0 0 0 0 0 0 0 0 0 0 0 0 0 127 0" result="hardAlpha"/>
<feOffset dx="4.14038" dy="4.14038"/>
<feGaussianBlur stdDeviation="4.76144"/>
<feComposite in2="hardAlpha" operator="arithmetic" k2="-1" k3="1"/>
<feColorMatrix type="matrix" values="0 0 0 0 0.6 0 0 0 0 0.368627 0 0 0 0 0.831373 0 0 0 0.18 0"/>
<feBlend mode="normal" in2="shape" result="effect3_innerShadow_2003_886"/>
<feColorMatrix in="SourceAlpha" type="matrix" values="0 0 0 0 0 0 0 0 0 0 0 0 0 0 0 0 0 0 127 0" result="hardAlpha"/>
<feOffset dy="-4.14038"/>
<feGaussianBlur stdDeviation="2.07019"/>
<feComposite in2="hardAlpha" operator="arithmetic" k2="-1" k3="1"/>
<feColorMatrix type="matrix" values="0 0 0 0 0.315 0 0 0 0 0.933333 0 0 0 0 0.841954 0 0 0 1 0"/>
<feBlend mode="overlay" in2="effect3_innerShadow_2003_886" result="effect4_innerShadow_2003_886"/>
</filter>
<filter id="filter4_d_2003_886" x="111.999" y="164.748" width="22.7725" height="22.7722" filterUnits="userSpaceOnUse" color-interpolation-filters="sRGB">
<feFlood flood-opacity="0" result="BackgroundImageFix"/>
<feColorMatrix in="SourceAlpha" type="matrix" values="0 0 0 0 0 0 0 0 0 0 0 0 0 0 0 0 0 0 127 0" result="hardAlpha"/>
<feOffset dy="1.65615"/>
<feGaussianBlur stdDeviation="4.14038"/>
<feComposite in2="hardAlpha" operator="out"/>
<feColorMatrix type="matrix" values="0 0 0 0 0 0 0 0 0 0 0 0 0 0 0 0 0 0 0.15 0"/>
<feBlend mode="normal" in2="BackgroundImageFix" result="effect1_dropShadow_2003_886"/>
<feBlend mode="normal" in="SourceGraphic" in2="effect1_dropShadow_2003_886" result="shape"/>
</filter>
<linearGradient id="paint0_linear_2003_886" x1="227.721" y1="125" x2="227.721" y2="369.283" gradientUnits="userSpaceOnUse">
<stop stop-color="#50EED7"/>
<stop offset="1" stop-color="#7BECF3"/>
</linearGradient>
<linearGradient id="paint1_linear_2003_886" x1="253.392" y1="257.492" x2="500.799" y2="406.535" gradientUnits="userSpaceOnUse">
<stop stop-color="#151536"/>
<stop offset="1" stop-color="#393969"/>
</linearGradient>
<radialGradient id="paint2_radial_2003_886" cx="0" cy="0" r="1" gradientUnits="userSpaceOnUse" gradientTransform="translate(288.524 284.642) rotate(112.542) scale(91.6429 172.061)">
<stop stop-color="#2EA694"/>
<stop offset="1" stop-color="#22EDCF" stop-opacity="0"/>
</radialGradient>
<linearGradient id="paint3_linear_2003_886" x1="162.511" y1="142.39" x2="395.273" y2="282.629" gradientUnits="userSpaceOnUse">
<stop stop-color="#151536"/>
<stop offset="1" stop-color="#393969"/>
</linearGradient>
<radialGradient id="paint4_radial_2003_886" cx="0" cy="0" r="1" gradientUnits="userSpaceOnUse" gradientTransform="translate(195.566 167.93) rotate(112.545) scale(86.214 161.885)">
<stop stop-color="#2EA694"/>
<stop offset="1" stop-color="#22EDCF" stop-opacity="0"/>
</radialGradient>
<linearGradient id="paint5_linear_2003_886" x1="97.0126" y1="236.29" x2="60.503" y2="188.47" gradientUnits="userSpaceOnUse">
<stop stop-color="#50EED7" stop-opacity="0.82"/>
<stop offset="1" stop-color="#50EED7" stop-opacity="0.05"/>
</linearGradient>
<linearGradient id="paint6_linear_2003_886" x1="89.2069" y1="186.422" x2="91.6235" y2="193.336" gradientUnits="userSpaceOnUse">
<stop stop-color="white"/>
<stop offset="1" stop-color="white" stop-opacity="0"/>
</linearGradient>
<linearGradient id="paint7_linear_2003_886" x1="324.4" y1="433.369" x2="285.276" y2="369.193" gradientUnits="userSpaceOnUse">
<stop stop-color="#00CBA9" stop-opacity="0.01"/>
<stop offset="1" stop-color="#00CBA9" stop-opacity="0.12"/>
</linearGradient>
<linearGradient id="paint8_linear_2003_886" x1="348.065" y1="366.17" x2="336.812" y2="365.091" gradientUnits="userSpaceOnUse">
<stop stop-color="white"/>
<stop offset="1" stop-color="white" stop-opacity="0"/>
</linearGradient>
<linearGradient id="paint9_linear_2003_886" x1="334.543" y1="136.464" x2="343.427" y2="183.745" gradientUnits="userSpaceOnUse">
<stop stop-color="#50EED7" stop-opacity="0.74"/>
<stop offset="1" stop-color="#50EED7" stop-opacity="0.19"/>
</linearGradient>
<linearGradient id="paint10_linear_2003_886" x1="348.215" y1="160.152" x2="332.621" y2="160.152" gradientUnits="userSpaceOnUse">
<stop stop-color="white"/>
<stop offset="1" stop-color="white" stop-opacity="0"/>
</linearGradient>
<linearGradient id="paint11_linear_2003_886" x1="252.77" y1="250.868" x2="252.563" y2="346.511" gradientUnits="userSpaceOnUse">
<stop stop-color="#50EED7"/>
<stop offset="1" stop-color="#50EED7" stop-opacity="0"/>
</linearGradient>
<clipPath id="clip0_2003_886">
<rect width="455" height="494" fill="white"/>
</clipPath>
</defs>
</svg>
