<svg width="1440" height="477" viewBox="0 0 1440 477" fill="none" xmlns="http://www.w3.org/2000/svg">
<g clip-path="url(#clip0_1430_658)">
<path opacity="0.6" d="M18 322.654L60.6496 290.747L90.7553 280.775H122.366L151.97 287.257L180.069 283.767L211.178 265.819L238.273 233.911L264 224.5L300 219.5L339 213.5L366.5 206.5L418.5 180L470.5 175.5H506L569 197.5L620 219.5L688 234.5L747 229.5L839.5 197.5L877 194.5L928.5 201.5L965 212.5H1002L1040.5 201.5L1092 164.5L1125.5 155H1155L1177 148L1214.5 105.5L1246 92L1283 74.5L1313 35.5V352L18 376V322.654Z" fill="url(#paint0_linear_1430_658)"/>
<path d="M19 324.5L45.7568 302.13C67.3275 284.095 96.0981 277.201 123.5 283.5V283.5L144.628 286.918C173.285 291.553 202.066 279.373 218.69 255.575V255.575C231.558 237.154 251.951 225.411 274.341 223.527L312.665 220.304C334.643 218.455 355.989 212.014 375.322 201.397L381.883 197.794C435.987 168.081 501.043 166.058 556.889 192.352L588 207L597.117 211.164C657.71 238.839 726.994 240.482 788.831 215.712L811.831 206.499C848.194 191.934 888.428 190.157 925.933 201.462L946.583 207.686C985.857 219.524 1028.42 212.104 1061.37 187.672L1092.91 164.286C1104.66 155.573 1119.73 152.675 1133.88 156.411V156.411C1152.46 161.32 1172.19 154.705 1184.05 139.582L1198.29 121.433C1209.46 107.2 1224.96 96.9939 1242.45 92.3612L1246.79 91.2122C1274.77 83.7985 1297.96 64.2238 1309.96 37.8771L1311.5 34.5" stroke="#50EED7" stroke-width="5"/>
<g opacity="0.2">
<g opacity="0.2">
<path d="M-2564.6 1021.69C-1805.82 1075.73 -1222.13 898.534 -604.191 710.895C-171.269 579.431 276.392 443.505 821.661 371.431C1440.64 289.612 2092.53 305.725 2814.56 420.667L2814.11 424.494C1199.08 167.364 241.531 458.109 -603.301 714.618C-1221.52 902.315 -1805.46 1079.65 -2564.81 1025.53L-2564.56 1021.66L-2564.6 1021.69Z" fill="#50EED7"/>
<g opacity="0.8">
<path d="M-2567.71 1013.63C-1812.15 1057.56 -1214.56 873.486 -581.869 678.562C-142.096 543.076 312.666 402.993 853.404 327.227C1466.36 241.351 2100.96 253.818 2793.35 365.378L2792.86 369.202C1244.84 119.797 274.855 418.627 -580.979 682.285C-1213.95 877.267 -1811.79 1061.48 -2567.89 1017.47L-2567.74 1013.58L-2567.71 1013.63Z" fill="#50EED7"/>
</g>
<g opacity="0.6">
<path d="M-2570.82 1005.52C-1818.35 1039.41 -1206.71 848.343 -559.124 646.065C-112.534 506.557 349.259 362.351 885.396 282.925C1492.33 193.03 2109.49 201.918 2772.18 310.017L2771.69 313.841C1290.84 72.2079 350.852 365.814 -558.198 649.753C-1206.03 852.091 -1817.95 1043.25 -2570.93 1009.33L-2570.81 1005.44L-2570.82 1005.52Z" fill="#50EED7"/>
</g>
<g opacity="0.7">
<path d="M-2573.97 997.45C-1824.44 1021.22 -1198.58 823.177 -535.998 613.478C-82.6631 470.018 386.094 321.646 917.554 238.67C1518.4 144.828 2118.11 150.098 2750.92 254.763L2750.43 258.587C1336.97 24.7782 385.265 325.944 -535.073 617.203C-1197.94 826.961 -1824.05 1025.14 -2574.08 1001.34L-2574 997.447L-2573.97 997.45Z" fill="#50EED7"/>
</g>
<g opacity="0.6">
<path d="M-2577.08 989.345C-1830.36 1003.01 -1190.14 797.881 -512.339 580.659C-52.3628 433.242 423.316 280.815 950.034 194.248C1544.72 96.492 2126.88 98.1759 2729.75 199.401L2729.26 203.225C1383.27 -22.7525 420.104 285.875 -511.381 584.387C-1189.43 801.669 -1829.89 1006.89 -2577.09 993.2L-2577.04 989.309L-2577.08 989.345Z" fill="#50EED7"/>
</g>
<g opacity="0.9">
<path d="M-2580.19 981.277C-1836.11 984.839 -1181.35 772.492 -488.16 547.721C454.605 242.002 1429.45 -74.1488 2708.53 144.112L2708.05 147.936C1429.71 -70.1999 455.215 245.821 -487.202 551.448C-1180.64 776.318 -1835.61 988.69 -2580.17 985.173L-2580.16 981.279L-2580.19 981.277Z" fill="#50EED7"/>
</g>
</g>
<g filter="url(#filter0_d_1430_658)">
<g opacity="0.8">
<path d="M895.857 321.478C1495.7 241.963 2116.89 256.344 2793.35 365.378L2792.86 369.202C2044.46 248.649 1431.14 256.199 900.54 325.982L895.823 321.475L895.857 321.478Z" fill="#50EED7"/>
</g>
<g opacity="0.6">
<path d="M15.5668 476.874C763.753 267.175 1597.74 122.393 2771.65 313.875L2772.14 310.051C2109.48 201.954 1492.3 193.065 885.361 282.922C573.072 329.165 286.019 397.401 12.4958 473.963L15.5668 476.874Z" fill="#50EED7"/>
</g>
<g opacity="0.7">
<path d="M-837.459 707.958C-737.469 677.247 -637.136 645.489 -535.998 613.478C-82.6605 469.981 386.125 321.687 917.554 238.671C1518.4 144.829 2118.11 150.061 2750.92 254.763L2750.43 258.587C1336.96 24.8167 385.296 325.985 -535.073 617.204C-635.475 648.957 -735.038 680.498 -834.293 710.99L-837.459 707.958Z" fill="#50EED7"/>
</g>
<g opacity="0.6">
<path d="M-1696.99 912.963C-1295.26 835.626 -909.839 712.101 -511.417 584.422C420.067 285.91 1383.27 -22.7155 2729.26 203.262L2729.72 199.398C2126.85 98.2109 1544.68 96.5269 949.997 194.283C423.282 280.812 -52.3629 433.241 -512.376 580.694C-911.603 708.627 -1297.79 832.369 -1700.41 909.686L-1696.99 912.925L-1696.99 912.963Z" fill="#50EED7"/>
</g>
<g opacity="0.9">
<path d="M-2568.51 980.266C-1824.43 983.828 -1168.91 771.492 -475.758 546.718C467.008 241 1440.81 -75.3346 2719.89 142.926L2721.47 147.076C1443.14 -71.0596 467.583 244.817 -474.834 550.443C-1168.27 775.314 -1822.48 987.696 -2567.08 984.139L-2568.58 980.261L-2568.51 980.266Z" fill="#50EED7"/>
</g>
</g>
</g>
</g>
<defs>
<filter id="filter0_d_1430_658" x="-2598.58" y="40.5303" width="5443.14" height="973.652" filterUnits="userSpaceOnUse" color-interpolation-filters="sRGB">
<feFlood flood-opacity="0" result="BackgroundImageFix"/>
<feColorMatrix in="SourceAlpha" type="matrix" values="0 0 0 0 0 0 0 0 0 0 0 0 0 0 0 0 0 0 127 0" result="hardAlpha"/>
<feOffset/>
<feGaussianBlur stdDeviation="15"/>
<feColorMatrix type="matrix" values="0 0 0 0 0 0 0 0 0 1 0 0 0 0 0.807843 0 0 0 0.7 0"/>
<feBlend mode="normal" in2="BackgroundImageFix" result="effect1_dropShadow_1430_658"/>
<feBlend mode="normal" in="SourceGraphic" in2="effect1_dropShadow_1430_658" result="shape"/>
</filter>
<linearGradient id="paint0_linear_1430_658" x1="164.5" y1="-5.46998e-05" x2="168.5" y2="308.5" gradientUnits="userSpaceOnUse">
<stop stop-color="#50EED7"/>
<stop offset="1" stop-color="#50EED7" stop-opacity="0"/>
</linearGradient>
<clipPath id="clip0_1430_658">
<rect width="1440" height="477" fill="white"/>
</clipPath>
</defs>
</svg>
