<svg width="190" height="186" viewBox="0 0 190 186" fill="none" xmlns="http://www.w3.org/2000/svg">
<path d="M127.587 40.8314C138.164 48.9419 145.121 60.8756 146.927 74.0073C148.734 87.139 145.243 100.393 137.221 110.854C129.2 121.314 117.305 128.125 104.155 129.786C91.0037 131.448 77.6738 127.825 67.0971 119.715L127.587 40.8314Z" fill="#50EED7"/>
<g filter="url(#filter0_biiii_102_73)">
<path d="M43.8234 40.512C32.2005 55.6692 27.0987 74.8411 29.6404 93.8102C32.1821 112.779 42.1591 129.992 57.3765 141.661C72.5939 153.33 91.8053 158.5 110.784 156.033C129.763 153.567 146.955 143.666 158.578 128.509L43.8234 40.512Z" fill="url(#paint0_linear_102_73)"/>
</g>
<path d="M116.868 54.8094C123.696 60.0455 128.188 67.7499 129.354 76.2277C130.52 84.7054 128.266 93.2622 123.088 100.016C117.909 106.769 110.23 111.166 101.74 112.238C93.2498 113.311 84.6441 110.972 77.8158 105.736L116.868 54.8094Z" fill="url(#paint1_linear_102_73)"/>
<defs>
<filter id="filter0_biiii_102_73" x="8.00122" y="19.5122" width="171.577" height="158.124" filterUnits="userSpaceOnUse" color-interpolation-filters="sRGB">
<feFlood flood-opacity="0" result="BackgroundImageFix"/>
<feGaussianBlur in="BackgroundImageFix" stdDeviation="10.5"/>
<feComposite in2="SourceAlpha" operator="in" result="effect1_backgroundBlur_102_73"/>
<feBlend mode="normal" in="SourceGraphic" in2="effect1_backgroundBlur_102_73" result="shape"/>
<feColorMatrix in="SourceAlpha" type="matrix" values="0 0 0 0 0 0 0 0 0 0 0 0 0 0 0 0 0 0 127 0" result="hardAlpha"/>
<feOffset dx="10" dy="10"/>
<feGaussianBlur stdDeviation="11.5"/>
<feComposite in2="hardAlpha" operator="arithmetic" k2="-1" k3="1"/>
<feColorMatrix type="matrix" values="0 0 0 0 0.6 0 0 0 0 0.368627 0 0 0 0 0.831373 0 0 0 0.18 0"/>
<feBlend mode="normal" in2="shape" result="effect2_innerShadow_102_73"/>
<feColorMatrix in="SourceAlpha" type="matrix" values="0 0 0 0 0 0 0 0 0 0 0 0 0 0 0 0 0 0 127 0" result="hardAlpha"/>
<feMorphology radius="2" operator="erode" in="SourceAlpha" result="effect3_innerShadow_102_73"/>
<feOffset dy="2"/>
<feGaussianBlur stdDeviation="3"/>
<feComposite in2="hardAlpha" operator="arithmetic" k2="-1" k3="1"/>
<feColorMatrix type="matrix" values="0 0 0 0 1 0 0 0 0 1 0 0 0 0 1 0 0 0 0.05 0"/>
<feBlend mode="normal" in2="effect2_innerShadow_102_73" result="effect3_innerShadow_102_73"/>
<feColorMatrix in="SourceAlpha" type="matrix" values="0 0 0 0 0 0 0 0 0 0 0 0 0 0 0 0 0 0 127 0" result="hardAlpha"/>
<feOffset dy="1"/>
<feComposite in2="hardAlpha" operator="arithmetic" k2="-1" k3="1"/>
<feColorMatrix type="matrix" values="0 0 0 0 1 0 0 0 0 1 0 0 0 0 1 0 0 0 0.05 0"/>
<feBlend mode="normal" in2="effect3_innerShadow_102_73" result="effect4_innerShadow_102_73"/>
<feColorMatrix in="SourceAlpha" type="matrix" values="0 0 0 0 0 0 0 0 0 0 0 0 0 0 0 0 0 0 127 0" result="hardAlpha"/>
<feOffset dy="-10"/>
<feGaussianBlur stdDeviation="5"/>
<feComposite in2="hardAlpha" operator="arithmetic" k2="-1" k3="1"/>
<feColorMatrix type="matrix" values="0 0 0 0 0.315 0 0 0 0 0.933333 0 0 0 0 0.841954 0 0 0 1 0"/>
<feBlend mode="overlay" in2="effect4_innerShadow_102_73" result="effect5_innerShadow_102_73"/>
</filter>
<linearGradient id="paint0_linear_102_73" x1="144.125" y1="28.5344" x2="80.3715" y2="154.521" gradientUnits="userSpaceOnUse">
<stop stop-color="#50EED7" stop-opacity="0.74"/>
<stop offset="1" stop-color="#50EED7" stop-opacity="0.19"/>
</linearGradient>
<linearGradient id="paint1_linear_102_73" x1="133.662" y1="108.124" x2="97.3418" y2="80.2729" gradientUnits="userSpaceOnUse">
<stop stop-color="white"/>
<stop offset="1" stop-color="white" stop-opacity="0"/>
</linearGradient>
</defs>
</svg>
