<svg width="40" height="41" viewBox="0 0 40 41" fill="none" xmlns="http://www.w3.org/2000/svg">
<path d="M32.5001 7.61523H7.50012C6.50556 7.61523 5.55173 8.01032 4.84847 8.71358C4.14521 9.41685 3.75012 10.3707 3.75012 11.3652V28.8652C3.75012 29.8598 4.14521 30.8136 4.84847 31.5169C5.55173 32.2201 6.50556 32.6152 7.50012 32.6152H32.5001C33.4947 32.6152 34.4485 32.2201 35.1518 31.5169C35.855 30.8136 36.2501 29.8598 36.2501 28.8652V11.3652C36.2501 10.3707 35.855 9.41685 35.1518 8.71358C34.4485 8.01032 33.4947 7.61523 32.5001 7.61523ZM6.25012 15.1152H33.7501V17.6152H26.1236C25.5473 17.6156 24.9888 17.8149 24.5426 18.1797C24.0965 18.5444 23.79 19.0521 23.6751 19.6168C23.5 20.4612 23.0392 21.2194 22.3704 21.7638C21.7016 22.3081 20.8656 22.6053 20.0032 22.6053C19.1409 22.6053 18.3049 22.3081 17.6361 21.7638C16.9673 21.2194 16.5065 20.4612 16.3314 19.6168C16.2163 19.051 15.9089 18.5426 15.4614 18.1777C15.014 17.8128 14.454 17.6141 13.8767 17.6152H6.25012V15.1152ZM7.50012 10.1152H32.5001C32.8316 10.1152 33.1496 10.2469 33.384 10.4814C33.6184 10.7158 33.7501 11.0337 33.7501 11.3652V12.6152H6.25012V11.3652C6.25012 11.0337 6.38182 10.7158 6.61624 10.4814C6.85066 10.2469 7.1686 10.1152 7.50012 10.1152ZM32.5001 30.1152H7.50012C7.1686 30.1152 6.85066 29.9835 6.61624 29.7491C6.38182 29.5147 6.25012 29.1968 6.25012 28.8652V20.1152H13.8751C14.1628 21.5273 14.9295 22.7965 16.0455 23.7081C17.1616 24.6197 18.5583 25.1177 19.9993 25.1177C21.4404 25.1177 22.8371 24.6197 23.9531 23.7081C25.0692 22.7965 25.8359 21.5273 26.1236 20.1152H33.7501V28.8652C33.7501 29.1968 33.6184 29.5147 33.384 29.7491C33.1496 29.9835 32.8316 30.1152 32.5001 30.1152Z" fill="white"/>
</svg>
