<svg width="34" height="35" viewBox="0 0 34 35" fill="none" xmlns="http://www.w3.org/2000/svg">
<g clip-path="url(#clip0_95_105)">
<path d="M17 1.26611C7.90234 1.26611 0.53125 8.63721 0.53125 17.7349C0.53125 26.8325 7.90234 34.2036 17 34.2036C26.0977 34.2036 33.4688 26.8325 33.4688 17.7349C33.4688 8.63721 26.0977 1.26611 17 1.26611ZM23.1419 22.0513L21.8138 23.7114C21.7266 23.8204 21.6189 23.9111 21.4966 23.9784C21.3744 24.0458 21.2401 24.0883 21.1014 24.1038C20.9628 24.1192 20.8224 24.1071 20.6884 24.0683C20.5543 24.0295 20.4293 23.9646 20.3203 23.8774L15.8711 20.5757C15.5602 20.3268 15.3093 20.0112 15.1369 19.6522C14.9644 19.2932 14.875 18.9001 14.875 18.5019V8.17236C14.875 7.89057 14.9869 7.62032 15.1862 7.42106C15.3855 7.22181 15.6557 7.10986 15.9375 7.10986H18.0625C18.3443 7.10986 18.6145 7.22181 18.8138 7.42106C19.0131 7.62032 19.125 7.89057 19.125 8.17236V17.7349L22.9766 20.5571C23.0856 20.6443 23.1763 20.7522 23.2437 20.8745C23.311 20.9968 23.3535 21.1312 23.3689 21.2699C23.3842 21.4087 23.3721 21.5491 23.3331 21.6832C23.2942 21.8173 23.2292 21.9423 23.1419 22.0513Z" fill="white"/>
</g>
<defs>
<clipPath id="clip0_95_105">
<rect width="34" height="34" fill="white" transform="translate(0 0.734863)"/>
</clipPath>
</defs>
</svg>
