<svg width="21" height="21" viewBox="0 0 21 21" fill="none" xmlns="http://www.w3.org/2000/svg">
<mask id="mask0_62_12" style="mask-type:alpha" maskUnits="userSpaceOnUse" x="0" y="0" width="21" height="21">
<rect width="21" height="21" fill="#D9D9D9"/>
</mask>
<g mask="url(#mask0_62_12)">
<path d="M4.375 19.25C3.89375 19.25 3.48177 19.0786 3.13906 18.7359C2.79635 18.3932 2.625 17.9813 2.625 17.5V5.25H4.375V17.5H14V19.25H4.375ZM7.875 15.75C7.39375 15.75 6.98177 15.5786 6.63906 15.2359C6.29635 14.8932 6.125 14.4812 6.125 14V3.5C6.125 3.01875 6.29635 2.60677 6.63906 2.26406C6.98177 1.92135 7.39375 1.75 7.875 1.75H15.75C16.2312 1.75 16.6432 1.92135 16.9859 2.26406C17.3286 2.60677 17.5 3.01875 17.5 3.5V14C17.5 14.4812 17.3286 14.8932 16.9859 15.2359C16.6432 15.5786 16.2312 15.75 15.75 15.75H7.875ZM7.875 14H15.75V3.5H7.875V14Z" fill="white"/>
</g>
</svg>
