<svg width="186" height="185" viewBox="0 0 186 185" fill="none" xmlns="http://www.w3.org/2000/svg">
<mask id="path-1-inside-1_856_754" fill="white">
<path d="M185.115 92.5C185.115 143.586 143.702 185 92.6152 185C41.5289 185 0.115234 143.586 0.115234 92.5C0.115234 41.4137 41.5289 0 92.6152 0C143.702 0 185.115 41.4137 185.115 92.5ZM18.6152 92.5C18.6152 133.369 51.7462 166.5 92.6152 166.5C133.484 166.5 166.615 133.369 166.615 92.5C166.615 51.6309 133.484 18.5 92.6152 18.5C51.7462 18.5 18.6152 51.6309 18.6152 92.5Z"/>
</mask>
<path d="M185.115 92.5C185.115 143.586 143.702 185 92.6152 185C41.5289 185 0.115234 143.586 0.115234 92.5C0.115234 41.4137 41.5289 0 92.6152 0C143.702 0 185.115 41.4137 185.115 92.5ZM18.6152 92.5C18.6152 133.369 51.7462 166.5 92.6152 166.5C133.484 166.5 166.615 133.369 166.615 92.5C166.615 51.6309 133.484 18.5 92.6152 18.5C51.7462 18.5 18.6152 51.6309 18.6152 92.5Z" stroke="#4FDCC7" stroke-opacity="0.5" stroke-width="122.402" mask="url(#path-1-inside-1_856_754)"/>
<mask id="path-2-inside-2_856_754" fill="white">
<path d="M46.0615 172.431C24.8624 160.084 9.43635 139.822 3.17686 116.101C-3.08263 92.3809 0.3372 67.1453 12.684 45.9463L28.6703 55.257C18.7928 72.2163 16.0569 92.4047 21.0645 111.381C26.0721 130.358 38.413 146.568 55.3722 156.445L46.0615 172.431Z"/>
</mask>
<path d="M46.0615 172.431C24.8624 160.084 9.43635 139.822 3.17686 116.101C-3.08263 92.3809 0.3372 67.1453 12.684 45.9463L28.6703 55.257C18.7928 72.2163 16.0569 92.4047 21.0645 111.381C26.0721 130.358 38.413 146.568 55.3722 156.445L46.0615 172.431Z" stroke="#313158" stroke-width="122.402" mask="url(#path-2-inside-2_856_754)"/>
</svg>
