<svg width="19" height="19" viewBox="0 0 19 19" fill="none" xmlns="http://www.w3.org/2000/svg">
<g id="Group">
<path id="Vector" d="M11.4073 7.64169H17.5215C17.7233 7.64169 17.9168 7.56153 18.0595 7.41885C18.2022 7.27617 18.2823 7.08264 18.2823 6.88086C18.2823 5.0575 17.558 3.30881 16.2687 2.0195C14.9794 0.730188 13.2307 0.00585938 11.4073 0.00585938C11.2055 0.00585938 11.012 0.0860184 10.8693 0.228702C10.7266 0.371386 10.6465 0.564907 10.6465 0.766693V6.88086C10.6465 7.08264 10.7266 7.27617 10.8693 7.41885C11.012 7.56153 11.2055 7.64169 11.4073 7.64169Z" fill="#4FDCC7"/>
<path id="Vector_2" d="M17.4388 9.17167H9.96792C9.85838 9.17167 9.74991 9.15009 9.6487 9.10817C9.5475 9.06625 9.45554 9.0048 9.37808 8.92734C9.30062 8.84988 9.23917 8.75793 9.19725 8.65672C9.15533 8.55552 9.13376 8.44704 9.13376 8.3375V0.848332C9.13446 0.72943 9.11001 0.611723 9.06202 0.502935C9.01403 0.394147 8.94357 0.296738 8.85528 0.2171C8.76698 0.137461 8.66284 0.0773944 8.5497 0.0408404C8.43655 0.00428649 8.31696 -0.00792807 8.19876 0.00499838C6.47794 0.187721 4.844 0.853807 3.48588 1.92623C2.12775 2.99865 1.10093 4.4336 0.524155 6.06514C-0.0526221 7.69667 -0.155794 9.45815 0.22657 11.1459C0.608935 12.8336 1.46122 14.3786 2.68486 15.6022C3.9085 16.8259 5.45351 17.6782 7.14122 18.0605C8.82894 18.4429 10.5904 18.3397 12.222 17.7629C13.8535 17.1862 15.2884 16.1593 16.3609 14.8012C17.4333 13.4431 18.0994 11.8091 18.2821 10.0883C18.2923 9.97158 18.278 9.85398 18.2402 9.74304C18.2024 9.6321 18.1419 9.53026 18.0626 9.44401C17.9832 9.35776 17.8868 9.28899 17.7794 9.2421C17.672 9.19521 17.556 9.17122 17.4388 9.17167Z" fill="#4FDCC7"/>
</g>
</svg>
