<svg width="1440" height="250" viewBox="0 0 1440 250" fill="none" xmlns="http://www.w3.org/2000/svg">
<g clipPath="url(#clip0_1229_658)">
<rect width="1440" height="250" fill="#040426"/>
<g opacity="0.2" filter="url(#filter0_f_1229_658)">
<rect x="125" y="223" width="1190" height="645.89" rx="40" fill="url(#paint0_linear_1229_658)"/>
</g>
<path opacity="0.6" d="M18 329.654L60.6496 297.747L90.7553 287.775H122.366L151.97 294.257L180.069 290.767L211.178 272.819L238.273 240.911L264 231.5L300 226.5L339 220.5L366.5 213.5L418.5 187L470.5 182.5H506L569 204.5L620 226.5L688 241.5L747 236.5L839.5 204.5L877 201.5L928.5 208.5L965 219.5H1002L1040.5 208.5L1092 171.5L1109 164L1155 162L1177 155L1214.5 112.5L1246 99L1283 81.5L1313 42.5V359L18 383V329.654Z" fill="url(#paint1_linear_1229_658)"/>
<path d="M19 331.5L45.7568 309.13C67.3275 291.095 96.0981 284.201 123.5 290.5V290.5L144.628 293.918C173.285 298.553 202.066 286.373 218.69 262.575V262.575C231.558 244.154 251.951 232.411 274.341 230.527L312.665 227.304C334.643 225.455 355.989 219.014 375.322 208.397L381.883 204.794C435.987 175.081 501.043 173.058 556.889 199.352L588 214L597.117 218.164C657.71 245.839 726.994 247.482 788.831 222.712L811.831 213.499C848.194 198.934 888.428 197.157 925.933 208.462L946.583 214.686C985.857 226.524 1028.42 219.104 1061.37 194.672L1092.91 171.286C1104.66 162.573 1119.73 159.675 1133.88 163.411V163.411C1152.46 168.32 1172.19 161.705 1184.05 146.582L1198.29 128.433C1209.46 114.2 1224.96 103.994 1242.45 99.3612L1246.79 98.2122C1274.77 90.7985 1297.96 71.2238 1309.96 44.8771L1311.5 41.5" stroke="#50EED7" stroke-width="5"/>
<g filter="url(#filter1_d_1229_658)">
<path d="M1334.73 80.4639L1329.6 63.9935L1306.86 84.0013L1310.74 108.072L1334.73 80.4639Z" fill="#50EED7"/>
<path d="M1291.62 31.4639L1306.3 37.5005L1283.55 57.5083L1261.49 52.0869L1291.62 31.4639Z" fill="#50EED7"/>
<path d="M1285.65 79.6001L1290.51 75.3284L1295.36 71.0567L1347.16 25.4922C1347.16 25.4922 1337.3 20.769 1317.51 29.0719C1306.12 33.8485 1296.73 39.7265 1287.45 46.558C1281.49 50.9481 1275.93 56.311 1270.21 62.0408L1273.3 65.5527L1270.06 68.4004L1273.68 72.5168L1270.44 75.3646L1279.18 85.2957L1282.42 82.4479L1285.65 79.6001Z" fill="#50EED7"/>
<path d="M1285.65 79.6001L1290.51 75.3284L1295.36 71.0567L1347.16 25.4922C1347.16 25.4922 1350.77 36.0835 1340.14 54.8004C1334.02 65.5679 1327.03 74.1638 1319.09 82.5211C1313.99 87.8917 1307.95 92.7086 1301.53 97.6472L1298.35 94.0377L1295.12 96.8855L1291.4 92.6548L1288.16 95.5026L1279.18 85.2957L1282.42 82.4479L1285.65 79.6001Z" fill="#F9F1F9"/>
<path d="M1270.67 85.7062C1273.01 88.3616 1274.63 90.2 1278.58 94.6939C1282.93 99.6396 1265.41 108.454 1264.33 107.229C1263.25 106.003 1254.63 107.789 1254.63 107.789C1254.63 107.789 1258.04 100.079 1256.43 98.2411C1254.81 96.4027 1266.64 81.1179 1270.67 85.7062Z" fill="#50EED7"/>
<path d="M1271.36 86.4866C1273.29 88.6803 1274.63 90.1989 1277.89 93.9112C1281.49 97.9969 1268.1 104.325 1267.21 103.312C1266.31 102.3 1259.63 103.391 1259.63 103.391C1259.63 103.391 1262.01 97.4064 1260.67 95.8878C1259.34 94.3691 1268.03 82.6963 1271.36 86.4866Z" fill="#50EED7"/>
<path d="M1272.39 87.657C1273.71 89.158 1274.62 90.197 1276.86 92.737C1279.32 95.5325 1270.34 99.6972 1269.73 99.0045C1269.12 98.3117 1264.63 98.9917 1264.63 98.9917C1264.63 98.9917 1266.18 94.9636 1265.27 93.9245C1264.35 92.8854 1270.11 85.0637 1272.39 87.657Z" fill="#50EED7"/>
<path d="M1272.14 77.2979L1286.66 93.7933L1279.78 98.0704L1267.47 84.0742L1272.14 77.2979Z" fill="#151536"/>
<circle cx="1330.26" cy="40.5467" r="9.15203" transform="rotate(48.6617 1330.26 40.5467)" fill="#50EED7" stroke="#151536" stroke-width="3"/>
<path d="M1309.15 52.5526L1317.59 51.3413L1315.31 59.5507L1278.1 86.0801L1309.15 52.5526Z" fill="#50EED7"/>
</g>
<g opacity="0.2">
<g opacity="0.2">
<path d="M-2564.6 1028.69C-1805.82 1082.73 -1222.13 905.535 -604.19 717.896C-171.268 586.431 276.393 450.505 821.662 378.432C1440.64 296.613 2092.53 312.726 2814.56 427.668L2814.11 431.494C1199.08 174.365 241.532 465.109 -603.3 721.619C-1221.52 909.316 -1805.46 1086.65 -2564.81 1032.53L-2564.56 1028.66L-2564.6 1028.69Z" fill="#50EED7"/>
<g opacity="0.8">
<path d="M-2567.71 1020.63C-1812.15 1064.56 -1214.56 880.487 -581.868 685.562C-142.095 550.077 312.667 409.994 853.405 334.227C1466.36 248.351 2100.96 260.818 2793.35 372.379L2792.86 376.203C1244.84 126.797 274.856 425.627 -580.978 689.285C-1213.95 884.268 -1811.79 1068.48 -2567.89 1024.47L-2567.74 1020.59L-2567.71 1020.63Z" fill="#50EED7"/>
</g>
<g opacity="0.6">
<path d="M-2570.82 1012.52C-1818.35 1046.41 -1206.71 855.343 -559.123 653.065C-112.533 513.557 349.26 369.351 885.397 289.925C1492.34 200.03 2109.49 208.918 2772.18 317.017L2771.69 320.841C1290.84 79.2079 350.853 372.814 -558.197 656.753C-1206.03 859.091 -1817.95 1050.25 -2570.93 1016.33L-2570.81 1012.44L-2570.82 1012.52Z" fill="#50EED7"/>
</g>
<g opacity="0.7">
<path d="M-2573.96 1004.45C-1824.44 1028.22 -1198.58 830.178 -535.995 620.479C-82.6601 477.019 386.096 328.647 917.557 245.671C1518.4 151.829 2118.11 157.099 2750.93 261.764L2750.44 265.588C1336.97 31.7791 385.268 332.945 -535.07 624.204C-1197.94 833.962 -1824.04 1032.14 -2574.08 1008.34L-2574 1004.45L-2573.96 1004.45Z" fill="#50EED7"/>
</g>
<g opacity="0.6">
<path d="M-2577.08 996.346C-1830.36 1010.01 -1190.14 804.882 -512.34 587.66C-52.3638 440.242 423.315 287.816 950.033 201.248C1544.72 103.492 2126.88 105.176 2729.75 206.402L2729.26 210.226C1383.27 -15.752 420.103 292.875 -511.382 591.387C-1189.43 808.67 -1829.89 1013.89 -2577.09 1000.2L-2577.04 996.31L-2577.08 996.346Z" fill="#50EED7"/>
</g>
<g opacity="0.9">
<path d="M-2580.19 988.278C-1836.11 991.84 -1181.35 779.493 -488.157 554.722C454.608 249.003 1429.46 -67.1478 2708.54 151.113L2708.05 154.937C1429.72 -63.1989 455.218 252.822 -487.199 558.449C-1180.63 783.319 -1835.6 995.691 -2580.17 992.174L-2580.15 988.28L-2580.19 988.278Z" fill="#50EED7"/>
</g>
</g>
<g filter="url(#filter2_d_1229_658)">
<g opacity="0.8">
<path d="M895.858 328.479C1495.7 248.964 2116.89 263.345 2793.35 372.379L2792.86 376.203C2044.46 255.65 1431.14 263.2 900.541 332.983L895.824 328.476L895.858 328.479Z" fill="#50EED7"/>
</g>
<g opacity="0.6">
<path d="M15.5697 483.874C763.756 274.176 1597.74 129.393 2771.65 320.876L2772.14 317.052C2109.49 208.955 1492.3 200.065 885.364 289.922C573.075 336.166 286.022 404.402 12.4987 480.964L15.5697 483.874Z" fill="#50EED7"/>
</g>
<g opacity="0.7">
<path d="M-837.458 714.959C-737.468 684.248 -637.136 652.49 -535.997 620.479C-82.6595 476.981 386.126 328.687 917.555 245.672C1518.4 151.829 2118.12 157.061 2750.92 261.764L2750.44 265.588C1336.96 31.8172 385.297 332.985 -535.072 624.204C-635.474 655.958 -735.037 687.498 -834.292 717.99L-837.458 714.959Z" fill="#50EED7"/>
</g>
<g opacity="0.6">
<path d="M-1696.99 919.964C-1295.25 842.627 -909.836 719.102 -511.415 591.423C420.07 292.911 1383.27 -15.7146 2729.26 210.263L2729.72 206.399C2126.85 105.212 1544.68 103.528 950 201.284C423.285 287.813 -52.36 440.242 -512.373 587.695C-911.6 715.628 -1297.79 839.37 -1700.41 916.687L-1696.98 919.926L-1696.99 919.964Z" fill="#50EED7"/>
</g>
<g opacity="0.9">
<path d="M-2568.51 987.267C-1824.43 990.829 -1168.91 778.493 -475.757 553.719C467.009 248.001 1440.81 -68.3336 2719.89 149.927L2721.47 154.077C1443.14 -64.0586 467.584 251.818 -474.833 557.444C-1168.27 782.315 -1822.48 994.697 -2567.08 991.14L-2568.58 987.262L-2568.51 987.267Z" fill="#50EED7"/>
</g>
</g>
</g>
<g opacity="0.2" filter="url(#filter3_f_1229_658)">
<rect x="120" y="271" width="1190" height="645.89" rx="40" fill="url(#paint2_linear_1229_658)"/>
</g>
</g>
<defs>
<filter id="filter0_f_1229_658" x="-175" y="-77" width="1790" height="1245.89" filterUnits="userSpaceOnUse" color-interpolation-filters="sRGB">
<feFlood flood-opacity="0" result="BackgroundImageFix"/>
<feBlend mode="normal" in="SourceGraphic" in2="BackgroundImageFix" result="shape"/>
<feGaussianBlur stdDeviation="150" result="effect1_foregroundBlur_1229_658"/>
</filter>
<filter id="filter1_d_1229_658" x="1250.63" y="24.1543" width="101.117" height="91.9175" filterUnits="userSpaceOnUse" color-interpolation-filters="sRGB">
<feFlood flood-opacity="0" result="BackgroundImageFix"/>
<feColorMatrix in="SourceAlpha" type="matrix" values="0 0 0 0 0 0 0 0 0 0 0 0 0 0 0 0 0 0 127 0" result="hardAlpha"/>
<feOffset dy="4"/>
<feGaussianBlur stdDeviation="2"/>
<feComposite in2="hardAlpha" operator="out"/>
<feColorMatrix type="matrix" values="0 0 0 0 0 0 0 0 0 0 0 0 0 0 0 0 0 0 0.25 0"/>
<feBlend mode="normal" in2="BackgroundImageFix" result="effect1_dropShadow_1229_658"/>
<feBlend mode="normal" in="SourceGraphic" in2="effect1_dropShadow_1229_658" result="shape"/>
</filter>
<filter id="filter2_d_1229_658" x="-2598.57" y="47.5312" width="5443.14" height="973.652" filterUnits="userSpaceOnUse" color-interpolation-filters="sRGB">
<feFlood flood-opacity="0" result="BackgroundImageFix"/>
<feColorMatrix in="SourceAlpha" type="matrix" values="0 0 0 0 0 0 0 0 0 0 0 0 0 0 0 0 0 0 127 0" result="hardAlpha"/>
<feOffset/>
<feGaussianBlur stdDeviation="15"/>
<feColorMatrix type="matrix" values="0 0 0 0 0 0 0 0 0 1 0 0 0 0 0.807843 0 0 0 0.7 0"/>
<feBlend mode="normal" in2="BackgroundImageFix" result="effect1_dropShadow_1229_658"/>
<feBlend mode="normal" in="SourceGraphic" in2="effect1_dropShadow_1229_658" result="shape"/>
</filter>
<filter id="filter3_f_1229_658" x="-180" y="-29" width="1790" height="1245.89" filterUnits="userSpaceOnUse" color-interpolation-filters="sRGB">
<feFlood flood-opacity="0" result="BackgroundImageFix"/>
<feBlend mode="normal" in="SourceGraphic" in2="BackgroundImageFix" result="shape"/>
<feGaussianBlur stdDeviation="150" result="effect1_foregroundBlur_1229_658"/>
</filter>
<linearGradient id="paint0_linear_1229_658" x1="720" y1="223" x2="720" y2="868.89" gradientUnits="userSpaceOnUse">
<stop stop-color="#50EED7"/>
<stop offset="1" stop-color="#7BECF3"/>
</linearGradient>
<linearGradient id="paint1_linear_1229_658" x1="164.5" y1="6.99995" x2="168.5" y2="315.5" gradientUnits="userSpaceOnUse">
<stop stop-color="#50EED7"/>
<stop offset="1" stop-color="#50EED7" stop-opacity="0"/>
</linearGradient>
<linearGradient id="paint2_linear_1229_658" x1="715" y1="271" x2="715" y2="916.89" gradientUnits="userSpaceOnUse">
<stop stop-color="#50EED7"/>
<stop offset="1" stop-color="#7BECF3"/>
</linearGradient>
<clipPath id="clip0_1229_658">
<rect width="1440" height="250" fill="white"/>
</clipPath>
</defs>
</svg>
