<svg width="205" height="175" viewBox="0 0 205 175" fill="none" xmlns="http://www.w3.org/2000/svg">
<g opacity="0.3" filter="url(#filter0_f_899_889)">
<rect x="9" y="171" width="167" height="5" rx="2.5" transform="rotate(-90 9 171)" fill="#50EED7"/>
</g>
<g filter="url(#filter1_f_899_889)">
<circle cx="11.5" cy="39.5" r="7.5" fill="white"/>
<circle cx="11.5" cy="39.5" r="6.5" stroke="#50EED7" stroke-opacity="0.2" stroke-width="2"/>
</g>
<g filter="url(#filter2_f_899_889)">
<path d="M63.836 43V39.248L64.158 40.116L59.944 33.2H61.442L64.984 39.038H64.172L67.728 33.2H69.114L64.914 40.116L65.222 39.248V43H63.836ZM72.6825 43.084C71.9358 43.084 71.2731 42.9207 70.6945 42.594C70.1158 42.2673 69.6585 41.8193 69.3225 41.25C68.9865 40.6713 68.8185 40.018 68.8185 39.29C68.8185 38.5527 68.9865 37.8993 69.3225 37.33C69.6585 36.7607 70.1158 36.3173 70.6945 36C71.2731 35.6733 71.9358 35.51 72.6825 35.51C73.4198 35.51 74.0778 35.6733 74.6565 36C75.2445 36.3173 75.7018 36.7607 76.0285 37.33C76.3645 37.89 76.5325 38.5433 76.5325 39.29C76.5325 40.0273 76.3645 40.6807 76.0285 41.25C75.7018 41.8193 75.2445 42.2673 74.6565 42.594C74.0778 42.9207 73.4198 43.084 72.6825 43.084ZM72.6825 41.908C73.1585 41.908 73.5831 41.8007 73.9565 41.586C74.3391 41.3713 74.6378 41.068 74.8525 40.676C75.0671 40.2747 75.1745 39.8127 75.1745 39.29C75.1745 38.758 75.0671 38.3007 74.8525 37.918C74.6378 37.526 74.3391 37.2227 73.9565 37.008C73.5831 36.7933 73.1585 36.686 72.6825 36.686C72.2065 36.686 71.7818 36.7933 71.4085 37.008C71.0351 37.2227 70.7365 37.526 70.5125 37.918C70.2885 38.3007 70.1765 38.758 70.1765 39.29C70.1765 39.8127 70.2885 40.2747 70.5125 40.676C70.7365 41.068 71.0351 41.3713 71.4085 41.586C71.7818 41.8007 72.2065 41.908 72.6825 41.908ZM81.5132 43.084C80.8785 43.084 80.3185 42.9673 79.8332 42.734C79.3572 42.5007 78.9839 42.146 78.7132 41.67C78.4519 41.1847 78.3212 40.578 78.3212 39.85V35.58H79.6652V39.696C79.6652 40.424 79.8379 40.97 80.1832 41.334C80.5379 41.698 81.0325 41.88 81.6672 41.88C82.1339 41.88 82.5399 41.7867 82.8852 41.6C83.2305 41.404 83.4965 41.124 83.6832 40.76C83.8699 40.3867 83.9632 39.9387 83.9632 39.416V35.58H85.3072V43H84.0332V40.998L84.2432 41.53C84.0005 42.0247 83.6365 42.4073 83.1512 42.678C82.6659 42.9487 82.1199 43.084 81.5132 43.084ZM93.1936 43L90.4356 35.58H91.7096L94.1596 42.3H93.5576L96.1056 35.58H97.2396L99.7316 42.3H99.1436L101.65 35.58H102.854L100.082 43H98.7936L96.4556 36.868H96.8476L94.4816 43H93.1936ZM107.19 43.084C106.444 43.084 105.781 42.9207 105.202 42.594C104.624 42.2673 104.166 41.8193 103.83 41.25C103.494 40.6713 103.326 40.018 103.326 39.29C103.326 38.5527 103.494 37.8993 103.83 37.33C104.166 36.7607 104.624 36.3173 105.202 36C105.781 35.6733 106.444 35.51 107.19 35.51C107.928 35.51 108.586 35.6733 109.164 36C109.752 36.3173 110.21 36.7607 110.536 37.33C110.872 37.89 111.04 38.5433 111.04 39.29C111.04 40.0273 110.872 40.6807 110.536 41.25C110.21 41.8193 109.752 42.2673 109.164 42.594C108.586 42.9207 107.928 43.084 107.19 43.084ZM107.19 41.908C107.666 41.908 108.091 41.8007 108.464 41.586C108.847 41.3713 109.146 41.068 109.36 40.676C109.575 40.2747 109.682 39.8127 109.682 39.29C109.682 38.758 109.575 38.3007 109.36 37.918C109.146 37.526 108.847 37.2227 108.464 37.008C108.091 36.7933 107.666 36.686 107.19 36.686C106.714 36.686 106.29 36.7933 105.916 37.008C105.543 37.2227 105.244 37.526 105.02 37.918C104.796 38.3007 104.684 38.758 104.684 39.29C104.684 39.8127 104.796 40.2747 105.02 40.676C105.244 41.068 105.543 41.3713 105.916 41.586C106.29 41.8007 106.714 41.908 107.19 41.908ZM116.861 35.51C117.468 35.51 118 35.6267 118.457 35.86C118.924 36.0933 119.288 36.448 119.549 36.924C119.81 37.4 119.941 38.002 119.941 38.73V43H118.597V38.884C118.597 38.1653 118.42 37.624 118.065 37.26C117.72 36.896 117.23 36.714 116.595 36.714C116.119 36.714 115.704 36.8073 115.349 36.994C114.994 37.1807 114.719 37.456 114.523 37.82C114.336 38.184 114.243 38.6367 114.243 39.178V43H112.899V35.58H114.187V37.582L113.977 37.05C114.22 36.5647 114.593 36.1867 115.097 35.916C115.601 35.6453 116.189 35.51 116.861 35.51ZM127.238 43V33.76L127.84 34.418H125.026V33.2H128.624V43H127.238ZM139.749 43.112C138.993 43.112 138.298 42.9907 137.663 42.748C137.029 42.496 136.478 42.146 136.011 41.698C135.545 41.2407 135.181 40.7087 134.919 40.102C134.658 39.4953 134.527 38.828 134.527 38.1C134.527 37.372 134.658 36.7047 134.919 36.098C135.181 35.4913 135.545 34.964 136.011 34.516C136.487 34.0587 137.043 33.7087 137.677 33.466C138.312 33.214 139.012 33.088 139.777 33.088C140.552 33.088 141.261 33.214 141.905 33.466C142.549 33.718 143.095 34.096 143.543 34.6L142.675 35.468C142.274 35.076 141.835 34.7913 141.359 34.614C140.893 34.4273 140.384 34.334 139.833 34.334C139.273 34.334 138.751 34.4273 138.265 34.614C137.789 34.8007 137.374 35.062 137.019 35.398C136.674 35.734 136.403 36.1353 136.207 36.602C136.021 37.0593 135.927 37.5587 135.927 38.1C135.927 38.632 136.021 39.1313 136.207 39.598C136.403 40.0553 136.674 40.4567 137.019 40.802C137.374 41.138 137.789 41.3993 138.265 41.586C138.741 41.7727 139.259 41.866 139.819 41.866C140.342 41.866 140.841 41.7867 141.317 41.628C141.803 41.46 142.251 41.1847 142.661 40.802L143.459 41.866C142.974 42.2767 142.405 42.5893 141.751 42.804C141.107 43.0093 140.44 43.112 139.749 43.112ZM142.115 41.684V38.044H143.459V41.866L142.115 41.684ZM146.14 43V33.2H150.536C151.665 33.2 152.533 33.4287 153.14 33.886C153.747 34.334 154.05 34.95 154.05 35.734C154.05 36.266 153.929 36.714 153.686 37.078C153.453 37.442 153.135 37.722 152.734 37.918C152.333 38.114 151.899 38.212 151.432 38.212L151.684 37.792C152.244 37.792 152.739 37.89 153.168 38.086C153.597 38.282 153.938 38.5713 154.19 38.954C154.442 39.3273 154.568 39.794 154.568 40.354C154.568 41.194 154.251 41.8473 153.616 42.314C152.991 42.7713 152.057 43 150.816 43H146.14ZM147.54 41.866H150.76C151.535 41.866 152.127 41.7353 152.538 41.474C152.949 41.2127 153.154 40.802 153.154 40.242C153.154 39.6727 152.949 39.2573 152.538 38.996C152.127 38.7347 151.535 38.604 150.76 38.604H147.414V37.47H150.41C151.119 37.47 151.67 37.3393 152.062 37.078C152.454 36.8167 152.65 36.4247 152.65 35.902C152.65 35.3793 152.454 34.9873 152.062 34.726C151.67 34.4647 151.119 34.334 150.41 34.334H147.54V41.866ZM160.495 43V34.922C160.495 34.194 160.705 33.6153 161.125 33.186C161.555 32.7473 162.161 32.528 162.945 32.528C163.235 32.528 163.51 32.5653 163.771 32.64C164.042 32.7053 164.271 32.8127 164.457 32.962L164.051 33.984C163.911 33.872 163.753 33.788 163.575 33.732C163.398 33.6667 163.211 33.634 163.015 33.634C162.623 33.634 162.325 33.746 162.119 33.97C161.914 34.1847 161.811 34.5067 161.811 34.936V35.93L161.839 36.546V43H160.495ZM159.235 36.686V35.58H163.967V36.686H159.235ZM165.235 43V35.58H166.523V37.596L166.397 37.092C166.602 36.5787 166.948 36.1867 167.433 35.916C167.918 35.6453 168.516 35.51 169.225 35.51V36.812C169.169 36.8027 169.113 36.798 169.057 36.798C169.01 36.798 168.964 36.798 168.917 36.798C168.198 36.798 167.629 37.0127 167.209 37.442C166.789 37.8713 166.579 38.492 166.579 39.304V43H165.235ZM174.117 43.084C173.324 43.084 172.624 42.9207 172.017 42.594C171.42 42.2673 170.953 41.8193 170.617 41.25C170.29 40.6807 170.127 40.0273 170.127 39.29C170.127 38.5527 170.286 37.8993 170.603 37.33C170.93 36.7607 171.373 36.3173 171.933 36C172.502 35.6733 173.142 35.51 173.851 35.51C174.57 35.51 175.204 35.6687 175.755 35.986C176.306 36.3033 176.735 36.7513 177.043 37.33C177.36 37.8993 177.519 38.5667 177.519 39.332C177.519 39.388 177.514 39.4533 177.505 39.528C177.505 39.6027 177.5 39.6727 177.491 39.738H171.177V38.772H176.791L176.245 39.108C176.254 38.632 176.156 38.2073 175.951 37.834C175.746 37.4607 175.461 37.1713 175.097 36.966C174.742 36.7513 174.327 36.644 173.851 36.644C173.384 36.644 172.969 36.7513 172.605 36.966C172.241 37.1713 171.956 37.4653 171.751 37.848C171.546 38.2213 171.443 38.6507 171.443 39.136V39.36C171.443 39.8547 171.555 40.298 171.779 40.69C172.012 41.0727 172.334 41.3713 172.745 41.586C173.156 41.8007 173.627 41.908 174.159 41.908C174.598 41.908 174.994 41.8333 175.349 41.684C175.713 41.5347 176.03 41.3107 176.301 41.012L177.043 41.88C176.707 42.272 176.287 42.5707 175.783 42.776C175.288 42.9813 174.733 43.084 174.117 43.084ZM182.689 43.084C181.896 43.084 181.196 42.9207 180.589 42.594C179.992 42.2673 179.525 41.8193 179.189 41.25C178.863 40.6807 178.699 40.0273 178.699 39.29C178.699 38.5527 178.858 37.8993 179.175 37.33C179.502 36.7607 179.945 36.3173 180.505 36C181.075 35.6733 181.714 35.51 182.423 35.51C183.142 35.51 183.777 35.6687 184.327 35.986C184.878 36.3033 185.307 36.7513 185.615 37.33C185.933 37.8993 186.091 38.5667 186.091 39.332C186.091 39.388 186.087 39.4533 186.077 39.528C186.077 39.6027 186.073 39.6727 186.063 39.738H179.749V38.772H185.363L184.817 39.108C184.827 38.632 184.729 38.2073 184.523 37.834C184.318 37.4607 184.033 37.1713 183.669 36.966C183.315 36.7513 182.899 36.644 182.423 36.644C181.957 36.644 181.541 36.7513 181.177 36.966C180.813 37.1713 180.529 37.4653 180.323 37.848C180.118 38.2213 180.015 38.6507 180.015 39.136V39.36C180.015 39.8547 180.127 40.298 180.351 40.69C180.585 41.0727 180.907 41.3713 181.317 41.586C181.728 41.8007 182.199 41.908 182.731 41.908C183.17 41.908 183.567 41.8333 183.921 41.684C184.285 41.5347 184.603 41.3107 184.873 41.012L185.615 41.88C185.279 42.272 184.859 42.5707 184.355 42.776C183.861 42.9813 183.305 43.084 182.689 43.084ZM188.028 39.906L187.776 33.2H189.358L189.092 39.906H188.028ZM188.574 43.084C188.312 43.084 188.093 42.9953 187.916 42.818C187.738 42.6407 187.65 42.4307 187.65 42.188C187.65 41.9267 187.738 41.712 187.916 41.544C188.093 41.376 188.312 41.292 188.574 41.292C188.835 41.292 189.05 41.376 189.218 41.544C189.386 41.712 189.47 41.9267 189.47 42.188C189.47 42.4307 189.386 42.6407 189.218 42.818C189.05 42.9953 188.835 43.084 188.574 43.084Z" fill="#9D9DBB"/>
</g>
<g filter="url(#filter3_f_899_889)">
<mask id="mask0_899_889" style="mask-type:alpha" maskUnits="userSpaceOnUse" x="30" y="28" width="22" height="22">
<rect x="30" y="28" width="22" height="22" fill="#D9D9D9"/>
</mask>
<g mask="url(#mask0_899_889)">
<path d="M33.6673 43.584V45.4173H48.334V43.584H33.6673ZM33.6673 33.5007H35.684C35.6076 33.3632 35.5579 33.218 35.535 33.0652C35.5121 32.9125 35.5007 32.752 35.5007 32.584C35.5007 31.8201 35.768 31.1708 36.3027 30.6361C36.8375 30.1013 37.4868 29.834 38.2507 29.834C38.709 29.834 39.1329 29.9524 39.5225 30.1892C39.9121 30.426 40.252 30.7201 40.5423 31.0715L41.0007 31.6673L41.459 31.0715C41.734 30.7048 42.0701 30.4069 42.4673 30.1777C42.8645 29.9486 43.2923 29.834 43.7507 29.834C44.5145 29.834 45.1638 30.1013 45.6986 30.6361C46.2333 31.1708 46.5007 31.8201 46.5007 32.584C46.5007 32.752 46.4892 32.9125 46.4663 33.0652C46.4434 33.218 46.3937 33.3632 46.3173 33.5007H48.334C48.8382 33.5007 49.2697 33.6802 49.6288 34.0392C49.9878 34.3982 50.1673 34.8298 50.1673 35.334V45.4173C50.1673 45.9215 49.9878 46.3531 49.6288 46.7121C49.2697 47.0711 48.8382 47.2507 48.334 47.2507H33.6673C33.1632 47.2507 32.7316 47.0711 32.3725 46.7121C32.0135 46.3531 31.834 45.9215 31.834 45.4173V35.334C31.834 34.8298 32.0135 34.3982 32.3725 34.0392C32.7316 33.6802 33.1632 33.5007 33.6673 33.5007ZM33.6673 40.834H48.334V35.334H43.659L45.584 37.9465L44.1173 39.0007L41.0007 34.784L37.884 39.0007L36.4173 37.9465L38.2965 35.334H33.6673V40.834ZM38.2507 33.5007C38.5104 33.5007 38.7281 33.4128 38.9038 33.2371C39.0795 33.0614 39.1673 32.8437 39.1673 32.584C39.1673 32.3243 39.0795 32.1066 38.9038 31.9309C38.7281 31.7552 38.5104 31.6673 38.2507 31.6673C37.9909 31.6673 37.7732 31.7552 37.5975 31.9309C37.4218 32.1066 37.334 32.3243 37.334 32.584C37.334 32.8437 37.4218 33.0614 37.5975 33.2371C37.7732 33.4128 37.9909 33.5007 38.2507 33.5007ZM43.7507 33.5007C44.0104 33.5007 44.2281 33.4128 44.4038 33.2371C44.5795 33.0614 44.6673 32.8437 44.6673 32.584C44.6673 32.3243 44.5795 32.1066 44.4038 31.9309C44.2281 31.7552 44.0104 31.6673 43.7507 31.6673C43.4909 31.6673 43.2732 31.7552 43.0975 31.9309C42.9218 32.1066 42.834 32.3243 42.834 32.584C42.834 32.8437 42.9218 33.0614 43.0975 33.2371C43.2732 33.4128 43.4909 33.5007 43.7507 33.5007Z" fill="white"/>
</g>
</g>
<g filter="url(#filter4_f_899_889)">
<circle cx="11.5" cy="86.5" r="7.5" fill="white"/>
<circle cx="11.5" cy="86.5" r="6.5" stroke="#50EED7" stroke-opacity="0.2" stroke-width="2"/>
</g>
<g filter="url(#filter5_f_899_889)">
<path d="M63.836 90V86.248L64.158 87.116L59.944 80.2H61.442L64.984 86.038H64.172L67.728 80.2H69.114L64.914 87.116L65.222 86.248V90H63.836ZM72.6825 90.084C71.9358 90.084 71.2731 89.9207 70.6945 89.594C70.1158 89.2673 69.6585 88.8193 69.3225 88.25C68.9865 87.6713 68.8185 87.018 68.8185 86.29C68.8185 85.5527 68.9865 84.8993 69.3225 84.33C69.6585 83.7607 70.1158 83.3173 70.6945 83C71.2731 82.6733 71.9358 82.51 72.6825 82.51C73.4198 82.51 74.0778 82.6733 74.6565 83C75.2445 83.3173 75.7018 83.7607 76.0285 84.33C76.3645 84.89 76.5325 85.5433 76.5325 86.29C76.5325 87.0273 76.3645 87.6807 76.0285 88.25C75.7018 88.8193 75.2445 89.2673 74.6565 89.594C74.0778 89.9207 73.4198 90.084 72.6825 90.084ZM72.6825 88.908C73.1585 88.908 73.5831 88.8007 73.9565 88.586C74.3391 88.3713 74.6378 88.068 74.8525 87.676C75.0671 87.2747 75.1745 86.8127 75.1745 86.29C75.1745 85.758 75.0671 85.3007 74.8525 84.918C74.6378 84.526 74.3391 84.2227 73.9565 84.008C73.5831 83.7933 73.1585 83.686 72.6825 83.686C72.2065 83.686 71.7818 83.7933 71.4085 84.008C71.0351 84.2227 70.7365 84.526 70.5125 84.918C70.2885 85.3007 70.1765 85.758 70.1765 86.29C70.1765 86.8127 70.2885 87.2747 70.5125 87.676C70.7365 88.068 71.0351 88.3713 71.4085 88.586C71.7818 88.8007 72.2065 88.908 72.6825 88.908ZM81.5132 90.084C80.8785 90.084 80.3185 89.9673 79.8332 89.734C79.3572 89.5007 78.9839 89.146 78.7132 88.67C78.4519 88.1847 78.3212 87.578 78.3212 86.85V82.58H79.6652V86.696C79.6652 87.424 79.8379 87.97 80.1832 88.334C80.5379 88.698 81.0325 88.88 81.6672 88.88C82.1339 88.88 82.5399 88.7867 82.8852 88.6C83.2305 88.404 83.4965 88.124 83.6832 87.76C83.8699 87.3867 83.9632 86.9387 83.9632 86.416V82.58H85.3072V90H84.0332V87.998L84.2432 88.53C84.0005 89.0247 83.6365 89.4073 83.1512 89.678C82.6659 89.9487 82.1199 90.084 81.5132 90.084ZM93.1936 90L90.4356 82.58H91.7096L94.1596 89.3H93.5576L96.1056 82.58H97.2396L99.7316 89.3H99.1436L101.65 82.58H102.854L100.082 90H98.7936L96.4556 83.868H96.8476L94.4816 90H93.1936ZM107.19 90.084C106.444 90.084 105.781 89.9207 105.202 89.594C104.624 89.2673 104.166 88.8193 103.83 88.25C103.494 87.6713 103.326 87.018 103.326 86.29C103.326 85.5527 103.494 84.8993 103.83 84.33C104.166 83.7607 104.624 83.3173 105.202 83C105.781 82.6733 106.444 82.51 107.19 82.51C107.928 82.51 108.586 82.6733 109.164 83C109.752 83.3173 110.21 83.7607 110.536 84.33C110.872 84.89 111.04 85.5433 111.04 86.29C111.04 87.0273 110.872 87.6807 110.536 88.25C110.21 88.8193 109.752 89.2673 109.164 89.594C108.586 89.9207 107.928 90.084 107.19 90.084ZM107.19 88.908C107.666 88.908 108.091 88.8007 108.464 88.586C108.847 88.3713 109.146 88.068 109.36 87.676C109.575 87.2747 109.682 86.8127 109.682 86.29C109.682 85.758 109.575 85.3007 109.36 84.918C109.146 84.526 108.847 84.2227 108.464 84.008C108.091 83.7933 107.666 83.686 107.19 83.686C106.714 83.686 106.29 83.7933 105.916 84.008C105.543 84.2227 105.244 84.526 105.02 84.918C104.796 85.3007 104.684 85.758 104.684 86.29C104.684 86.8127 104.796 87.2747 105.02 87.676C105.244 88.068 105.543 88.3713 105.916 88.586C106.29 88.8007 106.714 88.908 107.19 88.908ZM116.861 82.51C117.468 82.51 118 82.6267 118.457 82.86C118.924 83.0933 119.288 83.448 119.549 83.924C119.81 84.4 119.941 85.002 119.941 85.73V90H118.597V85.884C118.597 85.1653 118.42 84.624 118.065 84.26C117.72 83.896 117.23 83.714 116.595 83.714C116.119 83.714 115.704 83.8073 115.349 83.994C114.994 84.1807 114.719 84.456 114.523 84.82C114.336 85.184 114.243 85.6367 114.243 86.178V90H112.899V82.58H114.187V84.582L113.977 84.05C114.22 83.5647 114.593 83.1867 115.097 82.916C115.601 82.6453 116.189 82.51 116.861 82.51ZM128.75 90.112C128.059 90.112 127.387 90.0047 126.734 89.79C126.09 89.5753 125.563 89.286 125.152 88.922L125.796 87.816C126.123 88.124 126.547 88.376 127.07 88.572C127.593 88.768 128.148 88.866 128.736 88.866C129.483 88.866 130.057 88.7073 130.458 88.39C130.859 88.0727 131.06 87.648 131.06 87.116C131.06 86.752 130.971 86.4347 130.794 86.164C130.617 85.8933 130.309 85.688 129.87 85.548C129.441 85.3987 128.848 85.324 128.092 85.324H125.866L126.384 80.2H131.914V81.418H126.902L127.63 80.732L127.224 84.778L126.496 84.106H128.386C129.366 84.106 130.155 84.232 130.752 84.484C131.349 84.736 131.783 85.086 132.054 85.534C132.325 85.9727 132.46 86.4813 132.46 87.06C132.46 87.62 132.325 88.1333 132.054 88.6C131.783 89.0573 131.373 89.426 130.822 89.706C130.281 89.9767 129.59 90.112 128.75 90.112ZM142.607 90.112C141.851 90.112 141.156 89.9907 140.521 89.748C139.886 89.496 139.336 89.146 138.869 88.698C138.402 88.2407 138.038 87.7087 137.777 87.102C137.516 86.4953 137.385 85.828 137.385 85.1C137.385 84.372 137.516 83.7047 137.777 83.098C138.038 82.4913 138.402 81.964 138.869 81.516C139.345 81.0587 139.9 80.7087 140.535 80.466C141.17 80.214 141.87 80.088 142.635 80.088C143.41 80.088 144.119 80.214 144.763 80.466C145.407 80.718 145.953 81.096 146.401 81.6L145.533 82.468C145.132 82.076 144.693 81.7913 144.217 81.614C143.75 81.4273 143.242 81.334 142.691 81.334C142.131 81.334 141.608 81.4273 141.123 81.614C140.647 81.8007 140.232 82.062 139.877 82.398C139.532 82.734 139.261 83.1353 139.065 83.602C138.878 84.0593 138.785 84.5587 138.785 85.1C138.785 85.632 138.878 86.1313 139.065 86.598C139.261 87.0553 139.532 87.4567 139.877 87.802C140.232 88.138 140.647 88.3993 141.123 88.586C141.599 88.7727 142.117 88.866 142.677 88.866C143.2 88.866 143.699 88.7867 144.175 88.628C144.66 88.46 145.108 88.1847 145.519 87.802L146.317 88.866C145.832 89.2767 145.262 89.5893 144.609 89.804C143.965 90.0093 143.298 90.112 142.607 90.112ZM144.973 88.684V85.044H146.317V88.866L144.973 88.684ZM148.997 90V80.2H153.393C154.523 80.2 155.391 80.4287 155.997 80.886C156.604 81.334 156.907 81.95 156.907 82.734C156.907 83.266 156.786 83.714 156.543 84.078C156.31 84.442 155.993 84.722 155.591 84.918C155.19 85.114 154.756 85.212 154.289 85.212L154.541 84.792C155.101 84.792 155.596 84.89 156.025 85.086C156.455 85.282 156.795 85.5713 157.047 85.954C157.299 86.3273 157.425 86.794 157.425 87.354C157.425 88.194 157.108 88.8473 156.473 89.314C155.848 89.7713 154.915 90 153.673 90H148.997ZM150.397 88.866H153.617C154.392 88.866 154.985 88.7353 155.395 88.474C155.806 88.2127 156.011 87.802 156.011 87.242C156.011 86.6727 155.806 86.2573 155.395 85.996C154.985 85.7347 154.392 85.604 153.617 85.604H150.271V84.47H153.267C153.977 84.47 154.527 84.3393 154.919 84.078C155.311 83.8167 155.507 83.4247 155.507 82.902C155.507 82.3793 155.311 81.9873 154.919 81.726C154.527 81.4647 153.977 81.334 153.267 81.334H150.397V88.866ZM163.353 90V81.922C163.353 81.194 163.563 80.6153 163.983 80.186C164.412 79.7473 165.019 79.528 165.803 79.528C166.092 79.528 166.367 79.5653 166.629 79.64C166.899 79.7053 167.128 79.8127 167.315 79.962L166.909 80.984C166.769 80.872 166.61 80.788 166.433 80.732C166.255 80.6667 166.069 80.634 165.873 80.634C165.481 80.634 165.182 80.746 164.977 80.97C164.771 81.1847 164.669 81.5067 164.669 81.936V82.93L164.697 83.546V90H163.353ZM162.093 83.686V82.58H166.825V83.686H162.093ZM168.092 90V82.58H169.38V84.596L169.254 84.092C169.46 83.5787 169.805 83.1867 170.29 82.916C170.776 82.6453 171.373 82.51 172.082 82.51V83.812C172.026 83.8027 171.97 83.798 171.914 83.798C171.868 83.798 171.821 83.798 171.774 83.798C171.056 83.798 170.486 84.0127 170.066 84.442C169.646 84.8713 169.436 85.492 169.436 86.304V90H168.092ZM176.974 90.084C176.181 90.084 175.481 89.9207 174.874 89.594C174.277 89.2673 173.81 88.8193 173.474 88.25C173.148 87.6807 172.984 87.0273 172.984 86.29C172.984 85.5527 173.143 84.8993 173.46 84.33C173.787 83.7607 174.23 83.3173 174.79 83C175.36 82.6733 175.999 82.51 176.708 82.51C177.427 82.51 178.062 82.6687 178.612 82.986C179.163 83.3033 179.592 83.7513 179.9 84.33C180.218 84.8993 180.376 85.5667 180.376 86.332C180.376 86.388 180.372 86.4533 180.362 86.528C180.362 86.6027 180.358 86.6727 180.348 86.738H174.034V85.772H179.648L179.102 86.108C179.112 85.632 179.014 85.2073 178.808 84.834C178.603 84.4607 178.318 84.1713 177.954 83.966C177.6 83.7513 177.184 83.644 176.708 83.644C176.242 83.644 175.826 83.7513 175.462 83.966C175.098 84.1713 174.814 84.4653 174.608 84.848C174.403 85.2213 174.3 85.6507 174.3 86.136V86.36C174.3 86.8547 174.412 87.298 174.636 87.69C174.87 88.0727 175.192 88.3713 175.602 88.586C176.013 88.8007 176.484 88.908 177.016 88.908C177.455 88.908 177.852 88.8333 178.206 88.684C178.57 88.5347 178.888 88.3107 179.158 88.012L179.9 88.88C179.564 89.272 179.144 89.5707 178.64 89.776C178.146 89.9813 177.59 90.084 176.974 90.084ZM185.547 90.084C184.753 90.084 184.053 89.9207 183.447 89.594C182.849 89.2673 182.383 88.8193 182.047 88.25C181.72 87.6807 181.557 87.0273 181.557 86.29C181.557 85.5527 181.715 84.8993 182.033 84.33C182.359 83.7607 182.803 83.3173 183.363 83C183.932 82.6733 184.571 82.51 185.281 82.51C185.999 82.51 186.634 82.6687 187.185 82.986C187.735 83.3033 188.165 83.7513 188.473 84.33C188.79 84.8993 188.949 85.5667 188.949 86.332C188.949 86.388 188.944 86.4533 188.935 86.528C188.935 86.6027 188.93 86.6727 188.921 86.738H182.607V85.772H188.221L187.675 86.108C187.684 85.632 187.586 85.2073 187.381 84.834C187.175 84.4607 186.891 84.1713 186.527 83.966C186.172 83.7513 185.757 83.644 185.281 83.644C184.814 83.644 184.399 83.7513 184.035 83.966C183.671 84.1713 183.386 84.4653 183.181 84.848C182.975 85.2213 182.873 85.6507 182.873 86.136V86.36C182.873 86.8547 182.985 87.298 183.209 87.69C183.442 88.0727 183.764 88.3713 184.175 88.586C184.585 88.8007 185.057 88.908 185.589 88.908C186.027 88.908 186.424 88.8333 186.779 88.684C187.143 88.5347 187.46 88.3107 187.731 88.012L188.473 88.88C188.137 89.272 187.717 89.5707 187.213 89.776C186.718 89.9813 186.163 90.084 185.547 90.084ZM190.885 86.906L190.633 80.2H192.215L191.949 86.906H190.885ZM191.431 90.084C191.17 90.084 190.95 89.9953 190.773 89.818C190.596 89.6407 190.507 89.4307 190.507 89.188C190.507 88.9267 190.596 88.712 190.773 88.544C190.95 88.376 191.17 88.292 191.431 88.292C191.692 88.292 191.907 88.376 192.075 88.544C192.243 88.712 192.327 88.9267 192.327 89.188C192.327 89.4307 192.243 89.6407 192.075 89.818C191.907 89.9953 191.692 90.084 191.431 90.084Z" fill="#9D9DBB"/>
</g>
<g filter="url(#filter6_f_899_889)">
<mask id="mask1_899_889" style="mask-type:alpha" maskUnits="userSpaceOnUse" x="30" y="75" width="22" height="22">
<rect x="30" y="75" width="22" height="22" fill="#D9D9D9"/>
</mask>
<g mask="url(#mask1_899_889)">
<path d="M33.6673 90.584V92.4173H48.334V90.584H33.6673ZM33.6673 80.5007H35.684C35.6076 80.3632 35.5579 80.218 35.535 80.0652C35.5121 79.9125 35.5007 79.752 35.5007 79.584C35.5007 78.8201 35.768 78.1708 36.3027 77.6361C36.8375 77.1013 37.4868 76.834 38.2507 76.834C38.709 76.834 39.1329 76.9524 39.5225 77.1892C39.9121 77.426 40.252 77.7201 40.5423 78.0715L41.0007 78.6673L41.459 78.0715C41.734 77.7048 42.0701 77.4069 42.4673 77.1777C42.8645 76.9486 43.2923 76.834 43.7507 76.834C44.5145 76.834 45.1638 77.1013 45.6986 77.6361C46.2333 78.1708 46.5007 78.8201 46.5007 79.584C46.5007 79.752 46.4892 79.9125 46.4663 80.0652C46.4434 80.218 46.3937 80.3632 46.3173 80.5007H48.334C48.8382 80.5007 49.2697 80.6802 49.6288 81.0392C49.9878 81.3982 50.1673 81.8298 50.1673 82.334V92.4173C50.1673 92.9215 49.9878 93.3531 49.6288 93.7121C49.2697 94.0711 48.8382 94.2507 48.334 94.2507H33.6673C33.1632 94.2507 32.7316 94.0711 32.3725 93.7121C32.0135 93.3531 31.834 92.9215 31.834 92.4173V82.334C31.834 81.8298 32.0135 81.3982 32.3725 81.0392C32.7316 80.6802 33.1632 80.5007 33.6673 80.5007ZM33.6673 87.834H48.334V82.334H43.659L45.584 84.9465L44.1173 86.0007L41.0007 81.784L37.884 86.0007L36.4173 84.9465L38.2965 82.334H33.6673V87.834ZM38.2507 80.5007C38.5104 80.5007 38.7281 80.4128 38.9038 80.2371C39.0795 80.0614 39.1673 79.8437 39.1673 79.584C39.1673 79.3243 39.0795 79.1066 38.9038 78.9309C38.7281 78.7552 38.5104 78.6673 38.2507 78.6673C37.9909 78.6673 37.7732 78.7552 37.5975 78.9309C37.4218 79.1066 37.334 79.3243 37.334 79.584C37.334 79.8437 37.4218 80.0614 37.5975 80.2371C37.7732 80.4128 37.9909 80.5007 38.2507 80.5007ZM43.7507 80.5007C44.0104 80.5007 44.2281 80.4128 44.4038 80.2371C44.5795 80.0614 44.6673 79.8437 44.6673 79.584C44.6673 79.3243 44.5795 79.1066 44.4038 78.9309C44.2281 78.7552 44.0104 78.6673 43.7507 78.6673C43.4909 78.6673 43.2732 78.7552 43.0975 78.9309C42.9218 79.1066 42.834 79.3243 42.834 79.584C42.834 79.8437 42.9218 80.0614 43.0975 80.2371C43.2732 80.4128 43.4909 80.5007 43.7507 80.5007Z" fill="white"/>
</g>
</g>
<g filter="url(#filter7_f_899_889)">
<circle cx="11.5" cy="136.5" r="7.5" fill="white"/>
<circle cx="11.5" cy="136.5" r="6.5" stroke="#50EED7" stroke-opacity="0.2" stroke-width="2"/>
</g>
<g filter="url(#filter8_f_899_889)">
<path d="M63.836 140V136.248L64.158 137.116L59.944 130.2H61.442L64.984 136.038H64.172L67.728 130.2H69.114L64.914 137.116L65.222 136.248V140H63.836ZM72.6825 140.084C71.9358 140.084 71.2731 139.921 70.6945 139.594C70.1158 139.267 69.6585 138.819 69.3225 138.25C68.9865 137.671 68.8185 137.018 68.8185 136.29C68.8185 135.553 68.9865 134.899 69.3225 134.33C69.6585 133.761 70.1158 133.317 70.6945 133C71.2731 132.673 71.9358 132.51 72.6825 132.51C73.4198 132.51 74.0778 132.673 74.6565 133C75.2445 133.317 75.7018 133.761 76.0285 134.33C76.3645 134.89 76.5325 135.543 76.5325 136.29C76.5325 137.027 76.3645 137.681 76.0285 138.25C75.7018 138.819 75.2445 139.267 74.6565 139.594C74.0778 139.921 73.4198 140.084 72.6825 140.084ZM72.6825 138.908C73.1585 138.908 73.5831 138.801 73.9565 138.586C74.3391 138.371 74.6378 138.068 74.8525 137.676C75.0671 137.275 75.1745 136.813 75.1745 136.29C75.1745 135.758 75.0671 135.301 74.8525 134.918C74.6378 134.526 74.3391 134.223 73.9565 134.008C73.5831 133.793 73.1585 133.686 72.6825 133.686C72.2065 133.686 71.7818 133.793 71.4085 134.008C71.0351 134.223 70.7365 134.526 70.5125 134.918C70.2885 135.301 70.1765 135.758 70.1765 136.29C70.1765 136.813 70.2885 137.275 70.5125 137.676C70.7365 138.068 71.0351 138.371 71.4085 138.586C71.7818 138.801 72.2065 138.908 72.6825 138.908ZM81.5132 140.084C80.8785 140.084 80.3185 139.967 79.8332 139.734C79.3572 139.501 78.9839 139.146 78.7132 138.67C78.4519 138.185 78.3212 137.578 78.3212 136.85V132.58H79.6652V136.696C79.6652 137.424 79.8379 137.97 80.1832 138.334C80.5379 138.698 81.0325 138.88 81.6672 138.88C82.1339 138.88 82.5399 138.787 82.8852 138.6C83.2305 138.404 83.4965 138.124 83.6832 137.76C83.8699 137.387 83.9632 136.939 83.9632 136.416V132.58H85.3072V140H84.0332V137.998L84.2432 138.53C84.0005 139.025 83.6365 139.407 83.1512 139.678C82.6659 139.949 82.1199 140.084 81.5132 140.084ZM93.1936 140L90.4356 132.58H91.7096L94.1596 139.3H93.5576L96.1056 132.58H97.2396L99.7316 139.3H99.1436L101.65 132.58H102.854L100.082 140H98.7936L96.4556 133.868H96.8476L94.4816 140H93.1936ZM107.19 140.084C106.444 140.084 105.781 139.921 105.202 139.594C104.624 139.267 104.166 138.819 103.83 138.25C103.494 137.671 103.326 137.018 103.326 136.29C103.326 135.553 103.494 134.899 103.83 134.33C104.166 133.761 104.624 133.317 105.202 133C105.781 132.673 106.444 132.51 107.19 132.51C107.928 132.51 108.586 132.673 109.164 133C109.752 133.317 110.21 133.761 110.536 134.33C110.872 134.89 111.04 135.543 111.04 136.29C111.04 137.027 110.872 137.681 110.536 138.25C110.21 138.819 109.752 139.267 109.164 139.594C108.586 139.921 107.928 140.084 107.19 140.084ZM107.19 138.908C107.666 138.908 108.091 138.801 108.464 138.586C108.847 138.371 109.146 138.068 109.36 137.676C109.575 137.275 109.682 136.813 109.682 136.29C109.682 135.758 109.575 135.301 109.36 134.918C109.146 134.526 108.847 134.223 108.464 134.008C108.091 133.793 107.666 133.686 107.19 133.686C106.714 133.686 106.29 133.793 105.916 134.008C105.543 134.223 105.244 134.526 105.02 134.918C104.796 135.301 104.684 135.758 104.684 136.29C104.684 136.813 104.796 137.275 105.02 137.676C105.244 138.068 105.543 138.371 105.916 138.586C106.29 138.801 106.714 138.908 107.19 138.908ZM116.861 132.51C117.468 132.51 118 132.627 118.457 132.86C118.924 133.093 119.288 133.448 119.549 133.924C119.81 134.4 119.941 135.002 119.941 135.73V140H118.597V135.884C118.597 135.165 118.42 134.624 118.065 134.26C117.72 133.896 117.23 133.714 116.595 133.714C116.119 133.714 115.704 133.807 115.349 133.994C114.994 134.181 114.719 134.456 114.523 134.82C114.336 135.184 114.243 135.637 114.243 136.178V140H112.899V132.58H114.187V134.582L113.977 134.05C114.22 133.565 114.593 133.187 115.097 132.916C115.601 132.645 116.189 132.51 116.861 132.51ZM127.238 140V130.76L127.84 131.418H125.026V130.2H128.624V140H127.238ZM134.772 140.112C134.006 140.112 133.32 139.916 132.714 139.524C132.116 139.132 131.64 138.563 131.286 137.816C130.94 137.069 130.768 136.164 130.768 135.1C130.768 134.036 130.94 133.131 131.286 132.384C131.64 131.637 132.116 131.068 132.714 130.676C133.32 130.284 134.006 130.088 134.772 130.088C135.528 130.088 136.209 130.284 136.816 130.676C137.422 131.068 137.898 131.637 138.244 132.384C138.589 133.131 138.762 134.036 138.762 135.1C138.762 136.164 138.589 137.069 138.244 137.816C137.898 138.563 137.422 139.132 136.816 139.524C136.209 139.916 135.528 140.112 134.772 140.112ZM134.772 138.866C135.285 138.866 135.733 138.726 136.116 138.446C136.508 138.166 136.811 137.746 137.026 137.186C137.25 136.626 137.362 135.931 137.362 135.1C137.362 134.269 137.25 133.574 137.026 133.014C136.811 132.454 136.508 132.034 136.116 131.754C135.733 131.474 135.285 131.334 134.772 131.334C134.258 131.334 133.806 131.474 133.414 131.754C133.022 132.034 132.714 132.454 132.49 133.014C132.275 133.574 132.168 134.269 132.168 135.1C132.168 135.931 132.275 136.626 132.49 137.186C132.714 137.746 133.022 138.166 133.414 138.446C133.806 138.726 134.258 138.866 134.772 138.866ZM149.087 140.112C148.331 140.112 147.636 139.991 147.001 139.748C146.367 139.496 145.816 139.146 145.349 138.698C144.883 138.241 144.519 137.709 144.257 137.102C143.996 136.495 143.865 135.828 143.865 135.1C143.865 134.372 143.996 133.705 144.257 133.098C144.519 132.491 144.883 131.964 145.349 131.516C145.825 131.059 146.381 130.709 147.015 130.466C147.65 130.214 148.35 130.088 149.115 130.088C149.89 130.088 150.599 130.214 151.243 130.466C151.887 130.718 152.433 131.096 152.881 131.6L152.013 132.468C151.612 132.076 151.173 131.791 150.697 131.614C150.231 131.427 149.722 131.334 149.171 131.334C148.611 131.334 148.089 131.427 147.603 131.614C147.127 131.801 146.712 132.062 146.357 132.398C146.012 132.734 145.741 133.135 145.545 133.602C145.359 134.059 145.265 134.559 145.265 135.1C145.265 135.632 145.359 136.131 145.545 136.598C145.741 137.055 146.012 137.457 146.357 137.802C146.712 138.138 147.127 138.399 147.603 138.586C148.079 138.773 148.597 138.866 149.157 138.866C149.68 138.866 150.179 138.787 150.655 138.628C151.141 138.46 151.589 138.185 151.999 137.802L152.797 138.866C152.312 139.277 151.743 139.589 151.089 139.804C150.445 140.009 149.778 140.112 149.087 140.112ZM151.453 138.684V135.044H152.797V138.866L151.453 138.684ZM155.478 140V130.2H159.874C161.003 130.2 161.871 130.429 162.478 130.886C163.084 131.334 163.388 131.95 163.388 132.734C163.388 133.266 163.266 133.714 163.024 134.078C162.79 134.442 162.473 134.722 162.072 134.918C161.67 135.114 161.236 135.212 160.77 135.212L161.022 134.792C161.582 134.792 162.076 134.89 162.506 135.086C162.935 135.282 163.276 135.571 163.528 135.954C163.78 136.327 163.906 136.794 163.906 137.354C163.906 138.194 163.588 138.847 162.954 139.314C162.328 139.771 161.395 140 160.154 140H155.478ZM156.878 138.866H160.098C160.872 138.866 161.465 138.735 161.876 138.474C162.286 138.213 162.492 137.802 162.492 137.242C162.492 136.673 162.286 136.257 161.876 135.996C161.465 135.735 160.872 135.604 160.098 135.604H156.752V134.47H159.748C160.457 134.47 161.008 134.339 161.4 134.078C161.792 133.817 161.988 133.425 161.988 132.902C161.988 132.379 161.792 131.987 161.4 131.726C161.008 131.465 160.457 131.334 159.748 131.334H156.878V138.866ZM169.833 140V131.922C169.833 131.194 170.043 130.615 170.463 130.186C170.893 129.747 171.499 129.528 172.283 129.528C172.573 129.528 172.848 129.565 173.109 129.64C173.38 129.705 173.609 129.813 173.795 129.962L173.389 130.984C173.249 130.872 173.091 130.788 172.913 130.732C172.736 130.667 172.549 130.634 172.353 130.634C171.961 130.634 171.663 130.746 171.457 130.97C171.252 131.185 171.149 131.507 171.149 131.936V132.93L171.177 133.546V140H169.833ZM168.573 133.686V132.58H173.305V133.686H168.573ZM174.573 140V132.58H175.861V134.596L175.735 134.092C175.94 133.579 176.285 133.187 176.771 132.916C177.256 132.645 177.853 132.51 178.563 132.51V133.812C178.507 133.803 178.451 133.798 178.395 133.798C178.348 133.798 178.301 133.798 178.255 133.798C177.536 133.798 176.967 134.013 176.547 134.442C176.127 134.871 175.917 135.492 175.917 136.304V140H174.573ZM183.455 140.084C182.662 140.084 181.962 139.921 181.355 139.594C180.758 139.267 180.291 138.819 179.955 138.25C179.628 137.681 179.465 137.027 179.465 136.29C179.465 135.553 179.624 134.899 179.941 134.33C180.268 133.761 180.711 133.317 181.271 133C181.84 132.673 182.48 132.51 183.189 132.51C183.908 132.51 184.542 132.669 185.093 132.986C185.644 133.303 186.073 133.751 186.381 134.33C186.698 134.899 186.857 135.567 186.857 136.332C186.857 136.388 186.852 136.453 186.843 136.528C186.843 136.603 186.838 136.673 186.829 136.738H180.515V135.772H186.129L185.583 136.108C185.592 135.632 185.494 135.207 185.289 134.834C185.084 134.461 184.799 134.171 184.435 133.966C184.08 133.751 183.665 133.644 183.189 133.644C182.722 133.644 182.307 133.751 181.943 133.966C181.579 134.171 181.294 134.465 181.089 134.848C180.884 135.221 180.781 135.651 180.781 136.136V136.36C180.781 136.855 180.893 137.298 181.117 137.69C181.35 138.073 181.672 138.371 182.083 138.586C182.494 138.801 182.965 138.908 183.497 138.908C183.936 138.908 184.332 138.833 184.687 138.684C185.051 138.535 185.368 138.311 185.639 138.012L186.381 138.88C186.045 139.272 185.625 139.571 185.121 139.776C184.626 139.981 184.071 140.084 183.455 140.084ZM192.027 140.084C191.234 140.084 190.534 139.921 189.927 139.594C189.33 139.267 188.863 138.819 188.527 138.25C188.201 137.681 188.037 137.027 188.037 136.29C188.037 135.553 188.196 134.899 188.513 134.33C188.84 133.761 189.283 133.317 189.843 133C190.413 132.673 191.052 132.51 191.761 132.51C192.48 132.51 193.115 132.669 193.665 132.986C194.216 133.303 194.645 133.751 194.953 134.33C195.271 134.899 195.429 135.567 195.429 136.332C195.429 136.388 195.425 136.453 195.415 136.528C195.415 136.603 195.411 136.673 195.401 136.738H189.087V135.772H194.701L194.155 136.108C194.165 135.632 194.067 135.207 193.861 134.834C193.656 134.461 193.371 134.171 193.007 133.966C192.653 133.751 192.237 133.644 191.761 133.644C191.295 133.644 190.879 133.751 190.515 133.966C190.151 134.171 189.867 134.465 189.661 134.848C189.456 135.221 189.353 135.651 189.353 136.136V136.36C189.353 136.855 189.465 137.298 189.689 137.69C189.923 138.073 190.245 138.371 190.655 138.586C191.066 138.801 191.537 138.908 192.069 138.908C192.508 138.908 192.905 138.833 193.259 138.684C193.623 138.535 193.941 138.311 194.211 138.012L194.953 138.88C194.617 139.272 194.197 139.571 193.693 139.776C193.199 139.981 192.643 140.084 192.027 140.084ZM197.365 136.906L197.113 130.2H198.695L198.429 136.906H197.365ZM197.911 140.084C197.65 140.084 197.431 139.995 197.253 139.818C197.076 139.641 196.987 139.431 196.987 139.188C196.987 138.927 197.076 138.712 197.253 138.544C197.431 138.376 197.65 138.292 197.911 138.292C198.173 138.292 198.387 138.376 198.555 138.544C198.723 138.712 198.807 138.927 198.807 139.188C198.807 139.431 198.723 139.641 198.555 139.818C198.387 139.995 198.173 140.084 197.911 140.084Z" fill="#9D9DBB"/>
</g>
<g filter="url(#filter9_f_899_889)">
<mask id="mask2_899_889" style="mask-type:alpha" maskUnits="userSpaceOnUse" x="30" y="125" width="22" height="22">
<rect x="30" y="125" width="22" height="22" fill="#D9D9D9"/>
</mask>
<g mask="url(#mask2_899_889)">
<path d="M33.6673 140.584V142.417H48.334V140.584H33.6673ZM33.6673 130.501H35.684C35.6076 130.363 35.5579 130.218 35.535 130.065C35.5121 129.912 35.5007 129.752 35.5007 129.584C35.5007 128.82 35.768 128.171 36.3027 127.636C36.8375 127.101 37.4868 126.834 38.2507 126.834C38.709 126.834 39.1329 126.952 39.5225 127.189C39.9121 127.426 40.252 127.72 40.5423 128.071L41.0007 128.667L41.459 128.071C41.734 127.705 42.0701 127.407 42.4673 127.178C42.8645 126.949 43.2923 126.834 43.7507 126.834C44.5145 126.834 45.1638 127.101 45.6986 127.636C46.2333 128.171 46.5007 128.82 46.5007 129.584C46.5007 129.752 46.4892 129.912 46.4663 130.065C46.4434 130.218 46.3937 130.363 46.3173 130.501H48.334C48.8382 130.501 49.2697 130.68 49.6288 131.039C49.9878 131.398 50.1673 131.83 50.1673 132.334V142.417C50.1673 142.921 49.9878 143.353 49.6288 143.712C49.2697 144.071 48.8382 144.251 48.334 144.251H33.6673C33.1632 144.251 32.7316 144.071 32.3725 143.712C32.0135 143.353 31.834 142.921 31.834 142.417V132.334C31.834 131.83 32.0135 131.398 32.3725 131.039C32.7316 130.68 33.1632 130.501 33.6673 130.501ZM33.6673 137.834H48.334V132.334H43.659L45.584 134.946L44.1173 136.001L41.0007 131.784L37.884 136.001L36.4173 134.946L38.2965 132.334H33.6673V137.834ZM38.2507 130.501C38.5104 130.501 38.7281 130.413 38.9038 130.237C39.0795 130.061 39.1673 129.844 39.1673 129.584C39.1673 129.324 39.0795 129.107 38.9038 128.931C38.7281 128.755 38.5104 128.667 38.2507 128.667C37.9909 128.667 37.7732 128.755 37.5975 128.931C37.4218 129.107 37.334 129.324 37.334 129.584C37.334 129.844 37.4218 130.061 37.5975 130.237C37.7732 130.413 37.9909 130.501 38.2507 130.501ZM43.7507 130.501C44.0104 130.501 44.2281 130.413 44.4038 130.237C44.5795 130.061 44.6673 129.844 44.6673 129.584C44.6673 129.324 44.5795 129.107 44.4038 128.931C44.2281 128.755 44.0104 128.667 43.7507 128.667C43.4909 128.667 43.2732 128.755 43.0975 128.931C42.9218 129.107 42.834 129.324 42.834 129.584C42.834 129.844 42.9218 130.061 43.0975 130.237C43.2732 130.413 43.4909 130.501 43.7507 130.501Z" fill="white"/>
</g>
</g>
<defs>
<filter id="filter0_f_899_889" x="5" y="0" width="13" height="175" filterUnits="userSpaceOnUse" color-interpolation-filters="sRGB">
<feFlood flood-opacity="0" result="BackgroundImageFix"/>
<feBlend mode="normal" in="SourceGraphic" in2="BackgroundImageFix" result="shape"/>
<feGaussianBlur stdDeviation="2" result="effect1_foregroundBlur_899_889"/>
</filter>
<filter id="filter1_f_899_889" x="0" y="28" width="23" height="23" filterUnits="userSpaceOnUse" color-interpolation-filters="sRGB">
<feFlood flood-opacity="0" result="BackgroundImageFix"/>
<feBlend mode="normal" in="SourceGraphic" in2="BackgroundImageFix" result="shape"/>
<feGaussianBlur stdDeviation="2" result="effect1_foregroundBlur_899_889"/>
</filter>
<filter id="filter2_f_899_889" x="53.9434" y="26.5273" width="141.525" height="22.584" filterUnits="userSpaceOnUse" color-interpolation-filters="sRGB">
<feFlood flood-opacity="0" result="BackgroundImageFix"/>
<feBlend mode="normal" in="SourceGraphic" in2="BackgroundImageFix" result="shape"/>
<feGaussianBlur stdDeviation="3" result="effect1_foregroundBlur_899_889"/>
</filter>
<filter id="filter3_f_899_889" x="25.834" y="23.834" width="30.334" height="29.416" filterUnits="userSpaceOnUse" color-interpolation-filters="sRGB">
<feFlood flood-opacity="0" result="BackgroundImageFix"/>
<feBlend mode="normal" in="SourceGraphic" in2="BackgroundImageFix" result="shape"/>
<feGaussianBlur stdDeviation="3" result="effect1_foregroundBlur_899_889"/>
</filter>
<filter id="filter4_f_899_889" x="0" y="75" width="23" height="23" filterUnits="userSpaceOnUse" color-interpolation-filters="sRGB">
<feFlood flood-opacity="0" result="BackgroundImageFix"/>
<feBlend mode="normal" in="SourceGraphic" in2="BackgroundImageFix" result="shape"/>
<feGaussianBlur stdDeviation="2" result="effect1_foregroundBlur_899_889"/>
</filter>
<filter id="filter5_f_899_889" x="53.9434" y="73.5273" width="144.383" height="22.584" filterUnits="userSpaceOnUse" color-interpolation-filters="sRGB">
<feFlood flood-opacity="0" result="BackgroundImageFix"/>
<feBlend mode="normal" in="SourceGraphic" in2="BackgroundImageFix" result="shape"/>
<feGaussianBlur stdDeviation="3" result="effect1_foregroundBlur_899_889"/>
</filter>
<filter id="filter6_f_899_889" x="25.834" y="70.834" width="30.334" height="29.416" filterUnits="userSpaceOnUse" color-interpolation-filters="sRGB">
<feFlood flood-opacity="0" result="BackgroundImageFix"/>
<feBlend mode="normal" in="SourceGraphic" in2="BackgroundImageFix" result="shape"/>
<feGaussianBlur stdDeviation="3" result="effect1_foregroundBlur_899_889"/>
</filter>
<filter id="filter7_f_899_889" x="0" y="125" width="23" height="23" filterUnits="userSpaceOnUse" color-interpolation-filters="sRGB">
<feFlood flood-opacity="0" result="BackgroundImageFix"/>
<feBlend mode="normal" in="SourceGraphic" in2="BackgroundImageFix" result="shape"/>
<feGaussianBlur stdDeviation="2" result="effect1_foregroundBlur_899_889"/>
</filter>
<filter id="filter8_f_899_889" x="53.9434" y="123.527" width="150.863" height="22.584" filterUnits="userSpaceOnUse" color-interpolation-filters="sRGB">
<feFlood flood-opacity="0" result="BackgroundImageFix"/>
<feBlend mode="normal" in="SourceGraphic" in2="BackgroundImageFix" result="shape"/>
<feGaussianBlur stdDeviation="3" result="effect1_foregroundBlur_899_889"/>
</filter>
<filter id="filter9_f_899_889" x="25.834" y="120.834" width="30.334" height="29.416" filterUnits="userSpaceOnUse" color-interpolation-filters="sRGB">
<feFlood flood-opacity="0" result="BackgroundImageFix"/>
<feBlend mode="normal" in="SourceGraphic" in2="BackgroundImageFix" result="shape"/>
<feGaussianBlur stdDeviation="3" result="effect1_foregroundBlur_899_889"/>
</filter>
</defs>
</svg>
