<svg width="1919" height="774" viewBox="0 0 1919 774" fill="none" xmlns="http://www.w3.org/2000/svg">
<g clip-path="url(#clip0_2402_677)">
<rect width="1919" height="774" fill="white"/>
<g clip-path="url(#clip1_2402_677)">
<rect width="1920" height="4267" transform="translate(-0.5 -3160)" fill="#040426"/>
<g opacity="0.2" filter="url(#filter0_f_2402_677)">
<rect x="1.5" y="-735" width="1919" height="710" rx="40" fill="url(#paint0_linear_2402_677)"/>
</g>
<g opacity="0.2">
<g opacity="0.2">
<path d="M-2347.1 63.6924C-1588.32 117.729 -1004.63 -59.4657 -386.692 -247.105C46.23 -378.569 493.891 -514.495 1039.16 -586.569C1658.13 -668.388 2310.03 -652.275 3032.06 -537.333L3031.61 -533.506C1416.57 -790.636 459.03 -499.891 -385.802 -243.382C-1004.02 -55.6845 -1587.96 121.646 -2347.31 67.5343L-2347.06 63.6567L-2347.1 63.6924Z" fill="#50EED7"/>
<g opacity="0.8">
<path d="M-2350.21 55.6251C-1594.65 99.5634 -997.061 -84.5139 -364.37 -279.438C75.4028 -414.924 530.165 -555.007 1070.9 -630.773C1683.86 -716.649 2318.46 -704.182 3010.85 -592.622L3010.36 -588.798C1462.33 -838.203 492.354 -539.373 -363.48 -275.715C-996.449 -80.7325 -1594.29 103.481 -2350.39 59.4691L-2350.24 55.5847L-2350.21 55.6251Z" fill="#50EED7"/>
</g>
<g opacity="0.6">
<path d="M-2353.32 47.5205C-1600.85 81.4079 -989.21 -109.657 -341.625 -311.935C104.965 -451.443 566.758 -595.649 1102.89 -675.075C1709.83 -764.97 2326.99 -756.082 2989.67 -647.983L2989.19 -644.159C1508.34 -885.792 568.351 -592.186 -340.699 -308.247C-988.528 -105.909 -1600.45 85.2519 -2353.43 51.331L-2353.31 47.4445L-2353.32 47.5205Z" fill="#50EED7"/>
</g>
<g opacity="0.7">
<path d="M-2356.47 39.4496C-1606.94 63.2191 -981.085 -134.823 -318.499 -344.522C134.836 -487.982 603.593 -636.354 1135.05 -719.33C1735.9 -813.172 2335.61 -807.902 2968.42 -703.237L2967.93 -699.413C1554.47 -933.222 602.764 -632.056 -317.574 -340.797C-980.439 -131.039 -1606.55 67.1391 -2356.58 43.3362L-2356.5 39.4474L-2356.47 39.4496Z" fill="#50EED7"/>
</g>
<g opacity="0.6">
<path d="M-2359.58 31.3451C-1612.86 45.0055 -972.641 -160.119 -294.84 -377.341C165.136 -524.758 640.815 -677.185 1167.53 -763.752C1762.22 -861.508 2344.38 -859.824 2947.25 -758.599L2946.76 -754.775C1600.77 -980.752 637.603 -672.125 -293.882 -373.613C-971.927 -156.331 -1612.39 48.8918 -2359.59 35.2003L-2359.54 31.3093L-2359.58 31.3451Z" fill="#50EED7"/>
</g>
<g opacity="0.9">
<path d="M-2362.69 23.2771C-1618.61 26.8395 -963.85 -185.508 -270.661 -410.279C672.104 -715.998 1646.95 -1032.15 2926.03 -813.888L2925.54 -810.064C1647.21 -1028.2 672.714 -712.179 -269.703 -406.552C-963.138 -181.682 -1618.11 30.6901 -2362.67 27.1726L-2362.66 23.2793L-2362.69 23.2771Z" fill="#50EED7"/>
</g>
</g>
<g filter="url(#filter1_d_2402_677)">
<g opacity="0.6">
<path d="M-1479.49 -45.0371C-1077.76 -122.374 -692.34 -245.899 -293.918 -373.578C637.566 -672.09 1600.77 -980.716 2946.76 -754.738L2947.21 -758.602C2344.35 -859.789 1762.18 -861.473 1167.5 -763.717C640.781 -677.188 165.136 -524.759 -294.877 -377.306C-694.104 -249.373 -1080.29 -125.631 -1482.91 -48.3143L-1479.49 -45.0751L-1479.49 -45.0371Z" fill="#50EED7"/>
</g>
<g opacity="0.9">
<path d="M-2351.01 22.2659C-1606.93 25.8283 -951.413 -186.508 -258.259 -411.282C684.507 -717 1658.3 -1033.33 2937.38 -815.074L2938.97 -810.924C1660.63 -1029.06 685.082 -713.183 -257.334 -407.557C-950.77 -182.686 -1604.98 29.6963 -2349.58 26.1385L-2351.08 22.2614L-2351.01 22.2659Z" fill="#50EED7"/>
</g>
</g>
</g>
<g opacity="0.2" filter="url(#filter2_f_2402_677)">
<rect x="549.998" y="125.879" width="793" height="397" rx="40" fill="url(#paint1_linear_2402_677)"/>
</g>
<g opacity="0.1">
<g opacity="0.2">
<path d="M4412.42 429.282C3688.62 195.265 3079.48 227.655 2434.6 261.992C1982.79 286.054 1515.61 310.922 968.937 250.437C348.365 181.78 -280.741 10.1574 -954.299 -274.204L-952.942 -277.811C553.659 358.274 1552.96 305.083 2434.62 258.164C3079.79 223.837 3689.2 191.375 4413.55 425.603L4412.38 429.308L4412.42 429.282Z" fill="#50EED7"/>
<g opacity="0.8">
<path d="M4413.52 437.86C3690.42 214.418 3066.14 250.165 2405.19 288.046C1945.77 314.373 1470.7 341.577 927.54 285.762C311.838 222.483 -301.341 58.5412 -946.929 -215.446L-945.539 -219.041C497.848 393.511 1511.15 335.445 2405.21 284.218C3066.45 246.347 3691 210.528 4414.61 434.171L4413.54 437.906L4413.52 437.86Z" fill="#50EED7"/>
</g>
<g opacity="0.6">
<path d="M4414.6 446.473C3692.09 233.529 3052.5 272.7 2375.33 314.156C1908.33 342.758 1425.45 372.284 885.877 321.123C275.059 263.187 -322.041 106.894 -939.617 -156.625L-938.226 -160.221C441.794 428.711 1424.73 368.54 2375.31 310.354C3052.73 268.898 3692.62 229.701 4415.61 442.8L4414.57 446.546L4414.6 446.473Z" fill="#50EED7"/>
</g>
<g opacity="0.7">
<path d="M4415.72 455.062C3693.65 252.647 3038.59 295.19 2345.08 340.264C1870.58 371.088 1379.94 402.993 844.065 356.398C238.218 303.751 -342.814 155.144 -932.202 -97.8916L-930.812 -101.488C385.658 463.726 1381.78 399.018 2345.07 336.425C3038.87 291.362 3694.21 248.746 4416.76 451.317L4415.75 455.073L4415.72 455.062Z" fill="#50EED7"/>
</g>
<g opacity="0.6">
<path d="M4416.8 463.676C3695.04 271.748 3024.34 317.731 2314.25 366.469C1832.36 399.547 1334.03 433.732 801.9 391.759C201.1 344.388 -363.754 203.46 -924.89 -39.0714L-923.499 -42.6674C329.322 498.796 1338.36 429.588 2314.21 362.62C3024.55 313.882 3695.52 267.863 4417.73 459.936L4416.76 463.702L4416.8 463.676Z" fill="#50EED7"/>
</g>
<g opacity="0.9">
<path d="M4417.89 472.253C3696.28 290.761 3009.73 340.278 2282.89 392.664C1294.36 463.93 272.185 537.649 -917.52 19.6866L-916.13 16.0909C272.879 533.753 1294.69 460.076 2282.85 388.815C3009.95 336.393 3696.71 286.902 4418.8 468.466L4417.86 472.243L4417.89 472.253Z" fill="#50EED7"/>
</g>
</g>
<g filter="url(#filter3_d_2402_677)">
<g opacity="0.8">
<path d="M884.945 281.187C283.499 214.869 -316.205 52.277 -946.928 -215.444L-945.538 -219.04C-247.717 77.0796 349.59 216.495 881.476 275.693L884.978 281.198L884.945 281.187Z" fill="#50EED7"/>
</g>
<g opacity="0.6">
<path d="M1776.85 340.93C1000.22 365.521 155.816 306.553 -938.181 -160.245L-939.571 -156.649C-322.028 106.859 275.104 263.163 885.912 321.135C1200.19 350.955 1495.24 353.383 1779.13 344.49L1776.85 340.93Z" fill="#50EED7"/>
</g>
<g opacity="0.7">
<path d="M2660.39 320.658C2555.96 326.553 2450.94 333.382 2345.08 340.264C1870.57 371.125 1379.92 402.947 844.068 356.398C238.22 303.752 -342.823 155.18 -932.2 -97.8913L-930.81 -101.487C385.672 463.69 1381.76 398.972 2345.07 336.426C2450.15 329.617 2554.37 322.815 2658.04 316.957L2660.39 320.658Z" fill="#50EED7"/>
</g>
<g opacity="0.6">
<path d="M3544 327.264C3135.44 306.233 2731.66 333.952 2314.26 362.594C1338.41 429.563 329.335 498.76 -923.486 -42.7032L-924.855 -39.0608C-363.708 203.434 201.146 344.362 801.945 391.733C1334.07 433.743 1832.37 399.547 2314.3 366.443C2732.54 337.748 3137.12 310.001 3546.54 331.265L3543.99 327.3L3544 327.264Z" fill="#50EED7"/>
</g>
<g opacity="0.9">
<path d="M4406.31 470.441C3684.7 288.949 2997.41 338.274 2270.61 390.671C1282.08 461.937 260.882 536.086 -928.823 18.1232L-929.367 13.7151C259.642 531.377 1282.44 458.093 2270.61 386.833C2997.7 334.41 3683.73 284.728 4405.85 466.339L4406.38 470.462L4406.31 470.441Z" fill="#50EED7"/>
</g>
</g>
</g>
</g>
</g>
<defs>
<filter id="filter0_f_2402_677" x="-298.5" y="-1035" width="2519" height="1310" filterUnits="userSpaceOnUse" color-interpolation-filters="sRGB">
<feFlood flood-opacity="0" result="BackgroundImageFix"/>
<feBlend mode="normal" in="SourceGraphic" in2="BackgroundImageFix" result="shape"/>
<feGaussianBlur stdDeviation="150" result="effect1_foregroundBlur_2402_677"/>
</filter>
<filter id="filter1_d_2402_677" x="-2381.08" y="-917.47" width="5443.14" height="973.652" filterUnits="userSpaceOnUse" color-interpolation-filters="sRGB">
<feFlood flood-opacity="0" result="BackgroundImageFix"/>
<feColorMatrix in="SourceAlpha" type="matrix" values="0 0 0 0 0 0 0 0 0 0 0 0 0 0 0 0 0 0 127 0" result="hardAlpha"/>
<feOffset/>
<feGaussianBlur stdDeviation="15"/>
<feColorMatrix type="matrix" values="0 0 0 0 0 0 0 0 0 1 0 0 0 0 0.807843 0 0 0 0.7 0"/>
<feBlend mode="normal" in2="BackgroundImageFix" result="effect1_dropShadow_2402_677"/>
<feBlend mode="normal" in="SourceGraphic" in2="effect1_dropShadow_2402_677" result="shape"/>
</filter>
<filter id="filter2_f_2402_677" x="249.998" y="-174.121" width="1393" height="997" filterUnits="userSpaceOnUse" color-interpolation-filters="sRGB">
<feFlood flood-opacity="0" result="BackgroundImageFix"/>
<feBlend mode="normal" in="SourceGraphic" in2="BackgroundImageFix" result="shape"/>
<feGaussianBlur stdDeviation="150" result="effect1_foregroundBlur_2402_677"/>
</filter>
<filter id="filter3_d_2402_677" x="-984.299" y="-307.8" width="5420.67" height="808.262" filterUnits="userSpaceOnUse" color-interpolation-filters="sRGB">
<feFlood flood-opacity="0" result="BackgroundImageFix"/>
<feColorMatrix in="SourceAlpha" type="matrix" values="0 0 0 0 0 0 0 0 0 0 0 0 0 0 0 0 0 0 127 0" result="hardAlpha"/>
<feOffset/>
<feGaussianBlur stdDeviation="15"/>
<feColorMatrix type="matrix" values="0 0 0 0 0 0 0 0 0 1 0 0 0 0 0.807843 0 0 0 0.7 0"/>
<feBlend mode="normal" in2="BackgroundImageFix" result="effect1_dropShadow_2402_677"/>
<feBlend mode="normal" in="SourceGraphic" in2="effect1_dropShadow_2402_677" result="shape"/>
</filter>
<linearGradient id="paint0_linear_2402_677" x1="961" y1="-735" x2="961" y2="-25" gradientUnits="userSpaceOnUse">
<stop stop-color="#50EED7"/>
<stop offset="1" stop-color="#7BECF3"/>
</linearGradient>
<linearGradient id="paint1_linear_2402_677" x1="946.498" y1="125.879" x2="946.498" y2="522.879" gradientUnits="userSpaceOnUse">
<stop stop-color="#50EED7"/>
<stop offset="1" stop-color="#7BECF3"/>
</linearGradient>
<clipPath id="clip0_2402_677">
<rect width="1919" height="774" fill="white"/>
</clipPath>
<clipPath id="clip1_2402_677">
<rect width="1920" height="4267" fill="white" transform="translate(-0.5 -3160)"/>
</clipPath>
</defs>
</svg>
