<svg width="1440" height="684" viewBox="0 0 1440 684" fill="none" xmlns="http://www.w3.org/2000/svg">
<g clip-path="url(#clip0_1365_665)">
<rect width="1440" height="684" fill="#040426"/>
<g opacity="0.2" filter="url(#filter0_f_1365_665)">
<rect x="319" y="202" width="793" height="397" rx="40" fill="url(#paint0_linear_1365_665)"/>
</g>
<g opacity="0.2" filter="url(#filter1_f_1365_665)">
<path d="M689 373.13C689 373.13 723.194 220.806 795.371 123.36L1042 113C1042 113 921.808 226.448 886.999 287.992L1030.94 277.222C1030.94 277.222 803.766 440.624 727.392 607C727.392 607 710.807 470.063 788.716 362.77L689 373.13Z" fill="#50EED7"/>
</g>
<g opacity="0.1">
<g opacity="0.2">
<path d="M4189.92 410.281C3466.11 176.265 2856.98 208.655 2212.09 242.991C1760.29 267.054 1293.11 291.921 746.435 231.437C125.863 162.779 -503.243 -8.84308 -1176.8 -293.205L-1175.44 -296.811C331.157 339.274 1330.45 286.082 2212.12 239.163C2857.29 204.837 3466.7 172.374 4191.05 406.603L4189.88 410.307L4189.92 410.281Z" fill="#50EED7"/>
<g opacity="0.8">
<path d="M4191.01 418.859C3467.92 195.418 2843.64 231.164 2182.69 269.045C1723.27 295.372 1248.2 322.577 705.038 266.762C89.3365 203.483 -523.843 39.5408 -1169.43 -234.446L-1168.04 -238.042C275.346 374.51 1288.65 316.444 2182.71 265.217C2843.95 227.346 3468.5 191.527 4192.11 415.17L4191.03 418.906L4191.01 418.859Z" fill="#50EED7"/>
</g>
<g opacity="0.6">
<path d="M4192.09 427.473C3469.59 214.529 2830 253.7 2152.83 295.156C1685.83 323.758 1202.94 353.284 663.375 302.123C52.5568 244.187 -544.543 87.8935 -1162.12 -175.625L-1160.73 -179.221C219.292 409.711 1202.23 349.54 2152.81 291.354C2830.23 249.898 3470.12 210.701 4193.11 423.8L4192.07 427.546L4192.09 427.473Z" fill="#50EED7"/>
</g>
<g opacity="0.7">
<path d="M4193.22 436.062C3471.15 233.646 2816.09 276.189 2122.57 321.263C1648.08 352.087 1157.44 383.992 621.563 337.397C15.7157 284.75 -565.316 136.143 -1154.7 -116.893L-1153.31 -120.489C163.156 444.725 1159.27 380.017 2122.57 317.424C2816.37 272.361 3471.71 229.745 4194.26 432.316L4193.25 436.072L4193.22 436.062Z" fill="#50EED7"/>
</g>
<g opacity="0.6">
<path d="M4194.3 444.676C3472.54 252.748 2801.84 298.73 2091.75 347.468C1609.86 380.546 1111.53 414.731 579.398 372.759C-21.402 325.387 -586.256 184.459 -1147.39 -58.0719L-1146 -61.6678C106.82 479.796 1115.86 410.588 2091.71 343.62C2802.05 294.882 3473.02 248.862 4195.23 440.935L4194.25 444.702L4194.3 444.676Z" fill="#50EED7"/>
</g>
<g opacity="0.9">
<path d="M4195.39 453.253C3473.78 271.761 2787.23 321.278 2060.39 373.664C1071.86 444.93 49.6829 518.649 -1140.02 0.686606L-1138.63 -2.90915C50.3775 514.753 1072.18 441.076 2060.35 369.815C2787.45 317.393 3474.21 267.902 4196.3 449.466L4195.36 453.243L4195.39 453.253Z" fill="#50EED7"/>
</g>
</g>
<g filter="url(#filter2_d_1365_665)">
<g opacity="0.8">
<path d="M662.441 262.186C60.9947 195.868 -538.709 33.2756 -1169.43 -234.446L-1168.04 -238.042C-470.22 58.0782 127.086 197.493 658.972 256.692L662.474 262.196L662.441 262.186Z" fill="#50EED7"/>
</g>
<g opacity="0.6">
<path d="M1554.34 321.928C777.716 346.52 -66.6874 287.552 -1160.68 -179.247L-1162.07 -175.651C-544.532 87.8576 52.6006 244.161 663.408 302.134C977.691 331.954 1272.73 334.382 1556.63 325.489L1554.34 321.928Z" fill="#50EED7"/>
</g>
<g opacity="0.7">
<path d="M2437.89 301.656C2333.45 307.551 2228.43 314.38 2122.57 321.263C1648.07 352.123 1157.42 383.945 621.564 337.397C15.7162 284.75 -565.327 136.179 -1154.7 -116.893L-1153.31 -120.489C163.168 444.688 1159.25 379.97 2122.57 317.424C2227.65 310.616 2331.87 303.813 2435.54 297.955L2437.89 301.656Z" fill="#50EED7"/>
</g>
<g opacity="0.6">
<path d="M3321.5 308.263C2912.93 287.232 2509.15 314.951 2091.75 343.593C1115.9 410.561 106.831 479.759 -1145.99 -61.7042L-1147.36 -58.0618C-586.212 184.433 -21.3581 325.361 579.442 372.732C1111.56 414.742 1609.86 380.546 2091.79 347.442C2510.03 318.747 2914.61 291.001 3324.04 312.264L3321.49 308.299L3321.5 308.263Z" fill="#50EED7"/>
</g>
<g opacity="0.9">
<path d="M4183.81 451.44C3462.19 269.948 2774.91 319.273 2048.11 371.669C1059.58 442.936 38.3779 517.084 -1151.33 -0.878237L-1151.87 -5.28643C37.1383 512.376 1059.93 439.092 2048.1 367.831C2775.2 315.408 3461.23 265.727 4183.34 447.338L4183.87 451.461L4183.81 451.44Z" fill="#50EED7"/>
</g>
</g>
</g>
</g>
<defs>
<filter id="filter0_f_1365_665" x="19" y="-98" width="1393" height="997" filterUnits="userSpaceOnUse" color-interpolation-filters="sRGB">
<feFlood flood-opacity="0" result="BackgroundImageFix"/>
<feBlend mode="normal" in="SourceGraphic" in2="BackgroundImageFix" result="shape"/>
<feGaussianBlur stdDeviation="150" result="effect1_foregroundBlur_1365_665"/>
</filter>
<filter id="filter1_f_1365_665" x="682" y="106" width="367" height="508" filterUnits="userSpaceOnUse" color-interpolation-filters="sRGB">
<feFlood flood-opacity="0" result="BackgroundImageFix"/>
<feBlend mode="normal" in="SourceGraphic" in2="BackgroundImageFix" result="shape"/>
<feGaussianBlur stdDeviation="3.5" result="effect1_foregroundBlur_1365_665"/>
</filter>
<filter id="filter2_d_1365_665" x="-1206.8" y="-326.801" width="5420.67" height="808.261" filterUnits="userSpaceOnUse" color-interpolation-filters="sRGB">
<feFlood flood-opacity="0" result="BackgroundImageFix"/>
<feColorMatrix in="SourceAlpha" type="matrix" values="0 0 0 0 0 0 0 0 0 0 0 0 0 0 0 0 0 0 127 0" result="hardAlpha"/>
<feOffset/>
<feGaussianBlur stdDeviation="15"/>
<feColorMatrix type="matrix" values="0 0 0 0 0 0 0 0 0 1 0 0 0 0 0.807843 0 0 0 0.7 0"/>
<feBlend mode="normal" in2="BackgroundImageFix" result="effect1_dropShadow_1365_665"/>
<feBlend mode="normal" in="SourceGraphic" in2="effect1_dropShadow_1365_665" result="shape"/>
</filter>
<linearGradient id="paint0_linear_1365_665" x1="715.5" y1="202" x2="715.5" y2="599" gradientUnits="userSpaceOnUse">
<stop stop-color="#50EED7"/>
<stop offset="1" stop-color="#7BECF3"/>
</linearGradient>
<clipPath id="clip0_1365_665">
<rect width="1440" height="684" fill="white"/>
</clipPath>
</defs>
</svg>
