<svg width="1920" height="1082" viewBox="0 0 1920 1082" fill="none" xmlns="http://www.w3.org/2000/svg">
<g opacity="0.2">
<g opacity="0.2">
<path d="M4514.73 -195.078C3754.04 -199.688 3183.1 15.0654 2578.67 242.467C2155.2 401.789 1717.32 566.521 1177.89 673.878C565.541 795.751 -86.0241 822.038 -814 754.263L-813.795 750.415C814.536 902.042 1751.16 549.682 2577.54 238.81C3182.25 11.3319 3753.43 -203.574 4514.69 -198.926V-195.04L4514.73 -195.078Z" fill="#50EED7"/>
<g opacity="0.8">
<path d="M4518.36 -187.23C3761.54 -181.973 3177.18 40.5524 2558.49 276.183C2128.45 439.962 1683.76 609.304 1149.09 720.052C543.004 845.582 -91.0596 874.383 -789.238 808.056L-788.999 804.208C771.963 952.482 1720.47 591.246 2557.36 272.526C3176.32 36.8188 3760.93 -185.859 4518.29 -191.078L4518.39 -187.192L4518.36 -187.23Z" fill="#50EED7"/>
</g>
<g opacity="0.6">
<path d="M4521.99 -179.344C3768.91 -164.258 3170.98 66.1535 2537.91 310.089C2101.33 478.326 1649.88 652.239 1120.04 766.34C520.228 895.489 -96.1967 926.729 -764.51 861.926L-764.27 858.078C729.151 1002.96 1648.07 648.886 2536.74 306.47C3170.05 62.4581 3768.26 -168.067 4521.85 -183.154L4521.99 -179.268V-179.344Z" fill="#50EED7"/>
</g>
<g opacity="0.7">
<path d="M4525.65 -171.496C3776.17 -146.504 3164.51 91.793 2516.95 344.11C2073.89 516.728 1615.77 695.251 1090.83 812.59C497.349 945.282 -101.437 978.998 -739.713 915.681L-739.473 911.833C686.202 1053.29 1616.32 690.908 2515.78 340.453C3163.61 88.0595 3775.52 -150.39 4525.52 -175.382L4525.69 -171.496H4525.65Z" fill="#50EED7"/>
</g>
<g opacity="0.6">
<path d="M4529.28 -163.61C3783.26 -128.713 3157.72 117.585 2495.47 378.397C2046.05 555.396 1581.28 738.415 1061.3 859.03C474.231 995.227 -106.814 1031.38 -714.984 969.55L-714.745 965.702C643.082 1103.73 1584.16 733.157 2494.27 374.74C3156.76 113.851 3782.54 -132.561 4529.04 -167.458L4529.25 -163.572L4529.28 -163.61Z" fill="#50EED7"/>
</g>
<g opacity="0.9">
<path d="M4532.91 -155.762C3790.18 -110.96 3150.6 143.491 2473.48 412.837C1552.58 779.178 600.338 1158.02 -690.223 1023.34L-689.983 1019.49C599.824 1154.09 1551.72 775.407 2472.29 409.18C3149.64 139.719 3789.42 -114.77 4532.64 -159.648L4532.88 -155.762H4532.91Z" fill="#50EED7"/>
</g>
</g>
<g filter="url(#filter0_d_802_749)">
<path d="M170.78 787.179C-142.981 797.313 -469.997 786.303 -814 754.263L-813.76 750.416C-455.817 783.75 -131.302 792.741 165.95 783.103L170.78 787.179Z" fill="#50EED7"/>
<g opacity="0.8">
<path d="M1107.1 728.548C513.686 846.877 -107.123 872.898 -789.238 808.056L-788.999 804.209C-34.3422 875.869 577.185 828.477 1102.13 724.357L1107.13 728.548H1107.1Z" fill="#50EED7"/>
</g>
<g opacity="0.6">
<path d="M1975.43 516.271C1242.45 774.15 419.636 972.826 -764.237 858.04L-764.477 861.888C-96.1978 926.691 520.261 895.451 1120.08 766.34C1428.7 699.899 1710.71 613.152 1978.68 518.976L1975.43 516.271Z" fill="#50EED7"/>
</g>
<g opacity="0.7">
<path d="M2811.63 230.238C2713.85 267.382 2615.79 305.594 2516.95 344.11C2073.89 516.766 1615.74 695.213 1090.83 812.59C497.35 945.282 -101.437 979.036 -739.713 915.68L-739.473 911.833C686.202 1053.25 1616.28 690.87 2515.78 340.453C2613.91 302.241 2711.21 264.296 2808.27 227.418L2811.63 230.238Z" fill="#50EED7"/>
</g>
<g opacity="0.6">
<path d="M3656.02 -30.1941C3260.16 73.0871 2883.59 221.399 2494.31 374.702C1584.19 733.119 643.081 1103.69 -714.746 965.664L-714.951 969.55C-106.78 1031.34 474.265 995.189 1061.34 858.992C1581.32 738.415 2046.05 555.396 2495.51 378.359C2885.58 224.752 3262.9 76.1729 3659.65 -27.1464L3656.02 -30.156V-30.1941Z" fill="#50EED7"/>
</g>
<g opacity="0.9">
<path d="M4533.67 -155.8C3790.93 -110.998 3150.6 143.491 2473.52 412.837C1552.61 779.179 601.433 1158.13 -689.127 1023.46L-690.977 1019.42C598.83 1154.02 1551.79 775.407 2472.35 409.18C3149.71 139.719 3788.74 -114.731 4531.99 -159.572L4533.74 -155.8H4533.67Z" fill="#50EED7"/>
</g>
</g>
</g>
<defs>
<filter id="filter0_d_802_749" x="-844" y="-189.572" width="5407.74" height="1270.84" filterUnits="userSpaceOnUse" color-interpolation-filters="sRGB">
<feFlood flood-opacity="0" result="BackgroundImageFix"/>
<feColorMatrix in="SourceAlpha" type="matrix" values="0 0 0 0 0 0 0 0 0 0 0 0 0 0 0 0 0 0 127 0" result="hardAlpha"/>
<feOffset/>
<feGaussianBlur stdDeviation="15"/>
<feColorMatrix type="matrix" values="0 0 0 0 0 0 0 0 0 1 0 0 0 0 0.807843 0 0 0 0.7 0"/>
<feBlend mode="normal" in2="BackgroundImageFix" result="effect1_dropShadow_802_749"/>
<feBlend mode="normal" in="SourceGraphic" in2="effect1_dropShadow_802_749" result="shape"/>
</filter>
</defs>
</svg>
