<svg width="1356" height="386" viewBox="0 0 1356 386" fill="none" xmlns="http://www.w3.org/2000/svg">
<path opacity="0.6" d="M0.99939 331.92L43.649 300.012L73.7547 290.041H105.366L134.969 296.522L163.068 293.032L194.177 275.084L221.272 243.176L246.999 233.765L282.999 228.765L321.999 222.765L349.499 215.765L401.499 189.265L453.499 184.765H488.999L551.999 206.765L602.999 228.765L670.999 243.765L729.999 238.765L822.499 206.765L859.999 203.765L911.499 210.765L947.999 221.765H984.999L1023.5 210.765L1075 173.765L1108.5 164.265H1138L1160 157.265L1197.5 114.765L1229 101.265L1266 83.7651L1296 44.7651V361.265L0.99939 385.265V331.92Z" fill="url(#paint0_linear_283_37)"/>
<path d="M1.99939 333.765L28.7562 311.395C50.3269 293.36 79.0975 286.466 106.499 292.765V292.765L127.627 296.183C156.284 300.819 185.066 288.638 201.69 264.84V264.84C214.557 246.419 234.95 234.676 257.34 232.793L295.664 229.569C317.643 227.72 338.989 221.279 358.322 210.662L364.883 207.059C418.986 177.346 484.043 175.323 539.888 201.617L570.999 216.265L580.116 220.429C640.709 248.104 709.994 249.747 771.831 224.978L794.831 215.764C831.194 201.199 871.427 199.422 908.932 210.727L929.582 216.951C968.857 228.789 1011.42 221.369 1044.37 196.937L1075.91 173.551C1087.66 164.838 1102.73 161.94 1116.88 165.676V165.676C1135.46 170.585 1155.18 163.97 1167.05 148.847L1181.29 130.698C1192.46 116.465 1207.96 106.259 1225.45 101.626L1229.79 100.477C1257.77 93.0637 1280.96 73.4889 1292.96 47.1422L1294.5 43.7651" stroke="#50EED7" stroke-width="5"/>
<g filter="url(#filter0_d_283_37)">
<path d="M1317.72 82.729L1312.6 66.2587L1289.86 86.2665L1293.74 110.337L1317.72 82.729Z" fill="#50EED7"/>
<path d="M1274.62 33.7291L1289.29 39.7657L1266.55 59.7735L1244.49 54.3521L1274.62 33.7291Z" fill="#50EED7"/>
<path d="M1268.65 81.8652L1273.51 77.5936L1278.36 73.3219L1330.16 27.7573C1330.16 27.7573 1320.3 23.0341 1300.5 31.337C1289.12 36.1136 1279.73 41.9917 1270.45 48.8232C1264.48 53.2132 1258.93 58.5761 1253.2 64.3059L1256.29 67.8178L1253.06 70.6656L1256.68 74.7819L1253.44 77.6297L1262.18 87.5608L1265.41 84.713L1268.65 81.8652Z" fill="#50EED7"/>
<path d="M1268.65 81.8652L1273.51 77.5936L1278.36 73.3219L1330.16 27.7573C1330.16 27.7573 1333.77 38.3487 1323.14 57.0655C1317.02 67.833 1310.03 76.429 1302.09 84.7863C1296.98 90.1569 1290.95 94.9737 1284.53 99.9123L1281.35 96.3029L1278.12 99.1507L1274.39 94.92L1271.16 97.7678L1262.18 87.5608L1265.41 84.713L1268.65 81.8652Z" fill="#F9F1F9"/>
<path d="M1253.67 87.9713C1256.01 90.6268 1257.63 92.4652 1261.58 96.959C1265.93 101.905 1248.41 110.719 1247.33 109.494C1246.25 108.268 1237.63 110.054 1237.63 110.054C1237.63 110.054 1241.04 102.345 1239.42 100.506C1237.81 98.6678 1249.64 83.3831 1253.67 87.9713Z" fill="#50EED7"/>
<path d="M1254.36 88.7518C1256.29 90.9454 1257.62 92.4641 1260.89 96.1764C1264.48 100.262 1251.09 106.59 1250.2 105.578C1249.31 104.565 1242.63 105.656 1242.63 105.656C1242.63 105.656 1245.01 99.6716 1243.67 98.1529C1242.34 96.6343 1251.02 84.9615 1254.36 88.7518Z" fill="#50EED7"/>
<path d="M1255.39 89.9222C1256.71 91.4231 1257.62 92.4622 1259.86 95.0022C1262.32 97.7976 1253.34 101.962 1252.73 101.27C1252.12 100.577 1247.63 101.257 1247.63 101.257C1247.63 101.257 1249.18 97.2287 1248.26 96.1896C1247.35 95.1505 1253.11 87.3288 1255.39 89.9222Z" fill="#50EED7"/>
<path d="M1255.14 79.563L1269.65 96.0584L1262.78 100.335L1250.46 86.3394L1255.14 79.563Z" fill="#151536"/>
<circle cx="1313.25" cy="42.8118" r="9.15203" transform="rotate(48.6617 1313.25 42.8118)" fill="#50EED7" stroke="#151536" stroke-width="3"/>
<path d="M1292.15 54.8178L1300.58 53.6065L1298.31 61.8158L1261.09 88.3452L1292.15 54.8178Z" fill="#50EED7"/>
</g>
<defs>
<filter id="filter0_d_283_37" x="1233.63" y="26.4194" width="101.119" height="91.9175" filterUnits="userSpaceOnUse" color-interpolation-filters="sRGB">
<feFlood flood-opacity="0" result="BackgroundImageFix"/>
<feColorMatrix in="SourceAlpha" type="matrix" values="0 0 0 0 0 0 0 0 0 0 0 0 0 0 0 0 0 0 127 0" result="hardAlpha"/>
<feOffset dy="4"/>
<feGaussianBlur stdDeviation="2"/>
<feComposite in2="hardAlpha" operator="out"/>
<feColorMatrix type="matrix" values="0 0 0 0 0 0 0 0 0 0 0 0 0 0 0 0 0 0 0.25 0"/>
<feBlend mode="normal" in2="BackgroundImageFix" result="effect1_dropShadow_283_37"/>
<feBlend mode="normal" in="SourceGraphic" in2="effect1_dropShadow_283_37" result="shape"/>
</filter>
<linearGradient id="paint0_linear_283_37" x1="147.499" y1="9.26508" x2="151.499" y2="317.765" gradientUnits="userSpaceOnUse">
<stop stop-color="#50EED7"/>
<stop offset="1" stop-color="#50EED7" stop-opacity="0"/>
</linearGradient>
</defs>
</svg>
