<svg width="729" height="567" viewBox="0 0 729 567" fill="none" xmlns="http://www.w3.org/2000/svg">
<rect x="125" y="105" width="364" height="364" rx="182" stroke="#50EED7" stroke-width="50"/>
<rect opacity="0.2" x="315" y="10.7349" width="414" height="414" rx="207" fill="#50EED7"/>
<rect x="275" y="278" width="389" height="270" rx="16" fill="url(#paint0_linear_962_711)"/>
<rect x="276" y="279" width="387" height="268" rx="15" stroke="url(#paint1_radial_962_711)" stroke-opacity="0.5" stroke-width="2"/>
<rect x="67" width="366" height="254" rx="16" fill="url(#paint2_linear_962_711)"/>
<rect x="68" y="1" width="364" height="252" rx="15" stroke="url(#paint3_radial_962_711)" stroke-opacity="0.5" stroke-width="2"/>
<path d="M58.4083 130.173C56.5185 124.766 56.854 118.83 59.341 113.671C61.828 108.511 66.2628 104.551 71.6697 102.661C77.0767 100.771 83.0129 101.107 88.1725 103.594C93.332 106.081 97.2923 110.515 99.1821 115.922L58.4083 130.173Z" fill="#50EED7"/>
<g filter="url(#filter0_biiii_962_711)">
<path d="M41.7603 83.5957L108.804 141.341L25.284 170.532L41.7603 83.5957Z" fill="url(#paint4_linear_962_711)"/>
</g>
<path d="M66.9584 127.185C65.8611 124.046 66.0559 120.599 67.4999 117.603C68.944 114.607 71.519 112.307 74.6585 111.21C77.7981 110.113 81.2449 110.308 84.2408 111.752C87.2366 113.196 89.5362 115.771 90.6335 118.91L66.9584 127.185Z" fill="url(#paint5_linear_962_711)"/>
<path d="M690.641 475.478C699.157 476.294 707 480.459 712.445 487.058C717.889 493.657 720.49 502.149 719.674 510.665C718.858 519.181 714.692 527.024 708.093 532.469C701.495 537.913 693.003 540.514 684.487 539.698L690.641 475.478Z" fill="#50EED7"/>
<g filter="url(#filter1_biiii_962_711)">
<path d="M709.157 451.328C694.041 449.88 678.973 454.453 667.267 464.043C655.562 473.632 648.177 487.451 646.739 502.461C645.301 517.47 649.926 532.441 659.598 544.078C669.27 555.716 683.195 563.068 698.311 564.516L709.157 451.328Z" fill="url(#paint6_linear_962_711)"/>
</g>
<path d="M691.016 488.476C696.125 488.965 700.831 491.465 704.098 495.424C707.365 499.383 708.925 504.478 708.436 509.588C707.946 514.698 705.447 519.404 701.487 522.67C697.528 525.937 692.433 527.498 687.323 527.008L691.016 488.476Z" fill="url(#paint7_linear_962_711)"/>
<path d="M660.858 2.00008C671.826 2.00008 682.345 6.30927 690.1 13.9797C697.856 21.6501 702.213 32.0533 702.213 42.9009C702.213 53.7485 697.856 64.1518 690.1 71.8222C682.345 79.4926 671.826 83.8018 660.858 83.8018L660.858 2.00008Z" fill="#50EED7"/>
<g filter="url(#filter2_biiii_962_711)">
<path d="M606 43.7358C606 59.4537 612.269 74.5278 623.427 85.6421C634.586 96.7563 649.72 103 665.5 103C681.28 103 696.414 96.7563 707.573 85.6421C718.731 74.5278 725 59.4537 725 43.7358L606 43.7358Z" fill="url(#paint8_linear_962_711)"/>
</g>
<path d="M660.858 16.4955C667.939 16.4955 674.73 19.2775 679.737 24.2295C684.744 29.1815 687.557 35.8978 687.557 42.9009C687.557 49.9041 684.744 56.6204 679.737 61.5724C674.73 66.5244 667.939 69.3064 660.858 69.3064L660.858 16.4955Z" fill="url(#paint9_linear_962_711)"/>
<rect x="155" y="174" width="213" height="33" rx="16.5" fill="#50EED7" fill-opacity="0.2" stroke="#50EED7" stroke-width="2"/>
<path d="M183.996 189.274H188.868V190.772H183.996V189.274ZM184.136 193.474H189.666V195H182.316V185.2H189.47V186.726H184.136V193.474ZM196.065 195V193.488L195.967 193.166V190.52C195.967 190.007 195.813 189.61 195.505 189.33C195.197 189.041 194.73 188.896 194.105 188.896C193.685 188.896 193.269 188.961 192.859 189.092C192.457 189.223 192.117 189.405 191.837 189.638L191.151 188.364C191.552 188.056 192.028 187.827 192.579 187.678C193.139 187.519 193.717 187.44 194.315 187.44C195.397 187.44 196.233 187.701 196.821 188.224C197.418 188.737 197.717 189.535 197.717 190.618V195H196.065ZM193.713 195.098C193.153 195.098 192.663 195.005 192.243 194.818C191.823 194.622 191.496 194.356 191.263 194.02C191.039 193.675 190.927 193.287 190.927 192.858C190.927 192.438 191.025 192.06 191.221 191.724C191.426 191.388 191.757 191.122 192.215 190.926C192.672 190.73 193.279 190.632 194.035 190.632H196.205V191.794H194.161C193.563 191.794 193.162 191.892 192.957 192.088C192.751 192.275 192.649 192.508 192.649 192.788C192.649 193.105 192.775 193.357 193.027 193.544C193.279 193.731 193.629 193.824 194.077 193.824C194.506 193.824 194.889 193.726 195.225 193.53C195.57 193.334 195.817 193.045 195.967 192.662L196.261 193.712C196.093 194.151 195.789 194.491 195.351 194.734C194.921 194.977 194.375 195.098 193.713 195.098ZM199.962 195V187.524H201.628V189.582L201.432 188.98C201.656 188.476 202.006 188.093 202.482 187.832C202.968 187.571 203.57 187.44 204.288 187.44V189.106C204.214 189.087 204.144 189.078 204.078 189.078C204.013 189.069 203.948 189.064 203.882 189.064C203.22 189.064 202.692 189.26 202.3 189.652C201.908 190.035 201.712 190.609 201.712 191.374V195H199.962ZM210.015 187.44C210.612 187.44 211.144 187.557 211.611 187.79C212.087 188.023 212.46 188.383 212.731 188.868C213.002 189.344 213.137 189.96 213.137 190.716V195H211.387V190.94C211.387 190.277 211.228 189.783 210.911 189.456C210.603 189.129 210.169 188.966 209.609 188.966C209.198 188.966 208.834 189.05 208.517 189.218C208.2 189.386 207.952 189.638 207.775 189.974C207.607 190.301 207.523 190.716 207.523 191.22V195H205.773V187.524H207.439V189.54L207.145 188.924C207.406 188.448 207.784 188.084 208.279 187.832C208.783 187.571 209.362 187.44 210.015 187.44ZM219.464 195V187.104C219.464 186.32 219.693 185.695 220.15 185.228C220.617 184.752 221.279 184.514 222.138 184.514C222.446 184.514 222.735 184.547 223.006 184.612C223.286 184.677 223.519 184.78 223.706 184.92L223.23 186.236C223.099 186.133 222.95 186.059 222.782 186.012C222.614 185.956 222.441 185.928 222.264 185.928C221.9 185.928 221.625 186.031 221.438 186.236C221.251 186.432 221.158 186.731 221.158 187.132V187.972L221.214 188.756V195H219.464ZM218.232 188.98V187.58H223.216V188.98H218.232ZM224.408 195V187.524H226.074V189.582L225.878 188.98C226.102 188.476 226.452 188.093 226.928 187.832C227.413 187.571 228.015 187.44 228.734 187.44V189.106C228.659 189.087 228.589 189.078 228.524 189.078C228.458 189.069 228.393 189.064 228.328 189.064C227.665 189.064 227.138 189.26 226.746 189.652C226.354 190.035 226.158 190.609 226.158 191.374V195H224.408ZM233.664 195.098C232.833 195.098 232.105 194.935 231.48 194.608C230.864 194.272 230.383 193.815 230.038 193.236C229.702 192.657 229.534 191.999 229.534 191.262C229.534 190.515 229.697 189.857 230.024 189.288C230.36 188.709 230.817 188.257 231.396 187.93C231.984 187.603 232.651 187.44 233.398 187.44C234.126 187.44 234.775 187.599 235.344 187.916C235.913 188.233 236.361 188.681 236.688 189.26C237.015 189.839 237.178 190.52 237.178 191.304C237.178 191.379 237.173 191.463 237.164 191.556C237.164 191.649 237.159 191.738 237.15 191.822H230.92V190.66H236.226L235.54 191.024C235.549 190.595 235.461 190.217 235.274 189.89C235.087 189.563 234.831 189.307 234.504 189.12C234.187 188.933 233.818 188.84 233.398 188.84C232.969 188.84 232.591 188.933 232.264 189.12C231.947 189.307 231.695 189.568 231.508 189.904C231.331 190.231 231.242 190.618 231.242 191.066V191.346C231.242 191.794 231.345 192.191 231.55 192.536C231.755 192.881 232.045 193.147 232.418 193.334C232.791 193.521 233.221 193.614 233.706 193.614C234.126 193.614 234.504 193.549 234.84 193.418C235.176 193.287 235.475 193.082 235.736 192.802L236.674 193.88C236.338 194.272 235.913 194.575 235.4 194.79C234.896 194.995 234.317 195.098 233.664 195.098ZM242.373 195.098C241.542 195.098 240.814 194.935 240.189 194.608C239.573 194.272 239.092 193.815 238.747 193.236C238.411 192.657 238.243 191.999 238.243 191.262C238.243 190.515 238.406 189.857 238.733 189.288C239.069 188.709 239.526 188.257 240.105 187.93C240.693 187.603 241.36 187.44 242.107 187.44C242.835 187.44 243.484 187.599 244.053 187.916C244.622 188.233 245.07 188.681 245.397 189.26C245.724 189.839 245.887 190.52 245.887 191.304C245.887 191.379 245.882 191.463 245.873 191.556C245.873 191.649 245.868 191.738 245.859 191.822H239.629V190.66H244.935L244.249 191.024C244.258 190.595 244.17 190.217 243.983 189.89C243.796 189.563 243.54 189.307 243.213 189.12C242.896 188.933 242.527 188.84 242.107 188.84C241.678 188.84 241.3 188.933 240.973 189.12C240.656 189.307 240.404 189.568 240.217 189.904C240.04 190.231 239.951 190.618 239.951 191.066V191.346C239.951 191.794 240.054 192.191 240.259 192.536C240.464 192.881 240.754 193.147 241.127 193.334C241.5 193.521 241.93 193.614 242.415 193.614C242.835 193.614 243.213 193.549 243.549 193.418C243.885 193.287 244.184 193.082 244.445 192.802L245.383 193.88C245.047 194.272 244.622 194.575 244.109 194.79C243.605 194.995 243.026 195.098 242.373 195.098ZM255.581 195.098C254.974 195.098 254.419 194.958 253.915 194.678C253.42 194.398 253.024 193.978 252.725 193.418C252.436 192.849 252.291 192.13 252.291 191.262C252.291 190.385 252.431 189.666 252.711 189.106C253 188.546 253.392 188.131 253.887 187.86C254.382 187.58 254.946 187.44 255.581 187.44C256.318 187.44 256.967 187.599 257.527 187.916C258.096 188.233 258.544 188.677 258.871 189.246C259.207 189.815 259.375 190.487 259.375 191.262C259.375 192.037 259.207 192.713 258.871 193.292C258.544 193.861 258.096 194.305 257.527 194.622C256.967 194.939 256.318 195.098 255.581 195.098ZM251.437 197.716V187.524H253.103V189.288L253.047 191.276L253.187 193.264V197.716H251.437ZM255.385 193.6C255.805 193.6 256.178 193.507 256.505 193.32C256.841 193.133 257.107 192.863 257.303 192.508C257.499 192.153 257.597 191.738 257.597 191.262C257.597 190.777 257.499 190.361 257.303 190.016C257.107 189.661 256.841 189.391 256.505 189.204C256.178 189.017 255.805 188.924 255.385 188.924C254.965 188.924 254.587 189.017 254.251 189.204C253.915 189.391 253.649 189.661 253.453 190.016C253.257 190.361 253.159 190.777 253.159 191.262C253.159 191.738 253.257 192.153 253.453 192.508C253.649 192.863 253.915 193.133 254.251 193.32C254.587 193.507 254.965 193.6 255.385 193.6ZM261.035 195V187.524H262.701V189.582L262.505 188.98C262.729 188.476 263.079 188.093 263.555 187.832C264.04 187.571 264.642 187.44 265.361 187.44V189.106C265.286 189.087 265.216 189.078 265.151 189.078C265.085 189.069 265.02 189.064 264.955 189.064C264.292 189.064 263.765 189.26 263.373 189.652C262.981 190.035 262.785 190.609 262.785 191.374V195H261.035ZM270.137 195.098C269.372 195.098 268.69 194.935 268.093 194.608C267.496 194.272 267.024 193.815 266.679 193.236C266.334 192.657 266.161 191.999 266.161 191.262C266.161 190.515 266.334 189.857 266.679 189.288C267.024 188.709 267.496 188.257 268.093 187.93C268.69 187.603 269.372 187.44 270.137 187.44C270.912 187.44 271.598 187.603 272.195 187.93C272.802 188.257 273.273 188.705 273.609 189.274C273.954 189.843 274.127 190.506 274.127 191.262C274.127 191.999 273.954 192.657 273.609 193.236C273.273 193.815 272.802 194.272 272.195 194.608C271.598 194.935 270.912 195.098 270.137 195.098ZM270.137 193.6C270.566 193.6 270.949 193.507 271.285 193.32C271.621 193.133 271.882 192.863 272.069 192.508C272.265 192.153 272.363 191.738 272.363 191.262C272.363 190.777 272.265 190.361 272.069 190.016C271.882 189.661 271.621 189.391 271.285 189.204C270.949 189.017 270.571 188.924 270.151 188.924C269.722 188.924 269.339 189.017 269.003 189.204C268.676 189.391 268.415 189.661 268.219 190.016C268.023 190.361 267.925 190.777 267.925 191.262C267.925 191.738 268.023 192.153 268.219 192.508C268.415 192.863 268.676 193.133 269.003 193.32C269.339 193.507 269.717 193.6 270.137 193.6ZM274.532 195L277.822 190.716L277.794 191.654L274.658 187.524H276.604L278.802 190.464H278.06L280.272 187.524H282.162L278.998 191.654L279.012 190.716L282.288 195H280.314L278.004 191.878L278.732 191.976L276.464 195H274.532ZM283.58 195V187.524H285.33V195H283.58ZM284.462 186.292C284.135 186.292 283.864 186.189 283.65 185.984C283.444 185.779 283.342 185.531 283.342 185.242C283.342 184.943 283.444 184.696 283.65 184.5C283.864 184.295 284.135 184.192 284.462 184.192C284.788 184.192 285.054 184.29 285.26 184.486C285.474 184.673 285.582 184.911 285.582 185.2C285.582 185.508 285.479 185.769 285.274 185.984C285.068 186.189 284.798 186.292 284.462 186.292ZM291.141 195.098C290.31 195.098 289.582 194.935 288.957 194.608C288.341 194.272 287.86 193.815 287.515 193.236C287.179 192.657 287.011 191.999 287.011 191.262C287.011 190.515 287.174 189.857 287.501 189.288C287.837 188.709 288.294 188.257 288.873 187.93C289.461 187.603 290.128 187.44 290.875 187.44C291.603 187.44 292.251 187.599 292.821 187.916C293.39 188.233 293.838 188.681 294.165 189.26C294.491 189.839 294.655 190.52 294.655 191.304C294.655 191.379 294.65 191.463 294.641 191.556C294.641 191.649 294.636 191.738 294.627 191.822H288.397V190.66H293.703L293.017 191.024C293.026 190.595 292.937 190.217 292.751 189.89C292.564 189.563 292.307 189.307 291.981 189.12C291.663 188.933 291.295 188.84 290.875 188.84C290.445 188.84 290.067 188.933 289.741 189.12C289.423 189.307 289.171 189.568 288.985 189.904C288.807 190.231 288.719 190.618 288.719 191.066V191.346C288.719 191.794 288.821 192.191 289.027 192.536C289.232 192.881 289.521 193.147 289.895 193.334C290.268 193.521 290.697 193.614 291.183 193.614C291.603 193.614 291.981 193.549 292.317 193.418C292.653 193.287 292.951 193.082 293.213 192.802L294.151 193.88C293.815 194.272 293.39 194.575 292.877 194.79C292.373 194.995 291.794 195.098 291.141 195.098ZM298.646 195.098C298.02 195.098 297.418 195.019 296.84 194.86C296.27 194.692 295.818 194.491 295.482 194.258L296.154 192.928C296.49 193.143 296.891 193.32 297.358 193.46C297.824 193.6 298.291 193.67 298.758 193.67C299.308 193.67 299.705 193.595 299.948 193.446C300.2 193.297 300.326 193.096 300.326 192.844C300.326 192.639 300.242 192.485 300.074 192.382C299.906 192.27 299.686 192.186 299.416 192.13C299.145 192.074 298.842 192.023 298.506 191.976C298.179 191.929 297.848 191.869 297.512 191.794C297.185 191.71 296.886 191.593 296.616 191.444C296.345 191.285 296.126 191.075 295.958 190.814C295.79 190.553 295.706 190.207 295.706 189.778C295.706 189.302 295.841 188.891 296.111 188.546C296.382 188.191 296.76 187.921 297.245 187.734C297.74 187.538 298.324 187.44 298.996 187.44C299.5 187.44 300.008 187.496 300.522 187.608C301.035 187.72 301.46 187.879 301.796 188.084L301.124 189.414C300.769 189.199 300.41 189.055 300.046 188.98C299.691 188.896 299.336 188.854 298.982 188.854C298.45 188.854 298.053 188.933 297.792 189.092C297.54 189.251 297.414 189.451 297.414 189.694C297.414 189.918 297.498 190.086 297.666 190.198C297.834 190.31 298.053 190.399 298.324 190.464C298.594 190.529 298.893 190.585 299.22 190.632C299.556 190.669 299.887 190.73 300.214 190.814C300.54 190.898 300.839 191.015 301.11 191.164C301.39 191.304 301.614 191.505 301.782 191.766C301.95 192.027 302.034 192.368 302.034 192.788C302.034 193.255 301.894 193.661 301.614 194.006C301.343 194.351 300.956 194.622 300.452 194.818C299.948 195.005 299.346 195.098 298.646 195.098ZM311.652 187.44C312.249 187.44 312.781 187.557 313.248 187.79C313.724 188.023 314.097 188.383 314.368 188.868C314.638 189.344 314.774 189.96 314.774 190.716V195H313.024V190.94C313.024 190.277 312.865 189.783 312.548 189.456C312.24 189.129 311.806 188.966 311.246 188.966C310.835 188.966 310.471 189.05 310.154 189.218C309.836 189.386 309.589 189.638 309.412 189.974C309.244 190.301 309.16 190.716 309.16 191.22V195H307.41V187.524H309.076V189.54L308.782 188.924C309.043 188.448 309.421 188.084 309.916 187.832C310.42 187.571 310.998 187.44 311.652 187.44ZM320.367 195.098C319.602 195.098 318.921 194.935 318.323 194.608C317.726 194.272 317.255 193.815 316.909 193.236C316.564 192.657 316.391 191.999 316.391 191.262C316.391 190.515 316.564 189.857 316.909 189.288C317.255 188.709 317.726 188.257 318.323 187.93C318.921 187.603 319.602 187.44 320.367 187.44C321.142 187.44 321.828 187.603 322.425 187.93C323.032 188.257 323.503 188.705 323.839 189.274C324.185 189.843 324.357 190.506 324.357 191.262C324.357 191.999 324.185 192.657 323.839 193.236C323.503 193.815 323.032 194.272 322.425 194.608C321.828 194.935 321.142 195.098 320.367 195.098ZM320.367 193.6C320.797 193.6 321.179 193.507 321.515 193.32C321.851 193.133 322.113 192.863 322.299 192.508C322.495 192.153 322.593 191.738 322.593 191.262C322.593 190.777 322.495 190.361 322.299 190.016C322.113 189.661 321.851 189.391 321.515 189.204C321.179 189.017 320.801 188.924 320.381 188.924C319.952 188.924 319.569 189.017 319.233 189.204C318.907 189.391 318.645 189.661 318.449 190.016C318.253 190.361 318.155 190.777 318.155 191.262C318.155 191.738 318.253 192.153 318.449 192.508C318.645 192.863 318.907 193.133 319.233 193.32C319.569 193.507 319.947 193.6 320.367 193.6ZM327.478 195L324.734 187.524H326.386L328.738 194.118H327.954L330.418 187.524H331.888L334.282 194.118H333.512L335.934 187.524H337.488L334.73 195H333.05L330.866 189.162H331.384L329.158 195H327.478Z" fill="white"/>
<path d="M349.277 319V309.2H353.729C354.793 309.2 355.731 309.405 356.543 309.816C357.355 310.217 357.99 310.782 358.447 311.51C358.905 312.238 359.133 313.101 359.133 314.1C359.133 315.089 358.905 315.953 358.447 316.69C357.99 317.418 357.355 317.987 356.543 318.398C355.731 318.799 354.793 319 353.729 319H349.277ZM351.545 317.138H353.617C354.271 317.138 354.835 317.017 355.311 316.774C355.797 316.522 356.17 316.167 356.431 315.71C356.702 315.253 356.837 314.716 356.837 314.1C356.837 313.475 356.702 312.938 356.431 312.49C356.17 312.033 355.797 311.683 355.311 311.44C354.835 311.188 354.271 311.062 353.617 311.062H351.545V317.138ZM360.819 319L365.187 309.2H367.427L371.809 319H369.429L365.845 310.348H366.741L363.143 319H360.819ZM363.003 316.9L363.605 315.178H368.645L369.261 316.9H363.003ZM375.763 319V311.048H372.627V309.2H381.167V311.048H378.031V319H375.763ZM382.008 319L386.376 309.2H388.616L392.998 319H390.618L387.034 310.348H387.93L384.332 319H382.008ZM384.192 316.9L384.794 315.178H389.834L390.45 316.9H384.192ZM405.133 319.168C403.743 319.168 402.655 318.781 401.871 318.006C401.087 317.231 400.695 316.125 400.695 314.688V309.2H402.963V314.604C402.963 315.537 403.155 316.209 403.537 316.62C403.92 317.031 404.457 317.236 405.147 317.236C405.838 317.236 406.375 317.031 406.757 316.62C407.14 316.209 407.331 315.537 407.331 314.604V309.2H409.571V314.688C409.571 316.125 409.179 317.231 408.395 318.006C407.611 318.781 406.524 319.168 405.133 319.168ZM416.432 319.168C415.648 319.168 414.897 319.065 414.178 318.86C413.46 318.645 412.881 318.37 412.442 318.034L413.212 316.326C413.632 316.625 414.127 316.872 414.696 317.068C415.275 317.255 415.858 317.348 416.446 317.348C416.894 317.348 417.254 317.306 417.524 317.222C417.804 317.129 418.01 317.003 418.14 316.844C418.271 316.685 418.336 316.503 418.336 316.298C418.336 316.037 418.234 315.831 418.028 315.682C417.823 315.523 417.552 315.397 417.216 315.304C416.88 315.201 416.507 315.108 416.096 315.024C415.695 314.931 415.289 314.819 414.878 314.688C414.477 314.557 414.108 314.389 413.772 314.184C413.436 313.979 413.161 313.708 412.946 313.372C412.741 313.036 412.638 312.607 412.638 312.084C412.638 311.524 412.788 311.015 413.086 310.558C413.394 310.091 413.852 309.723 414.458 309.452C415.074 309.172 415.844 309.032 416.768 309.032C417.384 309.032 417.991 309.107 418.588 309.256C419.186 309.396 419.713 309.611 420.17 309.9L419.47 311.622C419.013 311.361 418.556 311.169 418.098 311.048C417.641 310.917 417.193 310.852 416.754 310.852C416.316 310.852 415.956 310.903 415.676 311.006C415.396 311.109 415.196 311.244 415.074 311.412C414.953 311.571 414.892 311.757 414.892 311.972C414.892 312.224 414.995 312.429 415.2 312.588C415.406 312.737 415.676 312.859 416.012 312.952C416.348 313.045 416.717 313.139 417.118 313.232C417.529 313.325 417.935 313.433 418.336 313.554C418.747 313.675 419.12 313.839 419.456 314.044C419.792 314.249 420.063 314.52 420.268 314.856C420.483 315.192 420.59 315.617 420.59 316.13C420.59 316.681 420.436 317.185 420.128 317.642C419.82 318.099 419.358 318.468 418.742 318.748C418.136 319.028 417.366 319.168 416.432 319.168ZM422.252 319L426.62 309.2H428.86L433.242 319H430.862L427.278 310.348H428.174L424.576 319H422.252ZM424.436 316.9L425.038 315.178H430.078L430.694 316.9H424.436ZM440.254 319.168C439.479 319.168 438.765 319.047 438.112 318.804C437.468 318.552 436.903 318.197 436.418 317.74C435.942 317.283 435.569 316.746 435.298 316.13C435.037 315.514 434.906 314.837 434.906 314.1C434.906 313.363 435.037 312.686 435.298 312.07C435.569 311.454 435.947 310.917 436.432 310.46C436.917 310.003 437.487 309.653 438.14 309.41C438.793 309.158 439.512 309.032 440.296 309.032C441.164 309.032 441.943 309.177 442.634 309.466C443.334 309.755 443.922 310.175 444.398 310.726L442.942 312.07C442.587 311.697 442.2 311.421 441.78 311.244C441.36 311.057 440.903 310.964 440.408 310.964C439.932 310.964 439.498 311.039 439.106 311.188C438.714 311.337 438.373 311.552 438.084 311.832C437.804 312.112 437.585 312.443 437.426 312.826C437.277 313.209 437.202 313.633 437.202 314.1C437.202 314.557 437.277 314.977 437.426 315.36C437.585 315.743 437.804 316.079 438.084 316.368C438.373 316.648 438.709 316.863 439.092 317.012C439.484 317.161 439.913 317.236 440.38 317.236C440.828 317.236 441.262 317.166 441.682 317.026C442.111 316.877 442.527 316.629 442.928 316.284L444.216 317.922C443.684 318.323 443.063 318.631 442.354 318.846C441.654 319.061 440.954 319.168 440.254 319.168ZM442.144 317.628V313.946H444.216V317.922L442.144 317.628ZM449.809 313.148H454.527V314.912H449.809V313.148ZM449.977 317.18H455.311V319H447.723V309.2H455.129V311.02H449.977V317.18Z" fill="white"/>
<path d="M415.878 365.168C415.197 365.168 414.52 365.079 413.848 364.902C413.185 364.715 412.616 364.454 412.14 364.118L413.036 362.382C413.409 362.653 413.839 362.867 414.324 363.026C414.819 363.185 415.318 363.264 415.822 363.264C416.391 363.264 416.839 363.152 417.166 362.928C417.493 362.704 417.656 362.391 417.656 361.99C417.656 361.738 417.591 361.514 417.46 361.318C417.329 361.122 417.096 360.973 416.76 360.87C416.433 360.767 415.971 360.716 415.374 360.716H412.868L413.372 355.2H419.35V357.02H414.184L415.36 355.984L415.01 359.918L413.834 358.882H415.906C416.877 358.882 417.656 359.017 418.244 359.288C418.841 359.549 419.275 359.909 419.546 360.366C419.817 360.823 419.952 361.341 419.952 361.92C419.952 362.499 419.807 363.035 419.518 363.53C419.229 364.015 418.781 364.412 418.174 364.72C417.577 365.019 416.811 365.168 415.878 365.168ZM423.56 365.112C423.187 365.112 422.865 364.986 422.594 364.734C422.333 364.473 422.202 364.141 422.202 363.74C422.202 363.339 422.333 363.017 422.594 362.774C422.865 362.522 423.187 362.396 423.56 362.396C423.943 362.396 424.265 362.522 424.526 362.774C424.788 363.017 424.918 363.339 424.918 363.74C424.918 364.141 424.788 364.473 424.526 364.734C424.265 364.986 423.943 365.112 423.56 365.112ZM431.359 365.168C430.556 365.168 429.837 364.972 429.203 364.58C428.568 364.179 428.069 363.6 427.705 362.844C427.341 362.088 427.159 361.173 427.159 360.1C427.159 359.027 427.341 358.112 427.705 357.356C428.069 356.6 428.568 356.026 429.203 355.634C429.837 355.233 430.556 355.032 431.359 355.032C432.171 355.032 432.889 355.233 433.515 355.634C434.149 356.026 434.649 356.6 435.013 357.356C435.377 358.112 435.559 359.027 435.559 360.1C435.559 361.173 435.377 362.088 435.013 362.844C434.649 363.6 434.149 364.179 433.515 364.58C432.889 364.972 432.171 365.168 431.359 365.168ZM431.359 363.25C431.741 363.25 432.073 363.143 432.353 362.928C432.642 362.713 432.866 362.373 433.025 361.906C433.193 361.439 433.277 360.837 433.277 360.1C433.277 359.363 433.193 358.761 433.025 358.294C432.866 357.827 432.642 357.487 432.353 357.272C432.073 357.057 431.741 356.95 431.359 356.95C430.985 356.95 430.654 357.057 430.365 357.272C430.085 357.487 429.861 357.827 429.693 358.294C429.534 358.761 429.455 359.363 429.455 360.1C429.455 360.837 429.534 361.439 429.693 361.906C429.861 362.373 430.085 362.713 430.365 362.928C430.654 363.143 430.985 363.25 431.359 363.25ZM439.474 365L446.166 355.2H447.832L441.14 365H439.474ZM440.328 360.492C439.852 360.492 439.432 360.385 439.068 360.17C438.704 359.946 438.415 359.633 438.2 359.232C437.995 358.821 437.892 358.341 437.892 357.79C437.892 357.239 437.995 356.763 438.2 356.362C438.415 355.961 438.704 355.648 439.068 355.424C439.432 355.2 439.852 355.088 440.328 355.088C440.804 355.088 441.224 355.2 441.588 355.424C441.952 355.648 442.237 355.961 442.442 356.362C442.648 356.763 442.75 357.239 442.75 357.79C442.75 358.341 442.648 358.821 442.442 359.232C442.237 359.633 441.952 359.946 441.588 360.17C441.224 360.385 440.804 360.492 440.328 360.492ZM440.328 359.344C440.636 359.344 440.884 359.218 441.07 358.966C441.257 358.705 441.35 358.313 441.35 357.79C441.35 357.267 441.257 356.88 441.07 356.628C440.884 356.367 440.636 356.236 440.328 356.236C440.03 356.236 439.782 356.367 439.586 356.628C439.4 356.88 439.306 357.267 439.306 357.79C439.306 358.303 439.4 358.691 439.586 358.952C439.782 359.213 440.03 359.344 440.328 359.344ZM446.978 365.112C446.512 365.112 446.092 365.005 445.718 364.79C445.354 364.566 445.07 364.253 444.864 363.852C444.659 363.441 444.556 362.961 444.556 362.41C444.556 361.859 444.659 361.383 444.864 360.982C445.07 360.581 445.354 360.268 445.718 360.044C446.092 359.82 446.512 359.708 446.978 359.708C447.464 359.708 447.888 359.82 448.252 360.044C448.616 360.268 448.901 360.581 449.106 360.982C449.312 361.383 449.414 361.859 449.414 362.41C449.414 362.961 449.312 363.441 449.106 363.852C448.901 364.253 448.616 364.566 448.252 364.79C447.888 365.005 447.464 365.112 446.978 365.112ZM446.978 363.964C447.286 363.964 447.534 363.838 447.72 363.586C447.907 363.325 448 362.933 448 362.41C448 361.897 447.907 361.509 447.72 361.248C447.534 360.987 447.286 360.856 446.978 360.856C446.68 360.856 446.432 360.987 446.236 361.248C446.05 361.5 445.956 361.887 445.956 362.41C445.956 362.933 446.05 363.325 446.236 363.586C446.432 363.838 446.68 363.964 446.978 363.964Z" fill="#51FFAB"/>
<path d="M326.24 365.264C324.095 365.264 322.315 364.785 320.9 363.827C319.485 362.86 318.743 361.361 318.672 359.331H322.72C322.975 360.86 324.1 361.625 326.095 361.625C328.169 361.625 329.206 360.904 329.206 359.463C329.206 358.725 328.925 358.158 328.362 357.762C327.809 357.367 327.053 357.169 326.095 357.169H324.486V353.794H326.095C327.009 353.794 327.708 353.592 328.191 353.188C328.683 352.783 328.929 352.269 328.929 351.645C328.929 351.012 328.688 350.494 328.204 350.089C327.721 349.676 327.018 349.47 326.095 349.47C325.304 349.47 324.618 349.659 324.038 350.037C323.467 350.415 323.12 350.99 322.997 351.764H318.949C319.151 349.839 319.898 348.371 321.19 347.36C322.482 346.341 324.166 345.831 326.24 345.831C328.235 345.831 329.856 346.319 331.104 347.294C332.361 348.261 332.99 349.575 332.99 351.236C332.99 353.267 331.997 354.66 330.01 355.416C331.003 355.776 331.79 356.334 332.37 357.09C332.959 357.846 333.253 358.773 333.253 359.872C333.253 361.585 332.607 362.913 331.315 363.853C330.023 364.793 328.332 365.264 326.24 365.264ZM338.988 364.512C338.575 364.925 338.061 365.132 337.446 365.132C336.839 365.132 336.33 364.925 335.917 364.512C335.503 364.099 335.297 363.589 335.297 362.983C335.297 362.368 335.503 361.854 335.917 361.44C336.33 361.027 336.839 360.821 337.446 360.821C338.061 360.821 338.575 361.027 338.988 361.44C339.401 361.854 339.608 362.368 339.608 362.983C339.608 363.589 339.401 364.099 338.988 364.512ZM348.81 365.264C346.92 365.264 345.321 364.754 344.011 363.734C342.71 362.706 341.924 361.238 341.651 359.331H345.699C345.839 360.017 346.169 360.57 346.688 360.992C347.215 361.414 347.874 361.625 348.665 361.625C349.729 361.625 350.533 361.353 351.078 360.808C351.631 360.254 351.908 359.489 351.908 358.514C351.908 357.652 351.623 356.923 351.051 356.325C350.489 355.719 349.693 355.416 348.665 355.416C347.443 355.416 346.499 355.912 345.831 356.905H341.915L342.996 346.095H354.875V349.615H346.371L345.976 353.122H346.107C346.986 352.489 348.155 352.172 349.614 352.172C351.469 352.172 352.989 352.774 354.176 353.979C355.362 355.174 355.956 356.734 355.956 358.659C355.956 360.566 355.332 362.144 354.083 363.392C352.835 364.64 351.078 365.264 348.81 365.264ZM373.134 365.264C370.4 365.264 368.229 364.411 366.621 362.706C365.021 360.992 364.222 358.606 364.222 355.547C364.222 352.489 365.021 350.107 366.621 348.402C368.221 346.688 370.392 345.831 373.134 345.831C375.401 345.831 377.212 346.385 378.565 347.492C379.928 348.6 380.859 350.116 381.36 352.041H377.181C376.408 350.327 375.059 349.47 373.134 349.47C371.657 349.47 370.475 349.993 369.587 351.039C368.708 352.084 368.269 353.587 368.269 355.547C368.269 357.507 368.708 359.01 369.587 360.056C370.475 361.102 371.657 361.625 373.134 361.625C375.472 361.625 376.909 360.456 377.445 358.118H372.725V354.875H381.637V356.365C381.637 359.098 380.886 361.265 379.383 362.864C377.88 364.464 375.797 365.264 373.134 365.264ZM388.651 361.493H393.239C393.977 361.493 394.544 361.304 394.939 360.926C395.335 360.548 395.533 360.017 395.533 359.331C395.533 358.646 395.335 358.114 394.939 357.736C394.544 357.358 393.977 357.169 393.239 357.169H388.651V361.493ZM384.59 365V346.095H393.502C395.375 346.095 396.812 346.565 397.813 347.505C398.815 348.437 399.316 349.725 399.316 351.368C399.316 352.265 399.083 353.073 398.618 353.794C398.161 354.515 397.581 355.055 396.877 355.416C397.668 355.776 398.314 356.33 398.815 357.077C399.325 357.824 399.58 358.711 399.58 359.74C399.58 361.375 399.079 362.662 398.077 363.603C397.084 364.534 395.651 365 393.779 365H384.59ZM388.651 353.926H392.962C393.7 353.926 394.267 353.737 394.663 353.359C395.058 352.981 395.256 352.454 395.256 351.777C395.256 351.091 395.058 350.56 394.663 350.182C394.267 349.804 393.7 349.615 392.962 349.615H388.651V353.926Z" fill="white"/>
<path opacity="0.5" d="M327.184 526V516.9L327.982 517.726H325.112V516.2H329.004V526H327.184Z" fill="white"/>
<path opacity="0.5" d="M364.49 526V524.782L368.382 521.086C368.709 520.778 368.951 520.507 369.11 520.274C369.269 520.041 369.371 519.826 369.418 519.63C369.474 519.425 369.502 519.233 369.502 519.056C369.502 518.608 369.348 518.263 369.04 518.02C368.732 517.768 368.279 517.642 367.682 517.642C367.206 517.642 366.772 517.726 366.38 517.894C365.997 518.062 365.666 518.319 365.386 518.664L364.112 517.684C364.495 517.171 365.008 516.774 365.652 516.494C366.305 516.205 367.033 516.06 367.836 516.06C368.545 516.06 369.161 516.177 369.684 516.41C370.216 516.634 370.622 516.956 370.902 517.376C371.191 517.796 371.336 518.295 371.336 518.874C371.336 519.191 371.294 519.509 371.21 519.826C371.126 520.134 370.967 520.461 370.734 520.806C370.501 521.151 370.16 521.539 369.712 521.968L366.366 525.146L365.988 524.46H371.714V526H364.49Z" fill="white"/>
<path opacity="0.5" d="M415.696 526.14C415.005 526.14 414.329 526.042 413.666 525.846C413.013 525.641 412.462 525.361 412.014 525.006L412.798 523.592C413.153 523.881 413.582 524.115 414.086 524.292C414.59 524.469 415.117 524.558 415.668 524.558C416.321 524.558 416.83 524.427 417.194 524.166C417.558 523.895 417.74 523.531 417.74 523.074C417.74 522.626 417.572 522.271 417.236 522.01C416.9 521.749 416.359 521.618 415.612 521.618H414.716V520.372L417.516 517.04L417.754 517.726H412.49V516.2H419.168V517.418L416.368 520.75L415.416 520.19H415.962C417.166 520.19 418.067 520.461 418.664 521.002C419.271 521.534 419.574 522.22 419.574 523.06C419.574 523.611 419.434 524.119 419.154 524.586C418.874 525.053 418.445 525.431 417.866 525.72C417.297 526 416.573 526.14 415.696 526.14Z" fill="white"/>
<path opacity="0.5" d="M460.476 523.774V522.514L465.306 516.2H467.252L462.492 522.514L461.582 522.234H469.352V523.774H460.476ZM465.852 526V523.774L465.908 522.234V520.26H467.616V526H465.852Z" fill="white"/>
<path opacity="0.5" d="M507.864 526.14C507.173 526.14 506.497 526.042 505.834 525.846C505.181 525.641 504.63 525.361 504.182 525.006L504.952 523.592C505.307 523.881 505.736 524.115 506.24 524.292C506.753 524.469 507.285 524.558 507.836 524.558C508.48 524.558 508.984 524.423 509.348 524.152C509.721 523.881 509.908 523.517 509.908 523.06C509.908 522.752 509.829 522.481 509.67 522.248C509.521 522.015 509.25 521.837 508.858 521.716C508.475 521.595 507.948 521.534 507.276 521.534H504.91L505.414 516.2H511.168V517.726H506.086L507.038 516.858L506.66 520.848L505.708 519.994H507.682C508.653 519.994 509.432 520.125 510.02 520.386C510.617 520.638 511.051 520.993 511.322 521.45C511.602 521.898 511.742 522.411 511.742 522.99C511.742 523.559 511.602 524.082 511.322 524.558C511.042 525.034 510.613 525.417 510.034 525.706C509.465 525.995 508.741 526.14 507.864 526.14Z" fill="white"/>
<path opacity="0.5" d="M556.858 526.14C555.971 526.14 555.211 525.953 554.576 525.58C553.941 525.197 553.456 524.647 553.12 523.928C552.784 523.209 552.616 522.323 552.616 521.268C552.616 520.148 552.817 519.201 553.218 518.426C553.629 517.651 554.193 517.063 554.912 516.662C555.64 516.261 556.475 516.06 557.418 516.06C557.913 516.06 558.384 516.111 558.832 516.214C559.289 516.317 559.677 516.475 559.994 516.69L559.322 518.062C559.051 517.885 558.757 517.763 558.44 517.698C558.132 517.623 557.805 517.586 557.46 517.586C556.536 517.586 555.803 517.871 555.262 518.44C554.721 519.009 554.45 519.849 554.45 520.96C554.45 521.137 554.455 521.347 554.464 521.59C554.473 521.823 554.506 522.061 554.562 522.304L554.002 521.688C554.17 521.305 554.399 520.988 554.688 520.736C554.987 520.475 555.337 520.279 555.738 520.148C556.149 520.017 556.592 519.952 557.068 519.952C557.712 519.952 558.286 520.078 558.79 520.33C559.294 520.573 559.695 520.923 559.994 521.38C560.293 521.828 560.442 522.355 560.442 522.962C560.442 523.606 560.283 524.166 559.966 524.642C559.649 525.118 559.219 525.487 558.678 525.748C558.137 526.009 557.53 526.14 556.858 526.14ZM556.76 524.712C557.133 524.712 557.465 524.647 557.754 524.516C558.043 524.376 558.267 524.18 558.426 523.928C558.594 523.676 558.678 523.382 558.678 523.046C558.678 522.533 558.501 522.127 558.146 521.828C557.791 521.529 557.315 521.38 556.718 521.38C556.326 521.38 555.981 521.455 555.682 521.604C555.393 521.744 555.159 521.94 554.982 522.192C554.814 522.444 554.73 522.733 554.73 523.06C554.73 523.359 554.809 523.634 554.968 523.886C555.127 524.138 555.355 524.339 555.654 524.488C555.962 524.637 556.331 524.712 556.76 524.712Z" fill="white"/>
<path opacity="0.5" d="M602.254 526L606.3 516.928L606.776 517.74H601.218L602.086 516.858V519.406H600.392V516.2H608.008V517.418L604.2 526H602.254Z" fill="white"/>
<path d="M329.407 313.469H335.521C335.723 313.469 335.917 313.389 336.059 313.246C336.202 313.104 336.282 312.91 336.282 312.708C336.282 310.885 335.558 309.136 334.269 307.847C332.979 306.558 331.231 305.833 329.407 305.833C329.206 305.833 329.012 305.913 328.869 306.056C328.727 306.199 328.646 306.392 328.646 306.594V312.708C328.646 312.91 328.727 313.104 328.869 313.246C329.012 313.389 329.206 313.469 329.407 313.469Z" fill="#4FDCC7"/>
<path d="M335.439 315H327.968C327.858 315 327.75 314.978 327.649 314.937C327.547 314.895 327.456 314.833 327.378 314.756C327.301 314.678 327.239 314.586 327.197 314.485C327.155 314.384 327.134 314.275 327.134 314.166V306.677C327.134 306.558 327.11 306.44 327.062 306.331C327.014 306.223 326.944 306.125 326.855 306.045C326.767 305.966 326.663 305.906 326.55 305.869C326.437 305.833 326.317 305.82 326.199 305.833C324.478 306.016 322.844 306.682 321.486 307.755C320.128 308.827 319.101 310.262 318.524 311.894C317.947 313.525 317.844 315.287 318.227 316.974C318.609 318.662 319.461 320.207 320.685 321.431C321.908 322.654 323.454 323.507 325.141 323.889C326.829 324.271 328.59 324.168 330.222 323.591C331.853 323.015 333.288 321.988 334.361 320.63C335.433 319.271 336.099 317.638 336.282 315.917C336.292 315.8 336.278 315.682 336.24 315.571C336.202 315.46 336.142 315.359 336.063 315.272C335.983 315.186 335.887 315.117 335.779 315.07C335.672 315.024 335.556 315 335.439 315Z" fill="#4FDCC7"/>
<path d="M325 439.654L367.65 407.746L397.755 397.775H429.366L458.97 404.256L487.069 400.767L518.178 382.818L545.273 350.911L569.859 333.96L610 320V325.484V493H325V439.654Z" fill="url(#paint10_linear_962_711)"/>
<path d="M326 441.5L352.757 419.13C374.328 401.095 403.098 394.201 430.5 400.5V400.5L443.495 402.602C477.125 408.042 510.9 393.749 530.408 365.821V365.821C540.569 351.275 554.857 340.109 571.428 333.766L610 319" stroke="#50EED7" stroke-width="4"/>
<rect opacity="0.3" width="301" height="12" rx="6" transform="matrix(-1 0 0 1 412 72)" fill="#50EED7"/>
<rect x="110" y="71.7349" width="49" height="12" rx="6" fill="#50EED7"/>
<rect x="257" y="65" width="8" height="24" rx="4" fill="#50EED7"/>
<g filter="url(#filter3_d_962_711)">
<circle cx="155.5" cy="77.5" r="7.5" fill="white"/>
<circle cx="155.5" cy="77.5" r="6.5" stroke="#50EED7" stroke-opacity="0.2" stroke-width="2"/>
</g>
<mask id="mask0_962_711" style="mask-type:alpha" maskUnits="userSpaceOnUse" x="111" y="22" width="22" height="22">
<rect x="111" y="22" width="22" height="22" fill="#D9D9D9"/>
</mask>
<g mask="url(#mask0_962_711)">
<path d="M114.667 37.5834V39.4167H129.334V37.5834H114.667ZM114.667 27.5H116.684C116.608 27.3625 116.558 27.2174 116.535 27.0646C116.512 26.9118 116.501 26.7514 116.501 26.5834C116.501 25.8195 116.768 25.1702 117.303 24.6355C117.837 24.1007 118.487 23.8334 119.251 23.8334C119.709 23.8334 120.133 23.9518 120.523 24.1886C120.912 24.4254 121.252 24.7195 121.542 25.0709L122.001 25.6667L122.459 25.0709C122.734 24.7042 123.07 24.4063 123.467 24.1771C123.865 23.948 124.292 23.8334 124.751 23.8334C125.515 23.8334 126.164 24.1007 126.699 24.6355C127.233 25.1702 127.501 25.8195 127.501 26.5834C127.501 26.7514 127.489 26.9118 127.466 27.0646C127.443 27.2174 127.394 27.3625 127.317 27.5H129.334C129.838 27.5 130.27 27.6796 130.629 28.0386C130.988 28.3976 131.167 28.8292 131.167 29.3334V39.4167C131.167 39.9209 130.988 40.3525 130.629 40.7115C130.27 41.0705 129.838 41.25 129.334 41.25H114.667C114.163 41.25 113.732 41.0705 113.373 40.7115C113.013 40.3525 112.834 39.9209 112.834 39.4167V29.3334C112.834 28.8292 113.013 28.3976 113.373 28.0386C113.732 27.6796 114.163 27.5 114.667 27.5ZM114.667 34.8334H129.334V29.3334H124.659L126.584 31.9459L125.117 33L122.001 28.7834L118.884 33L117.417 31.9459L119.296 29.3334H114.667V34.8334ZM119.251 27.5C119.51 27.5 119.728 27.4122 119.904 27.2365C120.079 27.0608 120.167 26.8431 120.167 26.5834C120.167 26.3237 120.079 26.1059 119.904 25.9302C119.728 25.7546 119.51 25.6667 119.251 25.6667C118.991 25.6667 118.773 25.7546 118.598 25.9302C118.422 26.1059 118.334 26.3237 118.334 26.5834C118.334 26.8431 118.422 27.0608 118.598 27.2365C118.773 27.4122 118.991 27.5 119.251 27.5ZM124.751 27.5C125.01 27.5 125.228 27.4122 125.404 27.2365C125.579 27.0608 125.667 26.8431 125.667 26.5834C125.667 26.3237 125.579 26.1059 125.404 25.9302C125.228 25.7546 125.01 25.6667 124.751 25.6667C124.491 25.6667 124.273 25.7546 124.098 25.9302C123.922 26.1059 123.834 26.3237 123.834 26.5834C123.834 26.8431 123.922 27.0608 124.098 27.2365C124.273 27.4122 124.491 27.5 124.751 27.5Z" fill="#50EED7"/>
</g>
<path d="M140.996 37V28.6H144.632C145.384 28.6 146.032 28.724 146.576 28.972C147.12 29.212 147.54 29.56 147.836 30.016C148.132 30.472 148.28 31.016 148.28 31.648C148.28 32.272 148.132 32.812 147.836 33.268C147.54 33.716 147.12 34.06 146.576 34.3C146.032 34.54 145.384 34.66 144.632 34.66H142.076L142.94 33.808V37H140.996ZM146.336 37L144.236 33.952H146.312L148.436 37H146.336ZM142.94 34.024L142.076 33.112H144.524C145.124 33.112 145.572 32.984 145.868 32.728C146.164 32.464 146.312 32.104 146.312 31.648C146.312 31.184 146.164 30.824 145.868 30.568C145.572 30.312 145.124 30.184 144.524 30.184H142.076L142.94 29.26V34.024ZM152.808 31.984H156.852V33.496H152.808V31.984ZM152.952 35.44H157.524V37H151.02V28.6H157.368V30.16H152.952V35.44ZM162.17 37L159.422 28.6H161.438L163.826 36.04H162.818L165.314 28.6H167.114L169.514 36.04H168.542L170.99 28.6H172.85L170.102 37H168.014L165.89 30.472H166.442L164.258 37H162.17ZM173.75 37L177.494 28.6H179.414L183.17 37H181.13L178.058 29.584H178.826L175.742 37H173.75ZM175.622 35.2L176.138 33.724H180.458L180.986 35.2H175.622ZM185.241 37V28.6H188.877C189.629 28.6 190.277 28.724 190.821 28.972C191.365 29.212 191.785 29.56 192.081 30.016C192.377 30.472 192.525 31.016 192.525 31.648C192.525 32.272 192.377 32.812 192.081 33.268C191.785 33.716 191.365 34.06 190.821 34.3C190.277 34.54 189.629 34.66 188.877 34.66H186.321L187.185 33.808V37H185.241ZM190.581 37L188.481 33.952H190.557L192.681 37H190.581ZM187.185 34.024L186.321 33.112H188.769C189.369 33.112 189.817 32.984 190.113 32.728C190.409 32.464 190.557 32.104 190.557 31.648C190.557 31.184 190.409 30.824 190.113 30.568C189.817 30.312 189.369 30.184 188.769 30.184H186.321L187.185 29.26V34.024ZM195.266 37V28.6H199.082C199.994 28.6 200.798 28.776 201.494 29.128C202.19 29.472 202.734 29.956 203.126 30.58C203.518 31.204 203.714 31.944 203.714 32.8C203.714 33.648 203.518 34.388 203.126 35.02C202.734 35.644 202.19 36.132 201.494 36.484C200.798 36.828 199.994 37 199.082 37H195.266ZM197.21 35.404H198.986C199.546 35.404 200.03 35.3 200.438 35.092C200.854 34.876 201.174 34.572 201.398 34.18C201.63 33.788 201.746 33.328 201.746 32.8C201.746 32.264 201.63 31.804 201.398 31.42C201.174 31.028 200.854 30.728 200.438 30.52C200.03 30.304 199.546 30.196 198.986 30.196H197.21V35.404ZM209.14 37.144C208.468 37.144 207.824 37.056 207.208 36.88C206.592 36.696 206.096 36.46 205.72 36.172L206.38 34.708C206.74 34.964 207.164 35.176 207.652 35.344C208.148 35.504 208.648 35.584 209.152 35.584C209.536 35.584 209.844 35.548 210.076 35.476C210.316 35.396 210.492 35.288 210.604 35.152C210.716 35.016 210.772 34.86 210.772 34.684C210.772 34.46 210.684 34.284 210.508 34.156C210.332 34.02 210.1 33.912 209.812 33.832C209.524 33.744 209.204 33.664 208.852 33.592C208.508 33.512 208.16 33.416 207.808 33.304C207.464 33.192 207.148 33.048 206.86 32.872C206.572 32.696 206.336 32.464 206.152 32.176C205.976 31.888 205.888 31.52 205.888 31.072C205.888 30.592 206.016 30.156 206.272 29.764C206.536 29.364 206.928 29.048 207.448 28.816C207.976 28.576 208.636 28.456 209.428 28.456C209.956 28.456 210.476 28.52 210.988 28.648C211.5 28.768 211.952 28.952 212.344 29.2L211.744 30.676C211.352 30.452 210.96 30.288 210.568 30.184C210.176 30.072 209.792 30.016 209.416 30.016C209.04 30.016 208.732 30.06 208.492 30.148C208.252 30.236 208.08 30.352 207.976 30.496C207.872 30.632 207.82 30.792 207.82 30.976C207.82 31.192 207.908 31.368 208.084 31.504C208.26 31.632 208.492 31.736 208.78 31.816C209.068 31.896 209.384 31.976 209.728 32.056C210.08 32.136 210.428 32.228 210.772 32.332C211.124 32.436 211.444 32.576 211.732 32.752C212.02 32.928 212.252 33.16 212.428 33.448C212.612 33.736 212.704 34.1 212.704 34.54C212.704 35.012 212.572 35.444 212.308 35.836C212.044 36.228 211.648 36.544 211.12 36.784C210.6 37.024 209.94 37.144 209.14 37.144Z" fill="white"/>
<path d="M248.324 113.144C247.74 113.144 247.16 113.068 246.584 112.916C246.016 112.756 245.528 112.532 245.12 112.244L245.888 110.756C246.208 110.988 246.576 111.172 246.992 111.308C247.416 111.444 247.844 111.512 248.276 111.512C248.764 111.512 249.148 111.416 249.428 111.224C249.708 111.032 249.848 110.764 249.848 110.42C249.848 110.204 249.792 110.012 249.68 109.844C249.568 109.676 249.368 109.548 249.08 109.46C248.8 109.372 248.404 109.328 247.892 109.328H245.744L246.176 104.6H251.3V106.16H246.872L247.88 105.272L247.58 108.644L246.572 107.756H248.348C249.18 107.756 249.848 107.872 250.352 108.104C250.864 108.328 251.236 108.636 251.468 109.028C251.7 109.42 251.816 109.864 251.816 110.36C251.816 110.856 251.692 111.316 251.444 111.74C251.196 112.156 250.812 112.496 250.292 112.76C249.78 113.016 249.124 113.144 248.324 113.144ZM262.987 113.144C262.323 113.144 261.711 113.04 261.151 112.832C260.599 112.616 260.115 112.312 259.699 111.92C259.291 111.528 258.971 111.068 258.739 110.54C258.515 110.012 258.403 109.432 258.403 108.8C258.403 108.168 258.515 107.588 258.739 107.06C258.971 106.532 259.295 106.072 259.711 105.68C260.127 105.288 260.615 104.988 261.175 104.78C261.735 104.564 262.351 104.456 263.023 104.456C263.767 104.456 264.435 104.58 265.027 104.828C265.627 105.076 266.131 105.436 266.539 105.908L265.291 107.06C264.987 106.74 264.655 106.504 264.295 106.352C263.935 106.192 263.543 106.112 263.119 106.112C262.711 106.112 262.339 106.176 262.003 106.304C261.667 106.432 261.375 106.616 261.127 106.856C260.887 107.096 260.699 107.38 260.563 107.708C260.435 108.036 260.371 108.4 260.371 108.8C260.371 109.192 260.435 109.552 260.563 109.88C260.699 110.208 260.887 110.496 261.127 110.744C261.375 110.984 261.663 111.168 261.991 111.296C262.327 111.424 262.695 111.488 263.095 111.488C263.479 111.488 263.851 111.428 264.211 111.308C264.579 111.18 264.935 110.968 265.279 110.672L266.383 112.076C265.927 112.42 265.395 112.684 264.787 112.868C264.187 113.052 263.587 113.144 262.987 113.144ZM264.607 111.824V108.668H266.383V112.076L264.607 111.824ZM269.389 113V104.6H273.493C274.549 104.6 275.341 104.8 275.869 105.2C276.405 105.6 276.673 106.128 276.673 106.784C276.673 107.224 276.565 107.608 276.349 107.936C276.133 108.256 275.837 108.504 275.461 108.68C275.085 108.856 274.653 108.944 274.165 108.944L274.393 108.452C274.921 108.452 275.389 108.54 275.797 108.716C276.205 108.884 276.521 109.136 276.745 109.472C276.977 109.808 277.093 110.22 277.093 110.708C277.093 111.428 276.809 111.992 276.241 112.4C275.673 112.8 274.837 113 273.733 113H269.389ZM271.321 111.536H273.589C274.093 111.536 274.473 111.456 274.729 111.296C274.993 111.128 275.125 110.864 275.125 110.504C275.125 110.152 274.993 109.892 274.729 109.724C274.473 109.548 274.093 109.46 273.589 109.46H271.177V108.044H273.253C273.725 108.044 274.085 107.964 274.333 107.804C274.589 107.636 274.717 107.384 274.717 107.048C274.717 106.72 274.589 106.476 274.333 106.316C274.085 106.148 273.725 106.064 273.253 106.064H271.321V111.536Z" fill="white"/>
<mask id="mask1_962_711" style="mask-type:alpha" maskUnits="userSpaceOnUse" x="250" y="121" width="22" height="22">
<rect x="250" y="121" width="22" height="22" fill="#D9D9D9"/>
</mask>
<g mask="url(#mask1_962_711)">
<path d="M253.667 136.583V138.417H268.334V136.583H253.667ZM253.667 126.5H255.684C255.608 126.362 255.558 126.217 255.535 126.065C255.512 125.912 255.501 125.751 255.501 125.583C255.501 124.819 255.768 124.17 256.303 123.635C256.837 123.101 257.487 122.833 258.251 122.833C258.709 122.833 259.133 122.952 259.523 123.188C259.912 123.425 260.252 123.719 260.542 124.071L261.001 124.667L261.459 124.071C261.734 123.704 262.07 123.406 262.467 123.177C262.865 122.948 263.292 122.833 263.751 122.833C264.515 122.833 265.164 123.101 265.699 123.635C266.233 124.17 266.501 124.819 266.501 125.583C266.501 125.751 266.489 125.912 266.466 126.065C266.443 126.217 266.394 126.362 266.317 126.5H268.334C268.838 126.5 269.27 126.679 269.629 127.038C269.988 127.397 270.167 127.829 270.167 128.333V138.417C270.167 138.921 269.988 139.352 269.629 139.711C269.27 140.07 268.838 140.25 268.334 140.25H253.667C253.163 140.25 252.732 140.07 252.373 139.711C252.013 139.352 251.834 138.921 251.834 138.417V128.333C251.834 127.829 252.013 127.397 252.373 127.038C252.732 126.679 253.163 126.5 253.667 126.5ZM253.667 133.833H268.334V128.333H263.659L265.584 130.946L264.117 132L261.001 127.783L257.884 132L256.417 130.946L258.296 128.333H253.667V133.833ZM258.251 126.5C258.51 126.5 258.728 126.412 258.904 126.236C259.079 126.061 259.167 125.843 259.167 125.583C259.167 125.324 259.079 125.106 258.904 124.93C258.728 124.754 258.51 124.667 258.251 124.667C257.991 124.667 257.773 124.754 257.598 124.93C257.422 125.106 257.334 125.324 257.334 125.583C257.334 125.843 257.422 126.061 257.598 126.236C257.773 126.412 257.991 126.5 258.251 126.5ZM263.751 126.5C264.01 126.5 264.228 126.412 264.404 126.236C264.579 126.061 264.667 125.843 264.667 125.583C264.667 125.324 264.579 125.106 264.404 124.93C264.228 124.754 264.01 124.667 263.751 124.667C263.491 124.667 263.273 124.754 263.098 124.93C262.922 125.106 262.834 125.324 262.834 125.583C262.834 125.843 262.922 126.061 263.098 126.236C263.273 126.412 263.491 126.5 263.751 126.5Z" fill="white"/>
</g>
<path d="M121.66 103.12C121.173 103.12 120.69 103.057 120.21 102.93C119.73 102.797 119.323 102.61 118.99 102.37L119.62 101.13C119.887 101.323 120.197 101.477 120.55 101.59C120.903 101.703 121.26 101.76 121.62 101.76C122.027 101.76 122.347 101.68 122.58 101.52C122.813 101.36 122.93 101.14 122.93 100.86C122.93 100.593 122.827 100.383 122.62 100.23C122.413 100.077 122.08 100 121.62 100H120.88V98.93L122.83 96.72L123.01 97.3H119.34V96H124.24V97.05L122.3 99.26L121.48 98.79H121.95C122.81 98.79 123.46 98.9833 123.9 99.37C124.34 99.7567 124.56 100.253 124.56 100.86C124.56 101.253 124.457 101.623 124.25 101.97C124.043 102.31 123.727 102.587 123.3 102.8C122.873 103.013 122.327 103.12 121.66 103.12ZM133.96 103.12C133.407 103.12 132.897 103.033 132.43 102.86C131.97 102.68 131.567 102.427 131.22 102.1C130.88 101.773 130.613 101.39 130.42 100.95C130.233 100.51 130.14 100.027 130.14 99.5C130.14 98.9733 130.233 98.49 130.42 98.05C130.613 97.61 130.883 97.2267 131.23 96.9C131.577 96.5733 131.983 96.3233 132.45 96.15C132.917 95.97 133.43 95.88 133.99 95.88C134.61 95.88 135.167 95.9833 135.66 96.19C136.16 96.3967 136.58 96.6967 136.92 97.09L135.88 98.05C135.627 97.7833 135.35 97.5867 135.05 97.46C134.75 97.3267 134.423 97.26 134.07 97.26C133.73 97.26 133.42 97.3133 133.14 97.42C132.86 97.5267 132.617 97.68 132.41 97.88C132.21 98.08 132.053 98.3167 131.94 98.59C131.833 98.8633 131.78 99.1667 131.78 99.5C131.78 99.8267 131.833 100.127 131.94 100.4C132.053 100.673 132.21 100.913 132.41 101.12C132.617 101.32 132.857 101.473 133.13 101.58C133.41 101.687 133.717 101.74 134.05 101.74C134.37 101.74 134.68 101.69 134.98 101.59C135.287 101.483 135.583 101.307 135.87 101.06L136.79 102.23C136.41 102.517 135.967 102.737 135.46 102.89C134.96 103.043 134.46 103.12 133.96 103.12ZM135.31 102.02V99.39H136.79V102.23L135.31 102.02ZM139.295 103V96H142.715C143.595 96 144.255 96.1667 144.695 96.5C145.142 96.8333 145.365 97.2733 145.365 97.82C145.365 98.1867 145.275 98.5067 145.095 98.78C144.915 99.0467 144.668 99.2533 144.355 99.4C144.042 99.5467 143.682 99.62 143.275 99.62L143.465 99.21C143.905 99.21 144.295 99.2833 144.635 99.43C144.975 99.57 145.238 99.78 145.425 100.06C145.618 100.34 145.715 100.683 145.715 101.09C145.715 101.69 145.478 102.16 145.005 102.5C144.532 102.833 143.835 103 142.915 103H139.295ZM140.905 101.78H142.795C143.215 101.78 143.532 101.713 143.745 101.58C143.965 101.44 144.075 101.22 144.075 100.92C144.075 100.627 143.965 100.41 143.745 100.27C143.532 100.123 143.215 100.05 142.795 100.05H140.785V98.87H142.515C142.908 98.87 143.208 98.8033 143.415 98.67C143.628 98.53 143.735 98.32 143.735 98.04C143.735 97.7667 143.628 97.5633 143.415 97.43C143.208 97.29 142.908 97.22 142.515 97.22H140.905V101.78ZM153.223 103V97.32H150.983V96H157.083V97.32H154.843V103H153.223ZM162.257 103.12C161.704 103.12 161.191 103.03 160.717 102.85C160.251 102.67 159.844 102.417 159.497 102.09C159.157 101.763 158.891 101.38 158.697 100.94C158.511 100.5 158.417 100.02 158.417 99.5C158.417 98.98 158.511 98.5 158.697 98.06C158.891 97.62 159.161 97.2367 159.507 96.91C159.854 96.5833 160.261 96.33 160.727 96.15C161.194 95.97 161.701 95.88 162.247 95.88C162.801 95.88 163.307 95.97 163.767 96.15C164.234 96.33 164.637 96.5833 164.977 96.91C165.324 97.2367 165.594 97.62 165.787 98.06C165.981 98.4933 166.077 98.9733 166.077 99.5C166.077 100.02 165.981 100.503 165.787 100.95C165.594 101.39 165.324 101.773 164.977 102.1C164.637 102.42 164.234 102.67 163.767 102.85C163.307 103.03 162.804 103.12 162.257 103.12ZM162.247 101.74C162.561 101.74 162.847 101.687 163.107 101.58C163.374 101.473 163.607 101.32 163.807 101.12C164.007 100.92 164.161 100.683 164.267 100.41C164.381 100.137 164.437 99.8333 164.437 99.5C164.437 99.1667 164.381 98.8633 164.267 98.59C164.161 98.3167 164.007 98.08 163.807 97.88C163.614 97.68 163.384 97.5267 163.117 97.42C162.851 97.3133 162.561 97.26 162.247 97.26C161.934 97.26 161.644 97.3133 161.377 97.42C161.117 97.5267 160.887 97.68 160.687 97.88C160.487 98.08 160.331 98.3167 160.217 98.59C160.111 98.8633 160.057 99.1667 160.057 99.5C160.057 99.8267 160.111 100.13 160.217 100.41C160.331 100.683 160.484 100.92 160.677 101.12C160.877 101.32 161.111 101.473 161.377 101.58C161.644 101.687 161.934 101.74 162.247 101.74ZM175.507 103.12C174.954 103.12 174.444 103.033 173.977 102.86C173.517 102.68 173.114 102.427 172.767 102.1C172.427 101.773 172.16 101.39 171.967 100.95C171.78 100.51 171.687 100.027 171.687 99.5C171.687 98.9733 171.78 98.49 171.967 98.05C172.16 97.61 172.43 97.2267 172.777 96.9C173.124 96.5733 173.53 96.3233 173.997 96.15C174.464 95.97 174.977 95.88 175.537 95.88C176.157 95.88 176.714 95.9833 177.207 96.19C177.707 96.3967 178.127 96.6967 178.467 97.09L177.427 98.05C177.174 97.7833 176.897 97.5867 176.597 97.46C176.297 97.3267 175.97 97.26 175.617 97.26C175.277 97.26 174.967 97.3133 174.687 97.42C174.407 97.5267 174.164 97.68 173.957 97.88C173.757 98.08 173.6 98.3167 173.487 98.59C173.38 98.8633 173.327 99.1667 173.327 99.5C173.327 99.8267 173.38 100.127 173.487 100.4C173.6 100.673 173.757 100.913 173.957 101.12C174.164 101.32 174.404 101.473 174.677 101.58C174.957 101.687 175.264 101.74 175.597 101.74C175.917 101.74 176.227 101.69 176.527 101.59C176.834 101.483 177.13 101.307 177.417 101.06L178.337 102.23C177.957 102.517 177.514 102.737 177.007 102.89C176.507 103.043 176.007 103.12 175.507 103.12ZM176.857 102.02V99.39H178.337V102.23L176.857 102.02ZM184.242 103.12C183.688 103.12 183.175 103.03 182.702 102.85C182.235 102.67 181.828 102.417 181.482 102.09C181.142 101.763 180.875 101.38 180.682 100.94C180.495 100.5 180.402 100.02 180.402 99.5C180.402 98.98 180.495 98.5 180.682 98.06C180.875 97.62 181.145 97.2367 181.492 96.91C181.838 96.5833 182.245 96.33 182.712 96.15C183.178 95.97 183.685 95.88 184.232 95.88C184.785 95.88 185.292 95.97 185.752 96.15C186.218 96.33 186.622 96.5833 186.962 96.91C187.308 97.2367 187.578 97.62 187.772 98.06C187.965 98.4933 188.062 98.9733 188.062 99.5C188.062 100.02 187.965 100.503 187.772 100.95C187.578 101.39 187.308 101.773 186.962 102.1C186.622 102.42 186.218 102.67 185.752 102.85C185.292 103.03 184.788 103.12 184.242 103.12ZM184.232 101.74C184.545 101.74 184.832 101.687 185.092 101.58C185.358 101.473 185.592 101.32 185.792 101.12C185.992 100.92 186.145 100.683 186.252 100.41C186.365 100.137 186.422 99.8333 186.422 99.5C186.422 99.1667 186.365 98.8633 186.252 98.59C186.145 98.3167 185.992 98.08 185.792 97.88C185.598 97.68 185.368 97.5267 185.102 97.42C184.835 97.3133 184.545 97.26 184.232 97.26C183.918 97.26 183.628 97.3133 183.362 97.42C183.102 97.5267 182.872 97.68 182.672 97.88C182.472 98.08 182.315 98.3167 182.202 98.59C182.095 98.8633 182.042 99.1667 182.042 99.5C182.042 99.8267 182.095 100.13 182.202 100.41C182.315 100.683 182.468 100.92 182.662 101.12C182.862 101.32 183.095 101.473 183.362 101.58C183.628 101.687 183.918 101.74 184.232 101.74ZM190.279 100.57L189.969 96H191.829L191.519 100.57H190.279ZM190.899 103.08C190.619 103.08 190.389 102.99 190.209 102.81C190.029 102.63 189.939 102.417 189.939 102.17C189.939 101.917 190.029 101.707 190.209 101.54C190.389 101.367 190.619 101.28 190.899 101.28C191.186 101.28 191.416 101.367 191.589 101.54C191.769 101.707 191.859 101.917 191.859 102.17C191.859 102.417 191.769 102.63 191.589 102.81C191.416 102.99 191.186 103.08 190.899 103.08Z" fill="white"/>
<rect x="313" y="25" width="90" height="23" rx="6" fill="white"/>
<path d="M334.913 40V32.3H338.246C338.935 32.3 339.529 32.4137 340.028 32.641C340.527 32.861 340.912 33.18 341.183 33.598C341.454 34.016 341.59 34.5147 341.59 35.094C341.59 35.666 341.454 36.161 341.183 36.579C340.912 36.9897 340.527 37.305 340.028 37.525C339.529 37.745 338.935 37.855 338.246 37.855H335.903L336.695 37.074V40H334.913ZM339.808 40L337.883 37.206H339.786L341.733 40H339.808ZM336.695 37.272L335.903 36.436H338.147C338.697 36.436 339.108 36.3187 339.379 36.084C339.65 35.842 339.786 35.512 339.786 35.094C339.786 34.6687 339.65 34.3387 339.379 34.104C339.108 33.8693 338.697 33.752 338.147 33.752H335.903L336.695 32.905V37.272ZM345.598 40.088C344.923 40.088 344.329 39.956 343.816 39.692C343.31 39.428 342.918 39.0687 342.639 38.614C342.36 38.152 342.221 37.6277 342.221 37.041C342.221 36.447 342.357 35.9227 342.628 35.468C342.907 35.006 343.284 34.6467 343.761 34.39C344.238 34.126 344.777 33.994 345.378 33.994C345.957 33.994 346.478 34.1187 346.94 34.368C347.409 34.61 347.78 34.962 348.051 35.424C348.322 35.8787 348.458 36.425 348.458 37.063C348.458 37.129 348.454 37.206 348.447 37.294C348.44 37.3747 348.432 37.4517 348.425 37.525H343.618V36.524H347.523L346.863 36.821C346.863 36.513 346.801 36.2453 346.676 36.018C346.551 35.7907 346.379 35.6147 346.159 35.49C345.939 35.358 345.682 35.292 345.389 35.292C345.096 35.292 344.835 35.358 344.608 35.49C344.388 35.6147 344.216 35.7943 344.091 36.029C343.966 36.2563 343.904 36.5277 343.904 36.843V37.107C343.904 37.4297 343.974 37.7157 344.113 37.965C344.26 38.207 344.461 38.394 344.718 38.526C344.982 38.6507 345.29 38.713 345.642 38.713C345.957 38.713 346.232 38.6653 346.467 38.57C346.709 38.4747 346.929 38.3317 347.127 38.141L348.04 39.131C347.769 39.439 347.428 39.6773 347.017 39.846C346.606 40.0073 346.133 40.088 345.598 40.088ZM351.921 40.088C351.364 40.088 350.862 39.9633 350.414 39.714C349.967 39.4573 349.611 39.1017 349.347 38.647C349.091 38.1923 348.962 37.657 348.962 37.041C348.962 36.4177 349.091 35.8787 349.347 35.424C349.611 34.9693 349.967 34.6173 350.414 34.368C350.862 34.1187 351.364 33.994 351.921 33.994C352.42 33.994 352.856 34.104 353.23 34.324C353.604 34.544 353.894 34.8777 354.099 35.325C354.305 35.7723 354.407 36.3443 354.407 37.041C354.407 37.7303 354.308 38.3023 354.11 38.757C353.912 39.2043 353.626 39.538 353.252 39.758C352.886 39.978 352.442 40.088 351.921 40.088ZM352.218 38.68C352.497 38.68 352.75 38.614 352.977 38.482C353.205 38.35 353.384 38.163 353.516 37.921C353.656 37.6717 353.725 37.3783 353.725 37.041C353.725 36.6963 353.656 36.403 353.516 36.161C353.384 35.919 353.205 35.732 352.977 35.6C352.75 35.468 352.497 35.402 352.218 35.402C351.932 35.402 351.676 35.468 351.448 35.6C351.221 35.732 351.038 35.919 350.898 36.161C350.766 36.403 350.7 36.6963 350.7 37.041C350.7 37.3783 350.766 37.6717 350.898 37.921C351.038 38.163 351.221 38.35 351.448 38.482C351.676 38.614 351.932 38.68 352.218 38.68ZM353.769 40V38.79L353.802 37.03L353.692 35.281V31.838H355.408V40H353.769ZM359.714 40.088C359.039 40.088 358.445 39.956 357.932 39.692C357.426 39.428 357.033 39.0687 356.755 38.614C356.476 38.152 356.337 37.6277 356.337 37.041C356.337 36.447 356.472 35.9227 356.744 35.468C357.022 35.006 357.4 34.6467 357.877 34.39C358.353 34.126 358.892 33.994 359.494 33.994C360.073 33.994 360.594 34.1187 361.056 34.368C361.525 34.61 361.895 34.962 362.167 35.424C362.438 35.8787 362.574 36.425 362.574 37.063C362.574 37.129 362.57 37.206 362.563 37.294C362.555 37.3747 362.548 37.4517 362.541 37.525H357.734V36.524H361.639L360.979 36.821C360.979 36.513 360.916 36.2453 360.792 36.018C360.667 35.7907 360.495 35.6147 360.275 35.49C360.055 35.358 359.798 35.292 359.505 35.292C359.211 35.292 358.951 35.358 358.724 35.49C358.504 35.6147 358.331 35.7943 358.207 36.029C358.082 36.2563 358.02 36.5277 358.02 36.843V37.107C358.02 37.4297 358.089 37.7157 358.229 37.965C358.375 38.207 358.577 38.394 358.834 38.526C359.098 38.6507 359.406 38.713 359.758 38.713C360.073 38.713 360.348 38.6653 360.583 38.57C360.825 38.4747 361.045 38.3317 361.243 38.141L362.156 39.131C361.884 39.439 361.543 39.6773 361.133 39.846C360.722 40.0073 360.249 40.088 359.714 40.088ZM366.433 40.088C365.758 40.088 365.164 39.956 364.651 39.692C364.145 39.428 363.753 39.0687 363.474 38.614C363.195 38.152 363.056 37.6277 363.056 37.041C363.056 36.447 363.192 35.9227 363.463 35.468C363.742 35.006 364.119 34.6467 364.596 34.39C365.073 34.126 365.612 33.994 366.213 33.994C366.792 33.994 367.313 34.1187 367.775 34.368C368.244 34.61 368.615 34.962 368.886 35.424C369.157 35.8787 369.293 36.425 369.293 37.063C369.293 37.129 369.289 37.206 369.282 37.294C369.275 37.3747 369.267 37.4517 369.26 37.525H364.453V36.524H368.358L367.698 36.821C367.698 36.513 367.636 36.2453 367.511 36.018C367.386 35.7907 367.214 35.6147 366.994 35.49C366.774 35.358 366.517 35.292 366.224 35.292C365.931 35.292 365.67 35.358 365.443 35.49C365.223 35.6147 365.051 35.7943 364.926 36.029C364.801 36.2563 364.739 36.5277 364.739 36.843V37.107C364.739 37.4297 364.809 37.7157 364.948 37.965C365.095 38.207 365.296 38.394 365.553 38.526C365.817 38.6507 366.125 38.713 366.477 38.713C366.792 38.713 367.067 38.6653 367.302 38.57C367.544 38.4747 367.764 38.3317 367.962 38.141L368.875 39.131C368.604 39.439 368.263 39.6773 367.852 39.846C367.441 40.0073 366.968 40.088 366.433 40.088ZM377.794 33.994C378.264 33.994 378.678 34.0893 379.037 34.28C379.404 34.4633 379.69 34.7493 379.895 35.138C380.108 35.5193 380.214 36.0107 380.214 36.612V40H378.498V36.876C378.498 36.3993 378.399 36.0473 378.201 35.82C378.003 35.5927 377.725 35.479 377.365 35.479C377.116 35.479 376.892 35.5377 376.694 35.655C376.496 35.765 376.342 35.9337 376.232 36.161C376.122 36.3883 376.067 36.678 376.067 37.03V40H374.351V36.876C374.351 36.3993 374.252 36.0473 374.054 35.82C373.864 35.5927 373.589 35.479 373.229 35.479C372.98 35.479 372.756 35.5377 372.558 35.655C372.36 35.765 372.206 35.9337 372.096 36.161C371.986 36.3883 371.931 36.678 371.931 37.03V40H370.215V34.082H371.854V35.699L371.546 35.226C371.752 34.8227 372.041 34.5183 372.415 34.313C372.797 34.1003 373.229 33.994 373.713 33.994C374.256 33.994 374.729 34.1333 375.132 34.412C375.543 34.6833 375.814 35.1013 375.946 35.666L375.341 35.501C375.539 35.039 375.855 34.6723 376.287 34.401C376.727 34.1297 377.23 33.994 377.794 33.994Z" fill="#040426"/>
<defs>
<filter id="filter0_biiii_962_711" x="4.2832" y="62.5957" width="125.521" height="128.936" filterUnits="userSpaceOnUse" color-interpolation-filters="sRGB">
<feFlood flood-opacity="0" result="BackgroundImageFix"/>
<feGaussianBlur in="BackgroundImageFix" stdDeviation="10.5"/>
<feComposite in2="SourceAlpha" operator="in" result="effect1_backgroundBlur_962_711"/>
<feBlend mode="normal" in="SourceGraphic" in2="effect1_backgroundBlur_962_711" result="shape"/>
<feColorMatrix in="SourceAlpha" type="matrix" values="0 0 0 0 0 0 0 0 0 0 0 0 0 0 0 0 0 0 127 0" result="hardAlpha"/>
<feOffset dx="10" dy="10"/>
<feGaussianBlur stdDeviation="11.5"/>
<feComposite in2="hardAlpha" operator="arithmetic" k2="-1" k3="1"/>
<feColorMatrix type="matrix" values="0 0 0 0 0.0509804 0 0 0 0 0.603922 0 0 0 0 1 0 0 0 0.18 0"/>
<feBlend mode="normal" in2="shape" result="effect2_innerShadow_962_711"/>
<feColorMatrix in="SourceAlpha" type="matrix" values="0 0 0 0 0 0 0 0 0 0 0 0 0 0 0 0 0 0 127 0" result="hardAlpha"/>
<feOffset dy="2"/>
<feGaussianBlur stdDeviation="3"/>
<feComposite in2="hardAlpha" operator="arithmetic" k2="-1" k3="1"/>
<feColorMatrix type="matrix" values="0 0 0 0 1 0 0 0 0 1 0 0 0 0 1 0 0 0 0.05 0"/>
<feBlend mode="normal" in2="effect2_innerShadow_962_711" result="effect3_innerShadow_962_711"/>
<feColorMatrix in="SourceAlpha" type="matrix" values="0 0 0 0 0 0 0 0 0 0 0 0 0 0 0 0 0 0 127 0" result="hardAlpha"/>
<feOffset dy="1"/>
<feComposite in2="hardAlpha" operator="arithmetic" k2="-1" k3="1"/>
<feColorMatrix type="matrix" values="0 0 0 0 1 0 0 0 0 1 0 0 0 0 1 0 0 0 0.05 0"/>
<feBlend mode="normal" in2="effect3_innerShadow_962_711" result="effect4_innerShadow_962_711"/>
<feColorMatrix in="SourceAlpha" type="matrix" values="0 0 0 0 0 0 0 0 0 0 0 0 0 0 0 0 0 0 127 0" result="hardAlpha"/>
<feOffset dy="-10"/>
<feGaussianBlur stdDeviation="5"/>
<feComposite in2="hardAlpha" operator="arithmetic" k2="-1" k3="1"/>
<feColorMatrix type="matrix" values="0 0 0 0 0.315 0 0 0 0 0.933333 0 0 0 0 0.841954 0 0 0 0.2 0"/>
<feBlend mode="overlay" in2="effect4_innerShadow_962_711" result="effect5_innerShadow_962_711"/>
</filter>
<filter id="filter1_biiii_962_711" x="625.482" y="430.065" width="104.676" height="155.451" filterUnits="userSpaceOnUse" color-interpolation-filters="sRGB">
<feFlood flood-opacity="0" result="BackgroundImageFix"/>
<feGaussianBlur in="BackgroundImageFix" stdDeviation="10.5"/>
<feComposite in2="SourceAlpha" operator="in" result="effect1_backgroundBlur_962_711"/>
<feBlend mode="normal" in="SourceGraphic" in2="effect1_backgroundBlur_962_711" result="shape"/>
<feColorMatrix in="SourceAlpha" type="matrix" values="0 0 0 0 0 0 0 0 0 0 0 0 0 0 0 0 0 0 127 0" result="hardAlpha"/>
<feOffset dx="10" dy="10"/>
<feGaussianBlur stdDeviation="11.5"/>
<feComposite in2="hardAlpha" operator="arithmetic" k2="-1" k3="1"/>
<feColorMatrix type="matrix" values="0 0 0 0 0 0 0 0 0 0.796078 0 0 0 0 0.662745 0 0 0 0.18 0"/>
<feBlend mode="normal" in2="shape" result="effect2_innerShadow_962_711"/>
<feColorMatrix in="SourceAlpha" type="matrix" values="0 0 0 0 0 0 0 0 0 0 0 0 0 0 0 0 0 0 127 0" result="hardAlpha"/>
<feOffset dy="2"/>
<feGaussianBlur stdDeviation="3"/>
<feComposite in2="hardAlpha" operator="arithmetic" k2="-1" k3="1"/>
<feColorMatrix type="matrix" values="0 0 0 0 1 0 0 0 0 1 0 0 0 0 1 0 0 0 0.05 0"/>
<feBlend mode="normal" in2="effect2_innerShadow_962_711" result="effect3_innerShadow_962_711"/>
<feColorMatrix in="SourceAlpha" type="matrix" values="0 0 0 0 0 0 0 0 0 0 0 0 0 0 0 0 0 0 127 0" result="hardAlpha"/>
<feOffset dy="1"/>
<feComposite in2="hardAlpha" operator="arithmetic" k2="-1" k3="1"/>
<feColorMatrix type="matrix" values="0 0 0 0 1 0 0 0 0 1 0 0 0 0 1 0 0 0 0.05 0"/>
<feBlend mode="normal" in2="effect3_innerShadow_962_711" result="effect4_innerShadow_962_711"/>
<feColorMatrix in="SourceAlpha" type="matrix" values="0 0 0 0 0 0 0 0 0 0 0 0 0 0 0 0 0 0 127 0" result="hardAlpha"/>
<feOffset dy="-10"/>
<feGaussianBlur stdDeviation="5"/>
<feComposite in2="hardAlpha" operator="arithmetic" k2="-1" k3="1"/>
<feColorMatrix type="matrix" values="0 0 0 0 0 0 0 0 0 0.796078 0 0 0 0 0.662745 0 0 0 0.4 0"/>
<feBlend mode="overlay" in2="effect4_innerShadow_962_711" result="effect5_innerShadow_962_711"/>
</filter>
<filter id="filter2_biiii_962_711" x="585" y="22.7357" width="161" height="101.265" filterUnits="userSpaceOnUse" color-interpolation-filters="sRGB">
<feFlood flood-opacity="0" result="BackgroundImageFix"/>
<feGaussianBlur in="BackgroundImageFix" stdDeviation="10.5"/>
<feComposite in2="SourceAlpha" operator="in" result="effect1_backgroundBlur_962_711"/>
<feBlend mode="normal" in="SourceGraphic" in2="effect1_backgroundBlur_962_711" result="shape"/>
<feColorMatrix in="SourceAlpha" type="matrix" values="0 0 0 0 0 0 0 0 0 0 0 0 0 0 0 0 0 0 127 0" result="hardAlpha"/>
<feOffset dx="10" dy="10"/>
<feGaussianBlur stdDeviation="11.5"/>
<feComposite in2="hardAlpha" operator="arithmetic" k2="-1" k3="1"/>
<feColorMatrix type="matrix" values="0 0 0 0 0.6 0 0 0 0 0.368627 0 0 0 0 0.831373 0 0 0 0.18 0"/>
<feBlend mode="normal" in2="shape" result="effect2_innerShadow_962_711"/>
<feColorMatrix in="SourceAlpha" type="matrix" values="0 0 0 0 0 0 0 0 0 0 0 0 0 0 0 0 0 0 127 0" result="hardAlpha"/>
<feMorphology radius="2" operator="erode" in="SourceAlpha" result="effect3_innerShadow_962_711"/>
<feOffset dy="2"/>
<feGaussianBlur stdDeviation="3"/>
<feComposite in2="hardAlpha" operator="arithmetic" k2="-1" k3="1"/>
<feColorMatrix type="matrix" values="0 0 0 0 1 0 0 0 0 1 0 0 0 0 1 0 0 0 0.05 0"/>
<feBlend mode="normal" in2="effect2_innerShadow_962_711" result="effect3_innerShadow_962_711"/>
<feColorMatrix in="SourceAlpha" type="matrix" values="0 0 0 0 0 0 0 0 0 0 0 0 0 0 0 0 0 0 127 0" result="hardAlpha"/>
<feOffset dy="1"/>
<feComposite in2="hardAlpha" operator="arithmetic" k2="-1" k3="1"/>
<feColorMatrix type="matrix" values="0 0 0 0 1 0 0 0 0 1 0 0 0 0 1 0 0 0 0.05 0"/>
<feBlend mode="normal" in2="effect3_innerShadow_962_711" result="effect4_innerShadow_962_711"/>
<feColorMatrix in="SourceAlpha" type="matrix" values="0 0 0 0 0 0 0 0 0 0 0 0 0 0 0 0 0 0 127 0" result="hardAlpha"/>
<feOffset dy="-10"/>
<feGaussianBlur stdDeviation="5"/>
<feComposite in2="hardAlpha" operator="arithmetic" k2="-1" k3="1"/>
<feColorMatrix type="matrix" values="0 0 0 0 0.315 0 0 0 0 0.933333 0 0 0 0 0.841954 0 0 0 1 0"/>
<feBlend mode="overlay" in2="effect4_innerShadow_962_711" result="effect5_innerShadow_962_711"/>
</filter>
<filter id="filter3_d_962_711" x="128" y="54" width="55" height="55" filterUnits="userSpaceOnUse" color-interpolation-filters="sRGB">
<feFlood flood-opacity="0" result="BackgroundImageFix"/>
<feColorMatrix in="SourceAlpha" type="matrix" values="0 0 0 0 0 0 0 0 0 0 0 0 0 0 0 0 0 0 127 0" result="hardAlpha"/>
<feOffset dy="4"/>
<feGaussianBlur stdDeviation="10"/>
<feComposite in2="hardAlpha" operator="out"/>
<feColorMatrix type="matrix" values="0 0 0 0 0 0 0 0 0 0 0 0 0 0 0 0 0 0 0.15 0"/>
<feBlend mode="normal" in2="BackgroundImageFix" result="effect1_dropShadow_962_711"/>
<feBlend mode="normal" in="SourceGraphic" in2="effect1_dropShadow_962_711" result="shape"/>
</filter>
<linearGradient id="paint0_linear_962_711" x1="469.5" y1="278" x2="1067.05" y2="637.972" gradientUnits="userSpaceOnUse">
<stop stop-color="#151536"/>
<stop offset="1" stop-color="#393969"/>
</linearGradient>
<radialGradient id="paint1_radial_962_711" cx="0" cy="0" r="1" gradientUnits="userSpaceOnUse" gradientTransform="translate(554.353 343.571) rotate(112.542) scale(221.339 415.569)">
<stop stop-color="#2EA694"/>
<stop offset="1" stop-color="#22EDCF" stop-opacity="0"/>
</radialGradient>
<linearGradient id="paint2_linear_962_711" x1="250" y1="1.19292e-05" x2="812.174" y2="338.711" gradientUnits="userSpaceOnUse">
<stop stop-color="#151536"/>
<stop offset="1" stop-color="#393969"/>
</linearGradient>
<radialGradient id="paint3_radial_962_711" cx="0" cy="0" r="1" gradientUnits="userSpaceOnUse" gradientTransform="translate(329.836 61.6857) rotate(112.545) scale(208.227 390.99)">
<stop stop-color="#2EA694"/>
<stop offset="1" stop-color="#22EDCF" stop-opacity="0"/>
</radialGradient>
<linearGradient id="paint4_linear_962_711" x1="91.8086" y1="226.79" x2="3.62928" y2="111.293" gradientUnits="userSpaceOnUse">
<stop stop-color="#50EED7" stop-opacity="0.82"/>
<stop offset="1" stop-color="#50EED7" stop-opacity="0.05"/>
</linearGradient>
<linearGradient id="paint5_linear_962_711" x1="72.9593" y1="106.348" x2="78.7959" y2="123.048" gradientUnits="userSpaceOnUse">
<stop stop-color="white"/>
<stop offset="1" stop-color="white" stop-opacity="0"/>
</linearGradient>
<linearGradient id="paint6_linear_962_711" x1="659.191" y1="672.648" x2="564.697" y2="517.647" gradientUnits="userSpaceOnUse">
<stop stop-color="#00CBA9" stop-opacity="0.01"/>
<stop offset="1" stop-color="#00CBA9" stop-opacity="0.12"/>
</linearGradient>
<linearGradient id="paint7_linear_962_711" x1="716.348" y1="510.346" x2="689.169" y2="507.742" gradientUnits="userSpaceOnUse">
<stop stop-color="white"/>
<stop offset="1" stop-color="white" stop-opacity="0"/>
</linearGradient>
<linearGradient id="paint8_linear_962_711" x1="665.5" y1="-14.311" x2="686.956" y2="99.8836" gradientUnits="userSpaceOnUse">
<stop stop-color="#50EED7" stop-opacity="0.74"/>
<stop offset="1" stop-color="#50EED7" stop-opacity="0.19"/>
</linearGradient>
<linearGradient id="paint9_linear_962_711" x1="698.522" y1="42.901" x2="660.858" y2="42.9009" gradientUnits="userSpaceOnUse">
<stop stop-color="white"/>
<stop offset="1" stop-color="white" stop-opacity="0"/>
</linearGradient>
<linearGradient id="paint10_linear_962_711" x1="468" y1="262" x2="467.5" y2="493" gradientUnits="userSpaceOnUse">
<stop stop-color="#50EED7"/>
<stop offset="1" stop-color="#50EED7" stop-opacity="0"/>
</linearGradient>
</defs>
</svg>
