<svg width="670" height="535" viewBox="0 0 670 535" fill="none" xmlns="http://www.w3.org/2000/svg">
<rect x="114.837" y="97.0497" width="334.409" height="334.409" rx="167.204" stroke="#50EED7" stroke-width="45.9352"/>
<rect opacity="0.2" x="289.391" y="10.4478" width="380.344" height="380.344" rx="190.172" fill="#50EED7"/>
<rect x="252.645" y="255.985" width="357.376" height="248.05" rx="14.6993" fill="url(#paint0_linear_1902_702)"/>
<rect x="253.563" y="256.904" width="355.539" height="246.213" rx="13.7806" stroke="url(#paint1_radial_1902_702)" stroke-opacity="0.5" stroke-width="1.83741"/>
<rect x="61.5527" y="0.585938" width="336.246" height="233.351" rx="14.6993" fill="url(#paint2_linear_1902_702)"/>
<rect x="62.4714" y="1.50464" width="334.409" height="231.514" rx="13.7806" stroke="url(#paint3_radial_1902_702)" stroke-opacity="0.5" stroke-width="1.83741"/>
<path d="M53.6594 120.177C51.9232 115.209 52.2315 109.756 54.5163 105.016C56.8011 100.276 60.8753 96.6372 65.8427 94.9011C70.8101 93.1649 76.2637 93.4731 81.0039 95.758C85.744 98.0428 89.3823 102.117 91.1185 107.084L53.6594 120.177Z" fill="#50EED7"/>
<g filter="url(#filter0_biiii_1902_702)">
<path d="M38.3653 77.3857L99.9592 130.436L23.2285 157.255L38.3653 77.3857Z" fill="url(#paint4_linear_1902_702)"/>
</g>
<path d="M61.5154 117.431C60.5073 114.547 60.6863 111.381 62.013 108.628C63.3397 105.876 65.7053 103.763 68.5896 102.755C71.4739 101.747 74.6405 101.926 77.3929 103.253C80.1452 104.579 82.2578 106.945 83.2659 109.829L61.5154 117.431Z" fill="url(#paint5_linear_1902_702)"/>
<path d="M620.736 451.204C628.56 451.953 635.766 455.78 640.768 461.843C645.77 467.905 648.159 475.706 647.409 483.53C646.66 491.354 642.833 498.559 636.77 503.561C630.708 508.564 622.907 510.953 615.083 510.203L620.736 451.204Z" fill="#50EED7"/>
<g filter="url(#filter1_biiii_1902_702)">
<path d="M637.749 429.017C623.861 427.687 610.018 431.888 599.264 440.698C588.51 449.508 581.726 462.204 580.405 475.993C579.083 489.783 583.333 503.536 592.218 514.227C601.104 524.919 613.897 531.673 627.784 533.004L637.749 429.017Z" fill="url(#paint6_linear_1902_702)"/>
</g>
<path d="M621.082 463.145C625.776 463.595 630.1 465.891 633.101 469.528C636.102 473.166 637.536 477.847 637.086 482.541C636.636 487.235 634.34 491.558 630.702 494.56C627.065 497.561 622.384 498.994 617.69 498.545L621.082 463.145Z" fill="url(#paint7_linear_1902_702)"/>
<path d="M607.132 2.423C617.209 2.423 626.872 6.38187 633.997 13.4287C641.122 20.4755 645.125 30.0331 645.125 39.9988C645.125 49.9645 641.122 59.5221 633.997 66.5689C626.872 73.6157 617.209 77.5746 607.132 77.5746L607.132 2.423Z" fill="#50EED7"/>
<g filter="url(#filter2_biiii_1902_702)">
<path d="M556.735 40.7656C556.735 55.2057 562.494 69.0544 572.745 79.2651C582.996 89.4758 596.9 95.2122 611.398 95.2122C625.895 95.2122 639.799 89.4758 650.05 79.2651C660.301 69.0544 666.061 55.2057 666.061 40.7656L556.735 40.7656Z" fill="url(#paint8_linear_1902_702)"/>
</g>
<path d="M607.132 15.7399C613.637 15.7399 619.876 18.2958 624.476 22.8452C629.076 27.3946 631.66 33.5649 631.66 39.9988C631.66 46.4326 629.076 52.6029 624.476 57.1523C619.876 61.7017 613.637 64.2576 607.132 64.2576L607.132 15.7399Z" fill="url(#paint9_linear_1902_702)"/>
<rect x="142.401" y="160.44" width="195.684" height="30.3173" rx="15.1586" fill="#50EED7" fill-opacity="0.2" stroke="#50EED7" stroke-width="1.83741"/>
<path d="M169.038 173.968H173.514V175.345H169.038V173.968ZM169.166 177.827H174.247V179.229H167.494V170.226H174.067V171.628H169.166V177.827ZM180.125 179.229V177.84L180.035 177.544V175.113C180.035 174.642 179.894 174.277 179.611 174.02C179.328 173.754 178.899 173.621 178.324 173.621C177.939 173.621 177.557 173.681 177.18 173.801C176.811 173.921 176.498 174.089 176.241 174.303L175.611 173.132C175.979 172.85 176.417 172.639 176.922 172.502C177.437 172.356 177.969 172.284 178.517 172.284C179.512 172.284 180.279 172.524 180.82 173.004C181.368 173.475 181.643 174.209 181.643 175.203V179.229H180.125ZM177.964 179.319C177.45 179.319 177 179.233 176.614 179.062C176.228 178.882 175.928 178.637 175.713 178.329C175.508 178.011 175.405 177.656 175.405 177.261C175.405 176.875 175.495 176.528 175.675 176.219C175.863 175.911 176.168 175.666 176.588 175.486C177.008 175.306 177.566 175.216 178.26 175.216H180.254V176.284H178.376C177.827 176.284 177.458 176.374 177.27 176.554C177.081 176.725 176.987 176.94 176.987 177.197C176.987 177.488 177.102 177.72 177.334 177.891C177.566 178.063 177.887 178.149 178.299 178.149C178.693 178.149 179.045 178.059 179.353 177.879C179.671 177.698 179.898 177.433 180.035 177.081L180.305 178.046C180.151 178.449 179.872 178.762 179.469 178.985C179.075 179.208 178.573 179.319 177.964 179.319ZM183.706 179.229V172.361H185.237V174.251L185.057 173.698C185.262 173.235 185.584 172.884 186.021 172.644C186.467 172.404 187.02 172.284 187.68 172.284V173.814C187.612 173.797 187.547 173.788 187.487 173.788C187.427 173.78 187.367 173.776 187.307 173.776C186.699 173.776 186.214 173.956 185.854 174.316C185.494 174.667 185.314 175.195 185.314 175.898V179.229H183.706ZM192.941 172.284C193.49 172.284 193.979 172.391 194.408 172.605C194.845 172.82 195.188 173.15 195.437 173.596C195.685 174.033 195.81 174.599 195.81 175.293V179.229H194.202V175.499C194.202 174.89 194.056 174.436 193.765 174.136C193.482 173.836 193.083 173.686 192.568 173.686C192.191 173.686 191.857 173.763 191.565 173.917C191.274 174.071 191.046 174.303 190.883 174.612C190.729 174.912 190.652 175.293 190.652 175.756V179.229H189.044V172.361H190.575V174.213L190.305 173.647C190.545 173.21 190.892 172.875 191.347 172.644C191.81 172.404 192.341 172.284 192.941 172.284ZM201.622 179.229V171.975C201.622 171.255 201.832 170.68 202.253 170.251C202.681 169.814 203.29 169.595 204.079 169.595C204.362 169.595 204.628 169.625 204.876 169.685C205.134 169.746 205.348 169.84 205.519 169.968L205.082 171.177C204.962 171.083 204.825 171.015 204.671 170.972C204.516 170.92 204.358 170.895 204.195 170.895C203.86 170.895 203.607 170.989 203.436 171.177C203.264 171.358 203.179 171.632 203.179 172.001V172.772L203.23 173.493V179.229H201.622ZM200.49 173.698V172.412H205.069V173.698H200.49ZM206.164 179.229V172.361H207.695V174.251L207.515 173.698C207.72 173.235 208.042 172.884 208.479 172.644C208.925 172.404 209.478 172.284 210.138 172.284V173.814C210.07 173.797 210.005 173.788 209.945 173.788C209.885 173.78 209.825 173.776 209.765 173.776C209.157 173.776 208.672 173.956 208.312 174.316C207.952 174.667 207.772 175.195 207.772 175.898V179.229H206.164ZM214.668 179.319C213.905 179.319 213.236 179.169 212.661 178.869C212.095 178.56 211.654 178.14 211.337 177.608C211.028 177.077 210.874 176.472 210.874 175.795C210.874 175.109 211.024 174.504 211.324 173.981C211.632 173.45 212.053 173.034 212.584 172.734C213.124 172.434 213.737 172.284 214.423 172.284C215.092 172.284 215.688 172.429 216.211 172.721C216.734 173.012 217.146 173.424 217.446 173.956C217.746 174.487 217.896 175.113 217.896 175.833C217.896 175.902 217.892 175.979 217.883 176.065C217.883 176.151 217.879 176.232 217.87 176.309H212.147V175.242H217.022L216.391 175.576C216.4 175.182 216.318 174.835 216.147 174.534C215.975 174.234 215.74 173.999 215.439 173.827C215.148 173.656 214.809 173.57 214.423 173.57C214.029 173.57 213.682 173.656 213.382 173.827C213.09 173.999 212.859 174.239 212.687 174.547C212.524 174.847 212.443 175.203 212.443 175.615V175.872C212.443 176.284 212.537 176.648 212.726 176.965C212.914 177.283 213.18 177.527 213.523 177.698C213.866 177.87 214.26 177.956 214.706 177.956C215.092 177.956 215.439 177.896 215.748 177.776C216.057 177.656 216.331 177.467 216.571 177.21L217.433 178.2C217.124 178.56 216.734 178.839 216.263 179.036C215.8 179.225 215.268 179.319 214.668 179.319ZM222.669 179.319C221.906 179.319 221.237 179.169 220.662 178.869C220.096 178.56 219.655 178.14 219.338 177.608C219.029 177.077 218.875 176.472 218.875 175.795C218.875 175.109 219.025 174.504 219.325 173.981C219.633 173.45 220.054 173.034 220.585 172.734C221.125 172.434 221.738 172.284 222.424 172.284C223.093 172.284 223.689 172.429 224.212 172.721C224.735 173.012 225.147 173.424 225.447 173.956C225.747 174.487 225.897 175.113 225.897 175.833C225.897 175.902 225.893 175.979 225.884 176.065C225.884 176.151 225.88 176.232 225.871 176.309H220.148V175.242H225.022L224.392 175.576C224.401 175.182 224.319 174.835 224.148 174.534C223.976 174.234 223.741 173.999 223.44 173.827C223.149 173.656 222.81 173.57 222.424 173.57C222.03 173.57 221.683 173.656 221.383 173.827C221.091 173.999 220.86 174.239 220.688 174.547C220.525 174.847 220.444 175.203 220.444 175.615V175.872C220.444 176.284 220.538 176.648 220.727 176.965C220.915 177.283 221.181 177.527 221.524 177.698C221.867 177.87 222.261 177.956 222.707 177.956C223.093 177.956 223.44 177.896 223.749 177.776C224.058 177.656 224.332 177.467 224.572 177.21L225.434 178.2C225.125 178.56 224.735 178.839 224.264 179.036C223.801 179.225 223.269 179.319 222.669 179.319ZM234.803 179.319C234.246 179.319 233.736 179.19 233.273 178.933C232.818 178.676 232.454 178.29 232.179 177.776C231.914 177.253 231.781 176.592 231.781 175.795C231.781 174.989 231.909 174.329 232.166 173.814C232.432 173.3 232.792 172.918 233.247 172.669C233.701 172.412 234.22 172.284 234.803 172.284C235.481 172.284 236.076 172.429 236.591 172.721C237.114 173.012 237.526 173.42 237.826 173.943C238.134 174.466 238.289 175.083 238.289 175.795C238.289 176.507 238.134 177.128 237.826 177.66C237.526 178.183 237.114 178.59 236.591 178.882C236.076 179.173 235.481 179.319 234.803 179.319ZM230.996 181.724V172.361H232.527V173.981L232.475 175.808L232.604 177.634V181.724H230.996ZM234.623 177.943C235.009 177.943 235.352 177.857 235.652 177.686C235.961 177.514 236.205 177.265 236.385 176.94C236.565 176.614 236.655 176.232 236.655 175.795C236.655 175.349 236.565 174.967 236.385 174.65C236.205 174.324 235.961 174.076 235.652 173.904C235.352 173.733 235.009 173.647 234.623 173.647C234.237 173.647 233.89 173.733 233.581 173.904C233.273 174.076 233.028 174.324 232.848 174.65C232.668 174.967 232.578 175.349 232.578 175.795C232.578 176.232 232.668 176.614 232.848 176.94C233.028 177.265 233.273 177.514 233.581 177.686C233.89 177.857 234.237 177.943 234.623 177.943ZM239.813 179.229V172.361H241.344V174.251L241.164 173.698C241.37 173.235 241.691 172.884 242.129 172.644C242.574 172.404 243.128 172.284 243.788 172.284V173.814C243.719 173.797 243.655 173.788 243.595 173.788C243.535 173.78 243.475 173.776 243.415 173.776C242.806 173.776 242.322 173.956 241.961 174.316C241.601 174.667 241.421 175.195 241.421 175.898V179.229H239.813ZM248.176 179.319C247.473 179.319 246.847 179.169 246.298 178.869C245.749 178.56 245.316 178.14 244.999 177.608C244.682 177.077 244.523 176.472 244.523 175.795C244.523 175.109 244.682 174.504 244.999 173.981C245.316 173.45 245.749 173.034 246.298 172.734C246.847 172.434 247.473 172.284 248.176 172.284C248.887 172.284 249.518 172.434 250.066 172.734C250.624 173.034 251.057 173.445 251.365 173.968C251.683 174.492 251.841 175.1 251.841 175.795C251.841 176.472 251.683 177.077 251.365 177.608C251.057 178.14 250.624 178.56 250.066 178.869C249.518 179.169 248.887 179.319 248.176 179.319ZM248.176 177.943C248.57 177.943 248.922 177.857 249.23 177.686C249.539 177.514 249.779 177.265 249.951 176.94C250.131 176.614 250.221 176.232 250.221 175.795C250.221 175.349 250.131 174.967 249.951 174.65C249.779 174.324 249.539 174.076 249.23 173.904C248.922 173.733 248.574 173.647 248.189 173.647C247.794 173.647 247.443 173.733 247.134 173.904C246.834 174.076 246.594 174.324 246.414 174.65C246.234 174.967 246.143 175.349 246.143 175.795C246.143 176.232 246.234 176.614 246.414 176.94C246.594 177.265 246.834 177.514 247.134 177.686C247.443 177.857 247.79 177.943 248.176 177.943ZM252.214 179.229L255.236 175.293L255.211 176.155L252.329 172.361H254.117L256.137 175.062H255.455L257.487 172.361H259.223L256.317 176.155L256.329 175.293L259.339 179.229H257.526L255.403 176.361L256.072 176.451L253.989 179.229H252.214ZM260.526 179.229V172.361H262.133V179.229H260.526ZM261.336 171.229C261.036 171.229 260.787 171.135 260.59 170.946C260.401 170.757 260.307 170.53 260.307 170.264C260.307 169.99 260.401 169.763 260.59 169.583C260.787 169.394 261.036 169.3 261.336 169.3C261.636 169.3 261.88 169.39 262.069 169.57C262.266 169.741 262.365 169.96 262.365 170.226C262.365 170.509 262.27 170.749 262.082 170.946C261.893 171.135 261.645 171.229 261.336 171.229ZM267.472 179.319C266.709 179.319 266.04 179.169 265.465 178.869C264.899 178.56 264.458 178.14 264.141 177.608C263.832 177.077 263.678 176.472 263.678 175.795C263.678 175.109 263.828 174.504 264.128 173.981C264.436 173.45 264.857 173.034 265.388 172.734C265.928 172.434 266.541 172.284 267.227 172.284C267.896 172.284 268.492 172.429 269.015 172.721C269.538 173.012 269.95 173.424 270.25 173.956C270.55 174.487 270.7 175.113 270.7 175.833C270.7 175.902 270.696 175.979 270.687 176.065C270.687 176.151 270.683 176.232 270.674 176.309H264.951V175.242H269.826L269.195 175.576C269.204 175.182 269.122 174.835 268.951 174.534C268.779 174.234 268.544 173.999 268.243 173.827C267.952 173.656 267.613 173.57 267.227 173.57C266.833 173.57 266.486 173.656 266.186 173.827C265.894 173.999 265.663 174.239 265.491 174.547C265.328 174.847 265.247 175.203 265.247 175.615V175.872C265.247 176.284 265.341 176.648 265.53 176.965C265.718 177.283 265.984 177.527 266.327 177.698C266.67 177.87 267.064 177.956 267.51 177.956C267.896 177.956 268.243 177.896 268.552 177.776C268.861 177.656 269.135 177.467 269.375 177.21L270.237 178.2C269.928 178.56 269.538 178.839 269.067 179.036C268.604 179.225 268.072 179.319 267.472 179.319ZM274.367 179.319C273.792 179.319 273.239 179.246 272.707 179.1C272.184 178.946 271.769 178.762 271.46 178.547L272.077 177.325C272.386 177.523 272.755 177.686 273.183 177.814C273.612 177.943 274.041 178.007 274.47 178.007C274.975 178.007 275.34 177.939 275.563 177.801C275.794 177.664 275.91 177.48 275.91 177.248C275.91 177.06 275.833 176.918 275.679 176.824C275.524 176.721 275.323 176.644 275.074 176.592C274.825 176.541 274.547 176.494 274.238 176.451C273.938 176.408 273.634 176.352 273.325 176.284C273.025 176.206 272.75 176.099 272.502 175.962C272.253 175.816 272.052 175.623 271.897 175.383C271.743 175.143 271.666 174.826 271.666 174.432C271.666 173.994 271.79 173.617 272.039 173.3C272.287 172.974 272.635 172.725 273.08 172.554C273.535 172.374 274.071 172.284 274.688 172.284C275.151 172.284 275.619 172.335 276.09 172.438C276.562 172.541 276.952 172.687 277.261 172.875L276.643 174.097C276.317 173.9 275.987 173.767 275.653 173.698C275.327 173.621 275.001 173.583 274.675 173.583C274.187 173.583 273.822 173.656 273.582 173.801C273.351 173.947 273.235 174.131 273.235 174.354C273.235 174.56 273.312 174.714 273.466 174.817C273.621 174.92 273.822 175.002 274.071 175.062C274.319 175.122 274.594 175.173 274.894 175.216C275.203 175.25 275.507 175.306 275.807 175.383C276.107 175.46 276.382 175.568 276.63 175.705C276.888 175.833 277.093 176.018 277.248 176.258C277.402 176.498 277.479 176.811 277.479 177.197C277.479 177.626 277.351 177.999 277.093 178.316C276.845 178.633 276.489 178.882 276.026 179.062C275.563 179.233 275.01 179.319 274.367 179.319ZM286.316 172.284C286.864 172.284 287.353 172.391 287.782 172.605C288.219 172.82 288.562 173.15 288.811 173.596C289.059 174.033 289.184 174.599 289.184 175.293V179.229H287.576V175.499C287.576 174.89 287.43 174.436 287.139 174.136C286.856 173.836 286.457 173.686 285.943 173.686C285.565 173.686 285.231 173.763 284.939 173.917C284.648 174.071 284.421 174.303 284.258 174.612C284.103 174.912 284.026 175.293 284.026 175.756V179.229H282.418V172.361H283.949V174.213L283.679 173.647C283.919 173.21 284.266 172.875 284.721 172.644C285.184 172.404 285.715 172.284 286.316 172.284ZM294.323 179.319C293.62 179.319 292.994 179.169 292.445 178.869C291.896 178.56 291.463 178.14 291.146 177.608C290.828 177.077 290.67 176.472 290.67 175.795C290.67 175.109 290.828 174.504 291.146 173.981C291.463 173.45 291.896 173.034 292.445 172.734C292.994 172.434 293.62 172.284 294.323 172.284C295.034 172.284 295.665 172.434 296.213 172.734C296.771 173.034 297.204 173.445 297.512 173.968C297.83 174.492 297.988 175.1 297.988 175.795C297.988 176.472 297.83 177.077 297.512 177.608C297.204 178.14 296.771 178.56 296.213 178.869C295.665 179.169 295.034 179.319 294.323 179.319ZM294.323 177.943C294.717 177.943 295.069 177.857 295.377 177.686C295.686 177.514 295.926 177.265 296.098 176.94C296.278 176.614 296.368 176.232 296.368 175.795C296.368 175.349 296.278 174.967 296.098 174.65C295.926 174.324 295.686 174.076 295.377 173.904C295.069 173.733 294.721 173.647 294.335 173.647C293.941 173.647 293.59 173.733 293.281 173.904C292.981 174.076 292.741 174.324 292.561 174.65C292.38 174.967 292.29 175.349 292.29 175.795C292.29 176.232 292.38 176.614 292.561 176.94C292.741 177.265 292.981 177.514 293.281 177.686C293.59 177.857 293.937 177.943 294.323 177.943ZM300.855 179.229L298.334 172.361H299.852L302.013 178.419H301.292L303.556 172.361H304.906L307.106 178.419H306.398L308.624 172.361H310.051L307.517 179.229H305.974L303.968 173.866H304.443L302.398 179.229H300.855Z" fill="white"/>
<path d="M320.884 293.791V284.788H324.974C325.952 284.788 326.813 284.976 327.559 285.354C328.305 285.722 328.888 286.241 329.308 286.91C329.729 287.579 329.939 288.372 329.939 289.289C329.939 290.198 329.729 290.991 329.308 291.669C328.888 292.338 328.305 292.861 327.559 293.238C326.813 293.607 325.952 293.791 324.974 293.791H320.884ZM322.968 292.08H324.871C325.471 292.08 325.99 291.969 326.427 291.746C326.873 291.514 327.216 291.189 327.456 290.768C327.705 290.348 327.829 289.855 327.829 289.289C327.829 288.715 327.705 288.222 327.456 287.81C327.216 287.39 326.873 287.069 326.427 286.846C325.99 286.614 325.471 286.498 324.871 286.498H322.968V292.08ZM331.487 293.791L335.5 284.788H337.558L341.584 293.791H339.397L336.105 285.842H336.928L333.622 293.791H331.487ZM333.494 291.862L334.047 290.28H338.677L339.243 291.862H333.494ZM345.217 293.791V286.485H342.336V284.788H350.182V286.485H347.301V293.791H345.217ZM350.953 293.791L354.966 284.788H357.024L361.05 293.791H358.864L355.571 285.842H356.394L353.089 293.791H350.953ZM352.96 291.862L353.513 290.28H358.143L358.709 291.862H352.96ZM372.199 293.945C370.921 293.945 369.923 293.59 369.202 292.878C368.482 292.166 368.122 291.15 368.122 289.83V284.788H370.205V289.752C370.205 290.61 370.381 291.227 370.733 291.604C371.084 291.982 371.577 292.17 372.212 292.17C372.846 292.17 373.339 291.982 373.691 291.604C374.043 291.227 374.218 290.61 374.218 289.752V284.788H376.276V289.83C376.276 291.15 375.916 292.166 375.196 292.878C374.476 293.59 373.477 293.945 372.199 293.945ZM382.58 293.945C381.859 293.945 381.169 293.851 380.509 293.662C379.849 293.465 379.317 293.212 378.914 292.904L379.621 291.334C380.007 291.609 380.462 291.836 380.985 292.016C381.516 292.188 382.052 292.273 382.593 292.273C383.004 292.273 383.334 292.235 383.583 292.158C383.84 292.072 384.029 291.956 384.149 291.81C384.269 291.665 384.329 291.497 384.329 291.309C384.329 291.069 384.235 290.88 384.046 290.743C383.857 290.597 383.609 290.481 383.3 290.395C382.991 290.301 382.648 290.215 382.271 290.138C381.902 290.052 381.529 289.95 381.152 289.83C380.783 289.71 380.445 289.555 380.136 289.367C379.827 289.178 379.574 288.929 379.377 288.621C379.188 288.312 379.094 287.917 379.094 287.437C379.094 286.923 379.231 286.455 379.506 286.035C379.789 285.607 380.209 285.268 380.766 285.019C381.332 284.762 382.04 284.633 382.888 284.633C383.454 284.633 384.012 284.702 384.56 284.839C385.109 284.968 385.594 285.165 386.014 285.431L385.371 287.013C384.951 286.773 384.53 286.597 384.11 286.485C383.69 286.365 383.279 286.305 382.876 286.305C382.473 286.305 382.142 286.353 381.885 286.447C381.628 286.541 381.444 286.666 381.332 286.82C381.221 286.966 381.165 287.137 381.165 287.334C381.165 287.566 381.259 287.755 381.448 287.9C381.637 288.037 381.885 288.149 382.194 288.235C382.503 288.32 382.841 288.406 383.21 288.492C383.587 288.578 383.96 288.676 384.329 288.788C384.706 288.899 385.049 289.049 385.358 289.238C385.667 289.427 385.915 289.675 386.104 289.984C386.301 290.293 386.4 290.683 386.4 291.154C386.4 291.66 386.258 292.123 385.975 292.543C385.692 292.964 385.268 293.302 384.702 293.56C384.145 293.817 383.437 293.945 382.58 293.945ZM387.926 293.791L391.939 284.788H393.997L398.023 293.791H395.836L392.544 285.842H393.367L390.061 293.791H387.926ZM389.933 291.862L390.486 290.28H395.116L395.682 291.862H389.933ZM404.465 293.945C403.753 293.945 403.097 293.834 402.497 293.611C401.905 293.379 401.387 293.054 400.941 292.633C400.503 292.213 400.16 291.72 399.912 291.154C399.672 290.588 399.552 289.967 399.552 289.289C399.552 288.612 399.672 287.99 399.912 287.424C400.16 286.858 400.508 286.365 400.954 285.945C401.399 285.525 401.923 285.204 402.523 284.981C403.123 284.749 403.783 284.633 404.503 284.633C405.301 284.633 406.017 284.766 406.651 285.032C407.294 285.298 407.835 285.684 408.272 286.19L406.934 287.424C406.609 287.081 406.253 286.828 405.867 286.666C405.481 286.494 405.061 286.408 404.606 286.408C404.169 286.408 403.77 286.477 403.41 286.614C403.05 286.751 402.737 286.949 402.471 287.206C402.214 287.463 402.013 287.767 401.867 288.119C401.73 288.47 401.661 288.861 401.661 289.289C401.661 289.71 401.73 290.095 401.867 290.447C402.013 290.798 402.214 291.107 402.471 291.373C402.737 291.63 403.046 291.827 403.397 291.965C403.757 292.102 404.152 292.17 404.581 292.17C404.992 292.17 405.391 292.106 405.777 291.977C406.171 291.84 406.553 291.613 406.921 291.296L408.105 292.801C407.616 293.169 407.046 293.452 406.394 293.65C405.751 293.847 405.108 293.945 404.465 293.945ZM406.201 292.531V289.148H408.105V292.801L406.201 292.531ZM413.243 288.415H417.577V290.035H413.243V288.415ZM413.397 292.119H418.298V293.791H411.326V284.788H418.13V286.46H413.397V292.119Z" fill="white"/>
<path d="M382.071 336.205C381.445 336.205 380.823 336.124 380.206 335.961C379.597 335.789 379.074 335.549 378.636 335.24L379.46 333.646C379.803 333.894 380.197 334.091 380.643 334.237C381.097 334.383 381.556 334.456 382.019 334.456C382.542 334.456 382.954 334.353 383.254 334.147C383.554 333.941 383.704 333.654 383.704 333.285C383.704 333.054 383.644 332.848 383.524 332.668C383.404 332.488 383.19 332.351 382.881 332.257C382.581 332.162 382.156 332.115 381.608 332.115H379.305L379.768 327.047H385.26V328.72H380.514L381.595 327.768L381.273 331.382L380.193 330.43H382.096C382.988 330.43 383.704 330.554 384.244 330.803C384.793 331.043 385.192 331.373 385.44 331.794C385.689 332.214 385.813 332.69 385.813 333.221C385.813 333.753 385.68 334.246 385.415 334.7C385.149 335.146 384.737 335.511 384.18 335.794C383.631 336.068 382.928 336.205 382.071 336.205ZM389.128 336.154C388.785 336.154 388.489 336.038 388.241 335.806C388.001 335.566 387.881 335.262 387.881 334.893C387.881 334.525 388.001 334.229 388.241 334.006C388.489 333.774 388.785 333.658 389.128 333.658C389.48 333.658 389.776 333.774 390.016 334.006C390.256 334.229 390.376 334.525 390.376 334.893C390.376 335.262 390.256 335.566 390.016 335.806C389.776 336.038 389.48 336.154 389.128 336.154ZM396.293 336.205C395.555 336.205 394.895 336.025 394.312 335.665C393.729 335.296 393.27 334.765 392.936 334.07C392.601 333.376 392.434 332.535 392.434 331.549C392.434 330.563 392.601 329.723 392.936 329.028C393.27 328.334 393.729 327.806 394.312 327.446C394.895 327.077 395.555 326.893 396.293 326.893C397.039 326.893 397.699 327.077 398.273 327.446C398.856 327.806 399.315 328.334 399.65 329.028C399.984 329.723 400.151 330.563 400.151 331.549C400.151 332.535 399.984 333.376 399.65 334.07C399.315 334.765 398.856 335.296 398.273 335.665C397.699 336.025 397.039 336.205 396.293 336.205ZM396.293 334.443C396.644 334.443 396.949 334.344 397.206 334.147C397.472 333.95 397.677 333.637 397.823 333.208C397.977 332.78 398.055 332.227 398.055 331.549C398.055 330.872 397.977 330.319 397.823 329.89C397.677 329.461 397.472 329.148 397.206 328.951C396.949 328.754 396.644 328.655 396.293 328.655C395.95 328.655 395.645 328.754 395.379 328.951C395.122 329.148 394.916 329.461 394.762 329.89C394.616 330.319 394.543 330.872 394.543 331.549C394.543 332.227 394.616 332.78 394.762 333.208C394.916 333.637 395.122 333.95 395.379 334.147C395.645 334.344 395.95 334.443 396.293 334.443ZM403.749 336.051L409.897 327.047H411.427L405.279 336.051H403.749ZM404.533 331.909C404.096 331.909 403.71 331.811 403.376 331.613C403.041 331.408 402.776 331.12 402.578 330.752C402.39 330.374 402.295 329.933 402.295 329.427C402.295 328.921 402.39 328.484 402.578 328.115C402.776 327.746 403.041 327.459 403.376 327.253C403.71 327.047 404.096 326.945 404.533 326.945C404.971 326.945 405.356 327.047 405.691 327.253C406.025 327.459 406.287 327.746 406.475 328.115C406.664 328.484 406.758 328.921 406.758 329.427C406.758 329.933 406.664 330.374 406.475 330.752C406.287 331.12 406.025 331.408 405.691 331.613C405.356 331.811 404.971 331.909 404.533 331.909ZM404.533 330.855C404.816 330.855 405.043 330.739 405.215 330.507C405.386 330.267 405.472 329.907 405.472 329.427C405.472 328.947 405.386 328.591 405.215 328.359C405.043 328.119 404.816 327.999 404.533 327.999C404.259 327.999 404.032 328.119 403.852 328.359C403.68 328.591 403.594 328.947 403.594 329.427C403.594 329.899 403.68 330.254 403.852 330.494C404.032 330.735 404.259 330.855 404.533 330.855ZM410.643 336.154C410.214 336.154 409.828 336.055 409.485 335.858C409.151 335.652 408.889 335.365 408.701 334.996C408.512 334.619 408.418 334.177 408.418 333.671C408.418 333.165 408.512 332.728 408.701 332.359C408.889 331.991 409.151 331.703 409.485 331.498C409.828 331.292 410.214 331.189 410.643 331.189C411.089 331.189 411.479 331.292 411.813 331.498C412.148 331.703 412.409 331.991 412.598 332.359C412.786 332.728 412.881 333.165 412.881 333.671C412.881 334.177 412.786 334.619 412.598 334.996C412.409 335.365 412.148 335.652 411.813 335.858C411.479 336.055 411.089 336.154 410.643 336.154ZM410.643 335.099C410.926 335.099 411.153 334.983 411.324 334.752C411.496 334.512 411.582 334.152 411.582 333.671C411.582 333.2 411.496 332.844 411.324 332.604C411.153 332.364 410.926 332.244 410.643 332.244C410.368 332.244 410.141 332.364 409.961 332.604C409.79 332.835 409.704 333.191 409.704 333.671C409.704 334.152 409.79 334.512 409.961 334.752C410.141 334.983 410.368 335.099 410.643 335.099Z" fill="#51FFAB"/>
<path d="M299.716 336.432C297.746 336.432 296.111 335.992 294.811 335.112C293.511 334.223 292.829 332.847 292.764 330.981H296.483C296.717 332.386 297.75 333.089 299.583 333.089C301.489 333.089 302.442 332.427 302.442 331.102C302.442 330.424 302.183 329.903 301.666 329.54C301.158 329.177 300.463 328.995 299.583 328.995H298.106V325.894H299.583C300.423 325.894 301.065 325.709 301.509 325.337C301.961 324.966 302.187 324.493 302.187 323.92C302.187 323.339 301.965 322.862 301.521 322.491C301.077 322.111 300.431 321.922 299.583 321.922C298.856 321.922 298.227 322.095 297.694 322.443C297.169 322.79 296.85 323.319 296.737 324.029H293.019C293.204 322.261 293.891 320.912 295.078 319.984C296.265 319.047 297.811 318.579 299.716 318.579C301.549 318.579 303.039 319.027 304.186 319.923C305.34 320.811 305.918 322.019 305.918 323.545C305.918 325.41 305.005 326.69 303.18 327.384C304.093 327.715 304.815 328.228 305.348 328.922C305.889 329.617 306.16 330.469 306.16 331.478C306.16 333.052 305.566 334.272 304.379 335.136C303.192 336 301.638 336.432 299.716 336.432ZM311.429 335.741C311.049 336.121 310.577 336.311 310.011 336.311C309.454 336.311 308.986 336.121 308.606 335.741C308.227 335.362 308.037 334.893 308.037 334.336C308.037 333.771 308.227 333.299 308.606 332.919C308.986 332.54 309.454 332.35 310.011 332.35C310.577 332.35 311.049 332.54 311.429 332.919C311.808 333.299 311.998 333.771 311.998 334.336C311.998 334.893 311.808 335.362 311.429 335.741ZM320.452 336.432C318.716 336.432 317.246 335.963 316.043 335.027C314.848 334.082 314.125 332.734 313.875 330.981H317.593C317.723 331.611 318.025 332.12 318.502 332.507C318.986 332.895 319.592 333.089 320.319 333.089C321.296 333.089 322.034 332.839 322.535 332.338C323.044 331.829 323.298 331.127 323.298 330.23C323.298 329.439 323.036 328.769 322.511 328.22C321.994 327.663 321.263 327.384 320.319 327.384C319.196 327.384 318.328 327.84 317.715 328.753H314.117L315.111 318.821H326.023V322.055H318.211L317.848 325.277H317.969C318.776 324.695 319.85 324.405 321.191 324.405C322.894 324.405 324.291 324.958 325.381 326.064C326.471 327.162 327.016 328.595 327.016 330.364C327.016 332.116 326.443 333.565 325.297 334.712C324.15 335.858 322.535 336.432 320.452 336.432ZM342.798 336.432C340.287 336.432 338.293 335.648 336.815 334.082C335.345 332.507 334.611 330.315 334.611 327.505C334.611 324.695 335.345 322.507 336.815 320.941C338.284 319.366 340.279 318.579 342.798 318.579C344.881 318.579 346.545 319.088 347.788 320.105C349.04 321.122 349.896 322.515 350.356 324.284H346.516C345.806 322.709 344.566 321.922 342.798 321.922C341.442 321.922 340.356 322.402 339.54 323.363C338.733 324.324 338.329 325.705 338.329 327.505C338.329 329.306 338.733 330.687 339.54 331.648C340.356 332.608 341.442 333.089 342.798 333.089C344.946 333.089 346.266 332.015 346.759 329.867H342.423V326.888H350.61V328.256C350.61 330.767 349.92 332.758 348.539 334.227C347.158 335.697 345.245 336.432 342.798 336.432ZM357.054 332.968H361.269C361.947 332.968 362.468 332.794 362.831 332.447C363.194 332.1 363.376 331.611 363.376 330.981C363.376 330.352 363.194 329.863 362.831 329.516C362.468 329.169 361.947 328.995 361.269 328.995H357.054V332.968ZM353.323 336.189V318.821H361.511C363.231 318.821 364.551 319.253 365.472 320.117C366.392 320.973 366.852 322.156 366.852 323.666C366.852 324.489 366.638 325.232 366.21 325.894C365.79 326.557 365.258 327.053 364.612 327.384C365.338 327.715 365.932 328.224 366.392 328.91C366.86 329.597 367.094 330.412 367.094 331.357C367.094 332.859 366.634 334.042 365.714 334.906C364.801 335.762 363.485 336.189 361.765 336.189H353.323ZM357.054 326.016H361.014C361.693 326.016 362.213 325.842 362.577 325.495C362.94 325.148 363.122 324.663 363.122 324.041C363.122 323.411 362.94 322.923 362.577 322.576C362.213 322.229 361.693 322.055 361.014 322.055H357.054V326.016Z" fill="white"/>
<path opacity="0.5" d="M300.585 483.963V475.603L301.318 476.362H298.681V474.96H302.257V483.963H300.585Z" fill="white"/>
<path opacity="0.5" d="M334.86 483.963V482.844L338.436 479.448C338.736 479.165 338.959 478.917 339.105 478.702C339.251 478.488 339.345 478.291 339.388 478.111C339.439 477.922 339.465 477.746 339.465 477.583C339.465 477.172 339.323 476.855 339.04 476.632C338.757 476.4 338.342 476.284 337.793 476.284C337.356 476.284 336.957 476.362 336.597 476.516C336.245 476.67 335.941 476.906 335.683 477.223L334.513 476.323C334.865 475.851 335.336 475.487 335.928 475.23C336.528 474.964 337.197 474.831 337.934 474.831C338.586 474.831 339.152 474.938 339.632 475.153C340.121 475.358 340.494 475.654 340.751 476.04C341.017 476.426 341.15 476.885 341.15 477.416C341.15 477.708 341.111 477.999 341.034 478.291C340.957 478.574 340.811 478.874 340.597 479.191C340.382 479.508 340.069 479.864 339.658 480.259L336.584 483.178L336.237 482.548H341.497V483.963H334.86Z" fill="white"/>
<path opacity="0.5" d="M381.903 484.092C381.269 484.092 380.647 484.001 380.038 483.821C379.438 483.633 378.932 483.376 378.521 483.05L379.241 481.751C379.567 482.016 379.961 482.231 380.424 482.394C380.887 482.557 381.372 482.638 381.878 482.638C382.478 482.638 382.945 482.518 383.28 482.278C383.614 482.029 383.781 481.695 383.781 481.275C383.781 480.863 383.627 480.537 383.318 480.297C383.009 480.057 382.512 479.937 381.826 479.937H381.003V478.792L383.575 475.731L383.794 476.362H378.958V474.96H385.093V476.079L382.521 479.14L381.646 478.625H382.148C383.254 478.625 384.081 478.874 384.63 479.371C385.187 479.86 385.466 480.49 385.466 481.262C385.466 481.768 385.337 482.235 385.08 482.664C384.823 483.093 384.429 483.44 383.897 483.706C383.374 483.963 382.709 484.092 381.903 484.092Z" fill="white"/>
<path opacity="0.5" d="M423.043 481.918V480.76L427.48 474.96H429.268L424.895 480.76L424.059 480.503H431.197V481.918H423.043ZM427.982 483.963V481.918L428.033 480.503V478.69H429.602V483.963H427.982Z" fill="white"/>
<path opacity="0.5" d="M466.577 484.092C465.943 484.092 465.321 484.001 464.712 483.821C464.112 483.633 463.606 483.376 463.195 483.05L463.902 481.751C464.228 482.016 464.622 482.231 465.085 482.394C465.557 482.557 466.046 482.638 466.551 482.638C467.143 482.638 467.606 482.514 467.941 482.265C468.284 482.016 468.455 481.682 468.455 481.262C468.455 480.979 468.382 480.73 468.236 480.516C468.099 480.302 467.851 480.139 467.49 480.027C467.139 479.916 466.654 479.86 466.037 479.86H463.863L464.326 474.96H469.613V476.362H464.944L465.818 475.564L465.471 479.23L464.596 478.445H466.41C467.302 478.445 468.018 478.565 468.558 478.805C469.107 479.037 469.505 479.363 469.754 479.783C470.011 480.194 470.14 480.666 470.14 481.198C470.14 481.721 470.011 482.201 469.754 482.638C469.497 483.075 469.102 483.427 468.571 483.693C468.048 483.959 467.383 484.092 466.577 484.092Z" fill="white"/>
<path opacity="0.5" d="M511.588 484.092C510.773 484.092 510.075 483.92 509.492 483.577C508.909 483.225 508.463 482.72 508.154 482.059C507.845 481.399 507.691 480.585 507.691 479.616C507.691 478.587 507.875 477.716 508.244 477.005C508.621 476.293 509.14 475.753 509.8 475.384C510.469 475.015 511.237 474.831 512.103 474.831C512.557 474.831 512.99 474.878 513.402 474.972C513.822 475.067 514.178 475.213 514.469 475.41L513.852 476.67C513.603 476.507 513.333 476.396 513.041 476.336C512.758 476.267 512.458 476.233 512.141 476.233C511.292 476.233 510.619 476.494 510.122 477.017C509.624 477.541 509.376 478.312 509.376 479.333C509.376 479.496 509.38 479.688 509.389 479.911C509.397 480.126 509.427 480.344 509.479 480.567L508.964 480.001C509.119 479.65 509.329 479.358 509.594 479.127C509.869 478.887 510.19 478.707 510.559 478.587C510.936 478.467 511.344 478.407 511.781 478.407C512.373 478.407 512.9 478.522 513.363 478.754C513.826 478.977 514.195 479.298 514.469 479.718C514.744 480.13 514.881 480.615 514.881 481.172C514.881 481.764 514.735 482.278 514.443 482.715C514.152 483.153 513.757 483.491 513.26 483.731C512.763 483.971 512.205 484.092 511.588 484.092ZM511.498 482.78C511.841 482.78 512.145 482.72 512.411 482.6C512.677 482.471 512.883 482.291 513.029 482.059C513.183 481.828 513.26 481.558 513.26 481.249C513.26 480.777 513.097 480.404 512.771 480.13C512.446 479.856 512.008 479.718 511.459 479.718C511.099 479.718 510.782 479.787 510.508 479.924C510.242 480.053 510.027 480.233 509.865 480.464C509.71 480.696 509.633 480.962 509.633 481.262C509.633 481.536 509.706 481.789 509.852 482.021C509.997 482.252 510.208 482.437 510.482 482.574C510.765 482.711 511.104 482.78 511.498 482.78Z" fill="white"/>
<path opacity="0.5" d="M553.293 483.963L557.01 475.628L557.448 476.374H552.342L553.139 475.564V477.905H551.583V474.96H558.58V476.079L555.081 483.963H553.293Z" fill="white"/>
<path d="M302.629 288.571H308.246C308.431 288.571 308.609 288.497 308.74 288.366C308.871 288.235 308.945 288.057 308.945 287.872C308.945 286.197 308.279 284.59 307.095 283.406C305.91 282.221 304.304 281.556 302.629 281.556C302.443 281.556 302.265 281.63 302.134 281.761C302.003 281.892 301.93 282.07 301.93 282.255V287.872C301.93 288.057 302.003 288.235 302.134 288.366C302.265 288.497 302.443 288.571 302.629 288.571Z" fill="#4FDCC7"/>
<path d="M308.17 289.978H301.306C301.205 289.978 301.106 289.958 301.013 289.919C300.92 289.881 300.835 289.825 300.764 289.753C300.693 289.682 300.637 289.598 300.598 289.505C300.559 289.412 300.54 289.312 300.54 289.211V282.331C300.54 282.222 300.518 282.114 300.474 282.014C300.43 281.914 300.365 281.824 300.284 281.751C300.203 281.678 300.107 281.623 300.003 281.589C299.899 281.556 299.789 281.544 299.681 281.556C298.1 281.724 296.599 282.336 295.351 283.321C294.103 284.307 293.16 285.625 292.63 287.124C292.1 288.623 292.005 290.241 292.357 291.792C292.708 293.342 293.491 294.761 294.615 295.886C295.739 297.01 297.159 297.793 298.709 298.144C300.26 298.495 301.878 298.401 303.377 297.871C304.876 297.341 306.194 296.397 307.179 295.15C308.164 293.902 308.776 292.401 308.944 290.82C308.954 290.713 308.941 290.605 308.906 290.503C308.871 290.401 308.816 290.307 308.743 290.228C308.67 290.149 308.581 290.086 308.482 290.043C308.384 289.999 308.277 289.977 308.17 289.978Z" fill="#4FDCC7"/>
<path d="M298.578 404.498L337.761 375.184L365.419 366.024H394.46L421.657 371.978L447.471 368.772L476.051 352.283L500.944 322.969L523.531 307.396L560.409 294.571V299.61V453.507H298.578V404.498Z" fill="url(#paint10_linear_1902_702)"/>
<path d="M299.498 406.194L324.08 385.642C343.897 369.074 370.328 362.74 395.503 368.527V368.527L407.442 370.459C438.337 375.456 469.366 362.325 487.289 336.668V336.668C496.624 323.304 509.75 313.046 524.974 307.218L560.41 293.653" stroke="#50EED7" stroke-width="3.67482"/>
<rect opacity="0.3" width="276.53" height="11.0245" rx="5.51223" transform="matrix(-1 0 0 1 378.508 66.7324)" fill="#50EED7"/>
<rect x="101.059" y="66.4893" width="45.0165" height="11.0245" rx="5.51223" fill="#50EED7"/>
<rect x="236.109" y="60.3008" width="7.34964" height="22.0489" rx="3.67482" fill="#50EED7"/>
<g filter="url(#filter3_d_1902_702)">
<circle cx="142.859" cy="71.7858" r="6.89029" fill="white"/>
<circle cx="142.859" cy="71.7858" r="5.97158" stroke="#50EED7" stroke-opacity="0.2" stroke-width="1.83741"/>
</g>
<mask id="mask0_1902_702" style="mask-type:alpha" maskUnits="userSpaceOnUse" x="101" y="20" width="22" height="22">
<rect x="101.977" y="20.7969" width="20.2115" height="20.2115" fill="#D9D9D9"/>
</mask>
<g mask="url(#mask0_1902_702)">
<path d="M105.344 35.1133V36.7976H118.819V35.1133H105.344ZM105.344 25.8497H107.197C107.127 25.7233 107.081 25.59 107.06 25.4496C107.039 25.3093 107.029 25.1619 107.029 25.0075C107.029 24.3057 107.274 23.7092 107.766 23.218C108.257 22.7267 108.853 22.4811 109.555 22.4811C109.976 22.4811 110.366 22.5899 110.724 22.8074C111.082 23.025 111.394 23.2952 111.661 23.618L112.082 24.1654L112.503 23.618C112.755 23.2811 113.064 23.0074 113.429 22.7969C113.794 22.5863 114.187 22.4811 114.608 22.4811C115.31 22.4811 115.906 22.7267 116.398 23.218C116.889 23.7092 117.134 24.3057 117.134 25.0075C117.134 25.1619 117.124 25.3093 117.103 25.4496C117.082 25.59 117.036 25.7233 116.966 25.8497H118.819C119.282 25.8497 119.678 26.0146 120.008 26.3444C120.338 26.6743 120.503 27.0708 120.503 27.534V36.7976C120.503 37.2607 120.338 37.6573 120.008 37.9871C119.678 38.3169 119.282 38.4819 118.819 38.4819H105.344C104.881 38.4819 104.485 38.3169 104.155 37.9871C103.825 37.6573 103.66 37.2607 103.66 36.7976V27.534C103.66 27.0708 103.825 26.6743 104.155 26.3444C104.485 26.0146 104.881 25.8497 105.344 25.8497ZM105.344 32.5868H118.819V27.534H114.524L116.292 29.9341L114.945 30.9025L112.082 27.0287L109.218 30.9025L107.871 29.9341L109.597 27.534H105.344V32.5868ZM109.555 25.8497C109.794 25.8497 109.994 25.769 110.155 25.6075C110.317 25.4461 110.397 25.2461 110.397 25.0075C110.397 24.7689 110.317 24.5689 110.155 24.4075C109.994 24.2461 109.794 24.1654 109.555 24.1654C109.317 24.1654 109.117 24.2461 108.955 24.4075C108.794 24.5689 108.713 24.7689 108.713 25.0075C108.713 25.2461 108.794 25.4461 108.955 25.6075C109.117 25.769 109.317 25.8497 109.555 25.8497ZM114.608 25.8497C114.847 25.8497 115.047 25.769 115.208 25.6075C115.369 25.4461 115.45 25.2461 115.45 25.0075C115.45 24.7689 115.369 24.5689 115.208 24.4075C115.047 24.2461 114.847 24.1654 114.608 24.1654C114.369 24.1654 114.169 24.2461 114.008 24.4075C113.847 24.5689 113.766 24.7689 113.766 25.0075C113.766 25.2461 113.847 25.4461 114.008 25.6075C114.169 25.769 114.369 25.8497 114.608 25.8497Z" fill="#50EED7"/>
</g>
<path d="M129.532 33.5527V25.8356H132.873C133.563 25.8356 134.159 25.9495 134.659 26.1774C135.158 26.3979 135.544 26.7176 135.816 27.1365C136.088 27.5554 136.224 28.0552 136.224 28.6358C136.224 29.2091 136.088 29.7052 135.816 30.1241C135.544 30.5357 135.158 30.8517 134.659 31.0722C134.159 31.2927 133.563 31.403 132.873 31.403H130.524L131.318 30.6202V33.5527H129.532ZM134.438 33.5527L132.509 30.7525H134.416L136.367 33.5527H134.438ZM131.318 30.8187L130.524 29.9808H132.773C133.325 29.9808 133.736 29.8632 134.008 29.628C134.28 29.3855 134.416 29.0548 134.416 28.6358C134.416 28.2095 134.28 27.8788 134.008 27.6436C133.736 27.4084 133.325 27.2908 132.773 27.2908H130.524L131.318 26.442V30.8187ZM140.384 28.9445H144.099V30.3336H140.384V28.9445ZM140.516 32.1196H144.717V33.5527H138.742V25.8356H144.573V27.2688H140.516V32.1196ZM148.985 33.5527L146.46 25.8356H148.312L150.506 32.6708H149.58L151.873 25.8356H153.527L155.732 32.6708H154.839L157.088 25.8356H158.796L156.272 33.5527H154.354L152.402 27.5554H152.909L150.903 33.5527H148.985ZM159.623 33.5527L163.063 25.8356H164.827L168.278 33.5527H166.403L163.581 26.7396H164.287L161.453 33.5527H159.623ZM161.343 31.8991L161.817 30.5431H165.786L166.271 31.8991H161.343ZM170.181 33.5527V25.8356H173.521C174.212 25.8356 174.807 25.9495 175.307 26.1774C175.807 26.3979 176.193 26.7176 176.465 27.1365C176.736 27.5554 176.872 28.0552 176.872 28.6358C176.872 29.2091 176.736 29.7052 176.465 30.1241C176.193 30.5357 175.807 30.8517 175.307 31.0722C174.807 31.2927 174.212 31.403 173.521 31.403H171.173L171.967 30.6202V33.5527H170.181ZM175.086 33.5527L173.157 30.7525H175.064L177.016 33.5527H175.086ZM171.967 30.8187L171.173 29.9808H173.422C173.973 29.9808 174.385 29.8632 174.657 29.628C174.928 29.3855 175.064 29.0548 175.064 28.6358C175.064 28.2095 174.928 27.8788 174.657 27.6436C174.385 27.4084 173.973 27.2908 173.422 27.2908H171.173L171.967 26.442V30.8187ZM179.39 33.5527V25.8356H182.896C183.734 25.8356 184.472 25.9973 185.112 26.3207C185.751 26.6367 186.251 27.0814 186.611 27.6546C186.971 28.2279 187.151 28.9078 187.151 29.6942C187.151 30.4732 186.971 31.1531 186.611 31.7337C186.251 32.307 185.751 32.7553 185.112 33.0787C184.472 33.3947 183.734 33.5527 182.896 33.5527H179.39ZM181.176 32.0865H182.807C183.322 32.0865 183.767 31.9909 184.141 31.7998C184.524 31.6014 184.818 31.3221 185.023 30.962C185.237 30.6019 185.343 30.1793 185.343 29.6942C185.343 29.2017 185.237 28.7791 185.023 28.4264C184.818 28.0662 184.524 27.7906 184.141 27.5995C183.767 27.4011 183.322 27.3019 182.807 27.3019H181.176V32.0865ZM192.136 33.685C191.519 33.685 190.927 33.6042 190.361 33.4425C189.795 33.2734 189.34 33.0566 188.994 32.792L189.6 31.4471C189.931 31.6823 190.321 31.877 190.769 32.0314C191.225 32.1784 191.684 32.2518 192.147 32.2518C192.5 32.2518 192.783 32.2188 192.996 32.1526C193.216 32.0791 193.378 31.9799 193.481 31.855C193.584 31.73 193.635 31.5867 193.635 31.425C193.635 31.2192 193.555 31.0575 193.393 30.9399C193.231 30.815 193.018 30.7158 192.753 30.6423C192.489 30.5614 192.195 30.4879 191.871 30.4218C191.555 30.3483 191.236 30.2601 190.912 30.1572C190.596 30.0543 190.306 29.922 190.041 29.7603C189.777 29.5986 189.56 29.3855 189.391 29.1209C189.229 28.8563 189.148 28.5182 189.148 28.1067C189.148 27.6657 189.266 27.2651 189.501 26.905C189.744 26.5375 190.104 26.2472 190.582 26.0341C191.067 25.8136 191.673 25.7033 192.401 25.7033C192.886 25.7033 193.363 25.7621 193.834 25.8797C194.304 25.99 194.719 26.159 195.08 26.3868L194.528 27.7428C194.168 27.5371 193.808 27.3864 193.448 27.2908C193.088 27.1879 192.735 27.1365 192.39 27.1365C192.044 27.1365 191.761 27.1769 191.541 27.2578C191.32 27.3386 191.162 27.4452 191.067 27.5775C190.971 27.7024 190.923 27.8494 190.923 28.0185C190.923 28.2169 191.004 28.3786 191.166 28.5035C191.328 28.6211 191.541 28.7167 191.805 28.7902C192.07 28.8637 192.36 28.9372 192.676 29.0107C193 29.0842 193.319 29.1687 193.635 29.2642C193.959 29.3598 194.253 29.4884 194.517 29.6501C194.782 29.8118 194.995 30.0249 195.157 30.2895C195.326 30.5541 195.41 30.8885 195.41 31.2927C195.41 31.7263 195.289 32.1232 195.047 32.4834C194.804 32.8435 194.44 33.1338 193.955 33.3543C193.477 33.5748 192.871 33.685 192.136 33.685Z" fill="white"/>
<path d="M228.134 103.507C227.597 103.507 227.064 103.437 226.535 103.298C226.013 103.151 225.565 102.945 225.19 102.68L225.896 101.313C226.19 101.527 226.528 101.696 226.91 101.821C227.3 101.945 227.693 102.008 228.09 102.008C228.538 102.008 228.891 101.92 229.148 101.743C229.405 101.567 229.534 101.321 229.534 101.005C229.534 100.806 229.483 100.63 229.38 100.476C229.277 100.321 229.093 100.204 228.828 100.123C228.571 100.042 228.207 100.002 227.737 100.002H225.764L226.16 95.6579H230.868V97.0911H226.8L227.726 96.2752L227.45 99.3731L226.524 98.5573H228.156C228.92 98.5573 229.534 98.6639 229.997 98.877C230.467 99.0828 230.809 99.3658 231.022 99.7259C231.235 100.086 231.342 100.494 231.342 100.95C231.342 101.405 231.228 101.828 231 102.217C230.772 102.6 230.42 102.912 229.942 103.155C229.471 103.39 228.869 103.507 228.134 103.507ZM241.605 103.507C240.995 103.507 240.433 103.412 239.918 103.221C239.411 103.022 238.966 102.743 238.584 102.383C238.209 102.023 237.915 101.6 237.702 101.115C237.497 100.63 237.394 100.097 237.394 99.5164C237.394 98.9358 237.497 98.403 237.702 97.9179C237.915 97.4328 238.213 97.0102 238.595 96.6501C238.977 96.2899 239.426 96.0143 239.94 95.8232C240.455 95.6248 241.021 95.5256 241.638 95.5256C242.322 95.5256 242.935 95.6395 243.479 95.8673C244.03 96.0952 244.493 96.4259 244.868 96.8595L243.722 97.9179C243.442 97.6239 243.137 97.4071 242.807 97.2675C242.476 97.1205 242.116 97.047 241.726 97.047C241.351 97.047 241.01 97.1058 240.701 97.2234C240.392 97.3409 240.124 97.51 239.896 97.7305C239.676 97.951 239.503 98.2119 239.378 98.5132C239.26 98.8145 239.202 99.149 239.202 99.5164C239.202 99.8766 239.26 100.207 239.378 100.509C239.503 100.81 239.676 101.075 239.896 101.302C240.124 101.523 240.389 101.692 240.69 101.81C240.999 101.927 241.337 101.986 241.704 101.986C242.057 101.986 242.399 101.931 242.729 101.821C243.068 101.703 243.395 101.508 243.711 101.236L244.725 102.526C244.306 102.842 243.817 103.085 243.259 103.254C242.707 103.423 242.156 103.507 241.605 103.507ZM243.093 102.295V99.3952H244.725V102.526L243.093 102.295ZM247.486 103.375V95.6579H251.257C252.227 95.6579 252.954 95.8416 253.44 96.2091C253.932 96.5766 254.178 97.0617 254.178 97.6643C254.178 98.0686 254.079 98.4213 253.881 98.7227C253.682 99.0167 253.41 99.2445 253.065 99.4062C252.719 99.5679 252.322 99.6487 251.874 99.6487L252.084 99.1967C252.569 99.1967 252.999 99.2776 253.373 99.4393C253.748 99.5936 254.039 99.8251 254.244 100.134C254.457 100.442 254.564 100.821 254.564 101.269C254.564 101.931 254.303 102.449 253.781 102.824C253.259 103.191 252.491 103.375 251.477 103.375H247.486ZM249.261 102.03H251.345C251.808 102.03 252.157 101.957 252.392 101.81C252.635 101.655 252.756 101.413 252.756 101.082C252.756 100.759 252.635 100.52 252.392 100.365C252.157 100.204 251.808 100.123 251.345 100.123H249.129V98.8219H251.036C251.47 98.8219 251.801 98.7484 252.028 98.6014C252.264 98.4471 252.381 98.2156 252.381 97.9069C252.381 97.6055 252.264 97.3814 252.028 97.2344C251.801 97.08 251.47 97.0029 251.036 97.0029H249.261V102.03Z" fill="white"/>
<mask id="mask1_1902_702" style="mask-type:alpha" maskUnits="userSpaceOnUse" x="229" y="111" width="21" height="21">
<rect x="229.676" y="111.749" width="20.2115" height="20.2115" fill="#D9D9D9"/>
</mask>
<g mask="url(#mask1_1902_702)">
<path d="M233.044 126.066V127.75H246.518V126.066H233.044ZM233.044 116.802H234.896C234.826 116.676 234.781 116.542 234.76 116.402C234.738 116.262 234.728 116.114 234.728 115.96C234.728 115.258 234.974 114.661 235.465 114.17C235.956 113.679 236.553 113.433 237.254 113.433C237.675 113.433 238.065 113.542 238.423 113.76C238.781 113.977 239.093 114.247 239.36 114.57L239.781 115.118L240.202 114.57C240.455 114.233 240.763 113.96 241.128 113.749C241.493 113.539 241.886 113.433 242.307 113.433C243.009 113.433 243.606 113.679 244.097 114.17C244.588 114.661 244.834 115.258 244.834 115.96C244.834 116.114 244.823 116.262 244.802 116.402C244.781 116.542 244.735 116.676 244.665 116.802H246.518C246.981 116.802 247.378 116.967 247.708 117.297C248.037 117.627 248.202 118.023 248.202 118.486V127.75C248.202 128.213 248.037 128.61 247.708 128.939C247.378 129.269 246.981 129.434 246.518 129.434H233.044C232.58 129.434 232.184 129.269 231.854 128.939C231.524 128.61 231.359 128.213 231.359 127.75V118.486C231.359 118.023 231.524 117.627 231.854 117.297C232.184 116.967 232.58 116.802 233.044 116.802ZM233.044 123.539H246.518V118.486H242.223L243.992 120.886L242.644 121.855L239.781 117.981L236.918 121.855L235.57 120.886L237.297 118.486H233.044V123.539ZM237.254 116.802C237.493 116.802 237.693 116.721 237.854 116.56C238.016 116.398 238.097 116.198 238.097 115.96C238.097 115.721 238.016 115.521 237.854 115.36C237.693 115.198 237.493 115.118 237.254 115.118C237.016 115.118 236.816 115.198 236.654 115.36C236.493 115.521 236.412 115.721 236.412 115.96C236.412 116.198 236.493 116.398 236.654 116.56C236.816 116.721 237.016 116.802 237.254 116.802ZM242.307 116.802C242.546 116.802 242.746 116.721 242.907 116.56C243.069 116.398 243.149 116.198 243.149 115.96C243.149 115.721 243.069 115.521 242.907 115.36C242.746 115.198 242.546 115.118 242.307 115.118C242.069 115.118 241.869 115.198 241.707 115.36C241.546 115.521 241.465 115.721 241.465 115.96C241.465 116.198 241.546 116.398 241.707 116.56C241.869 116.721 242.069 116.802 242.307 116.802Z" fill="white"/>
</g>
<path d="M111.77 95.1356C111.323 95.1356 110.879 95.0775 110.438 94.9611C109.997 94.8386 109.623 94.6671 109.317 94.4466L109.896 93.3074C110.141 93.485 110.426 93.6259 110.75 93.73C111.075 93.8341 111.402 93.8862 111.733 93.8862C112.107 93.8862 112.401 93.8127 112.615 93.6657C112.829 93.5187 112.937 93.3166 112.937 93.0594C112.937 92.8144 112.842 92.6214 112.652 92.4806C112.462 92.3397 112.156 92.2693 111.733 92.2693H111.053V91.2863L112.845 89.2559L113.01 89.7888H109.639V88.5945H114.14V89.5591L112.358 91.5894L111.605 91.1576H112.036C112.826 91.1576 113.424 91.3353 113.828 91.6905C114.232 92.0457 114.434 92.502 114.434 93.0594C114.434 93.4207 114.339 93.7606 114.149 94.0791C113.96 94.3915 113.669 94.6457 113.277 94.8416C112.885 95.0376 112.382 95.1356 111.77 95.1356ZM123.07 95.1356C122.562 95.1356 122.093 95.056 121.664 94.8968C121.242 94.7314 120.871 94.4987 120.553 94.1986C120.24 93.8984 119.995 93.5463 119.818 93.142C119.646 92.7378 119.561 92.2938 119.561 91.8099C119.561 91.3261 119.646 90.882 119.818 90.4778C119.995 90.0736 120.243 89.7214 120.562 89.4213C120.88 89.1212 121.254 88.8915 121.683 88.7323C122.111 88.5669 122.583 88.4842 123.098 88.4842C123.667 88.4842 124.179 88.5791 124.632 88.769C125.091 88.9589 125.477 89.2345 125.789 89.5958L124.834 90.4778C124.601 90.2328 124.347 90.0521 124.071 89.9358C123.796 89.8133 123.496 89.752 123.171 89.752C122.859 89.752 122.574 89.801 122.317 89.899C122.059 89.997 121.836 90.1379 121.646 90.3216C121.462 90.5054 121.318 90.7228 121.214 90.9739C121.116 91.225 121.067 91.5037 121.067 91.8099C121.067 92.11 121.116 92.3856 121.214 92.6368C121.318 92.8879 121.462 93.1084 121.646 93.2982C121.836 93.482 122.056 93.6228 122.307 93.7208C122.565 93.8188 122.846 93.8678 123.153 93.8678C123.447 93.8678 123.731 93.8219 124.007 93.73C124.289 93.632 124.561 93.4697 124.825 93.2431L125.67 94.318C125.321 94.5813 124.914 94.7835 124.448 94.9243C123.989 95.0652 123.529 95.1356 123.07 95.1356ZM124.31 94.1251V91.7089H125.67V94.318L124.31 94.1251ZM127.971 95.0254V88.5945H131.113C131.922 88.5945 132.528 88.7476 132.932 89.0538C133.343 89.36 133.548 89.7643 133.548 90.2665C133.548 90.6034 133.465 90.8973 133.3 91.1485C133.134 91.3934 132.908 91.5833 132.62 91.7181C132.332 91.8528 132.001 91.9202 131.628 91.9202L131.802 91.5435C132.206 91.5435 132.565 91.6109 132.877 91.7456C133.189 91.8742 133.431 92.0672 133.603 92.3244C133.78 92.5816 133.869 92.8971 133.869 93.2707C133.869 93.8219 133.652 94.2537 133.217 94.566C132.782 94.8723 132.142 95.0254 131.297 95.0254H127.971ZM129.45 93.9046H131.187C131.572 93.9046 131.863 93.8433 132.059 93.7208C132.261 93.5922 132.363 93.3901 132.363 93.1145C132.363 92.845 132.261 92.6459 132.059 92.5173C131.863 92.3826 131.572 92.3152 131.187 92.3152H129.34V91.2311H130.929C131.291 91.2311 131.566 91.1699 131.756 91.0474C131.952 90.9188 132.05 90.7259 132.05 90.4686C132.05 90.2175 131.952 90.0307 131.756 89.9082C131.566 89.7796 131.291 89.7153 130.929 89.7153H129.45V93.9046ZM140.767 95.0254V89.8071H138.709V88.5945H144.314V89.8071H142.256V95.0254H140.767ZM149.067 95.1356C148.559 95.1356 148.087 95.053 147.652 94.8876C147.223 94.7222 146.85 94.4895 146.531 94.1894C146.219 93.8893 145.974 93.5371 145.796 93.1329C145.625 92.7286 145.539 92.2877 145.539 91.8099C145.539 91.3322 145.625 90.8912 145.796 90.487C145.974 90.0828 146.222 89.7306 146.54 89.4305C146.859 89.1304 147.233 88.8976 147.661 88.7323C148.09 88.5669 148.555 88.4842 149.058 88.4842C149.566 88.4842 150.032 88.5669 150.454 88.7323C150.883 88.8976 151.253 89.1304 151.566 89.4305C151.884 89.7306 152.132 90.0828 152.31 90.487C152.488 90.8851 152.576 91.3261 152.576 91.8099C152.576 92.2877 152.488 92.7317 152.31 93.142C152.132 93.5463 151.884 93.8984 151.566 94.1986C151.253 94.4925 150.883 94.7222 150.454 94.8876C150.032 95.053 149.569 95.1356 149.067 95.1356ZM149.058 93.8678C149.346 93.8678 149.609 93.8188 149.848 93.7208C150.093 93.6228 150.307 93.482 150.491 93.2982C150.675 93.1145 150.816 92.8971 150.913 92.6459C151.018 92.3948 151.07 92.1162 151.07 91.8099C151.07 91.5037 151.018 91.225 150.913 90.9739C150.816 90.7228 150.675 90.5054 150.491 90.3216C150.313 90.1379 150.102 89.997 149.857 89.899C149.612 89.801 149.346 89.752 149.058 89.752C148.77 89.752 148.503 89.801 148.258 89.899C148.02 89.997 147.808 90.1379 147.625 90.3216C147.441 90.5054 147.297 90.7228 147.193 90.9739C147.095 91.225 147.046 91.5037 147.046 91.8099C147.046 92.11 147.095 92.3887 147.193 92.6459C147.297 92.8971 147.438 93.1145 147.615 93.2982C147.799 93.482 148.013 93.6228 148.258 93.7208C148.503 93.8188 148.77 93.8678 149.058 93.8678ZM161.239 95.1356C160.731 95.1356 160.262 95.056 159.834 94.8968C159.411 94.7314 159.041 94.4987 158.722 94.1986C158.41 93.8984 158.165 93.5463 157.987 93.142C157.816 92.7378 157.73 92.2938 157.73 91.8099C157.73 91.3261 157.816 90.882 157.987 90.4778C158.165 90.0736 158.413 89.7214 158.731 89.4213C159.05 89.1212 159.423 88.8915 159.852 88.7323C160.281 88.5669 160.752 88.4842 161.267 88.4842C161.836 88.4842 162.348 88.5791 162.801 88.769C163.26 88.9589 163.646 89.2345 163.959 89.5958L163.003 90.4778C162.77 90.2328 162.516 90.0521 162.241 89.9358C161.965 89.8133 161.665 89.752 161.34 89.752C161.028 89.752 160.743 89.801 160.486 89.899C160.229 89.997 160.005 90.1379 159.815 90.3216C159.632 90.5054 159.488 90.7228 159.384 90.9739C159.286 91.225 159.237 91.5037 159.237 91.8099C159.237 92.11 159.286 92.3856 159.384 92.6368C159.488 92.8879 159.632 93.1084 159.815 93.2982C160.005 93.482 160.226 93.6228 160.477 93.7208C160.734 93.8188 161.016 93.8678 161.322 93.8678C161.616 93.8678 161.901 93.8219 162.176 93.73C162.458 93.632 162.731 93.4697 162.994 93.2431L163.839 94.318C163.49 94.5813 163.083 94.7835 162.617 94.9243C162.158 95.0652 161.699 95.1356 161.239 95.1356ZM162.48 94.1251V91.7089H163.839V94.318L162.48 94.1251ZM169.264 95.1356C168.756 95.1356 168.284 95.053 167.849 94.8876C167.421 94.7222 167.047 94.4895 166.728 94.1894C166.416 93.8893 166.171 93.5371 165.993 93.1329C165.822 92.7286 165.736 92.2877 165.736 91.8099C165.736 91.3322 165.822 90.8912 165.993 90.487C166.171 90.0828 166.419 89.7306 166.738 89.4305C167.056 89.1304 167.43 88.8976 167.858 88.7323C168.287 88.5669 168.753 88.4842 169.255 88.4842C169.763 88.4842 170.229 88.5669 170.651 88.7323C171.08 88.8976 171.451 89.1304 171.763 89.4305C172.081 89.7306 172.329 90.0828 172.507 90.487C172.685 90.8851 172.774 91.3261 172.774 91.8099C172.774 92.2877 172.685 92.7317 172.507 93.142C172.329 93.5463 172.081 93.8984 171.763 94.1986C171.451 94.4925 171.08 94.7222 170.651 94.8876C170.229 95.053 169.766 95.1356 169.264 95.1356ZM169.255 93.8678C169.543 93.8678 169.806 93.8188 170.045 93.7208C170.29 93.6228 170.504 93.482 170.688 93.2982C170.872 93.1145 171.013 92.8971 171.111 92.6459C171.215 92.3948 171.267 92.1162 171.267 91.8099C171.267 91.5037 171.215 91.225 171.111 90.9739C171.013 90.7228 170.872 90.5054 170.688 90.3216C170.51 90.1379 170.299 89.997 170.054 89.899C169.809 89.801 169.543 89.752 169.255 89.752C168.967 89.752 168.701 89.801 168.456 89.899C168.217 89.997 168.005 90.1379 167.822 90.3216C167.638 90.5054 167.494 90.7228 167.39 90.9739C167.292 91.225 167.243 91.5037 167.243 91.8099C167.243 92.11 167.292 92.3887 167.39 92.6459C167.494 92.8971 167.635 93.1145 167.812 93.2982C167.996 93.482 168.211 93.6228 168.456 93.7208C168.701 93.8188 168.967 93.8678 169.255 93.8678ZM174.811 92.7929L174.526 88.5945H176.235L175.95 92.7929H174.811ZM175.38 95.0989C175.123 95.0989 174.912 95.0162 174.746 94.8508C174.581 94.6855 174.498 94.4895 174.498 94.2629C174.498 94.0301 174.581 93.8372 174.746 93.6841C174.912 93.5248 175.123 93.4452 175.38 93.4452C175.644 93.4452 175.855 93.5248 176.014 93.6841C176.18 93.8372 176.262 94.0301 176.262 94.2629C176.262 94.4895 176.18 94.6855 176.014 94.8508C175.855 95.0162 175.644 95.0989 175.38 95.0989Z" fill="white"/>
<rect x="287.555" y="23.5527" width="82.6834" height="21.1302" rx="5.51223" fill="white"/>
<path d="M307.684 38.147V31.0729H310.747C311.38 31.0729 311.926 31.1774 312.384 31.3862C312.842 31.5883 313.195 31.8814 313.445 32.2654C313.694 32.6494 313.819 33.1076 313.819 33.6398C313.819 34.1653 313.694 34.6201 313.445 35.0041C313.195 35.3814 312.842 35.6711 312.384 35.8732C311.926 36.0753 311.38 36.1764 310.747 36.1764H308.594L309.322 35.4588V38.147H307.684ZM312.182 38.147L310.413 35.5801H312.161L313.95 38.147H312.182ZM309.322 35.6407L308.594 34.8727H310.656C311.161 34.8727 311.538 34.7649 311.787 34.5493C312.037 34.327 312.161 34.0238 312.161 33.6398C312.161 33.2491 312.037 32.9459 311.787 32.7303C311.538 32.5147 311.161 32.4069 310.656 32.4069H308.594L309.322 31.6288V35.6407ZM317.501 38.2278C316.881 38.2278 316.335 38.1065 315.864 37.864C315.399 37.6215 315.038 37.2914 314.782 36.8736C314.526 36.4492 314.398 35.9675 314.398 35.4285C314.398 34.8828 314.523 34.4011 314.772 33.9834C315.028 33.559 315.375 33.2288 315.813 32.993C316.251 32.7505 316.746 32.6292 317.299 32.6292C317.831 32.6292 318.309 32.7438 318.734 32.9728C319.165 33.1952 319.505 33.5185 319.754 33.943C320.004 34.3607 320.128 34.8626 320.128 35.4487C320.128 35.5094 320.125 35.5801 320.118 35.661C320.111 35.7351 320.105 35.8058 320.098 35.8732H315.682V34.9536H319.269L318.663 35.2264C318.663 34.9434 318.606 34.6975 318.491 34.4887C318.377 34.2798 318.218 34.1181 318.016 34.0036C317.814 33.8823 317.578 33.8217 317.309 33.8217C317.039 33.8217 316.8 33.8823 316.591 34.0036C316.389 34.1181 316.231 34.2832 316.116 34.4988C316.002 34.7076 315.944 34.9569 315.944 35.2466V35.4892C315.944 35.7856 316.008 36.0483 316.136 36.2774C316.271 36.4997 316.456 36.6715 316.692 36.7928C316.935 36.9073 317.218 36.9646 317.541 36.9646C317.831 36.9646 318.083 36.9208 318.299 36.8332C318.521 36.7456 318.724 36.6143 318.905 36.4391L319.744 37.3486C319.495 37.6316 319.182 37.8505 318.804 38.0055C318.427 38.1537 317.993 38.2278 317.501 38.2278ZM323.31 38.2278C322.798 38.2278 322.337 38.1133 321.926 37.8842C321.515 37.6484 321.188 37.3217 320.945 36.904C320.71 36.4863 320.592 35.9944 320.592 35.4285C320.592 34.8559 320.71 34.3607 320.945 33.943C321.188 33.5253 321.515 33.2019 321.926 32.9728C322.337 32.7438 322.798 32.6292 323.31 32.6292C323.768 32.6292 324.169 32.7303 324.513 32.9324C324.856 33.1345 325.122 33.4411 325.311 33.852C325.5 34.263 325.594 34.7885 325.594 35.4285C325.594 36.0618 325.503 36.5873 325.321 37.005C325.139 37.416 324.876 37.7225 324.533 37.9246C324.196 38.1268 323.788 38.2278 323.31 38.2278ZM323.583 36.9343C323.839 36.9343 324.071 36.8736 324.28 36.7524C324.489 36.6311 324.654 36.4593 324.775 36.237C324.903 36.0079 324.967 35.7384 324.967 35.4285C324.967 35.1119 324.903 34.8424 324.775 34.6201C324.654 34.3977 324.489 34.2259 324.28 34.1047C324.071 33.9834 323.839 33.9228 323.583 33.9228C323.32 33.9228 323.084 33.9834 322.876 34.1047C322.667 34.2259 322.498 34.3977 322.37 34.6201C322.249 34.8424 322.188 35.1119 322.188 35.4285C322.188 35.7384 322.249 36.0079 322.37 36.237C322.498 36.4593 322.667 36.6311 322.876 36.7524C323.084 36.8736 323.32 36.9343 323.583 36.9343ZM325.008 38.147V37.0353L325.038 35.4184L324.937 33.8116V30.6485H326.514V38.147H325.008ZM330.469 38.2278C329.849 38.2278 329.303 38.1065 328.832 37.864C328.367 37.6215 328.006 37.2914 327.75 36.8736C327.494 36.4492 327.366 35.9675 327.366 35.4285C327.366 34.8828 327.491 34.4011 327.74 33.9834C327.996 33.559 328.343 33.2288 328.781 32.993C329.219 32.7505 329.714 32.6292 330.267 32.6292C330.799 32.6292 331.277 32.7438 331.702 32.9728C332.133 33.1952 332.473 33.5185 332.722 33.943C332.972 34.3607 333.096 34.8626 333.096 35.4487C333.096 35.5094 333.093 35.5801 333.086 35.661C333.08 35.7351 333.073 35.8058 333.066 35.8732H328.65V34.9536H332.237L331.631 35.2264C331.631 34.9434 331.574 34.6975 331.459 34.4887C331.345 34.2798 331.186 34.1181 330.984 34.0036C330.782 33.8823 330.546 33.8217 330.277 33.8217C330.007 33.8217 329.768 33.8823 329.559 34.0036C329.357 34.1181 329.199 34.2832 329.084 34.4988C328.97 34.7076 328.913 34.9569 328.913 35.2466V35.4892C328.913 35.7856 328.977 36.0483 329.105 36.2774C329.239 36.4997 329.425 36.6715 329.66 36.7928C329.903 36.9073 330.186 36.9646 330.509 36.9646C330.799 36.9646 331.052 36.9208 331.267 36.8332C331.49 36.7456 331.692 36.6143 331.874 36.4391L332.712 37.3486C332.463 37.6316 332.15 37.8505 331.772 38.0055C331.395 38.1537 330.961 38.2278 330.469 38.2278ZM336.642 38.2278C336.022 38.2278 335.477 38.1065 335.005 37.864C334.54 37.6215 334.18 37.2914 333.924 36.8736C333.668 36.4492 333.54 35.9675 333.54 35.4285C333.54 34.8828 333.664 34.4011 333.913 33.9834C334.17 33.559 334.516 33.2288 334.954 32.993C335.392 32.7505 335.887 32.6292 336.44 32.6292C336.972 32.6292 337.451 32.7438 337.875 32.9728C338.306 33.1952 338.646 33.5185 338.896 33.943C339.145 34.3607 339.27 34.8626 339.27 35.4487C339.27 35.5094 339.266 35.5801 339.259 35.661C339.253 35.7351 339.246 35.8058 339.239 35.8732H334.823V34.9536H338.411L337.804 35.2264C337.804 34.9434 337.747 34.6975 337.632 34.4887C337.518 34.2798 337.36 34.1181 337.157 34.0036C336.955 33.8823 336.72 33.8217 336.45 33.8217C336.181 33.8217 335.941 33.8823 335.733 34.0036C335.53 34.1181 335.372 34.2832 335.258 34.4988C335.143 34.7076 335.086 34.9569 335.086 35.2466V35.4892C335.086 35.7856 335.15 36.0483 335.278 36.2774C335.413 36.4997 335.598 36.6715 335.834 36.7928C336.076 36.9073 336.359 36.9646 336.682 36.9646C336.972 36.9646 337.225 36.9208 337.44 36.8332C337.663 36.7456 337.865 36.6143 338.047 36.4391L338.886 37.3486C338.636 37.6316 338.323 37.8505 337.946 38.0055C337.568 38.1537 337.134 38.2278 336.642 38.2278ZM347.08 32.6292C347.511 32.6292 347.892 32.7168 348.222 32.892C348.559 33.0604 348.821 33.3232 349.01 33.6802C349.205 34.0306 349.303 34.482 349.303 35.0344V38.147H347.727V35.2769C347.727 34.839 347.636 34.5156 347.454 34.3068C347.272 34.0979 347.016 33.9935 346.686 33.9935C346.457 33.9935 346.251 34.0474 346.069 34.1552C345.887 34.2563 345.746 34.4112 345.645 34.6201C345.544 34.8289 345.493 35.095 345.493 35.4184V38.147H343.917V35.2769C343.917 34.839 343.826 34.5156 343.644 34.3068C343.469 34.0979 343.216 33.9935 342.886 33.9935C342.657 33.9935 342.451 34.0474 342.27 34.1552C342.088 34.2563 341.946 34.4112 341.845 34.6201C341.744 34.8289 341.694 35.095 341.694 35.4184V38.147H340.117V32.7101H341.623V34.1956L341.34 33.7611C341.528 33.3905 341.795 33.1109 342.138 32.9223C342.488 32.7269 342.886 32.6292 343.331 32.6292C343.829 32.6292 344.264 32.7572 344.634 33.0132C345.012 33.2625 345.261 33.6465 345.382 34.1653L344.826 34.0137C345.008 33.5893 345.298 33.2524 345.695 33.0031C346.1 32.7539 346.561 32.6292 347.08 32.6292Z" fill="#040426"/>
<defs>
<filter id="filter0_biiii_1902_702" x="3.93572" y="58.0929" width="115.316" height="118.454" filterUnits="userSpaceOnUse" color-interpolation-filters="sRGB">
<feFlood flood-opacity="0" result="BackgroundImageFix"/>
<feGaussianBlur in="BackgroundImageFix" stdDeviation="9.6464"/>
<feComposite in2="SourceAlpha" operator="in" result="effect1_backgroundBlur_1902_702"/>
<feBlend mode="normal" in="SourceGraphic" in2="effect1_backgroundBlur_1902_702" result="shape"/>
<feColorMatrix in="SourceAlpha" type="matrix" values="0 0 0 0 0 0 0 0 0 0 0 0 0 0 0 0 0 0 127 0" result="hardAlpha"/>
<feOffset dx="9.18705" dy="9.18705"/>
<feGaussianBlur stdDeviation="10.5651"/>
<feComposite in2="hardAlpha" operator="arithmetic" k2="-1" k3="1"/>
<feColorMatrix type="matrix" values="0 0 0 0 0.0509804 0 0 0 0 0.603922 0 0 0 0 1 0 0 0 0.18 0"/>
<feBlend mode="normal" in2="shape" result="effect2_innerShadow_1902_702"/>
<feColorMatrix in="SourceAlpha" type="matrix" values="0 0 0 0 0 0 0 0 0 0 0 0 0 0 0 0 0 0 127 0" result="hardAlpha"/>
<feOffset dy="1.83741"/>
<feGaussianBlur stdDeviation="2.75611"/>
<feComposite in2="hardAlpha" operator="arithmetic" k2="-1" k3="1"/>
<feColorMatrix type="matrix" values="0 0 0 0 1 0 0 0 0 1 0 0 0 0 1 0 0 0 0.05 0"/>
<feBlend mode="normal" in2="effect2_innerShadow_1902_702" result="effect3_innerShadow_1902_702"/>
<feColorMatrix in="SourceAlpha" type="matrix" values="0 0 0 0 0 0 0 0 0 0 0 0 0 0 0 0 0 0 127 0" result="hardAlpha"/>
<feOffset dy="0.918705"/>
<feComposite in2="hardAlpha" operator="arithmetic" k2="-1" k3="1"/>
<feColorMatrix type="matrix" values="0 0 0 0 1 0 0 0 0 1 0 0 0 0 1 0 0 0 0.05 0"/>
<feBlend mode="normal" in2="effect3_innerShadow_1902_702" result="effect4_innerShadow_1902_702"/>
<feColorMatrix in="SourceAlpha" type="matrix" values="0 0 0 0 0 0 0 0 0 0 0 0 0 0 0 0 0 0 127 0" result="hardAlpha"/>
<feOffset dy="-9.18705"/>
<feGaussianBlur stdDeviation="4.59352"/>
<feComposite in2="hardAlpha" operator="arithmetic" k2="-1" k3="1"/>
<feColorMatrix type="matrix" values="0 0 0 0 0.315 0 0 0 0 0.933333 0 0 0 0 0.841954 0 0 0 0.2 0"/>
<feBlend mode="overlay" in2="effect4_innerShadow_1902_702" result="effect5_innerShadow_1902_702"/>
</filter>
<filter id="filter1_biiii_1902_702" x="560.875" y="409.483" width="96.1657" height="142.814" filterUnits="userSpaceOnUse" color-interpolation-filters="sRGB">
<feFlood flood-opacity="0" result="BackgroundImageFix"/>
<feGaussianBlur in="BackgroundImageFix" stdDeviation="9.6464"/>
<feComposite in2="SourceAlpha" operator="in" result="effect1_backgroundBlur_1902_702"/>
<feBlend mode="normal" in="SourceGraphic" in2="effect1_backgroundBlur_1902_702" result="shape"/>
<feColorMatrix in="SourceAlpha" type="matrix" values="0 0 0 0 0 0 0 0 0 0 0 0 0 0 0 0 0 0 127 0" result="hardAlpha"/>
<feOffset dx="9.18705" dy="9.18705"/>
<feGaussianBlur stdDeviation="10.5651"/>
<feComposite in2="hardAlpha" operator="arithmetic" k2="-1" k3="1"/>
<feColorMatrix type="matrix" values="0 0 0 0 0 0 0 0 0 0.796078 0 0 0 0 0.662745 0 0 0 0.18 0"/>
<feBlend mode="normal" in2="shape" result="effect2_innerShadow_1902_702"/>
<feColorMatrix in="SourceAlpha" type="matrix" values="0 0 0 0 0 0 0 0 0 0 0 0 0 0 0 0 0 0 127 0" result="hardAlpha"/>
<feOffset dy="1.83741"/>
<feGaussianBlur stdDeviation="2.75611"/>
<feComposite in2="hardAlpha" operator="arithmetic" k2="-1" k3="1"/>
<feColorMatrix type="matrix" values="0 0 0 0 1 0 0 0 0 1 0 0 0 0 1 0 0 0 0.05 0"/>
<feBlend mode="normal" in2="effect2_innerShadow_1902_702" result="effect3_innerShadow_1902_702"/>
<feColorMatrix in="SourceAlpha" type="matrix" values="0 0 0 0 0 0 0 0 0 0 0 0 0 0 0 0 0 0 127 0" result="hardAlpha"/>
<feOffset dy="0.918705"/>
<feComposite in2="hardAlpha" operator="arithmetic" k2="-1" k3="1"/>
<feColorMatrix type="matrix" values="0 0 0 0 1 0 0 0 0 1 0 0 0 0 1 0 0 0 0.05 0"/>
<feBlend mode="normal" in2="effect3_innerShadow_1902_702" result="effect4_innerShadow_1902_702"/>
<feColorMatrix in="SourceAlpha" type="matrix" values="0 0 0 0 0 0 0 0 0 0 0 0 0 0 0 0 0 0 127 0" result="hardAlpha"/>
<feOffset dy="-9.18705"/>
<feGaussianBlur stdDeviation="4.59352"/>
<feComposite in2="hardAlpha" operator="arithmetic" k2="-1" k3="1"/>
<feColorMatrix type="matrix" values="0 0 0 0 0 0 0 0 0 0.796078 0 0 0 0 0.662745 0 0 0 0.4 0"/>
<feBlend mode="overlay" in2="effect4_innerShadow_1902_702" result="effect5_innerShadow_1902_702"/>
</filter>
<filter id="filter2_biiii_1902_702" x="537.442" y="21.4728" width="147.912" height="93.0321" filterUnits="userSpaceOnUse" color-interpolation-filters="sRGB">
<feFlood flood-opacity="0" result="BackgroundImageFix"/>
<feGaussianBlur in="BackgroundImageFix" stdDeviation="9.6464"/>
<feComposite in2="SourceAlpha" operator="in" result="effect1_backgroundBlur_1902_702"/>
<feBlend mode="normal" in="SourceGraphic" in2="effect1_backgroundBlur_1902_702" result="shape"/>
<feColorMatrix in="SourceAlpha" type="matrix" values="0 0 0 0 0 0 0 0 0 0 0 0 0 0 0 0 0 0 127 0" result="hardAlpha"/>
<feOffset dx="9.18705" dy="9.18705"/>
<feGaussianBlur stdDeviation="10.5651"/>
<feComposite in2="hardAlpha" operator="arithmetic" k2="-1" k3="1"/>
<feColorMatrix type="matrix" values="0 0 0 0 0.6 0 0 0 0 0.368627 0 0 0 0 0.831373 0 0 0 0.18 0"/>
<feBlend mode="normal" in2="shape" result="effect2_innerShadow_1902_702"/>
<feColorMatrix in="SourceAlpha" type="matrix" values="0 0 0 0 0 0 0 0 0 0 0 0 0 0 0 0 0 0 127 0" result="hardAlpha"/>
<feMorphology radius="1.83741" operator="erode" in="SourceAlpha" result="effect3_innerShadow_1902_702"/>
<feOffset dy="1.83741"/>
<feGaussianBlur stdDeviation="2.75611"/>
<feComposite in2="hardAlpha" operator="arithmetic" k2="-1" k3="1"/>
<feColorMatrix type="matrix" values="0 0 0 0 1 0 0 0 0 1 0 0 0 0 1 0 0 0 0.05 0"/>
<feBlend mode="normal" in2="effect2_innerShadow_1902_702" result="effect3_innerShadow_1902_702"/>
<feColorMatrix in="SourceAlpha" type="matrix" values="0 0 0 0 0 0 0 0 0 0 0 0 0 0 0 0 0 0 127 0" result="hardAlpha"/>
<feOffset dy="0.918705"/>
<feComposite in2="hardAlpha" operator="arithmetic" k2="-1" k3="1"/>
<feColorMatrix type="matrix" values="0 0 0 0 1 0 0 0 0 1 0 0 0 0 1 0 0 0 0.05 0"/>
<feBlend mode="normal" in2="effect3_innerShadow_1902_702" result="effect4_innerShadow_1902_702"/>
<feColorMatrix in="SourceAlpha" type="matrix" values="0 0 0 0 0 0 0 0 0 0 0 0 0 0 0 0 0 0 127 0" result="hardAlpha"/>
<feOffset dy="-9.18705"/>
<feGaussianBlur stdDeviation="4.59352"/>
<feComposite in2="hardAlpha" operator="arithmetic" k2="-1" k3="1"/>
<feColorMatrix type="matrix" values="0 0 0 0 0.315 0 0 0 0 0.933333 0 0 0 0 0.841954 0 0 0 1 0"/>
<feBlend mode="overlay" in2="effect4_innerShadow_1902_702" result="effect5_innerShadow_1902_702"/>
</filter>
<filter id="filter3_d_1902_702" x="117.595" y="50.1962" width="50.5294" height="50.5287" filterUnits="userSpaceOnUse" color-interpolation-filters="sRGB">
<feFlood flood-opacity="0" result="BackgroundImageFix"/>
<feColorMatrix in="SourceAlpha" type="matrix" values="0 0 0 0 0 0 0 0 0 0 0 0 0 0 0 0 0 0 127 0" result="hardAlpha"/>
<feOffset dy="3.67482"/>
<feGaussianBlur stdDeviation="9.18705"/>
<feComposite in2="hardAlpha" operator="out"/>
<feColorMatrix type="matrix" values="0 0 0 0 0 0 0 0 0 0 0 0 0 0 0 0 0 0 0.15 0"/>
<feBlend mode="normal" in2="BackgroundImageFix" result="effect1_dropShadow_1902_702"/>
<feBlend mode="normal" in="SourceGraphic" in2="effect1_dropShadow_1902_702" result="shape"/>
</filter>
<linearGradient id="paint0_linear_1902_702" x1="431.333" y1="255.985" x2="980.301" y2="586.694" gradientUnits="userSpaceOnUse">
<stop stop-color="#151536"/>
<stop offset="1" stop-color="#393969"/>
</linearGradient>
<radialGradient id="paint1_radial_1902_702" cx="0" cy="0" r="1" gradientUnits="userSpaceOnUse" gradientTransform="translate(509.287 316.226) rotate(112.542) scale(203.345 381.785)">
<stop stop-color="#2EA694"/>
<stop offset="1" stop-color="#22EDCF" stop-opacity="0"/>
</radialGradient>
<linearGradient id="paint2_linear_1902_702" x1="229.676" y1="0.585948" x2="746.147" y2="311.761" gradientUnits="userSpaceOnUse">
<stop stop-color="#151536"/>
<stop offset="1" stop-color="#393969"/>
</linearGradient>
<radialGradient id="paint3_radial_1902_702" cx="0" cy="0" r="1" gradientUnits="userSpaceOnUse" gradientTransform="translate(303.021 57.2569) rotate(112.545) scale(191.299 359.204)">
<stop stop-color="#2EA694"/>
<stop offset="1" stop-color="#22EDCF" stop-opacity="0"/>
</radialGradient>
<linearGradient id="paint4_linear_1902_702" x1="84.345" y1="208.939" x2="3.33423" y2="102.832" gradientUnits="userSpaceOnUse">
<stop stop-color="#50EED7" stop-opacity="0.82"/>
<stop offset="1" stop-color="#50EED7" stop-opacity="0.05"/>
</linearGradient>
<linearGradient id="paint5_linear_1902_702" x1="67.0285" y1="98.2886" x2="72.3907" y2="113.63" gradientUnits="userSpaceOnUse">
<stop stop-color="white"/>
<stop offset="1" stop-color="white" stop-opacity="0"/>
</linearGradient>
<linearGradient id="paint6_linear_1902_702" x1="591.844" y1="632.344" x2="505.032" y2="489.945" gradientUnits="userSpaceOnUse">
<stop stop-color="#00CBA9" stop-opacity="0.01"/>
<stop offset="1" stop-color="#00CBA9" stop-opacity="0.12"/>
</linearGradient>
<linearGradient id="paint7_linear_1902_702" x1="644.355" y1="483.237" x2="619.386" y2="480.845" gradientUnits="userSpaceOnUse">
<stop stop-color="white"/>
<stop offset="1" stop-color="white" stop-opacity="0"/>
</linearGradient>
<linearGradient id="paint8_linear_1902_702" x1="611.398" y1="-12.5622" x2="631.109" y2="92.3489" gradientUnits="userSpaceOnUse">
<stop stop-color="#50EED7" stop-opacity="0.74"/>
<stop offset="1" stop-color="#50EED7" stop-opacity="0.19"/>
</linearGradient>
<linearGradient id="paint9_linear_1902_702" x1="641.734" y1="39.9988" x2="607.132" y2="39.9988" gradientUnits="userSpaceOnUse">
<stop stop-color="white"/>
<stop offset="1" stop-color="white" stop-opacity="0"/>
</linearGradient>
<linearGradient id="paint10_linear_1902_702" x1="429.953" y1="241.286" x2="429.494" y2="453.507" gradientUnits="userSpaceOnUse">
<stop stop-color="#50EED7"/>
<stop offset="1" stop-color="#50EED7" stop-opacity="0"/>
</linearGradient>
</defs>
</svg>
