<svg width="1295" height="342" viewBox="0 0 1295 342" fill="none" xmlns="http://www.w3.org/2000/svg">
<path opacity="0.6" d="M-0.000976562 287.92L42.6486 256.012L72.7543 246.041H104.366L133.969 252.522L162.068 249.032L193.177 231.084L220.272 199.176L245.999 189.765L281.999 184.765L320.999 178.765L348.499 171.765L400.499 145.265L452.499 140.765H487.999L550.999 162.765L601.999 184.765L669.999 199.765L728.999 194.765L821.499 162.765L858.999 159.765L910.499 166.765L946.999 177.765H983.999L1022.5 166.765L1074 129.765L1107.5 120.265H1137L1159 113.265L1196.5 70.765L1228 57.265L1265 39.7651L1295 0.765137V317.265L-0.000976562 341.265V287.92Z" fill="url(#paint0_linear_1904_679)"/>
<defs>
<linearGradient id="paint0_linear_1904_679" x1="146.499" y1="-34.7349" x2="150.499" y2="273.765" gradientUnits="userSpaceOnUse">
<stop stop-color="#50EED7"/>
<stop offset="1" stop-color="#50EED7" stop-opacity="0"/>
</linearGradient>
</defs>
</svg>
