<?xml version="1.0" encoding="UTF-8"?><svg id="Layer_1" xmlns="http://www.w3.org/2000/svg" viewBox="0 0 379.95 332.92"><defs><style>.cls-1{fill:#51eed6;stroke-width:0px;}</style></defs><path class="cls-1" d="m334.16,153.08v-69.87L189.98,0,45.82,83.22v69.87H0v17.37h99.96l12.92-44.66h24.58l-19.77,68.27H45.82v55.63l144.16,83.22,144.18-83.22v-55.63h-40.28l-1.44-4.91-5.44-18.74h92.95v-17.35h-45.79Zm-179.94,115.43l-19.9-68.63.25-.91,12.06-41.55,32.16,111.08h-24.58Zm33.78-31.63l-12.31-42.41,37.7-130.1h24.53l-49.92,172.5Zm62.96-42.81l-16.13-55.66,12.26-42.33,28.42,97.98h-24.55Z"/></svg>