<svg width="61" height="62" viewBox="0 0 61 62" fill="none" xmlns="http://www.w3.org/2000/svg">
<path d="M25.5654 4.8573C32.4759 2.33441 39.5053 4.08032 42.1561 5.26864C40.6936 4.21743 39.1397 2.66348 44.6242 4.8573C51.4799 7.59956 53.3995 9.93049 57.1015 15.2779C60.8036 20.6253 60.3922 27.7552 60.6665 32.0058C60.9407 36.2563 59.5696 41.7408 58.3355 43.2491C57.3483 44.4557 53.628 43.2948 51.8912 42.5635C49.3775 46.3113 41.8271 54.8489 31.7355 59.0171C21.644 63.1854 13.4537 61.9422 10.6201 60.7996C8.42623 60.1597 3.51756 57.9476 1.43343 54.2181C-0.650692 50.4886 2.48464 45.3515 4.31281 43.2491C5.72965 41.3752 8.59075 36.5031 8.70044 32.0058C8.81014 27.5084 11.4884 20.8082 12.8138 18.0202C14.185 14.6838 18.6549 7.38018 25.5654 4.8573Z" fill="#50EED7"/>
<path d="M40.6162 13.2589C39.9598 16.0092 39.7521 17.7873 39.7521 20.7204C39.7438 24.1853 40.0928 26.4953 41.0234 29.1791C42.0288 32.0873 43.9565 34.8293 46.2498 36.5825C48.003 37.9202 49.3158 38.6431 51.4762 39.4657C52.1908 39.7399 52.8555 39.9975 52.9469 40.0307C53.4704 40.2717 55.5477 40.7869 55.9797 40.7869C56.1376 40.7869 56.3952 40.7121 56.5447 40.6207C56.8272 40.4462 57.1845 39.956 57.0765 39.8729C56.9851 39.7981 56.5281 39.6568 55.1821 39.2995C52.1825 38.4936 49.7396 37.4632 47.9282 36.2335C44.7209 34.0648 42.6104 31.2397 41.3641 27.4425C40.583 25.0744 40.2922 23.2049 40.2174 20.0142C40.1592 17.4051 40.3171 15.4857 40.7907 13.1343C40.8821 12.6606 40.9403 12.2618 40.9154 12.2369C40.8904 12.212 40.7575 12.669 40.6162 13.2589Z" fill="#50EED7"/>
<path d="M53.0051 12.4694C52.9469 12.5276 52.9054 12.6024 52.9054 12.6356C52.9054 12.6772 52.8306 12.7852 52.7392 12.8849C52.6478 12.9846 52.573 13.1258 52.573 13.1923C52.573 13.2671 52.4567 13.4416 52.3237 13.5911C52.1825 13.7407 52.0745 13.8903 52.0745 13.9401C52.0745 13.9817 51.9997 14.0731 51.9083 14.1395C51.8086 14.206 51.7421 14.2891 51.7504 14.3307C51.7836 14.5135 51.7338 14.6132 51.6175 14.6132C51.551 14.6132 51.4928 14.663 51.4928 14.7295C51.4928 15.0037 49.9723 16.4495 48.6345 17.4632C48.4932 17.5629 48.2772 17.7457 48.1526 17.862L47.9199 18.0697L48.9004 20.3132C50.6204 24.2185 57.4172 39.5819 57.4504 39.6152C57.6665 39.8894 58.3146 36.9147 58.5888 34.3888C59.0042 30.5915 58.9627 27.6002 58.4226 24.2517C57.7828 20.255 56.4118 16.7901 54.3345 13.8986C53.487 12.727 53.1297 12.3448 53.0051 12.4694Z" fill="#16C2A8"/>
<path d="M45.2188 0.271568C45.061 0.437752 44.8449 0.844894 44.6788 1.28528C44.5292 1.69242 44.014 3.00526 43.5487 4.20176C43.0751 5.40658 42.6846 6.41198 42.6846 6.4369C42.6846 6.46183 42.427 7.06009 42.1029 7.75805C41.0809 10.0264 40.4079 12.0871 39.9509 14.4053C39.469 16.8066 39.4025 17.5378 39.4108 20.7617C39.4108 23.404 39.4274 23.8361 39.5936 24.9163C40.5325 30.9404 43.0834 35.2029 47.5454 38.1693C49.7639 39.6483 52.4477 40.7866 55.8877 41.7089C57.8237 42.2241 58.1145 42.2324 58.3389 41.792C58.7045 41.0941 59.4191 37.5212 59.6933 35.0534C59.901 33.1838 59.901 28.2482 59.6933 26.6196C59.1615 22.4485 57.9483 18.8008 56.112 15.7846C54.4087 12.9845 51.9326 10.525 48.9579 8.67204C48.0605 8.10703 46.191 7.17641 45.2188 6.79419C44.9446 6.68618 44.6954 6.57816 44.6621 6.55323C44.6289 6.52831 44.8782 5.7971 45.2272 4.93296C46.1411 2.62304 46.3489 2.00817 46.3987 1.37668C46.4569 0.720261 46.2907 0.230026 45.9584 0.0804596C45.6343 -0.0607948 45.5097 -0.0275574 45.2188 0.271568ZM40.7901 13.134C40.3165 15.4855 40.1586 17.4049 40.2168 20.0139C40.2916 23.2046 40.5824 25.0742 41.3634 27.4422C42.2276 30.0679 43.4573 32.1618 45.169 33.9233C47.6866 36.5074 50.5948 38.0696 55.1814 39.2993C56.5275 39.6566 56.9845 39.7978 57.0759 39.8726C57.1839 39.9557 56.8266 40.4459 56.5441 40.6204C56.3945 40.7118 56.137 40.7866 55.9791 40.7866C55.547 40.7866 53.4698 40.2715 52.9463 40.0305C52.8549 39.9973 52.1902 39.7397 51.4756 39.4655C49.3152 38.6429 48.0024 37.92 46.2492 36.5822C43.0502 34.131 40.7818 30.0596 40.0755 25.4979C39.7349 23.3126 39.6351 19.9142 39.8512 17.6458C40.0007 16.0422 40.7818 12.0954 40.9147 12.2366C40.9397 12.2616 40.8815 12.6604 40.7901 13.134ZM54.3339 13.8985C56.4112 16.79 57.7822 20.2549 58.422 24.2516C58.9621 27.6001 59.0036 30.5914 58.5881 34.3886C58.3139 36.9146 57.6658 39.8892 57.4498 39.615C57.4166 39.5818 50.6197 24.2183 48.8998 20.3131L47.9193 18.0696L48.1519 17.8619C48.2766 17.7456 48.4926 17.5628 48.6339 17.463C49.9716 16.4493 51.4922 15.0036 51.4922 14.7294C51.4922 14.6629 51.5504 14.613 51.6168 14.613C51.7332 14.613 51.783 14.5133 51.7498 14.3305C51.7415 14.289 51.8079 14.2059 51.9076 14.1394C51.999 14.0729 52.0738 13.9815 52.0738 13.94C52.0738 13.8901 52.1818 13.7406 52.3231 13.591C52.456 13.4415 52.5724 13.267 52.5724 13.1922C52.5724 13.1257 52.6472 12.9845 52.7386 12.8847C52.83 12.785 52.9047 12.677 52.9047 12.6355C52.9047 12.6022 52.9463 12.5275 53.0044 12.4693C53.1291 12.3447 53.4864 12.7269 54.3339 13.8985Z" fill="#26BCA6"/>
</svg>
