<svg width="22" height="22" viewBox="0 0 22 22" fill="none" xmlns="http://www.w3.org/2000/svg">
<mask id="mask0_28_268" style="mask-type:alpha" maskUnits="userSpaceOnUse" x="0" y="0" width="22" height="22">
<rect width="22" height="22" fill="#D9D9D9"/>
</mask>
<g mask="url(#mask0_28_268)">
<path d="M3.66683 15.5834V17.4167H18.3335V15.5834H3.66683ZM3.66683 5.50004H5.6835C5.60711 5.36254 5.55745 5.2174 5.53454 5.06462C5.51162 4.91185 5.50016 4.75143 5.50016 4.58337C5.50016 3.81949 5.76752 3.17018 6.30225 2.63546C6.83697 2.10074 7.48627 1.83337 8.25016 1.83337C8.7085 1.83337 9.13245 1.95178 9.52204 2.18858C9.91162 2.42539 10.2516 2.71949 10.5418 3.07087L11.0002 3.66671L11.4585 3.07087C11.7335 2.70421 12.0696 2.40629 12.4668 2.17712C12.8641 1.94796 13.2918 1.83337 13.7502 1.83337C14.5141 1.83337 15.1634 2.10074 15.6981 2.63546C16.2328 3.17018 16.5002 3.81949 16.5002 4.58337C16.5002 4.75143 16.4887 4.91185 16.4658 5.06462C16.4429 5.2174 16.3932 5.36254 16.3168 5.50004H18.3335C18.8377 5.50004 19.2693 5.67955 19.6283 6.03858C19.9873 6.39761 20.1668 6.82921 20.1668 7.33337V17.4167C20.1668 17.9209 19.9873 18.3525 19.6283 18.7115C19.2693 19.0705 18.8377 19.25 18.3335 19.25H3.66683C3.16266 19.25 2.73107 19.0705 2.37204 18.7115C2.01301 18.3525 1.8335 17.9209 1.8335 17.4167V7.33337C1.8335 6.82921 2.01301 6.39761 2.37204 6.03858C2.73107 5.67955 3.16266 5.50004 3.66683 5.50004ZM3.66683 12.8334H18.3335V7.33337H13.6585L15.5835 9.94587L14.1168 11L11.0002 6.78337L7.8835 11L6.41683 9.94587L8.296 7.33337H3.66683V12.8334ZM8.25016 5.50004C8.50989 5.50004 8.72759 5.41219 8.90329 5.2365C9.07898 5.0608 9.16683 4.8431 9.16683 4.58337C9.16683 4.32365 9.07898 4.10594 8.90329 3.93025C8.72759 3.75455 8.50989 3.66671 8.25016 3.66671C7.99044 3.66671 7.77273 3.75455 7.59704 3.93025C7.42134 4.10594 7.3335 4.32365 7.3335 4.58337C7.3335 4.8431 7.42134 5.0608 7.59704 5.2365C7.77273 5.41219 7.99044 5.50004 8.25016 5.50004ZM13.7502 5.50004C14.0099 5.50004 14.2276 5.41219 14.4033 5.2365C14.579 5.0608 14.6668 4.8431 14.6668 4.58337C14.6668 4.32365 14.579 4.10594 14.4033 3.93025C14.2276 3.75455 14.0099 3.66671 13.7502 3.66671C13.4904 3.66671 13.2727 3.75455 13.097 3.93025C12.9213 4.10594 12.8335 4.32365 12.8335 4.58337C12.8335 4.8431 12.9213 5.0608 13.097 5.2365C13.2727 5.41219 13.4904 5.50004 13.7502 5.50004Z" fill="white"/>
</g>
</svg>
