<svg width="124" height="122" viewBox="0 0 124 122" fill="none" xmlns="http://www.w3.org/2000/svg">
<g filter="url(#filter0_d_821_831)">
<path d="M85.7241 82.4644L80.6007 65.994L57.857 86.0018L61.7414 110.072L85.7241 82.4644Z" fill="#50EED7"/>
<path d="M42.6187 33.4644L57.2949 39.501L34.5512 59.5088L12.4914 54.0874L42.6187 33.4644Z" fill="#50EED7"/>
<path d="M36.6533 81.6006L41.5091 77.3289L46.3649 73.0572L98.1602 27.4927C98.1602 27.4927 88.3002 22.7695 68.5062 31.0724C57.119 35.849 47.7344 41.727 38.4515 48.5585C32.4861 52.9486 26.9328 58.3115 21.2063 64.0413L24.2957 67.5531L21.0585 70.4009L24.6797 74.5173L21.4425 77.3651L30.1789 87.2962L33.4161 84.4484L36.6533 81.6006Z" fill="#50EED7"/>
<path d="M36.6533 81.6006L41.5091 77.3289L46.3649 73.0572L98.1602 27.4927C98.1602 27.4927 101.773 38.084 91.1397 56.8009C85.0227 67.5684 78.0291 76.1643 70.0884 84.5216C64.9856 89.8922 58.952 94.7091 52.5294 99.6476L49.3542 96.0382L46.117 98.886L42.3952 94.6553L39.158 97.5031L30.1789 87.2962L33.4161 84.4484L36.6533 81.6006Z" fill="#F9F1F9"/>
<path d="M23.1426 79.2983L37.6537 95.7938L30.7759 100.071L18.4634 86.0747L23.1426 79.2983Z" fill="#151536"/>
<circle cx="81.2547" cy="42.5472" r="9.15203" transform="rotate(48.6617 81.2547 42.5472)" fill="#50EED7" stroke="#151536" stroke-width="3"/>
<path d="M60.1514 54.5531L68.584 53.3418L66.3076 61.5512L29.0949 88.0806L60.1514 54.5531Z" fill="#50EED7"/>
</g>
<defs>
<filter id="filter0_d_821_831" x="8.49219" y="26.1548" width="94.2598" height="91.9175" filterUnits="userSpaceOnUse" color-interpolation-filters="sRGB">
<feFlood flood-opacity="0" result="BackgroundImageFix"/>
<feColorMatrix in="SourceAlpha" type="matrix" values="0 0 0 0 0 0 0 0 0 0 0 0 0 0 0 0 0 0 127 0" result="hardAlpha"/>
<feOffset dy="4"/>
<feGaussianBlur stdDeviation="2"/>
<feComposite in2="hardAlpha" operator="out"/>
<feColorMatrix type="matrix" values="0 0 0 0 0 0 0 0 0 0 0 0 0 0 0 0 0 0 0.25 0"/>
<feBlend mode="normal" in2="BackgroundImageFix" result="effect1_dropShadow_821_831"/>
<feBlend mode="normal" in="SourceGraphic" in2="effect1_dropShadow_821_831" result="shape"/>
</filter>
</defs>
</svg>
