<svg width="1440" height="497" viewBox="0 0 1440 497" fill="none" xmlns="http://www.w3.org/2000/svg">
<g clipPath="url(#clip0_1105_580)">
<g opacity="0.2">
<g opacity="0.2">
<path d="M-2612.6 1010.96C-1853.82 1064.99 -1270.13 887.799 -652.191 700.16C-219.27 568.696 228.392 432.77 773.66 360.696C1392.64 278.877 2044.53 294.99 2766.56 409.932L2766.11 413.759C1151.07 156.629 193.53 447.374 -651.301 703.883C-1269.52 891.581 -1853.46 1068.91 -2612.81 1014.8L-2612.56 1010.92L-2612.6 1010.96Z" fill="#50EED7"/>
<g opacity="0.8">
<path d="M-2615.71 1002.89C-1860.15 1046.83 -1262.56 862.751 -629.87 667.827C-190.097 532.341 264.666 392.258 805.404 316.492C1418.36 230.616 2052.96 243.083 2745.35 354.643L2744.86 358.468C1196.83 109.062 226.854 407.892 -628.979 671.55C-1261.95 866.533 -1859.79 1050.75 -2615.89 1006.73L-2615.74 1002.85L-2615.71 1002.89Z" fill="#50EED7"/>
</g>
<g opacity="0.6">
<path d="M-2618.82 994.785C-1866.35 1028.67 -1254.71 837.607 -607.126 635.33C-160.535 495.822 301.258 351.615 837.395 272.19C1444.33 182.295 2061.49 191.182 2724.17 299.281L2723.69 303.106C1242.84 61.4725 302.851 355.079 -606.199 639.017C-1254.03 841.355 -1865.95 1032.52 -2618.93 998.596L-2618.82 994.709L-2618.82 994.785Z" fill="#50EED7"/>
</g>
<g opacity="0.7">
<path d="M-2621.97 986.715C-1872.44 1010.48 -1246.58 812.443 -583.998 602.743C-130.663 459.284 338.094 310.911 869.554 227.936C1470.4 134.094 2070.11 139.364 2702.92 244.028L2702.43 247.852C1288.97 14.0437 337.265 315.21 -583.073 606.469C-1245.94 816.226 -1872.05 1014.4 -2622.08 990.602L-2622 986.713L-2621.97 986.715Z" fill="#50EED7"/>
</g>
<g opacity="0.6">
<path d="M-2625.08 978.61C-1878.36 992.271 -1238.14 787.147 -560.34 569.924C-100.364 422.507 375.315 270.08 902.033 183.513C1496.72 85.7571 2078.88 87.441 2681.75 188.666L2681.26 192.49C1335.27 -33.4873 372.103 275.14 -559.382 573.652C-1237.43 790.935 -1877.89 996.157 -2625.09 982.465L-2625.04 978.574L-2625.08 978.61Z" fill="#50EED7"/>
</g>
<g opacity="0.9">
<path d="M-2628.19 970.543C-1884.11 974.105 -1229.35 761.758 -536.161 536.986C406.605 231.268 1381.45 -84.8832 2660.53 133.378L2660.05 137.202C1381.71 -80.9343 407.214 235.087 -535.202 540.714C-1228.64 765.584 -1883.61 977.956 -2628.17 974.438L-2628.16 970.545L-2628.19 970.543Z" fill="#50EED7"/>
</g>
</g>
<g filter="url(#filter0_d_1105_580)">
<g opacity="0.8">
<path d="M847.858 310.743C1447.7 231.229 2068.89 245.609 2745.35 354.643L2744.86 358.468C1996.46 237.914 1383.14 245.464 852.541 315.248L847.823 310.741L847.858 310.743Z" fill="#50EED7"/>
</g>
<g opacity="0.6">
<path d="M-32.4336 466.139C715.753 256.44 1549.74 111.658 2723.65 303.141L2724.14 299.317C2061.48 191.22 1444.3 182.33 837.36 272.187C525.071 318.43 238.018 386.667 -35.5047 463.228L-32.4336 466.139Z" fill="#50EED7"/>
</g>
<g opacity="0.7">
<path d="M-885.459 697.224C-785.469 666.512 -685.137 634.754 -583.998 602.743C-130.661 459.246 338.125 310.952 869.553 227.936C1470.4 134.094 2070.11 139.326 2702.92 244.028L2702.43 247.853C1288.96 14.0819 337.296 315.25 -583.074 606.469C-683.475 638.222 -783.038 669.763 -882.293 700.255L-885.459 697.224Z" fill="#50EED7"/>
</g>
<g opacity="0.6">
<path d="M-1744.99 902.229C-1343.26 824.892 -957.84 701.367 -559.419 573.687C372.066 275.175 1335.27 -33.4499 2681.26 192.528L2681.71 188.664C2078.85 87.4765 1496.68 85.7925 901.996 183.548C375.281 270.078 -100.364 422.507 -560.377 569.96C-959.604 697.892 -1345.79 821.635 -1748.41 898.951L-1744.99 902.191L-1744.99 902.229Z" fill="#50EED7"/>
</g>
<g opacity="0.9">
<path d="M-2616.51 969.532C-1872.43 973.094 -1216.91 760.758 -523.758 535.984C419.008 230.265 1392.81 -86.0689 2671.89 132.192L2673.47 136.342C1395.14 -81.794 419.583 234.082 -522.833 539.709C-1216.27 764.579 -1870.48 976.962 -2615.08 973.404L-2616.58 969.527L-2616.51 969.532Z" fill="#50EED7"/>
</g>
</g>
</g>
<path opacity="0.6" d="M42.9995 324.92L85.6492 293.012L115.755 283.041H147.366L176.97 289.522L205.068 286.032L236.177 268.084L263.272 236.176L289 226.765L325 221.765L364 215.765L391.5 208.765L443.5 182.265L495.5 177.765H531L594 199.765L645 221.765L713 236.765L772 231.765L864.5 199.765L902 196.765L953.5 203.765L990 214.765H1027L1065.5 203.765L1117 166.765L1150.5 157.265H1180L1202 150.265L1239.5 107.765L1271 94.2651L1308 76.7651L1338 37.7651V354.265L42.9995 378.265V324.92Z" fill="url(#paint0_linear_1105_580)"/>
<path d="M43.9995 326.765L70.7563 304.395C92.327 286.36 121.098 279.466 148.5 285.765V285.765L169.627 289.183C198.285 293.819 227.066 281.638 243.69 257.84V257.84C256.557 239.419 276.95 227.676 299.34 225.793L337.664 222.569C359.643 220.72 380.989 214.279 400.322 203.662L406.883 200.059C460.987 170.346 526.043 168.323 581.888 194.617L613 209.265L622.117 213.429C682.709 241.104 751.994 242.747 813.831 217.978L836.831 208.764C873.194 194.199 913.427 192.422 950.932 203.727L971.582 209.951C1010.86 221.789 1053.42 214.369 1086.37 189.937L1117.91 166.551C1129.66 157.838 1144.73 154.94 1158.88 158.676V158.676C1177.46 163.585 1197.19 156.97 1209.05 141.847L1223.29 123.698C1234.46 109.465 1249.96 99.259 1267.45 94.6264L1271.79 93.4773C1299.77 86.0637 1322.96 66.4889 1334.96 40.1422L1336.5 36.7651" stroke="#50EED7" strokeWidth="5"/>
<g filter="url(#filter1_d_1105_580)">
<path d="M1359.72 75.729L1354.6 59.2587L1331.86 79.2665L1335.74 103.337L1359.72 75.729Z" fill="#50EED7"/>
<path d="M1316.62 26.7291L1331.29 32.7657L1308.55 52.7735L1286.49 47.3521L1316.62 26.7291Z" fill="#50EED7"/>
<path d="M1310.65 74.8652L1315.51 70.5936L1320.36 66.3219L1372.16 20.7573C1372.16 20.7573 1362.3 16.0341 1342.5 24.337C1331.12 29.1136 1321.73 34.9917 1312.45 41.8232C1306.48 46.2132 1300.93 51.5761 1295.2 57.3059L1298.29 60.8178L1295.06 63.6656L1298.68 67.7819L1295.44 70.6297L1304.18 80.5608L1307.41 77.713L1310.65 74.8652Z" fill="#50EED7"/>
<path d="M1310.65 74.8652L1315.51 70.5936L1320.36 66.3219L1372.16 20.7573C1372.16 20.7573 1375.77 31.3487 1365.14 50.0655C1359.02 60.833 1352.03 69.429 1344.09 77.7863C1338.98 83.1569 1332.95 87.9737 1326.53 92.9123L1323.35 89.3029L1320.12 92.1507L1316.39 87.92L1313.16 90.7678L1304.18 80.5608L1307.41 77.713L1310.65 74.8652Z" fill="#F9F1F9"/>
<path d="M1295.67 80.9711C1298.01 83.6265 1299.63 85.4649 1303.58 89.9587C1307.93 94.9045 1290.41 103.719 1289.33 102.494C1288.25 101.268 1279.63 103.054 1279.63 103.054C1279.63 103.054 1283.04 95.3443 1281.42 93.506C1279.81 91.6676 1291.64 76.3828 1295.67 80.9711Z" fill="#50EED7"/>
<path d="M1296.36 81.7518C1298.29 83.9454 1299.62 85.4641 1302.89 89.1764C1306.48 93.262 1293.09 99.59 1292.2 98.5775C1291.31 97.5651 1284.63 98.656 1284.63 98.656C1284.63 98.656 1287.01 92.6716 1285.67 91.1529C1284.34 89.6343 1293.02 77.9615 1296.36 81.7518Z" fill="#50EED7"/>
<path d="M1297.39 82.9219C1298.71 84.4228 1299.62 85.4619 1301.86 88.0019C1304.32 90.7974 1295.34 94.9621 1294.73 94.2694C1294.12 93.5766 1289.63 94.2566 1289.63 94.2566C1289.63 94.2566 1291.18 90.2285 1290.26 89.1894C1289.35 88.1503 1295.11 80.3286 1297.39 82.9219Z" fill="#50EED7"/>
<path d="M1297.14 72.563L1311.65 89.0584L1304.77 93.3355L1292.46 79.3394L1297.14 72.563Z" fill="#151536"/>
<circle cx="1355.25" cy="35.8116" r="9.15203" transform="rotate(48.6617 1355.25 35.8116)" fill="#50EED7" stroke="#151536" strokeWidth="3"/>
<path d="M1334.15 47.8175L1342.58 46.6062L1340.31 54.8156L1303.09 81.345L1334.15 47.8175Z" fill="#50EED7"/>
</g>
</g>
<defs>
<filter id="filter0_d_1105_580" x="-2646.58" y="29.7959" width="5443.14" height="973.652" filterUnits="userSpaceOnUse" color-interpolation-filters="sRGB">
<feFlood flood-opacity="0" result="BackgroundImageFix"/>
<feColorMatrix in="SourceAlpha" type="matrix" values="0 0 0 0 0 0 0 0 0 0 0 0 0 0 0 0 0 0 127 0" result="hardAlpha"/>
<feOffset/>
<feGaussianBlur stdDeviation="15"/>
<feColorMatrix type="matrix" values="0 0 0 0 0 0 0 0 0 1 0 0 0 0 0.807843 0 0 0 0.7 0"/>
<feBlend mode="normal" in2="BackgroundImageFix" result="effect1_dropShadow_1105_580"/>
<feBlend mode="normal" in="SourceGraphic" in2="effect1_dropShadow_1105_580" result="shape"/>
</filter>
<filter id="filter1_d_1105_580" x="1275.63" y="19.4194" width="101.119" height="91.9175" filterUnits="userSpaceOnUse" color-interpolation-filters="sRGB">
<feFlood flood-opacity="0" result="BackgroundImageFix"/>
<feColorMatrix in="SourceAlpha" type="matrix" values="0 0 0 0 0 0 0 0 0 0 0 0 0 0 0 0 0 0 127 0" result="hardAlpha"/>
<feOffset dy="4"/>
<feGaussianBlur stdDeviation="2"/>
<feComposite in2="hardAlpha" operator="out"/>
<feColorMatrix type="matrix" values="0 0 0 0 0 0 0 0 0 0 0 0 0 0 0 0 0 0 0.25 0"/>
<feBlend mode="normal" in2="BackgroundImageFix" result="effect1_dropShadow_1105_580"/>
<feBlend mode="normal" in="SourceGraphic" in2="effect1_dropShadow_1105_580" result="shape"/>
</filter>
<linearGradient id="paint0_linear_1105_580" x1="189.499" y1="2.26508" x2="193.499" y2="310.765" gradientUnits="userSpaceOnUse">
<stop stop-color="#50EED7"/>
<stop offset="1" stop-color="#50EED7" stop-opacity="0"/>
</linearGradient>
<clipPath id="clip0_1105_580">
<rect width="1440" height="497" fill="white"/>
</clipPath>
</defs>
</svg>
