<svg width="18" height="16" viewBox="0 0 18 16" fill="none" xmlns="http://www.w3.org/2000/svg">
<path d="M17.9729 2.7174C17.5085 3.33692 16.9471 3.87733 16.3104 4.31776C16.3104 4.47959 16.3104 4.64142 16.3104 4.81225C16.3155 7.7511 15.1416 10.5691 13.0519 12.6345C10.9621 14.6999 8.13132 15.8399 5.19417 15.7989C3.49611 15.8046 1.81979 15.4169 0.296544 14.6661C0.214404 14.6302 0.161434 14.549 0.161744 14.4593V14.3604C0.161744 14.2313 0.266354 14.1267 0.395394 14.1267C2.06454 14.0716 3.67414 13.4929 4.99646 12.4724C3.48565 12.4419 2.12631 11.5469 1.50072 10.1707C1.46913 10.0956 1.47896 10.0093 1.52669 9.9432C1.57441 9.8771 1.65312 9.8407 1.73437 9.8471C2.19354 9.8932 2.6573 9.8505 3.10032 9.7212C1.43251 9.375 0.179334 7.9904 -1.58625e-05 6.2957C-0.00638586 6.2144 0.030044 6.1357 0.096124 6.0879C0.162194 6.0402 0.248364 6.0303 0.323504 6.062C0.771064 6.2595 1.25421 6.3635 1.74336 6.3676C0.281964 5.40846 -0.349266 3.58405 0.206674 1.92622C0.264064 1.76513 0.401934 1.64612 0.569624 1.61294C0.737304 1.57975 0.910084 1.63728 1.02444 1.76439C2.99651 3.86325 5.70616 5.11396 8.58202 5.25279C8.50842 4.95885 8.47222 4.65676 8.47422 4.35372C8.50112 2.76472 9.48432 1.34921 10.9635 0.769872C12.4426 0.190542 14.125 0.562032 15.2231 1.71044C15.9715 1.56785 16.6951 1.31645 17.3708 0.964212C17.4203 0.933312 17.4831 0.933312 17.5326 0.964212C17.5635 1.01373 17.5635 1.07652 17.5326 1.12604C17.2053 1.87552 16.6524 2.50412 15.951 2.92419C16.5652 2.85296 17.1686 2.70807 17.7483 2.49264C17.7971 2.45942 17.8612 2.45942 17.91 2.49264C17.9509 2.51134 17.9815 2.54711 17.9936 2.59042C18.0057 2.63373 17.9981 2.68018 17.9729 2.7174Z" fill="white"/>
</svg>
