<svg width="1920" height="609" viewBox="0 0 1920 609" fill="none" xmlns="http://www.w3.org/2000/svg">
<g clip-path="url(#clip0_1002_586)">
<g filter="url(#filter0_d_1002_586)">
<path d="M283.83 307.751C-1.2717 317.885 -298.418 306.875 -611 274.835L-610.782 270.987C-285.534 304.322 9.34065 313.313 279.442 303.674L283.83 307.751Z" fill="#50EED7"/>
<g opacity="0.8">
<path d="M1134.62 249.119C595.416 367.449 31.3117 393.469 -588.5 328.628L-588.282 324.78C97.4444 396.441 653.115 349.048 1130.11 244.929L1134.65 249.119H1134.62Z" fill="#50EED7"/>
</g>
<g opacity="0.6">
<path d="M1923.64 36.8425C1257.61 294.722 509.956 493.398 -565.782 378.611L-566 382.459C41.2387 447.262 601.391 416.023 1146.42 286.912C1426.85 220.471 1683.1 133.723 1926.6 39.5474L1923.64 36.8425Z" fill="#50EED7"/>
</g>
<g opacity="0.7">
<path d="M2683.47 -249.191C2594.62 -212.046 2505.52 -173.835 2415.7 -135.319C2013.12 37.3374 1596.81 215.784 1119.84 333.161C580.572 465.853 36.4784 499.607 -543.498 436.252L-543.28 432.404C752.175 573.82 1597.3 211.441 2414.64 -138.976C2503.81 -177.187 2592.22 -215.132 2680.42 -252.01L2683.47 -249.191Z" fill="#50EED7"/>
</g>
<g opacity="0.6">
<path d="M3450.73 -509.623C3091.03 -406.341 2748.85 -258.029 2395.13 -104.727C1568.14 253.691 712.992 624.261 -520.811 486.235L-520.998 490.121C31.6228 551.915 559.595 515.76 1093.05 379.563C1565.53 258.986 1987.81 75.9677 2396.22 -101.069C2750.66 -254.677 3093.52 -403.256 3454.03 -506.575L3450.73 -509.584V-509.623Z" fill="#50EED7"/>
</g>
<g opacity="0.9">
<path d="M4248.22 -635.228C3573.32 -590.426 2991.47 -335.938 2376.24 -66.5913C1539.45 299.75 675.148 678.702 -497.533 544.029L-499.214 539.99C672.783 674.587 1538.7 295.979 2375.18 -70.2486C2990.67 -339.709 3571.33 -594.16 4246.69 -639L4248.28 -635.228H4248.22Z" fill="#50EED7"/>
</g>
</g>
</g>
<defs>
<filter id="filter0_d_1002_586" x="-641" y="-669" width="4919.28" height="1270.84" filterUnits="userSpaceOnUse" color-interpolation-filters="sRGB">
<feFlood flood-opacity="0" result="BackgroundImageFix"/>
<feColorMatrix in="SourceAlpha" type="matrix" values="0 0 0 0 0 0 0 0 0 0 0 0 0 0 0 0 0 0 127 0" result="hardAlpha"/>
<feOffset/>
<feGaussianBlur stdDeviation="15"/>
<feColorMatrix type="matrix" values="0 0 0 0 0 0 0 0 0 1 0 0 0 0 0.807843 0 0 0 0.7 0"/>
<feBlend mode="normal" in2="BackgroundImageFix" result="effect1_dropShadow_1002_586"/>
<feBlend mode="normal" in="SourceGraphic" in2="effect1_dropShadow_1002_586" result="shape"/>
</filter>
<clipPath id="clip0_1002_586">
<rect width="1920" height="609" fill="white"/>
</clipPath>
</defs>
</svg>
