<svg width="1440" height="519" viewBox="0 0 1440 519" fill="none" xmlns="http://www.w3.org/2000/svg">
<g clip-path="url(#clip0_1835_1062)">
<g opacity="0.2">
<g opacity="0.2">
<path d="M4291.73 -727.078C3531.04 -731.688 2960.1 -516.935 2355.67 -289.533C1932.2 -130.211 1494.32 34.5206 954.89 141.878C342.541 263.751 -309.024 290.038 -1037 222.263L-1036.79 218.415C591.536 370.042 1528.16 17.6818 2354.54 -293.19C2959.25 -520.668 3530.43 -735.574 4291.69 -730.926V-727.04L4291.73 -727.078Z" fill="#50EED7"/>
<g opacity="0.8">
<path d="M4295.36 -719.23C3538.55 -713.973 2954.18 -491.448 2335.49 -255.817C1905.45 -92.0377 1460.76 77.3038 926.086 188.052C320.005 313.582 -314.059 342.383 -1012.24 276.056L-1012 272.208C548.964 420.482 1497.47 59.2457 2334.36 -259.474C2953.32 -495.181 3537.93 -717.859 4295.29 -723.078L4295.39 -719.192L4295.36 -719.23Z" fill="#50EED7"/>
</g>
<g opacity="0.6">
<path d="M4298.99 -711.344C3545.91 -696.258 2947.98 -465.846 2314.91 -221.911C1878.33 -53.6741 1426.88 120.239 897.042 234.34C297.228 363.489 -319.197 394.729 -987.51 329.925L-987.27 326.078C506.151 470.961 1425.07 116.886 2313.74 -225.53C2947.05 -469.542 3545.26 -700.067 4298.85 -715.154L4298.99 -711.268V-711.344Z" fill="#50EED7"/>
</g>
<g opacity="0.7">
<path d="M4302.65 -703.496C3553.17 -678.504 2941.51 -440.207 2293.95 -187.89C1850.89 -15.2722 1392.77 163.251 867.827 280.59C274.35 413.282 -324.437 446.998 -962.713 383.681L-962.473 379.833C463.202 521.287 1393.32 158.908 2292.78 -191.547C2940.61 -443.94 3552.52 -682.39 4302.52 -707.382L4302.69 -703.496H4302.65Z" fill="#50EED7"/>
</g>
<g opacity="0.6">
<path d="M4306.28 -695.61C3560.26 -660.713 2934.72 -414.415 2272.47 -153.603C1823.05 23.3962 1358.28 206.415 838.304 327.03C251.231 463.227 -329.814 499.381 -937.984 437.55L-937.745 433.702C420.082 571.727 1361.16 201.157 2271.27 -157.26C2933.76 -418.149 3559.54 -664.561 4306.05 -699.458L4306.25 -695.572L4306.28 -695.61Z" fill="#50EED7"/>
</g>
<g opacity="0.9">
<path d="M4309.92 -687.762C3567.18 -642.96 2927.6 -388.509 2250.49 -119.163C1329.58 247.178 377.339 626.016 -913.222 491.342L-912.982 487.495C376.825 622.092 1328.72 243.407 2249.29 -122.82C2926.64 -392.281 3566.42 -646.77 4309.64 -691.648L4309.88 -687.762H4309.92Z" fill="#50EED7"/>
</g>
</g>
<g filter="url(#filter0_d_1835_1062)">
<g opacity="0.8">
<path d="M884.096 196.548C290.687 314.877 -330.122 340.898 -1012.24 276.056L-1012 272.209C-257.341 343.869 354.186 296.477 879.13 192.357L884.13 196.548H884.096Z" fill="#50EED7"/>
</g>
<g opacity="0.6">
<path d="M1752.43 -15.729C1019.45 242.15 196.637 440.826 -987.236 326.04L-987.476 329.888C-319.197 394.691 297.262 363.451 897.076 234.34C1205.7 167.899 1487.71 81.1518 1755.68 -13.0241L1752.43 -15.729Z" fill="#50EED7"/>
</g>
<g opacity="0.7">
<path d="M2588.63 -301.762C2490.85 -264.618 2392.79 -226.406 2293.95 -187.89C1850.89 -15.2342 1392.74 163.213 867.827 280.59C274.35 413.282 -324.437 447.036 -962.713 383.68L-962.473 379.833C463.202 521.249 1393.28 158.87 2292.78 -191.547C2390.91 -229.759 2488.21 -267.704 2585.27 -304.582L2588.63 -301.762Z" fill="#50EED7"/>
</g>
<g opacity="0.6">
<path d="M3433.02 -562.194C3037.16 -458.913 2660.59 -310.601 2271.31 -157.298C1361.19 201.119 420.082 571.69 -937.745 433.664L-937.95 437.55C-329.779 499.343 251.265 463.189 838.338 326.992C1358.32 206.415 1823.05 23.3962 2272.51 -153.641C2662.58 -307.248 3039.9 -455.827 3436.65 -559.146L3433.02 -562.156V-562.194Z" fill="#50EED7"/>
</g>
<g opacity="0.9">
<path d="M4310.67 -687.8C3567.93 -642.998 2927.6 -388.509 2250.52 -119.163C1329.61 247.179 378.434 626.13 -912.126 491.457L-913.976 487.419C375.831 622.016 1328.79 243.407 2249.35 -122.82C2926.71 -392.281 3565.74 -646.731 4308.99 -691.572L4310.74 -687.8H4310.67Z" fill="#50EED7"/>
</g>
</g>
</g>
</g>
<defs>
<filter id="filter0_d_1835_1062" x="-1067" y="-721.572" width="5407.74" height="1270.84" filterUnits="userSpaceOnUse" color-interpolation-filters="sRGB">
<feFlood flood-opacity="0" result="BackgroundImageFix"/>
<feColorMatrix in="SourceAlpha" type="matrix" values="0 0 0 0 0 0 0 0 0 0 0 0 0 0 0 0 0 0 127 0" result="hardAlpha"/>
<feOffset/>
<feGaussianBlur stdDeviation="15"/>
<feColorMatrix type="matrix" values="0 0 0 0 0 0 0 0 0 1 0 0 0 0 0.807843 0 0 0 0.7 0"/>
<feBlend mode="normal" in2="BackgroundImageFix" result="effect1_dropShadow_1835_1062"/>
<feBlend mode="normal" in="SourceGraphic" in2="effect1_dropShadow_1835_1062" result="shape"/>
</filter>
<clipPath id="clip0_1835_1062">
<rect width="1440" height="519" fill="white"/>
</clipPath>
</defs>
</svg>
